<svg xmlns="http://www.w3.org/2000/svg" xmlns:xlink="http://www.w3.org/1999/xlink" width="44.226" height="77.019" viewBox="0 0 44.226 77.019">
  <defs>
    <style>
      .cls-1 {
        stroke: rgba(0,0,0,0);
        fill: url(#linear-gradient);
      }
    </style>
    <linearGradient id="linear-gradient" x1="3.474" y1="-4.6" x2="-2.098" y2="-2.639" gradientUnits="objectBoundingBox">
      <stop offset="0" stop-color="#4f6a7b"/>
      <stop offset="1" stop-color="#53c6e2"/>
    </linearGradient>
  </defs>
  <g id="aboutIcon1" transform="translate(0.5 0.5)">
    <g id="Сгруппировать_3242" data-name="Сгруппировать 3242" transform="translate(0 0)">
      <path id="Контур_13861" data-name="Контур 13861" class="cls-1" d="M813.3,1708H796.547a.95.95,0,1,0,0,1.9H813.3a.95.95,0,0,0,0-1.9Z" transform="translate(-783.308 -1637.693)"/>
      <path id="Контур_13862" data-name="Контур 13862" class="cls-1" d="M564.186,166.807H531.478a5.264,5.264,0,0,0-5.259,5.258v65.5a5.264,5.264,0,0,0,5.259,5.258h32.708a5.264,5.264,0,0,0,5.259-5.258v-65.5A5.264,5.264,0,0,0,564.186,166.807Zm3.359,70.761a3.363,3.363,0,0,1-3.359,3.359H531.478a3.363,3.363,0,0,1-3.359-3.359v-65.5a3.363,3.363,0,0,1,3.359-3.359h3.767a.486.486,0,0,1,.487.487,2.486,2.486,0,0,0,2.483,2.483H557.45a2.486,2.486,0,0,0,2.483-2.483.486.486,0,0,1,.487-.487h3.767a3.363,3.363,0,0,1,3.359,3.359Z" transform="translate(-526.219 -166.807)"/>
    </g>
    <path id="Контур_13863" data-name="Контур 13863" class="cls-1" d="M914.91,744.354l1.856,1.856V731.468a.771.771,0,0,1,1.541,0V746.21l1.856-1.856a.771.771,0,0,1,1.09,1.09l-3.17,3.17-.014.014a.769.769,0,0,1-.475.211.749.749,0,0,1-.154,0,.765.765,0,0,1-.408-.182c-.015-.013-.029-.027-.043-.04l-3.168-3.168a.771.771,0,0,1,1.09-1.09Z" transform="translate(-895.923 -704.973)"/>
    <path id="Контур_13864" data-name="Контур 13864" class="cls-1" d="M780.344,935.7a.771.771,0,0,0-.771.771v10.708a2.2,2.2,0,0,1-2.2,2.2h-14.5a2.2,2.2,0,0,1-2.2-2.2V936.474a.771.771,0,0,0-1.541,0v10.708a3.744,3.744,0,0,0,3.74,3.74h14.5a3.744,3.744,0,0,0,3.74-3.74V936.474A.771.771,0,0,0,780.344,935.7Z" transform="translate(-748.513 -900.627)"/>
  </g>
</svg>
