<svg xmlns="http://www.w3.org/2000/svg" xmlns:xlink="http://www.w3.org/1999/xlink" width="66.048" height="77.019" viewBox="0 0 66.048 77.019">
  <defs>
    <style>
      .cls-1 {
        stroke: rgba(0,0,0,0);
        fill: url(#linear-gradient);
      }
    </style>
    <linearGradient id="linear-gradient" x1="3.474" y1="-4.6" x2="-2.098" y2="-2.639" gradientUnits="objectBoundingBox">
      <stop offset="0" stop-color="#4f6a7b"/>
      <stop offset="1" stop-color="#53c6e2"/>
    </linearGradient>
  </defs>
  <g id="aboutIcon2" transform="translate(0.5 0.5)">
    <g id="Сгруппировать_3242" data-name="Сгруппировать 3242" transform="translate(0 0)">
      <path id="Контур_13861" data-name="Контур 13861" class="cls-1" d="M813.3,1708H796.547a.95.95,0,1,0,0,1.9H813.3a.95.95,0,0,0,0-1.9Z" transform="translate(-783.308 -1637.693)"/>
      <path id="Контур_13862" data-name="Контур 13862" class="cls-1" d="M564.186,166.807H531.478a5.264,5.264,0,0,0-5.259,5.258v65.5a5.264,5.264,0,0,0,5.259,5.258h32.708a5.264,5.264,0,0,0,5.259-5.258v-65.5A5.264,5.264,0,0,0,564.186,166.807Zm3.359,70.761a3.363,3.363,0,0,1-3.359,3.359H531.478a3.363,3.363,0,0,1-3.359-3.359v-65.5a3.363,3.363,0,0,1,3.359-3.359h3.767a.486.486,0,0,1,.487.487,2.486,2.486,0,0,0,2.483,2.483H557.45a2.486,2.486,0,0,0,2.483-2.483.486.486,0,0,1,.487-.487h3.767a3.363,3.363,0,0,1,3.359,3.359Z" transform="translate(-526.219 -166.807)"/>
    </g>
    <g id="Сгруппировать_3256" data-name="Сгруппировать 3256" transform="translate(20.48 20.033)">
      <g id="Сгруппировать_3249" data-name="Сгруппировать 3249" transform="translate(0)">
        <g id="Сгруппировать_3245" data-name="Сгруппировать 3245" transform="translate(0 0)">
          <path id="Контур_13865" data-name="Контур 13865" class="cls-1" d="M483.525,277.794h-35.28a4.617,4.617,0,0,1-4.612-4.612v-29a4.6,4.6,0,0,1-.057-.515h-.006v-.245h.006a4.618,4.618,0,0,1,4.606-4.367h16.4v1.466h-16.4a3.15,3.15,0,0,0-3.144,3.023c0,.018,0,.035,0,.053h.058v.451a3.176,3.176,0,0,0,3.115,2.521h35.312a4.617,4.617,0,0,1,4.612,4.612v22A4.617,4.617,0,0,1,483.525,277.794ZM445.1,246.837v26.345a3.15,3.15,0,0,0,3.146,3.146h35.28a3.15,3.15,0,0,0,3.146-3.146v-22a3.15,3.15,0,0,0-3.146-3.146H448.214A4.643,4.643,0,0,1,445.1,246.837Z" transform="translate(-443.57 -239.052)"/>
        </g>
        <g id="Сгруппировать_3246" data-name="Сгруппировать 3246" transform="translate(4.899 3.809)">
          <rect id="Прямоугольник_898" data-name="Прямоугольник 898" class="cls-1" width="16.109" height="1.466"/>
        </g>
        <g id="Сгруппировать_3247" data-name="Сгруппировать 3247" transform="translate(30.46 16.596)">
          <path id="Контур_13866" data-name="Контур 13866" class="cls-1" d="M706.324,387.177h-8.763a4.617,4.617,0,0,1-4.612-4.612v-3.03a4.617,4.617,0,0,1,4.612-4.612h8.763v1.466h-8.763a3.15,3.15,0,0,0-3.146,3.146v3.03a3.15,3.15,0,0,0,3.146,3.146h8.763Z" transform="translate(-692.949 -374.923)"/>
        </g>
        <g id="Сгруппировать_3248" data-name="Сгруппировать 3248" transform="translate(33.834 19.927)">
          <path id="Контур_13867" data-name="Контур 13867" class="cls-1" d="M723.1,407.255a2.529,2.529,0,1,1,2.529-2.529A2.532,2.532,0,0,1,723.1,407.255Zm0-3.592a1.063,1.063,0,1,0,1.063,1.063A1.065,1.065,0,0,0,723.1,403.663Z" transform="translate(-720.573 -402.197)"/>
        </g>
      </g>
    </g>
  </g>
</svg>
