<svg id="burger" xmlns="http://www.w3.org/2000/svg" width="38.782" height="28.009" viewBox="0 0 38.782 28.009">
  <path id="Контур_13871" data-name="Контур 13871" d="M37.166,125.9H1.616a1.616,1.616,0,0,1,0-3.232h35.55a1.616,1.616,0,0,1,0,3.232Zm0,0" transform="translate(0 -110.279)" fill="#53c6e2"/>
  <path id="Контур_13872" data-name="Контур 13872" d="M37.166,3.232H1.616A1.616,1.616,0,0,1,1.616,0h35.55a1.616,1.616,0,0,1,0,3.232Zm0,0" fill="#53c6e2"/>
  <path id="Контур_13873" data-name="Контур 13873" d="M37.166,248.564H1.616a1.616,1.616,0,1,1,0-3.232h35.55a1.616,1.616,0,1,1,0,3.232Zm0,0" transform="translate(0 -220.555)" fill="#53c6e2"/>
</svg>
