<svg xmlns="http://www.w3.org/2000/svg" xmlns:xlink="http://www.w3.org/1999/xlink" width="368.552" height="225.089" viewBox="0 0 368.552 225.089">
  <defs>
    <filter id="Прямоугольник_851" x="0" y="58.983" width="245.477" height="166.106" filterUnits="userSpaceOnUse">
      <feOffset dx="5" dy="5" input="SourceAlpha"/>
      <feGaussianBlur stdDeviation="5" result="blur"/>
      <feFlood flood-opacity="0.22"/>
      <feComposite operator="in" in2="blur"/>
      <feComposite in="SourceGraphic"/>
    </filter>
    <filter id="Прямоугольник_851-2" x="107.386" y="0" width="261.166" height="176.017" filterUnits="userSpaceOnUse">
      <feOffset dx="5" dy="5" input="SourceAlpha"/>
      <feGaussianBlur stdDeviation="5" result="blur-2"/>
      <feFlood flood-opacity="0.22"/>
      <feComposite operator="in" in2="blur-2"/>
      <feComposite in="SourceGraphic"/>
    </filter>
  </defs>
  <g id="cashback" transform="translate(-318.093 -4319.377)">
    <g id="Сгруппировать_3043" data-name="Сгруппировать 3043" transform="translate(328.093 4347.717)">
      <g id="Сгруппировать_2975" data-name="Сгруппировать 2975" transform="translate(0 40.644)">
        <g id="Сгруппировать_2976" data-name="Сгруппировать 2976" transform="translate(0 0)">
          <g id="Сгруппировать_2965" data-name="Сгруппировать 2965">
            <g transform="matrix(1, 0, 0, 1, -10, -68.98)" filter="url(#Прямоугольник_851)">
              <rect id="Прямоугольник_851-3" data-name="Прямоугольник 851" width="215.477" height="136.106" rx="5" transform="translate(10 68.98)" fill="#fff"/>
            </g>
            <g id="uzcard-logo-1" transform="translate(27.382 21.281)">
              <path id="Path_217" data-name="Path 217" d="M600.381-514.62q0,6.1-2.788,9.078t-8.6,2.963q-5.425,0-8.231-2.963t-2.806-8.939v-13.367a.57.57,0,0,1,.568-.568h6.558a.569.569,0,0,1,.568.568v13.657a6.546,6.546,0,0,0,.913,3.762,3,3,0,0,0,2.619,1.318,3.025,3.025,0,0,0,2.612-1.24,6.215,6.215,0,0,0,.9-3.665v-2.557h7.693Z" transform="translate(-577.955 528.415)" fill="#2c479f" fill-rule="evenodd"/>
              <path id="Path_218" data-name="Path 218" d="M714.086-518.065h-7.1v-9.756a.6.6,0,0,1,.595-.595h1.062a6.034,6.034,0,0,0,6.035,6.03h0v4.32Z" transform="translate(-692.256 528.415)" fill="#2c479f" fill-rule="evenodd"/>
              <path id="Path_219" data-name="Path 219" d="M734.747-528.415h3.929a.6.6,0,0,1,.595.595v3.934a4.524,4.524,0,0,1-4.524-4.524Z" transform="translate(-716.845 528.415)" fill="#eb6e00" fill-rule="evenodd"/>
              <path id="Path_220" data-name="Path 220" d="M579.246-268.181a1.131,1.131,0,0,0,1.287-1.193v-1.711h-.62v1.694a.615.615,0,0,1-.667.671.618.618,0,0,1-.672-.671v-1.694h-.616v1.715A1.131,1.131,0,0,0,579.246-268.181Zm5.037-.051v-.535h-1.377l1.347-1.831v-.488H582.11v.535h1.347l-1.347,1.826v.492Zm2.9.051a1.313,1.313,0,0,0,1.193-.7l-.522-.252a.765.765,0,0,1-.671.415.888.888,0,0,1-.894-.936.888.888,0,0,1,.894-.936.773.773,0,0,1,.671.415l.522-.257a1.306,1.306,0,0,0-1.193-.7,1.45,1.45,0,0,0-1.518,1.476A1.449,1.449,0,0,0,587.186-268.181Zm5.306-.051-1.1-2.853h-.761l-1.1,2.853h.693l.179-.483h1.223l.175.483Zm-1.035-1.018h-.89l.445-1.228Zm5.134,1.733-1.047-1.8a.818.818,0,0,0,.624-.847.888.888,0,0,0-.958-.92h-1.334v2.853h.607v-1.014h.445l.965,1.728Zm-1.47-2.263h-.637v-.77h.637a.387.387,0,0,1,.427.385A.387.387,0,0,1,595.121-269.781Zm3.749,1.548a1.4,1.4,0,0,0,1.514-1.424,1.4,1.4,0,0,0-1.514-1.429h-1.125v2.853Zm0-.535h-.518v-1.783h.518a.835.835,0,0,1,.894.894.854.854,0,0,1-.251.642.854.854,0,0,1-.643.248Z" transform="translate(-577.959 300.507)" fill="#2c479f" fill-rule="evenodd"/>
            </g>
          </g>
          <g id="Сгруппировать_2969" data-name="Сгруппировать 2969" transform="translate(25.18 66.807)" opacity="0.5">
            <g id="Сгруппировать_2966" data-name="Сгруппировать 2966" transform="translate(0 0)">
              <path id="Контур_13646" data-name="Контур 13646" d="M1223.183,690.36a1.912,1.912,0,1,1-1.912-1.912A1.912,1.912,0,0,1,1223.183,690.36Z" transform="translate(-1219.359 -688.448)"/>
              <ellipse id="Эллипс_94" data-name="Эллипс 94" cx="1.912" cy="1.912" rx="1.912" ry="1.912" transform="translate(6.592)"/>
              <ellipse id="Эллипс_95" data-name="Эллипс 95" cx="1.912" cy="1.912" rx="1.912" ry="1.912" transform="translate(13.184)"/>
              <ellipse id="Эллипс_96" data-name="Эллипс 96" cx="1.912" cy="1.912" rx="1.912" ry="1.912" transform="translate(19.777)"/>
            </g>
            <g id="Сгруппировать_2967" data-name="Сгруппировать 2967" transform="translate(48.681 0)">
              <ellipse id="Эллипс_97" data-name="Эллипс 97" cx="1.912" cy="1.912" rx="1.912" ry="1.912"/>
              <ellipse id="Эллипс_98" data-name="Эллипс 98" cx="1.912" cy="1.912" rx="1.912" ry="1.912" transform="translate(6.592)"/>
              <ellipse id="Эллипс_99" data-name="Эллипс 99" cx="1.912" cy="1.912" rx="1.912" ry="1.912" transform="translate(13.184)"/>
              <ellipse id="Эллипс_100" data-name="Эллипс 100" cx="1.912" cy="1.912" rx="1.912" ry="1.912" transform="translate(19.777)"/>
            </g>
            <g id="Сгруппировать_2968" data-name="Сгруппировать 2968" transform="translate(97.363 0)">
              <ellipse id="Эллипс_101" data-name="Эллипс 101" cx="1.912" cy="1.912" rx="1.912" ry="1.912"/>
              <ellipse id="Эллипс_102" data-name="Эллипс 102" cx="1.912" cy="1.912" rx="1.912" ry="1.912" transform="translate(6.592)"/>
              <ellipse id="Эллипс_103" data-name="Эллипс 103" cx="1.912" cy="1.912" rx="1.912" ry="1.912" transform="translate(13.184)"/>
              <ellipse id="Эллипс_104" data-name="Эллипс 104" cx="1.912" cy="1.912" rx="1.912" ry="1.912" transform="translate(19.777)"/>
            </g>
          </g>
          <g id="Сгруппировать_2970" data-name="Сгруппировать 2970" transform="translate(170.87 64.183)">
            <path id="Контур_13647" data-name="Контур 13647" d="M1727.718,686.813h4.034v-.206a.394.394,0,0,1,.075-.269.253.253,0,0,1,.194-.081.245.245,0,0,1,.188.081.391.391,0,0,1,.075.269v.732h-5.079v-.776q1.6-1.438,3.115-2.927a13.827,13.827,0,0,0,.969-1.02,2.287,2.287,0,0,0,.36-.572,1.351,1.351,0,0,0,.1-.5,1.6,1.6,0,0,0-.544-1.194,1.833,1.833,0,0,0-1.313-.519,2,2,0,0,0-1.22.394,1.773,1.773,0,0,0-.688.976.358.358,0,0,1-.094.194.264.264,0,0,1-.175.063.241.241,0,0,1-.178-.072.233.233,0,0,1-.072-.172,1.68,1.68,0,0,1,.328-.813,2.275,2.275,0,0,1,.907-.806,2.584,2.584,0,0,1,1.185-.294,2.349,2.349,0,0,1,1.689.682,2.1,2.1,0,0,1,.707,1.545,1.812,1.812,0,0,1-.119.666,2.676,2.676,0,0,1-.4.663,13.407,13.407,0,0,1-1.023,1.085q-1.851,1.827-3.015,2.834Z" transform="translate(-1727.205 -679.301)"/>
            <path id="Контур_13648" data-name="Контур 13648" d="M1758.229,683.066a2.549,2.549,0,0,1,1.107.891,2.078,2.078,0,0,1,.382,1.179,2.231,2.231,0,0,1-.766,1.667,2.685,2.685,0,0,1-1.917.723,3.794,3.794,0,0,1-1.4-.288,2.923,2.923,0,0,1-1.013-.588.306.306,0,0,1-.094-.213.247.247,0,0,1,.072-.175.231.231,0,0,1,.172-.075.388.388,0,0,1,.225.094,3.389,3.389,0,0,0,2.051.719,2.162,2.162,0,0,0,1.53-.573,1.71,1.71,0,0,0,.616-1.273,1.627,1.627,0,0,0-.3-.92,2.039,2.039,0,0,0-.872-.71,2.753,2.753,0,0,0-1.151-.26.4.4,0,0,1-.269-.072.243.243,0,0,1-.081-.191.248.248,0,0,1,.078-.188.325.325,0,0,1,.234-.075l.451.006a1.636,1.636,0,0,0,1.166-.432,1.333,1.333,0,0,0,.46-1,1.385,1.385,0,0,0-.482-1.039,1.767,1.767,0,0,0-1.257-.45,2.605,2.605,0,0,0-1,.188,1.877,1.877,0,0,0-.732.513.623.623,0,0,1-.153.153.269.269,0,0,1-.3-.044.23.23,0,0,1-.075-.172q0-.251.544-.632a2.916,2.916,0,0,1,1.72-.532,2.293,2.293,0,0,1,1.633.6,1.883,1.883,0,0,1,.638,1.423,1.792,1.792,0,0,1-.306.995A2.129,2.129,0,0,1,1758.229,683.066Z" transform="translate(-1746.688 -679.301)"/>
            <path id="Контур_13649" data-name="Контур 13649" d="M1785.585,683.267a2.365,2.365,0,0,1,.991.841,2.044,2.044,0,0,1,.335,1.123,2.177,2.177,0,0,1-.7,1.614,2.464,2.464,0,0,1-3.4,0,2.176,2.176,0,0,1-.7-1.614,2.035,2.035,0,0,1,.334-1.116,2.4,2.4,0,0,1,1-.848,2.7,2.7,0,0,1-.838-.688,1.879,1.879,0,0,1-.363-1.12,2.042,2.042,0,0,1,.666-1.511,2.316,2.316,0,0,1,3.211,0,2.047,2.047,0,0,1,.663,1.511,1.854,1.854,0,0,1-.363,1.113A2.577,2.577,0,0,1,1785.585,683.267Zm.8,1.977a1.616,1.616,0,0,0-.538-1.207,2,2,0,0,0-2.677,0,1.61,1.61,0,0,0-.538,1.2,1.669,1.669,0,0,0,.541,1.238,1.959,1.959,0,0,0,2.671,0A1.663,1.663,0,0,0,1786.385,685.243Zm-.143-3.766a1.556,1.556,0,0,0-.5-1.16,1.8,1.8,0,0,0-2.465,0,1.551,1.551,0,0,0-.5,1.151,1.417,1.417,0,0,0,.5,1.073,1.9,1.9,0,0,0,2.477,0A1.413,1.413,0,0,0,1786.242,681.478Z" transform="translate(-1766.357 -679.301)"/>
            <path id="Контур_13650" data-name="Контур 13650" d="M1814.142,682.9a3.021,3.021,0,0,1-.967,1.082,2.084,2.084,0,0,1-1.148.363,1.99,1.99,0,0,1-1.054-.313,2.175,2.175,0,0,1-.81-.916,2.8,2.8,0,0,1-.3-1.267,2.845,2.845,0,0,1,.6-1.755,1.9,1.9,0,0,1,1.6-.791,2.109,2.109,0,0,1,1.3.444,2.844,2.844,0,0,1,.913,1.289,6.939,6.939,0,0,1,.419,2.514,4.239,4.239,0,0,1-.357,1.851,3.583,3.583,0,0,1-.7.969,3.964,3.964,0,0,1-1.035.763,3.624,3.624,0,0,1-1.639.394,1.776,1.776,0,0,1-.92-.213.291.291,0,0,1-.163-.25.238.238,0,0,1,.075-.178.254.254,0,0,1,.182-.072.567.567,0,0,1,.219.069,1.277,1.277,0,0,0,.563.119,3.119,3.119,0,0,0,2.289-.96,3.269,3.269,0,0,0,.957-2.405Q1814.167,683.373,1814.142,682.9Zm-.1-.876a3.682,3.682,0,0,0-.822-1.729,1.627,1.627,0,0,0-1.148-.46,1.541,1.541,0,0,0-1.176.563,2.076,2.076,0,0,0-.507,1.445,2.03,2.03,0,0,0,.507,1.417,1.515,1.515,0,0,0,1.145.56,1.486,1.486,0,0,0,.729-.2,2.344,2.344,0,0,0,.679-.6A8.168,8.168,0,0,0,1814.041,682.022Z" transform="translate(-1786.151 -679.301)"/>
          </g>
          <g id="Сгруппировать_2971" data-name="Сгруппировать 2971" transform="translate(25.18 90.386)">
            <path id="Контур_13651" data-name="Контур 13651" d="M1223,772.1v-.25a.275.275,0,0,1,.048-.182.179.179,0,0,1,.259,0,.273.273,0,0,1,.049.182v.99a.28.28,0,0,1-.049.187.164.164,0,0,1-.13.055.16.16,0,0,1-.121-.051.259.259,0,0,1-.057-.166.858.858,0,0,0-.386-.633,1.793,1.793,0,0,0-1.121-.378,1.714,1.714,0,0,0-.777.182,1.3,1.3,0,0,0-.434.323,2.745,2.745,0,0,0-.445.734,1.8,1.8,0,0,0-.119.671v.624a1.916,1.916,0,0,0,.578,1.386,1.826,1.826,0,0,0,1.342.588,1.677,1.677,0,0,0,.822-.2,2.539,2.539,0,0,0,.7-.6.205.205,0,0,1,.161-.089.169.169,0,0,1,.123.046.162.162,0,0,1,.047.119q0,.1-.183.3a2.348,2.348,0,0,1-.783.588,2.11,2.11,0,0,1-.881.2,2.245,2.245,0,0,1-.786-.148,1.958,1.958,0,0,1-.505-.268,3.142,3.142,0,0,1-.49-.516,2.335,2.335,0,0,1-.4-.671,2.065,2.065,0,0,1-.106-.677v-.726a2.347,2.347,0,0,1,.282-1.077,2.055,2.055,0,0,1,.773-.845,2.027,2.027,0,0,1,1.064-.3A2.137,2.137,0,0,1,1223,772.1Z" transform="translate(-1219.359 -771.253)"/>
            <path id="Контур_13652" data-name="Контур 13652" d="M1240.823,779.758v-.514a2.537,2.537,0,0,1-1.66.654,1.444,1.444,0,0,1-1-.324,1.031,1.031,0,0,1-.362-.8,1.142,1.142,0,0,1,.476-.9,2.16,2.16,0,0,1,1.388-.386,4.815,4.815,0,0,1,.535.032q.289.032.624.1v-.577a.638.638,0,0,0-.272-.51,1.29,1.29,0,0,0-.815-.216,4.114,4.114,0,0,0-1.168.242.8.8,0,0,1-.174.043.156.156,0,0,1-.117-.051.176.176,0,0,1-.049-.127.158.158,0,0,1,.042-.115,1.468,1.468,0,0,1,.48-.174,4.226,4.226,0,0,1,1-.178,1.538,1.538,0,0,1,1.053.333.988.988,0,0,1,.378.754V779.4h.475a.281.281,0,0,1,.187.049.164.164,0,0,1,.055.129.167.167,0,0,1-.055.128.275.275,0,0,1-.187.051Zm0-1.775a3.385,3.385,0,0,0-.531-.106,4.936,4.936,0,0,0-.591-.034,1.948,1.948,0,0,0-1.214.336.734.734,0,0,0-.332.6.694.694,0,0,0,.253.543,1.089,1.089,0,0,0,.737.221,2.012,2.012,0,0,0,.86-.185,3.077,3.077,0,0,0,.817-.588Z" transform="translate(-1232.509 -774.43)"/>
            <path id="Контур_13653" data-name="Контур 13653" d="M1257.847,776.176v.9a5.975,5.975,0,0,1,1.042-.809,1.4,1.4,0,0,1,.639-.181.941.941,0,0,1,.593.215q.274.214.274.325a.182.182,0,0,1-.187.187.157.157,0,0,1-.072-.015.617.617,0,0,1-.11-.1,1.067,1.067,0,0,0-.259-.2.484.484,0,0,0-.217-.055,1.191,1.191,0,0,0-.563.187,8.381,8.381,0,0,0-1.14.913V779.5h1.58a.281.281,0,0,1,.187.049.166.166,0,0,1,.055.129.169.169,0,0,1-.055.128.275.275,0,0,1-.187.051h-2.8a.271.271,0,0,1-.183-.049.16.16,0,0,1-.055-.125.157.157,0,0,1,.053-.121.272.272,0,0,1,.184-.048h.862v-2.972h-.658a.269.269,0,0,1-.183-.051.172.172,0,0,1-.055-.131.168.168,0,0,1,.053-.128.265.265,0,0,1,.185-.051Z" transform="translate(-1245.767 -774.525)"/>
            <path id="Контур_13654" data-name="Контур 13654" d="M1277.735,770.641v4.972h.476a.283.283,0,0,1,.187.049.165.165,0,0,1,.055.129.167.167,0,0,1-.055.128.275.275,0,0,1-.187.051h-.836v-.709a1.877,1.877,0,0,1-1.575.849,1.86,1.86,0,0,1-1.628-.989,2,2,0,0,1,0-1.964,1.844,1.844,0,0,1,.7-.732,1.822,1.822,0,0,1,.932-.259,1.9,1.9,0,0,1,1.571.85V771h-.475a.273.273,0,0,1-.187-.051.17.17,0,0,1-.055-.131.166.166,0,0,1,.055-.128.273.273,0,0,1,.187-.051Zm-.361,3.5a1.574,1.574,0,0,0-.458-1.146,1.514,1.514,0,0,0-2.187,0,1.659,1.659,0,0,0,0,2.291,1.509,1.509,0,0,0,2.187,0A1.576,1.576,0,0,0,1277.375,774.139Z" transform="translate(-1258.264 -770.641)"/>
            <path id="Контур_13655" data-name="Контур 13655" d="M1313.375,774.463h-2.365v2.047h.48a.272.272,0,0,1,.182.049.163.163,0,0,1,.055.129.165.165,0,0,1-.055.128.265.265,0,0,1-.182.051h-1.24a.265.265,0,0,1-.182-.051.166.166,0,0,1-.055-.128.164.164,0,0,1,.055-.129.272.272,0,0,1,.182-.049h.4v-4.254h-.221a.282.282,0,0,1-.187-.049.179.179,0,0,1,0-.259.281.281,0,0,1,.187-.049h1.057a.274.274,0,0,1,.182.049.179.179,0,0,1,0,.259.274.274,0,0,1-.182.049h-.48v1.851h2.365v-1.851h-.476a.274.274,0,0,1-.182-.049.164.164,0,0,1-.056-.129.168.168,0,0,1,.053-.129.272.272,0,0,1,.184-.049h1.058a.282.282,0,0,1,.187.049.179.179,0,0,1,0,.259.283.283,0,0,1-.187.049h-.221v4.254h.4a.273.273,0,0,1,.182.049.164.164,0,0,1,.055.129.166.166,0,0,1-.055.128.266.266,0,0,1-.182.051h-1.24a.265.265,0,0,1-.182-.051.178.178,0,0,1,0-.257.27.27,0,0,1,.184-.049h.476Z" transform="translate(-1284.006 -771.537)"/>
            <path id="Контур_13656" data-name="Контур 13656" d="M1332.752,777.928a1.887,1.887,0,0,1-.583,1.393,2.01,2.01,0,0,1-2.822,0,1.958,1.958,0,0,1,0-2.785,2.01,2.01,0,0,1,2.822,0A1.893,1.893,0,0,1,1332.752,777.928Zm-.361,0a1.545,1.545,0,0,0-.478-1.142,1.655,1.655,0,0,0-2.314,0,1.6,1.6,0,0,0,0,2.278,1.649,1.649,0,0,0,2.314,0A1.547,1.547,0,0,0,1332.391,777.928Z" transform="translate(-1297.379 -774.43)"/>
            <path id="Контур_13657" data-name="Контур 13657" d="M1349.572,770.641v4.972h1.4a.28.28,0,0,1,.187.049.163.163,0,0,1,.056.129.165.165,0,0,1-.056.128.273.273,0,0,1-.187.051h-3.159a.267.267,0,0,1-.183-.051.167.167,0,0,1-.055-.128.165.165,0,0,1,.055-.129.274.274,0,0,1,.183-.049h1.4V771h-1.027a.276.276,0,0,1-.185-.051.168.168,0,0,1-.057-.131.165.165,0,0,1,.055-.128.272.272,0,0,1,.187-.051Z" transform="translate(-1310.793 -770.641)"/>
            <path id="Контур_13658" data-name="Контур 13658" d="M1368.685,770.641v4.972h.475a.28.28,0,0,1,.187.049.163.163,0,0,1,.055.129.165.165,0,0,1-.055.128.272.272,0,0,1-.187.051h-.836v-.709a1.878,1.878,0,0,1-1.575.849,1.86,1.86,0,0,1-1.628-.989,2.006,2.006,0,0,1,0-1.964,1.85,1.85,0,0,1,.7-.732,1.824,1.824,0,0,1,.932-.259,1.9,1.9,0,0,1,1.571.85V771h-.476a.273.273,0,0,1-.187-.051.171.171,0,0,1-.056-.131.166.166,0,0,1,.056-.128.273.273,0,0,1,.187-.051Zm-.361,3.5a1.572,1.572,0,0,0-.459-1.146,1.514,1.514,0,0,0-2.187,0,1.66,1.66,0,0,0,0,2.291,1.509,1.509,0,0,0,2.187,0A1.575,1.575,0,0,0,1368.324,774.139Z" transform="translate(-1323.121 -770.641)"/>
            <path id="Контур_13659" data-name="Контур 13659" d="M1387.079,778h-3.635a1.729,1.729,0,0,0,.58,1.115,1.771,1.771,0,0,0,1.2.422,2.906,2.906,0,0,0,.837-.132,2.147,2.147,0,0,0,.713-.348.242.242,0,0,1,.14-.063.158.158,0,0,1,.119.053.174.174,0,0,1,.051.125.2.2,0,0,1-.068.14,1.91,1.91,0,0,1-.724.4,3.17,3.17,0,0,1-1.068.184,2.1,2.1,0,0,1-1.531-.6,1.96,1.96,0,0,1-.614-1.454,1.789,1.789,0,0,1,.575-1.333,1.969,1.969,0,0,1,1.425-.556,1.937,1.937,0,0,1,1.44.571A1.987,1.987,0,0,1,1387.079,778Zm-.361-.361a1.552,1.552,0,0,0-.558-.959,1.758,1.758,0,0,0-2.15,0,1.563,1.563,0,0,0-.561.964Z" transform="translate(-1336.114 -774.43)"/>
            <path id="Контур_13660" data-name="Контур 13660" d="M1403.365,776.176v.9a5.969,5.969,0,0,1,1.043-.809,1.4,1.4,0,0,1,.639-.181.939.939,0,0,1,.592.215q.274.214.273.325a.181.181,0,0,1-.187.187.154.154,0,0,1-.071-.015.592.592,0,0,1-.111-.1,1.07,1.07,0,0,0-.259-.2.484.484,0,0,0-.216-.055,1.188,1.188,0,0,0-.562.187,8.4,8.4,0,0,0-1.141.913V779.5h1.58a.279.279,0,0,1,.187.049.163.163,0,0,1,.056.129.166.166,0,0,1-.056.128.272.272,0,0,1-.187.051h-2.8a.27.27,0,0,1-.182-.049.167.167,0,0,1,0-.246.273.273,0,0,1,.184-.048h.862v-2.972h-.658a.267.267,0,0,1-.183-.051.182.182,0,0,1,0-.259.266.266,0,0,1,.185-.051Z" transform="translate(-1349.54 -774.525)"/>
          </g>
          <g id="Сгруппировать_2972" data-name="Сгруппировать 2972" transform="translate(166.788 90.208)">
            <path id="Контур_13661" data-name="Контур 13661" d="M1714.052,774.467v2.042h2.743v-1.053a.274.274,0,0,1,.049-.183.179.179,0,0,1,.259,0,.273.273,0,0,1,.049.183v1.409h-3.936a.266.266,0,0,1-.183-.051.166.166,0,0,1-.055-.128.164.164,0,0,1,.055-.129.273.273,0,0,1,.183-.049h.48v-4.254h-.48a.276.276,0,0,1-.183-.049.18.18,0,0,1,0-.259.275.275,0,0,1,.183-.049h3.749v1.227a.274.274,0,0,1-.049.182.179.179,0,0,1-.259,0,.273.273,0,0,1-.049-.182v-.87h-2.556v1.855h1.278v-.4a.266.266,0,0,1,.051-.183.172.172,0,0,1,.131-.055.168.168,0,0,1,.128.055.266.266,0,0,1,.051.183v1.164a.265.265,0,0,1-.051.182.166.166,0,0,1-.128.055.17.17,0,0,1-.131-.055.265.265,0,0,1-.051-.182v-.4Z" transform="translate(-1712.978 -771.359)"/>
            <path id="Контур_13662" data-name="Контур 13662" d="M1733.785,778.152l1.635,1.567a.829.829,0,0,1,.2.015.156.156,0,0,1,.075.062.179.179,0,0,1,.031.1.165.165,0,0,1-.055.128.273.273,0,0,1-.186.051h-1.146a.272.272,0,0,1-.187-.051.165.165,0,0,1-.055-.128.162.162,0,0,1,.055-.129.278.278,0,0,1,.187-.049h.59l-1.388-1.329-1.38,1.329h.594a.27.27,0,0,1,.182.049.164.164,0,0,1,.056.129.167.167,0,0,1-.056.128.265.265,0,0,1-.182.051H1731.6a.266.266,0,0,1-.182-.051.166.166,0,0,1-.055-.128.177.177,0,0,1,.031-.1.159.159,0,0,1,.072-.062.809.809,0,0,1,.2-.015l1.635-1.567-1.452-1.393a.627.627,0,0,1-.193-.017.166.166,0,0,1-.072-.064.178.178,0,0,1-.032-.1.167.167,0,0,1,.055-.128.274.274,0,0,1,.187-.051h.973a.266.266,0,0,1,.185.051.177.177,0,0,1,.053.132.171.171,0,0,1-.053.127.266.266,0,0,1-.185.051h-.424l1.2,1.159,1.21-1.159h-.424a.274.274,0,0,1-.185-.051.177.177,0,0,1,0-.259.274.274,0,0,1,.187-.051h.972a.266.266,0,0,1,.182.051.171.171,0,0,1,.055.132.168.168,0,0,1-.032.1.161.161,0,0,1-.072.064.624.624,0,0,1-.193.017Z" transform="translate(-1726.087 -774.568)"/>
            <path id="Контур_13663" data-name="Контур 13663" d="M1749.8,776.081v.65a2.3,2.3,0,0,1,.684-.582,1.806,1.806,0,0,1,.862-.2,1.977,1.977,0,0,1,.972.246,1.726,1.726,0,0,1,.69.686,1.874,1.874,0,0,1,.244.923,1.784,1.784,0,0,1-.55,1.314,1.94,1.94,0,0,1-2.9-.232v2.149h.866a.274.274,0,0,1,.183.049.177.177,0,0,1,0,.257.267.267,0,0,1-.183.051h-1.7a.273.273,0,0,1-.182-.049.179.179,0,0,1,0-.259.272.272,0,0,1,.182-.049h.48v-4.6h-.48a.266.266,0,0,1-.182-.051.171.171,0,0,1-.055-.132.166.166,0,0,1,.055-.128.265.265,0,0,1,.182-.051Zm3.091,1.728a1.425,1.425,0,0,0-.448-1.055,1.586,1.586,0,0,0-2.193,0,1.462,1.462,0,0,0,0,2.11,1.582,1.582,0,0,0,2.191,0A1.429,1.429,0,0,0,1752.887,777.809Z" transform="translate(-1738.468 -774.251)"/>
            <path id="Контур_13664" data-name="Контур 13664" d="M1771.038,771.849v3.32h1.4a.282.282,0,0,1,.187.049.164.164,0,0,1,.055.129.166.166,0,0,1-.055.128.276.276,0,0,1-.187.051h-3.159a.268.268,0,0,1-.183-.051.168.168,0,0,1-.055-.128.165.165,0,0,1,.055-.129.275.275,0,0,1,.183-.049h1.4V772.21h-1.04a.275.275,0,0,1-.185-.051.162.162,0,0,1-.058-.127.172.172,0,0,1,.055-.132.274.274,0,0,1,.187-.051Zm-.013-1.83v.921h-.526v-.921Z" transform="translate(-1752.959 -770.019)"/>
            <path id="Контур_13665" data-name="Контур 13665" d="M1788.423,776.176v.9a5.941,5.941,0,0,1,1.043-.809,1.393,1.393,0,0,1,.639-.181.94.94,0,0,1,.592.215q.274.214.274.325a.181.181,0,0,1-.187.187.154.154,0,0,1-.072-.015.6.6,0,0,1-.11-.1,1.07,1.07,0,0,0-.259-.2.483.483,0,0,0-.216-.055,1.19,1.19,0,0,0-.563.187,8.363,8.363,0,0,0-1.14.913V779.5H1790a.279.279,0,0,1,.187.049.163.163,0,0,1,.055.129.166.166,0,0,1-.055.128.273.273,0,0,1-.187.051h-2.8a.271.271,0,0,1-.183-.049.166.166,0,0,1,0-.246.274.274,0,0,1,.185-.048h.861v-2.972h-.658a.266.266,0,0,1-.182-.051.182.182,0,0,1,0-.259.264.264,0,0,1,.184-.051Z" transform="translate(-1765.741 -774.346)"/>
            <path id="Контур_13666" data-name="Контур 13666" d="M1808.515,778h-3.634a1.729,1.729,0,0,0,.579,1.115,1.771,1.771,0,0,0,1.2.422,2.9,2.9,0,0,0,.837-.132,2.148,2.148,0,0,0,.713-.348.242.242,0,0,1,.14-.063.158.158,0,0,1,.119.053.172.172,0,0,1,.051.125.2.2,0,0,1-.068.14,1.908,1.908,0,0,1-.724.4,3.171,3.171,0,0,1-1.068.184,2.1,2.1,0,0,1-1.531-.6,1.961,1.961,0,0,1-.613-1.454,1.789,1.789,0,0,1,.575-1.333,1.968,1.968,0,0,1,1.425-.556,1.936,1.936,0,0,1,1.439.571A1.985,1.985,0,0,1,1808.515,778Zm-.361-.361a1.556,1.556,0,0,0-.558-.959,1.759,1.759,0,0,0-2.151,0,1.564,1.564,0,0,0-.561.964Z" transform="translate(-1778.258 -774.251)"/>
            <path id="Контур_13667" data-name="Контур 13667" d="M1826.787,776.315a.258.258,0,0,1,.051-.178.166.166,0,0,1,.128-.055.171.171,0,0,1,.132.055.274.274,0,0,1,.051.187v.611a.267.267,0,0,1-.051.182.171.171,0,0,1-.132.055.167.167,0,0,1-.121-.047.232.232,0,0,1-.058-.153.568.568,0,0,0-.263-.42,1.605,1.605,0,0,0-.922-.238,1.55,1.55,0,0,0-.93.242.511.511,0,0,0-.251.408.493.493,0,0,0,.3.425,2.206,2.206,0,0,0,.773.182,5.253,5.253,0,0,1,1.032.183,1.309,1.309,0,0,1,.614.412.918.918,0,0,1,.2.569,1.028,1.028,0,0,1-.437.809,2,2,0,0,1-1.282.354,2.154,2.154,0,0,1-1.384-.429.636.636,0,0,1-.017.187.151.151,0,0,1-.062.072.174.174,0,0,1-.1.03.165.165,0,0,1-.127-.055.262.262,0,0,1-.051-.182v-.735a.274.274,0,0,1,.049-.182.166.166,0,0,1,.13-.055.178.178,0,0,1,.13.053.194.194,0,0,1,.053.142.533.533,0,0,0,.1.327,1.071,1.071,0,0,0,.473.337,2.094,2.094,0,0,0,.8.134,1.7,1.7,0,0,0,1.036-.259.713.713,0,0,0,.34-.548.6.6,0,0,0-.344-.531,2.626,2.626,0,0,0-1.013-.267,4.1,4.1,0,0,1-.953-.179.972.972,0,0,1-.45-.331.789.789,0,0,1-.161-.475.818.818,0,0,1,.45-.728,2.055,2.055,0,0,1,1.074-.27A1.9,1.9,0,0,1,1826.787,776.315Z" transform="translate(-1792.064 -774.251)"/>
          </g>
          <g id="Сгруппировать_2973" data-name="Сгруппировать 2973" transform="translate(25.18 100.603)">
            <path id="Контур_13668" data-name="Контур 13668" d="M1222.637,807.868v3.15a1.526,1.526,0,0,1-.484,1.125,1.591,1.591,0,0,1-1.155.475,1.826,1.826,0,0,1-.792-.184,3.567,3.567,0,0,1-.847-.605v-1.316a.266.266,0,0,1,.051-.182.165.165,0,0,1,.128-.055.171.171,0,0,1,.131.055.267.267,0,0,1,.051.182l0,1.146a2.6,2.6,0,0,0,.648.452,1.48,1.48,0,0,0,.635.151,1.35,1.35,0,0,0,.658-.17,1.213,1.213,0,0,0,.427-.428,1.177,1.177,0,0,0,.193-.646v-3.15h-1.4a.282.282,0,0,1-.187-.049.179.179,0,0,1,0-.259.283.283,0,0,1,.187-.049h2.607a.276.276,0,0,1,.182.049.18.18,0,0,1,0,.259.275.275,0,0,1-.182.049Z" transform="translate(-1219.359 -807.151)"/>
            <path id="Контур_13669" data-name="Контур 13669" d="M1241.151,813.541a1.886,1.886,0,0,1-.584,1.392,2.009,2.009,0,0,1-2.821,0,1.959,1.959,0,0,1,0-2.785,2.009,2.009,0,0,1,2.821,0A1.893,1.893,0,0,1,1241.151,813.541Zm-.361,0a1.546,1.546,0,0,0-.478-1.142,1.654,1.654,0,0,0-2.314,0,1.6,1.6,0,0,0,0,2.278,1.649,1.649,0,0,0,2.314,0A1.547,1.547,0,0,0,1240.79,813.541Z" transform="translate(-1232.056 -810.042)"/>
            <path id="Контур_13670" data-name="Контур 13670" d="M1255.541,806.254v2.2a2.262,2.262,0,0,1,.651-.52,1.585,1.585,0,0,1,.7-.151,1.557,1.557,0,0,1,.707.147,1.243,1.243,0,0,1,.486.45,1.167,1.167,0,0,1,.2.639v2.212h.4a.275.275,0,0,1,.185.049.169.169,0,0,1,.053.129.171.171,0,0,1-.053.128.266.266,0,0,1-.185.051h-1.159a.273.273,0,0,1-.187-.051.168.168,0,0,1-.055-.128.166.166,0,0,1,.055-.129.283.283,0,0,1,.187-.049h.4v-2.187a.847.847,0,0,0-.278-.645,1.092,1.092,0,0,0-.775-.259,1.14,1.14,0,0,0-.667.191,4.7,4.7,0,0,0-.658.641v2.259h.4a.275.275,0,0,1,.183.049.166.166,0,0,1,.056.129.168.168,0,0,1-.056.128.266.266,0,0,1-.183.051h-1.163a.267.267,0,0,1-.182-.051.167.167,0,0,1-.055-.128.165.165,0,0,1,.055-.129.276.276,0,0,1,.182-.049h.4v-4.611h-.48a.265.265,0,0,1-.183-.051.17.17,0,0,1-.055-.131.165.165,0,0,1,.055-.128.266.266,0,0,1,.183-.051Z" transform="translate(-1244.396 -806.254)"/>
            <path id="Контур_13671" data-name="Контур 13671" d="M1273.994,811.694v.539a2.578,2.578,0,0,1,.675-.522,1.552,1.552,0,0,1,.679-.145,1.588,1.588,0,0,1,.743.174,1.222,1.222,0,0,1,.431.422,1.094,1.094,0,0,1,.194.605v2.246h.3a.273.273,0,0,1,.182.049.176.176,0,0,1,0,.257.264.264,0,0,1-.182.051h-.956a.274.274,0,0,1-.187-.051.176.176,0,0,1,0-.257.283.283,0,0,1,.187-.049h.3v-2.187a.847.847,0,0,0-.276-.639,1.032,1.032,0,0,0-.739-.261,1.246,1.246,0,0,0-.611.142,3.272,3.272,0,0,0-.739.707v2.238h.4a.276.276,0,0,1,.183.049.176.176,0,0,1,0,.257.266.266,0,0,1-.183.051h-1.163a.265.265,0,0,1-.182-.051.177.177,0,0,1,0-.257.274.274,0,0,1,.182-.049h.4v-2.96h-.3a.265.265,0,0,1-.182-.051.17.17,0,0,1-.055-.131.165.165,0,0,1,.055-.128.265.265,0,0,1,.182-.051Z" transform="translate(-1257.609 -810.042)"/>
            <path id="Контур_13672" data-name="Контур 13672" d="M1310.656,812.122v-4.254h-.3a.274.274,0,0,1-.182-.049.179.179,0,0,1,0-.259.275.275,0,0,1,.182-.049h1.919a1.8,1.8,0,0,1,.822.187,1.716,1.716,0,0,1,.567.424,3.047,3.047,0,0,1,.509.853,2.194,2.194,0,0,1,.123.773v.493a2.46,2.46,0,0,1-.242,1.061,2.255,2.255,0,0,1-.806.9,1.715,1.715,0,0,1-.973.28h-1.919a.266.266,0,0,1-.182-.051.167.167,0,0,1-.055-.128.164.164,0,0,1,.055-.129.274.274,0,0,1,.182-.049Zm.356,0h1.3a1.382,1.382,0,0,0,.843-.293,1.9,1.9,0,0,0,.591-.7,1.854,1.854,0,0,0,.2-.809v-.645a1.56,1.56,0,0,0-.106-.59,2.754,2.754,0,0,0-.434-.717,1.418,1.418,0,0,0-.45-.342,1.369,1.369,0,0,0-.641-.155h-1.3Z" transform="translate(-1284.08 -807.151)"/>
            <path id="Контур_13673" data-name="Контур 13673" d="M1331.857,813.617h-3.635a1.728,1.728,0,0,0,.58,1.115,1.771,1.771,0,0,0,1.2.422,2.9,2.9,0,0,0,.836-.132,2.141,2.141,0,0,0,.713-.348.244.244,0,0,1,.141-.063.158.158,0,0,1,.118.053.175.175,0,0,1,.051.125.2.2,0,0,1-.068.14,1.907,1.907,0,0,1-.724.4,3.17,3.17,0,0,1-1.068.185,2.1,2.1,0,0,1-1.531-.6,1.96,1.96,0,0,1-.614-1.454,1.788,1.788,0,0,1,.575-1.333,1.969,1.969,0,0,1,1.424-.557,1.938,1.938,0,0,1,1.44.571A1.986,1.986,0,0,1,1331.857,813.617Zm-.361-.361a1.554,1.554,0,0,0-.558-.96,1.759,1.759,0,0,0-2.15,0,1.565,1.565,0,0,0-.561.964Z" transform="translate(-1296.735 -810.042)"/>
            <path id="Контур_13674" data-name="Контур 13674" d="M1348.92,806.254v4.972h1.4a.283.283,0,0,1,.187.049.164.164,0,0,1,.055.129.166.166,0,0,1-.055.128.274.274,0,0,1-.187.051h-3.159a.267.267,0,0,1-.183-.051.168.168,0,0,1-.055-.128.166.166,0,0,1,.055-.129.276.276,0,0,1,.183-.049h1.4v-4.611h-1.027a.276.276,0,0,1-.185-.051.169.169,0,0,1-.057-.131.166.166,0,0,1,.056-.128.273.273,0,0,1,.187-.051Z" transform="translate(-1310.329 -806.254)"/>
            <path id="Контур_13675" data-name="Контур 13675" d="M1367.11,806.254v4.972h1.4a.284.284,0,0,1,.187.049.165.165,0,0,1,.055.129.168.168,0,0,1-.055.128.275.275,0,0,1-.187.051h-3.159a.264.264,0,0,1-.182-.051.166.166,0,0,1-.055-.128.164.164,0,0,1,.055-.129.273.273,0,0,1,.182-.049h1.4v-4.611h-1.027a.275.275,0,0,1-.185-.051.177.177,0,0,1,0-.259.275.275,0,0,1,.187-.051Z" transform="translate(-1323.301 -806.254)"/>
          </g>
          <g id="Сгруппировать_2974" data-name="Сгруппировать 2974" transform="translate(167.387 100.034)">
            <path id="Контур_13676" data-name="Контур 13676" d="M1718.338,808.161v.883a2.8,2.8,0,0,1-.548,1.822,1.34,1.34,0,0,1-1.083.526,1.431,1.431,0,0,1-.592-.125,1.352,1.352,0,0,1-.474-.35,2.02,2.02,0,0,1-.269-.45,3.057,3.057,0,0,1-.21-.569,3.316,3.316,0,0,1-.1-.853v-.883a2.8,2.8,0,0,1,.548-1.825,1.339,1.339,0,0,1,1.083-.527,1.423,1.423,0,0,1,.594.125,1.35,1.35,0,0,1,.471.351,1.954,1.954,0,0,1,.272.454,2.929,2.929,0,0,1,.306,1.422Zm-.357.047a3.01,3.01,0,0,0-.142-.941,2.734,2.734,0,0,0-.321-.694.952.952,0,0,0-.276-.255,1.019,1.019,0,0,0-.543-.149,1.039,1.039,0,0,0-.938.612,2.891,2.891,0,0,0-.34,1.427v.786a3.019,3.019,0,0,0,.143.943,2.612,2.612,0,0,0,.325.7.931.931,0,0,0,.271.251,1,1,0,0,0,.548.153,1.035,1.035,0,0,0,.934-.614,2.9,2.9,0,0,0,.34-1.429Z" transform="translate(-1715.064 -805.368)"/>
            <path id="Контур_13677" data-name="Контур 13677" d="M1736.84,808.25a2.052,2.052,0,0,1-.656.735,1.416,1.416,0,0,1-.779.246,1.35,1.35,0,0,1-.716-.212,1.488,1.488,0,0,1-.55-.622,1.909,1.909,0,0,1-.2-.86,1.93,1.93,0,0,1,.406-1.191,1.29,1.29,0,0,1,1.085-.537,1.429,1.429,0,0,1,.883.3,1.931,1.931,0,0,1,.62.875,4.717,4.717,0,0,1,.284,1.707,2.876,2.876,0,0,1-.242,1.257,2.438,2.438,0,0,1-.473.658,2.712,2.712,0,0,1-.7.518,2.46,2.46,0,0,1-1.113.267,1.206,1.206,0,0,1-.625-.144.2.2,0,0,1-.11-.17.161.161,0,0,1,.051-.121.173.173,0,0,1,.123-.049.384.384,0,0,1,.148.047.86.86,0,0,0,.382.081,2.116,2.116,0,0,0,1.554-.652,2.217,2.217,0,0,0,.65-1.633C1736.857,808.633,1736.851,808.466,1736.84,808.25Zm-.068-.594a2.5,2.5,0,0,0-.559-1.174,1.1,1.1,0,0,0-.779-.312,1.045,1.045,0,0,0-.8.382,1.411,1.411,0,0,0-.344.981,1.379,1.379,0,0,0,.344.962,1.028,1.028,0,0,0,.777.38,1,1,0,0,0,.495-.136,1.58,1.58,0,0,0,.46-.407A5.565,5.565,0,0,0,1736.772,807.656Z" transform="translate(-1728.521 -805.368)"/>
            <path id="Контур_13678" data-name="Контур 13678" d="M1754.695,804.58l-2.87,6.148c-.048.1-.11.157-.187.157a.171.171,0,0,1-.125-.053.162.162,0,0,1-.053-.117.354.354,0,0,1,.043-.14l2.866-6.148a.336.336,0,0,1,.089-.128.175.175,0,0,1,.1-.029.17.17,0,0,1,.125.053.161.161,0,0,1,.053.117A.376.376,0,0,1,1754.695,804.58Z" transform="translate(-1741.018 -804.27)"/>
            <path id="Контур_13679" data-name="Контур 13679" d="M1771.437,806v5.044h1.223a.273.273,0,0,1,.183.049.166.166,0,0,1,.056.129.168.168,0,0,1-.056.128.265.265,0,0,1-.183.051h-2.8a.266.266,0,0,1-.182-.051.166.166,0,0,1-.055-.128.164.164,0,0,1,.055-.129.274.274,0,0,1,.182-.049h1.223v-4.552l-1.164.365a.5.5,0,0,1-.123.025.161.161,0,0,1-.117-.053.171.171,0,0,1-.053-.125.19.19,0,0,1,.043-.119.409.409,0,0,1,.14-.072Z" transform="translate(-1753.969 -805.505)"/>
            <path id="Контур_13680" data-name="Контур 13680" d="M1788.13,806.615v1.745a3.679,3.679,0,0,1,.6-.2,2.485,2.485,0,0,1,.548-.066,1.5,1.5,0,0,1,1.123.471,1.716,1.716,0,0,1,.452,1.24,1.9,1.9,0,0,1-.51,1.376,1.7,1.7,0,0,1-1.274.526,2.219,2.219,0,0,1-.972-.225,2.7,2.7,0,0,1-.6-.391c-.108-.094-.162-.171-.162-.234a.18.18,0,0,1,.051-.129.162.162,0,0,1,.119-.053.231.231,0,0,1,.153.076,2.011,2.011,0,0,0,1.4.6,1.364,1.364,0,0,0,1.031-.426,1.573,1.573,0,0,0,.408-1.136,1.342,1.342,0,0,0-.353-.97,1.187,1.187,0,0,0-.9-.367,2.369,2.369,0,0,0-1.113.293.528.528,0,0,1-.191.068.158.158,0,0,1-.123-.051.205.205,0,0,1-.047-.144v-2.365h2.488a.266.266,0,0,1,.183.051.171.171,0,0,1,.055.131.166.166,0,0,1-.055.128.266.266,0,0,1-.183.051Z" transform="translate(-1766.603 -805.685)"/>
          </g>
        </g>
      </g>
      <g id="uzcard-logo-1-2" data-name="uzcard-logo-1" transform="translate(134.876 0)">
        <path id="Path_217-2" data-name="Path 217" d="M600.381-514.62q0,6.1-2.788,9.078t-8.6,2.963q-5.425,0-8.231-2.963t-2.806-8.939v-13.367a.57.57,0,0,1,.568-.568h6.558a.569.569,0,0,1,.568.568v13.657a6.546,6.546,0,0,0,.913,3.762,3,3,0,0,0,2.619,1.318,3.025,3.025,0,0,0,2.612-1.24,6.215,6.215,0,0,0,.9-3.665v-2.557h7.693Z" transform="translate(-577.955 528.415)" fill="#2c479f" fill-rule="evenodd"/>
        <path id="Path_218-2" data-name="Path 218" d="M714.086-518.065h-7.1v-9.756a.6.6,0,0,1,.595-.595h1.062a6.034,6.034,0,0,0,6.035,6.03h0v4.32Z" transform="translate(-692.256 528.415)" fill="#2c479f" fill-rule="evenodd"/>
        <path id="Path_219-2" data-name="Path 219" d="M734.747-528.415h3.929a.6.6,0,0,1,.595.595v3.934a4.524,4.524,0,0,1-4.524-4.524Z" transform="translate(-716.845 528.415)" fill="#eb6e00" fill-rule="evenodd"/>
        <path id="Path_220-2" data-name="Path 220" d="M579.246-268.181a1.131,1.131,0,0,0,1.287-1.193v-1.711h-.62v1.694a.615.615,0,0,1-.667.671.618.618,0,0,1-.672-.671v-1.694h-.616v1.715A1.131,1.131,0,0,0,579.246-268.181Zm5.037-.051v-.535h-1.377l1.347-1.831v-.488H582.11v.535h1.347l-1.347,1.826v.492Zm2.9.051a1.313,1.313,0,0,0,1.193-.7l-.522-.252a.765.765,0,0,1-.671.415.888.888,0,0,1-.894-.936.888.888,0,0,1,.894-.936.773.773,0,0,1,.671.415l.522-.257a1.306,1.306,0,0,0-1.193-.7,1.45,1.45,0,0,0-1.518,1.476A1.449,1.449,0,0,0,587.186-268.181Zm5.306-.051-1.1-2.853h-.761l-1.1,2.853h.693l.179-.483h1.223l.175.483Zm-1.035-1.018h-.89l.445-1.228Zm5.134,1.733-1.047-1.8a.818.818,0,0,0,.624-.847.888.888,0,0,0-.958-.92h-1.334v2.853h.607v-1.014h.445l.965,1.728Zm-1.47-2.263h-.637v-.77h.637a.387.387,0,0,1,.427.385A.387.387,0,0,1,595.121-269.781Zm3.749,1.548a1.4,1.4,0,0,0,1.514-1.424,1.4,1.4,0,0,0-1.514-1.429h-1.125v2.853Zm0-.535h-.518v-1.783h.518a.835.835,0,0,1,.894.894.854.854,0,0,1-.251.642.854.854,0,0,1-.643.248Z" transform="translate(-577.959 300.507)" fill="#2c479f" fill-rule="evenodd"/>
        <path id="Path_221" data-name="Path 221" d="M779.079-277v.007a.531.531,0,0,1-.531.531.531.531,0,0,1-.531-.531.531.531,0,0,1,.531-.531h.531Z" transform="translate(-755.175 306.168)" fill="#fff" fill-rule="evenodd"/>
      </g>
      <g id="uzcard-logo-1-3" data-name="uzcard-logo-1" transform="translate(134.876 0)">
        <path id="Path_217-3" data-name="Path 217" d="M600.381-514.62q0,6.1-2.788,9.078t-8.6,2.963q-5.425,0-8.231-2.963t-2.806-8.939v-13.367a.57.57,0,0,1,.568-.568h6.558a.569.569,0,0,1,.568.568v13.657a6.546,6.546,0,0,0,.913,3.762,3,3,0,0,0,2.619,1.318,3.025,3.025,0,0,0,2.612-1.24,6.215,6.215,0,0,0,.9-3.665v-2.557h7.693Z" transform="translate(-577.955 528.415)" fill="#2c479f" fill-rule="evenodd"/>
        <path id="Path_218-3" data-name="Path 218" d="M714.086-518.065h-7.1v-9.756a.6.6,0,0,1,.595-.595h1.062a6.034,6.034,0,0,0,6.035,6.03h0v4.32Z" transform="translate(-692.256 528.415)" fill="#2c479f" fill-rule="evenodd"/>
        <path id="Path_219-3" data-name="Path 219" d="M734.747-528.415h3.929a.6.6,0,0,1,.595.595v3.934a4.524,4.524,0,0,1-4.524-4.524Z" transform="translate(-716.845 528.415)" fill="#eb6e00" fill-rule="evenodd"/>
        <path id="Path_220-3" data-name="Path 220" d="M579.246-268.181a1.131,1.131,0,0,0,1.287-1.193v-1.711h-.62v1.694a.615.615,0,0,1-.667.671.618.618,0,0,1-.672-.671v-1.694h-.616v1.715A1.131,1.131,0,0,0,579.246-268.181Zm5.037-.051v-.535h-1.377l1.347-1.831v-.488H582.11v.535h1.347l-1.347,1.826v.492Zm2.9.051a1.313,1.313,0,0,0,1.193-.7l-.522-.252a.765.765,0,0,1-.671.415.888.888,0,0,1-.894-.936.888.888,0,0,1,.894-.936.773.773,0,0,1,.671.415l.522-.257a1.306,1.306,0,0,0-1.193-.7,1.45,1.45,0,0,0-1.518,1.476A1.449,1.449,0,0,0,587.186-268.181Zm5.306-.051-1.1-2.853h-.761l-1.1,2.853h.693l.179-.483h1.223l.175.483Zm-1.035-1.018h-.89l.445-1.228Zm5.134,1.733-1.047-1.8a.818.818,0,0,0,.624-.847.888.888,0,0,0-.958-.92h-1.334v2.853h.607v-1.014h.445l.965,1.728Zm-1.47-2.263h-.637v-.77h.637a.387.387,0,0,1,.427.385A.387.387,0,0,1,595.121-269.781Zm3.749,1.548a1.4,1.4,0,0,0,1.514-1.424,1.4,1.4,0,0,0-1.514-1.429h-1.125v2.853Zm0-.535h-.518v-1.783h.518a.835.835,0,0,1,.894.894.854.854,0,0,1-.251.642.854.854,0,0,1-.643.248Z" transform="translate(-577.959 300.507)" fill="#2c479f" fill-rule="evenodd"/>
        <path id="Path_221-2" data-name="Path 221" d="M779.079-277v.007a.531.531,0,0,1-.531.531.531.531,0,0,1-.531-.531.531.531,0,0,1,.531-.531h.531Z" transform="translate(-755.175 306.168)" fill="#fff" fill-rule="evenodd"/>
      </g>
    </g>
    <g id="Сгруппировать_3171" data-name="Сгруппировать 3171" transform="translate(435.479 4329.377)">
      <g id="Сгруппировать_2965-2" data-name="Сгруппировать 2965" transform="translate(0 0.001)">
        <g transform="matrix(1, 0, 0, 1, -117.39, -10)" filter="url(#Прямоугольник_851-2)">
          <rect id="Прямоугольник_851-4" data-name="Прямоугольник 851" width="231.166" height="146.017" rx="5" transform="translate(117.39 10)" fill="#12131d"/>
        </g>
      </g>
      <g id="Сгруппировать_2969-2" data-name="Сгруппировать 2969" transform="translate(27.013 71.672)" opacity="0.5">
        <g id="Сгруппировать_2966-2" data-name="Сгруппировать 2966" transform="translate(0 0)">
          <path id="Контур_13646-2" data-name="Контур 13646" d="M1223.462,690.5a2.051,2.051,0,1,1-2.051-2.051A2.051,2.051,0,0,1,1223.462,690.5Z" transform="translate(-1219.359 -688.448)" fill="#fff"/>
          <ellipse id="Эллипс_94-2" data-name="Эллипс 94" cx="2.051" cy="2.051" rx="2.051" ry="2.051" transform="translate(7.072)" fill="#fff"/>
          <ellipse id="Эллипс_95-2" data-name="Эллипс 95" cx="2.051" cy="2.051" rx="2.051" ry="2.051" transform="translate(14.145)" fill="#fff"/>
          <ellipse id="Эллипс_96-2" data-name="Эллипс 96" cx="2.051" cy="2.051" rx="2.051" ry="2.051" transform="translate(21.217)" fill="#fff"/>
        </g>
        <g id="Сгруппировать_2967-2" data-name="Сгруппировать 2967" transform="translate(52.226 0)">
          <ellipse id="Эллипс_97-2" data-name="Эллипс 97" cx="2.051" cy="2.051" rx="2.051" ry="2.051" fill="#fff"/>
          <ellipse id="Эллипс_98-2" data-name="Эллипс 98" cx="2.051" cy="2.051" rx="2.051" ry="2.051" transform="translate(7.072)" fill="#fff"/>
          <ellipse id="Эллипс_99-2" data-name="Эллипс 99" cx="2.051" cy="2.051" rx="2.051" ry="2.051" transform="translate(14.145)" fill="#fff"/>
          <ellipse id="Эллипс_100-2" data-name="Эллипс 100" cx="2.051" cy="2.051" rx="2.051" ry="2.051" transform="translate(21.217)" fill="#fff"/>
        </g>
        <g id="Сгруппировать_2968-2" data-name="Сгруппировать 2968" transform="translate(104.452 0)">
          <ellipse id="Эллипс_101-2" data-name="Эллипс 101" cx="2.051" cy="2.051" rx="2.051" ry="2.051" fill="#fff"/>
          <ellipse id="Эллипс_102-2" data-name="Эллипс 102" cx="2.051" cy="2.051" rx="2.051" ry="2.051" transform="translate(7.072)" fill="#fff"/>
          <ellipse id="Эллипс_103-2" data-name="Эллипс 103" cx="2.051" cy="2.051" rx="2.051" ry="2.051" transform="translate(14.145)" fill="#fff"/>
          <ellipse id="Эллипс_104-2" data-name="Эллипс 104" cx="2.051" cy="2.051" rx="2.051" ry="2.051" transform="translate(21.217)" fill="#fff"/>
        </g>
      </g>
      <g id="Сгруппировать_2970-2" data-name="Сгруппировать 2970" transform="translate(183.903 63.175)">
        <text id="_2315" data-name="2315" transform="translate(-0.381 13.448)" fill="#fff" font-size="12" font-family="Golos" font-weight="300" letter-spacing="0.165em"><tspan x="0" y="0">2315</tspan></text>
      </g>
      <g id="Сгруппировать_2971-2" data-name="Сгруппировать 2971" transform="translate(27.013 96.969)">
        <path id="Контур_13651-2" data-name="Контур 13651" d="M1223.263,772.146v-.269a.3.3,0,0,1,.052-.2.193.193,0,0,1,.278,0,.294.294,0,0,1,.052.2v1.061a.3.3,0,0,1-.052.2.176.176,0,0,1-.139.059.17.17,0,0,1-.129-.055.277.277,0,0,1-.061-.178.92.92,0,0,0-.415-.679,1.922,1.922,0,0,0-1.2-.405,1.839,1.839,0,0,0-.833.2,1.394,1.394,0,0,0-.465.346,2.946,2.946,0,0,0-.478.788,1.933,1.933,0,0,0-.128.72v.67a2.056,2.056,0,0,0,.62,1.487,1.958,1.958,0,0,0,1.439.631,1.8,1.8,0,0,0,.881-.214,2.717,2.717,0,0,0,.754-.647.221.221,0,0,1,.173-.1.181.181,0,0,1,.132.049.174.174,0,0,1,.05.128q0,.1-.2.319a2.519,2.519,0,0,1-.841.631,2.262,2.262,0,0,1-.945.212,2.406,2.406,0,0,1-.843-.159,2.1,2.1,0,0,1-.542-.287,3.359,3.359,0,0,1-.526-.553,2.5,2.5,0,0,1-.426-.719,2.213,2.213,0,0,1-.114-.727v-.779a2.516,2.516,0,0,1,.3-1.155,2.2,2.2,0,0,1,.829-.906,2.174,2.174,0,0,1,1.141-.317A2.293,2.293,0,0,1,1223.263,772.146Z" transform="translate(-1219.359 -771.235)" fill="#fff"/>
        <path id="Контур_13652-2" data-name="Контур 13652" d="M1241.043,780.035v-.551a2.724,2.724,0,0,1-1.781.7,1.549,1.549,0,0,1-1.075-.348,1.106,1.106,0,0,1-.388-.854,1.225,1.225,0,0,1,.511-.97,2.318,2.318,0,0,1,1.489-.414,5.178,5.178,0,0,1,.574.034q.31.034.67.107v-.62a.685.685,0,0,0-.292-.547,1.384,1.384,0,0,0-.875-.232,4.421,4.421,0,0,0-1.253.259.852.852,0,0,1-.186.046.166.166,0,0,1-.125-.055.188.188,0,0,1-.052-.136.17.17,0,0,1,.045-.123,1.573,1.573,0,0,1,.515-.187,4.539,4.539,0,0,1,1.075-.191,1.65,1.65,0,0,1,1.13.358,1.06,1.06,0,0,1,.406.808v2.533h.51a.3.3,0,0,1,.2.053.175.175,0,0,1,.06.138.178.178,0,0,1-.06.137.293.293,0,0,1-.2.055Zm0-1.9a3.617,3.617,0,0,0-.57-.114,5.26,5.26,0,0,0-.633-.036,2.093,2.093,0,0,0-1.3.36.787.787,0,0,0-.355.642.744.744,0,0,0,.271.583,1.167,1.167,0,0,0,.79.237,2.158,2.158,0,0,0,.922-.2,3.3,3.3,0,0,0,.877-.631Z" transform="translate(-1232.124 -774.319)" fill="#fff"/>
        <path id="Контур_13653-2" data-name="Контур 13653" d="M1257.953,776.183v.966a6.405,6.405,0,0,1,1.118-.868,1.5,1.5,0,0,1,.685-.194,1.01,1.01,0,0,1,.636.23q.294.229.293.348a.194.194,0,0,1-.2.2.168.168,0,0,1-.078-.016.655.655,0,0,1-.118-.1,1.159,1.159,0,0,0-.278-.219.52.52,0,0,0-.232-.059,1.277,1.277,0,0,0-.6.2,8.965,8.965,0,0,0-1.223.979v2.1h1.694a.3.3,0,0,1,.2.053.177.177,0,0,1,.059.138.18.18,0,0,1-.059.137.3.3,0,0,1-.2.054h-3a.291.291,0,0,1-.2-.053.171.171,0,0,1-.059-.134.168.168,0,0,1,.057-.13.292.292,0,0,1,.2-.052h.925V776.57h-.706a.286.286,0,0,1-.2-.055.184.184,0,0,1-.059-.141.18.18,0,0,1,.057-.137.283.283,0,0,1,.2-.054Z" transform="translate(-1244.994 -774.411)" fill="#fff"/>
        <path id="Контур_13654-2" data-name="Контур 13654" d="M1278.013,770.641v5.334h.51a.3.3,0,0,1,.2.053.176.176,0,0,1,.059.138.179.179,0,0,1-.059.137.3.3,0,0,1-.2.055h-.9V775.6a2.014,2.014,0,0,1-1.69.911,2,2,0,0,1-1.747-1.061,2.15,2.15,0,0,1,0-2.107,1.978,1.978,0,0,1,.752-.786,1.952,1.952,0,0,1,1-.278,2.042,2.042,0,0,1,1.685.911v-2.16h-.51a.294.294,0,0,1-.2-.054.183.183,0,0,1-.059-.141.177.177,0,0,1,.059-.137.293.293,0,0,1,.2-.054Zm-.387,3.753a1.688,1.688,0,0,0-.492-1.23,1.624,1.624,0,0,0-2.346,0,1.779,1.779,0,0,0,0,2.458,1.618,1.618,0,0,0,2.346,0A1.691,1.691,0,0,0,1277.626,774.394Z" transform="translate(-1257.124 -770.641)" fill="#fff"/>
        <path id="Контур_13655-2" data-name="Контур 13655" d="M1313.62,774.649h-2.537v2.2h.515a.291.291,0,0,1,.2.053.175.175,0,0,1,.06.139.178.178,0,0,1-.06.137.284.284,0,0,1-.2.054h-1.33a.284.284,0,0,1-.2-.054.179.179,0,0,1-.059-.137.176.176,0,0,1,.059-.139.291.291,0,0,1,.2-.053h.433v-4.564h-.237a.3.3,0,0,1-.2-.053.192.192,0,0,1,0-.278.3.3,0,0,1,.2-.053h1.134a.293.293,0,0,1,.2.053.192.192,0,0,1,0,.278.293.293,0,0,1-.2.053h-.515v1.986h2.537v-1.986h-.51a.293.293,0,0,1-.2-.053.175.175,0,0,1-.06-.139.18.18,0,0,1,.057-.139.293.293,0,0,1,.2-.053h1.134a.3.3,0,0,1,.2.053.192.192,0,0,1,0,.278.3.3,0,0,1-.2.053h-.237v4.564h.433a.293.293,0,0,1,.2.053.175.175,0,0,1,.059.139.178.178,0,0,1-.059.137.286.286,0,0,1-.2.054h-1.33a.284.284,0,0,1-.2-.054.178.178,0,0,1-.06-.137.18.18,0,0,1,.057-.139.292.292,0,0,1,.2-.053h.51Z" transform="translate(-1282.112 -771.511)" fill="#fff"/>
        <path id="Контур_13656-2" data-name="Контур 13656" d="M1333.042,778.072a2.024,2.024,0,0,1-.626,1.494,2.156,2.156,0,0,1-3.027,0,2.1,2.1,0,0,1,0-2.988,2.156,2.156,0,0,1,3.027,0A2.03,2.03,0,0,1,1333.042,778.072Zm-.387,0a1.658,1.658,0,0,0-.512-1.225,1.775,1.775,0,0,0-2.483,0,1.714,1.714,0,0,0,0,2.444,1.769,1.769,0,0,0,2.483,0A1.66,1.66,0,0,0,1332.655,778.072Z" transform="translate(-1295.094 -774.319)" fill="#fff"/>
        <path id="Контур_13657-2" data-name="Контур 13657" d="M1349.717,770.641v5.334h1.5a.3.3,0,0,1,.2.053.175.175,0,0,1,.059.138.178.178,0,0,1-.059.137.294.294,0,0,1-.2.055h-3.389a.288.288,0,0,1-.2-.055.181.181,0,0,1-.059-.137.178.178,0,0,1,.059-.138.294.294,0,0,1,.2-.053h1.5v-4.947h-1.1a.3.3,0,0,1-.2-.054.182.182,0,0,1-.061-.141.178.178,0,0,1,.059-.137.293.293,0,0,1,.2-.054Z" transform="translate(-1308.115 -770.641)" fill="#fff"/>
        <path id="Контур_13658-2" data-name="Контур 13658" d="M1368.963,770.641v5.334h.51a.3.3,0,0,1,.2.053.175.175,0,0,1,.059.138.177.177,0,0,1-.059.137.293.293,0,0,1-.2.055h-.9V775.6a2.014,2.014,0,0,1-1.69.911,2,2,0,0,1-1.747-1.061,2.152,2.152,0,0,1,0-2.107,1.985,1.985,0,0,1,.751-.786,1.956,1.956,0,0,1,1-.278,2.043,2.043,0,0,1,1.686.911v-2.16h-.51a.3.3,0,0,1-.2-.054.184.184,0,0,1-.059-.141.179.179,0,0,1,.059-.137.294.294,0,0,1,.2-.054Zm-.387,3.753a1.687,1.687,0,0,0-.492-1.23,1.624,1.624,0,0,0-2.346,0,1.781,1.781,0,0,0,0,2.458,1.619,1.619,0,0,0,2.346,0A1.69,1.69,0,0,0,1368.576,774.394Z" transform="translate(-1320.082 -770.641)" fill="#fff"/>
        <path id="Контур_13659-2" data-name="Контур 13659" d="M1387.369,778.154h-3.9a1.856,1.856,0,0,0,.622,1.2,1.9,1.9,0,0,0,1.292.453,3.117,3.117,0,0,0,.9-.141,2.3,2.3,0,0,0,.765-.374.262.262,0,0,1,.151-.068.169.169,0,0,1,.127.057.186.186,0,0,1,.054.134.212.212,0,0,1-.072.15,2.048,2.048,0,0,1-.777.426,3.4,3.4,0,0,1-1.145.2,2.254,2.254,0,0,1-1.642-.644,2.1,2.1,0,0,1-.658-1.56,1.919,1.919,0,0,1,.617-1.431,2.113,2.113,0,0,1,1.528-.6,2.079,2.079,0,0,1,1.544.613A2.132,2.132,0,0,1,1387.369,778.154Zm-.387-.387a1.668,1.668,0,0,0-.6-1.029,1.887,1.887,0,0,0-2.307,0,1.677,1.677,0,0,0-.6,1.034Z" transform="translate(-1332.694 -774.319)" fill="#fff"/>
        <path id="Контур_13660-2" data-name="Контур 13660" d="M1403.471,776.183v.966a6.389,6.389,0,0,1,1.119-.868,1.5,1.5,0,0,1,.685-.194,1.009,1.009,0,0,1,.635.23q.294.229.294.348a.195.195,0,0,1-.2.2.165.165,0,0,1-.077-.016.633.633,0,0,1-.119-.1,1.154,1.154,0,0,0-.278-.219.52.52,0,0,0-.232-.059,1.275,1.275,0,0,0-.6.2,8.995,8.995,0,0,0-1.223.979v2.1h1.694a.3.3,0,0,1,.2.053.176.176,0,0,1,.059.138.178.178,0,0,1-.059.137.294.294,0,0,1-.2.054h-3a.288.288,0,0,1-.2-.053.179.179,0,0,1,0-.264.292.292,0,0,1,.2-.052h.925V776.57h-.706a.285.285,0,0,1-.2-.055.2.2,0,0,1,0-.278.286.286,0,0,1,.2-.054Z" transform="translate(-1345.726 -774.411)" fill="#fff"/>
      </g>
      <g id="Сгруппировать_2972-2" data-name="Сгруппировать 2972" transform="translate(178.933 96.777)">
        <path id="Контур_13661-2" data-name="Контур 13661" d="M1714.131,774.654v2.191h2.943v-1.129a.3.3,0,0,1,.052-.2.192.192,0,0,1,.278,0,.293.293,0,0,1,.052.2v1.512h-4.222a.286.286,0,0,1-.2-.054.179.179,0,0,1-.059-.137.176.176,0,0,1,.059-.139.293.293,0,0,1,.2-.053h.515v-4.564h-.515a.3.3,0,0,1-.2-.053.193.193,0,0,1,0-.278.294.294,0,0,1,.2-.053h4.022v1.317a.294.294,0,0,1-.053.2.192.192,0,0,1-.278,0,.294.294,0,0,1-.053-.2v-.934h-2.742v1.99h1.371v-.432a.286.286,0,0,1,.055-.2.185.185,0,0,1,.141-.059.18.18,0,0,1,.137.059.286.286,0,0,1,.054.2v1.248a.285.285,0,0,1-.054.2.178.178,0,0,1-.137.059.183.183,0,0,1-.141-.059.284.284,0,0,1-.055-.2v-.433Z" transform="translate(-1712.978 -771.32)" fill="#fff"/>
        <path id="Контур_13662-2" data-name="Контур 13662" d="M1733.961,778.279l1.754,1.681a.889.889,0,0,1,.218.016.165.165,0,0,1,.08.067.189.189,0,0,1,.034.109.177.177,0,0,1-.059.137.293.293,0,0,1-.2.054h-1.23a.293.293,0,0,1-.2-.054.177.177,0,0,1-.059-.137.175.175,0,0,1,.059-.138.3.3,0,0,1,.2-.053h.633l-1.489-1.426-1.48,1.426h.638a.292.292,0,0,1,.2.053.176.176,0,0,1,.059.138.178.178,0,0,1-.059.137.285.285,0,0,1-.2.054h-1.244a.285.285,0,0,1-.2-.054.178.178,0,0,1-.059-.137.191.191,0,0,1,.034-.109.172.172,0,0,1,.078-.067.864.864,0,0,1,.217-.016l1.754-1.681-1.558-1.494a.68.68,0,0,1-.207-.018.177.177,0,0,1-.078-.068.19.19,0,0,1-.034-.109.18.18,0,0,1,.059-.137.294.294,0,0,1,.2-.054h1.043a.285.285,0,0,1,.2.054.189.189,0,0,1,.057.141.183.183,0,0,1-.057.137.284.284,0,0,1-.2.055h-.455l1.289,1.244,1.3-1.244h-.455a.3.3,0,0,1-.2-.055.179.179,0,0,1-.062-.141.178.178,0,0,1,.059-.137.294.294,0,0,1,.2-.054h1.043a.286.286,0,0,1,.2.054.188.188,0,0,1,.025.246.176.176,0,0,1-.078.068.678.678,0,0,1-.207.018Z" transform="translate(-1725.703 -774.435)" fill="#fff"/>
        <path id="Контур_13663-2" data-name="Контур 13663" d="M1749.875,776.091v.7a2.472,2.472,0,0,1,.733-.625,1.938,1.938,0,0,1,.925-.209,2.12,2.12,0,0,1,1.043.264,1.854,1.854,0,0,1,.74.736,2.01,2.01,0,0,1,.262.991,1.913,1.913,0,0,1-.59,1.41,2.081,2.081,0,0,1-3.113-.248v2.305h.929a.293.293,0,0,1,.2.052.189.189,0,0,1,0,.275.285.285,0,0,1-.2.055h-1.827a.294.294,0,0,1-.2-.053.193.193,0,0,1,0-.278.292.292,0,0,1,.2-.052h.515v-4.933h-.515a.285.285,0,0,1-.2-.055.183.183,0,0,1-.059-.141.178.178,0,0,1,.059-.137.285.285,0,0,1,.2-.055Zm3.316,1.854a1.529,1.529,0,0,0-.481-1.132,1.7,1.7,0,0,0-2.353,0,1.569,1.569,0,0,0,0,2.264,1.7,1.7,0,0,0,2.351,0A1.533,1.533,0,0,0,1753.191,777.944Z" transform="translate(-1737.721 -774.127)" fill="#fff"/>
        <path id="Контур_13664-2" data-name="Контур 13664" d="M1771.183,771.982v3.562h1.5a.3.3,0,0,1,.2.053.175.175,0,0,1,.059.138.178.178,0,0,1-.059.137.294.294,0,0,1-.2.054H1769.3a.288.288,0,0,1-.2-.054.18.18,0,0,1-.059-.137.177.177,0,0,1,.059-.138.3.3,0,0,1,.2-.053h1.5v-3.175h-1.116a.3.3,0,0,1-.2-.055.175.175,0,0,1-.062-.137.184.184,0,0,1,.059-.141.3.3,0,0,1,.2-.055Zm-.014-1.963v.988h-.565v-.988Z" transform="translate(-1751.787 -770.019)" fill="#fff"/>
        <path id="Контур_13665-2" data-name="Контур 13665" d="M1788.529,776.183v.966a6.39,6.39,0,0,1,1.119-.868,1.5,1.5,0,0,1,.685-.194,1.008,1.008,0,0,1,.635.23q.294.229.294.348a.194.194,0,0,1-.2.2.168.168,0,0,1-.077-.016.645.645,0,0,1-.118-.1,1.148,1.148,0,0,0-.278-.219.519.519,0,0,0-.232-.059,1.276,1.276,0,0,0-.6.2,8.959,8.959,0,0,0-1.223.979v2.1h1.694a.3.3,0,0,1,.2.053.175.175,0,0,1,.059.138.178.178,0,0,1-.059.137.293.293,0,0,1-.2.054h-3a.29.29,0,0,1-.2-.053.179.179,0,0,1,0-.264.293.293,0,0,1,.2-.052h.924V776.57h-.706a.285.285,0,0,1-.2-.055.2.2,0,0,1,0-.278.283.283,0,0,1,.2-.054Z" transform="translate(-1764.195 -774.219)" fill="#fff"/>
        <path id="Контур_13666-2" data-name="Контур 13666" d="M1808.806,778.154h-3.9a1.854,1.854,0,0,0,.622,1.2,1.9,1.9,0,0,0,1.292.453,3.117,3.117,0,0,0,.9-.141,2.3,2.3,0,0,0,.765-.374.262.262,0,0,1,.151-.068.169.169,0,0,1,.127.057.186.186,0,0,1,.055.134.212.212,0,0,1-.073.15,2.048,2.048,0,0,1-.776.426,3.4,3.4,0,0,1-1.146.2,2.255,2.255,0,0,1-1.642-.644,2.1,2.1,0,0,1-.658-1.56,1.921,1.921,0,0,1,.617-1.431,2.113,2.113,0,0,1,1.528-.6,2.078,2.078,0,0,1,1.544.613A2.131,2.131,0,0,1,1808.806,778.154Zm-.387-.387a1.67,1.67,0,0,0-.6-1.029,1.888,1.888,0,0,0-2.307,0,1.678,1.678,0,0,0-.6,1.034Z" transform="translate(-1776.346 -774.127)" fill="#fff"/>
        <path id="Контур_13667-2" data-name="Контур 13667" d="M1827,776.342a.276.276,0,0,1,.055-.191.178.178,0,0,1,.137-.059.182.182,0,0,1,.141.059.293.293,0,0,1,.054.2v.656a.286.286,0,0,1-.054.2.182.182,0,0,1-.141.06.179.179,0,0,1-.129-.05.248.248,0,0,1-.062-.164.611.611,0,0,0-.282-.451,1.722,1.722,0,0,0-.989-.255,1.665,1.665,0,0,0-1,.259.548.548,0,0,0-.269.437.529.529,0,0,0,.319.456,2.37,2.37,0,0,0,.829.2,5.622,5.622,0,0,1,1.107.2,1.4,1.4,0,0,1,.658.442.985.985,0,0,1,.217.61,1.1,1.1,0,0,1-.469.868,2.145,2.145,0,0,1-1.375.38,2.31,2.31,0,0,1-1.485-.46.68.68,0,0,1-.018.2.162.162,0,0,1-.066.078.186.186,0,0,1-.107.032.177.177,0,0,1-.136-.059.282.282,0,0,1-.055-.2v-.789a.3.3,0,0,1,.052-.2.178.178,0,0,1,.139-.059.191.191,0,0,1,.14.057.209.209,0,0,1,.057.152.572.572,0,0,0,.1.351,1.148,1.148,0,0,0,.508.362,2.246,2.246,0,0,0,.854.144,1.826,1.826,0,0,0,1.111-.278.764.764,0,0,0,.365-.588.642.642,0,0,0-.369-.569,2.817,2.817,0,0,0-1.086-.287,4.409,4.409,0,0,1-1.023-.191,1.042,1.042,0,0,1-.483-.355.846.846,0,0,1-.173-.51.878.878,0,0,1,.483-.781,2.2,2.2,0,0,1,1.152-.289A2.033,2.033,0,0,1,1827,776.342Z" transform="translate(-1789.747 -774.127)" fill="#fff"/>
      </g>
      <g id="Сгруппировать_2973-2" data-name="Сгруппировать 2973" transform="translate(27.013 107.929)">
        <path id="Контур_13668-2" data-name="Контур 13668" d="M1222.875,807.894v3.38a1.637,1.637,0,0,1-.519,1.207,1.706,1.706,0,0,1-1.239.51,1.96,1.96,0,0,1-.849-.2,3.83,3.83,0,0,1-.909-.65v-1.412a.285.285,0,0,1,.054-.2.178.178,0,0,1,.137-.059.182.182,0,0,1,.141.059.286.286,0,0,1,.054.2l0,1.23a2.784,2.784,0,0,0,.695.485,1.589,1.589,0,0,0,.681.162,1.446,1.446,0,0,0,.706-.183,1.3,1.3,0,0,0,.458-.46,1.263,1.263,0,0,0,.207-.693v-3.38h-1.5a.3.3,0,0,1-.2-.053.193.193,0,0,1,0-.278.3.3,0,0,1,.2-.053h2.8a.294.294,0,0,1,.2.053.193.193,0,0,1,0,.278.294.294,0,0,1-.2.053Z" transform="translate(-1219.359 -807.124)" fill="#fff"/>
        <path id="Контур_13669-2" data-name="Контур 13669" d="M1241.441,813.684a2.024,2.024,0,0,1-.626,1.494,2.155,2.155,0,0,1-3.027,0,2.1,2.1,0,0,1,0-2.988,2.155,2.155,0,0,1,3.027,0A2.032,2.032,0,0,1,1241.441,813.684Zm-.387,0a1.659,1.659,0,0,0-.512-1.226,1.775,1.775,0,0,0-2.483,0,1.713,1.713,0,0,0,0,2.444,1.769,1.769,0,0,0,2.483,0A1.66,1.66,0,0,0,1241.054,813.684Z" transform="translate(-1231.684 -809.931)" fill="#fff"/>
        <path id="Контур_13670-2" data-name="Контур 13670" d="M1255.619,806.254v2.355a2.429,2.429,0,0,1,.7-.558,1.7,1.7,0,0,1,.75-.162,1.67,1.67,0,0,1,.758.158,1.334,1.334,0,0,1,.522.483,1.252,1.252,0,0,1,.21.685v2.373h.428a.293.293,0,0,1,.2.052.181.181,0,0,1,.057.139.183.183,0,0,1-.057.137.286.286,0,0,1-.2.054h-1.244a.3.3,0,0,1-.2-.054.18.18,0,0,1-.059-.137.178.178,0,0,1,.059-.139.3.3,0,0,1,.2-.052h.428v-2.346a.908.908,0,0,0-.3-.692,1.172,1.172,0,0,0-.831-.278,1.223,1.223,0,0,0-.715.205,5.053,5.053,0,0,0-.706.687v2.424h.432a.294.294,0,0,1,.2.052.177.177,0,0,1,.059.139.18.18,0,0,1-.059.137.287.287,0,0,1-.2.054H1254.8a.286.286,0,0,1-.2-.054.178.178,0,0,1-.059-.137.176.176,0,0,1,.059-.139.293.293,0,0,1,.2-.052h.433v-4.947h-.515a.286.286,0,0,1-.2-.054.183.183,0,0,1-.059-.141.178.178,0,0,1,.059-.137.286.286,0,0,1,.2-.054Z" transform="translate(-1243.662 -806.254)" fill="#fff"/>
        <path id="Контур_13671-2" data-name="Контур 13671" d="M1274.066,811.7v.578a2.766,2.766,0,0,1,.724-.56,1.664,1.664,0,0,1,.728-.155,1.7,1.7,0,0,1,.8.187,1.307,1.307,0,0,1,.462.453,1.17,1.17,0,0,1,.208.649v2.41h.323a.294.294,0,0,1,.2.052.176.176,0,0,1,.059.139.178.178,0,0,1-.059.137.284.284,0,0,1-.2.055h-1.025a.294.294,0,0,1-.2-.055.179.179,0,0,1-.059-.137.177.177,0,0,1,.059-.139.3.3,0,0,1,.2-.052h.319v-2.346a.909.909,0,0,0-.3-.685,1.107,1.107,0,0,0-.792-.28,1.34,1.34,0,0,0-.656.153,3.509,3.509,0,0,0-.793.758v2.4h.432a.3.3,0,0,1,.2.052.178.178,0,0,1,.059.139.18.18,0,0,1-.059.137.286.286,0,0,1-.2.055h-1.248a.284.284,0,0,1-.2-.055.179.179,0,0,1-.06-.137.177.177,0,0,1,.06-.139.294.294,0,0,1,.2-.052h.433V812.09h-.323a.285.285,0,0,1-.2-.054.183.183,0,0,1-.059-.141.178.178,0,0,1,.059-.137.285.285,0,0,1,.2-.055Z" transform="translate(-1256.488 -809.931)" fill="#fff"/>
        <path id="Контур_13672-2" data-name="Контур 13672" d="M1310.695,812.458v-4.564h-.323a.293.293,0,0,1-.2-.053.191.191,0,0,1,0-.278.293.293,0,0,1,.2-.053h2.059a1.937,1.937,0,0,1,.881.2,1.845,1.845,0,0,1,.608.455,3.274,3.274,0,0,1,.546.916,2.351,2.351,0,0,1,.132.829v.528a2.642,2.642,0,0,1-.26,1.139,2.42,2.42,0,0,1-.865.961,1.841,1.841,0,0,1-1.043.3h-2.059a.284.284,0,0,1-.2-.054.179.179,0,0,1-.06-.137.176.176,0,0,1,.06-.139.293.293,0,0,1,.2-.052Zm.383,0h1.389a1.482,1.482,0,0,0,.9-.315,2.033,2.033,0,0,0,.633-.754,1.986,1.986,0,0,0,.212-.868v-.692a1.663,1.663,0,0,0-.114-.633,2.953,2.953,0,0,0-.465-.77,1.526,1.526,0,0,0-.483-.367,1.47,1.47,0,0,0-.688-.166h-1.389Z" transform="translate(-1282.184 -807.124)" fill="#fff"/>
        <path id="Контур_13673-2" data-name="Контур 13673" d="M1332.148,813.766h-3.9a1.855,1.855,0,0,0,.622,1.2,1.9,1.9,0,0,0,1.292.453,3.114,3.114,0,0,0,.9-.141,2.3,2.3,0,0,0,.765-.374.261.261,0,0,1,.151-.068.17.17,0,0,1,.127.057.187.187,0,0,1,.054.134.213.213,0,0,1-.073.151,2.049,2.049,0,0,1-.776.426,3.4,3.4,0,0,1-1.146.2,2.254,2.254,0,0,1-1.642-.644,2.1,2.1,0,0,1-.658-1.56,1.92,1.92,0,0,1,.617-1.431,2.114,2.114,0,0,1,1.528-.6,2.078,2.078,0,0,1,1.544.613A2.131,2.131,0,0,1,1332.148,813.766Zm-.387-.387a1.668,1.668,0,0,0-.6-1.029,1.886,1.886,0,0,0-2.307,0,1.676,1.676,0,0,0-.6,1.034Z" transform="translate(-1294.468 -809.931)" fill="#fff"/>
        <path id="Контур_13674-2" data-name="Контур 13674" d="M1349.065,806.254v5.334h1.5a.3.3,0,0,1,.2.052.176.176,0,0,1,.059.139.179.179,0,0,1-.059.137.3.3,0,0,1-.2.054h-3.389a.287.287,0,0,1-.2-.054.18.18,0,0,1-.059-.137.177.177,0,0,1,.059-.139.3.3,0,0,1,.2-.052h1.5v-4.947h-1.1a.3.3,0,0,1-.2-.054.181.181,0,0,1-.062-.141.178.178,0,0,1,.06-.137.293.293,0,0,1,.2-.054Z" transform="translate(-1307.664 -806.254)" fill="#fff"/>
        <path id="Контур_13675-2" data-name="Контур 13675" d="M1367.256,806.254v5.334h1.5a.3.3,0,0,1,.2.052.177.177,0,0,1,.059.139.179.179,0,0,1-.059.137.3.3,0,0,1-.2.054h-3.39a.285.285,0,0,1-.2-.054.179.179,0,0,1-.059-.137.176.176,0,0,1,.059-.139.292.292,0,0,1,.2-.052h1.5v-4.947h-1.1a.3.3,0,0,1-.2-.054.181.181,0,0,1-.062-.141.179.179,0,0,1,.06-.137.293.293,0,0,1,.2-.054Z" transform="translate(-1320.256 -806.254)" fill="#fff"/>
      </g>
      <g id="Сгруппировать_2974-2" data-name="Сгруппировать 2974" transform="translate(179.575 107.318)">
        <path id="Контур_13676-2" data-name="Контур 13676" d="M1718.576,808.332v.948a3,3,0,0,1-.587,1.954,1.438,1.438,0,0,1-1.162.565,1.537,1.537,0,0,1-.635-.134,1.457,1.457,0,0,1-.508-.376,2.175,2.175,0,0,1-.289-.483,3.334,3.334,0,0,1-.226-.611,3.564,3.564,0,0,1-.1-.916v-.948a3.007,3.007,0,0,1,.588-1.958,1.435,1.435,0,0,1,1.161-.565,1.526,1.526,0,0,1,.637.134,1.453,1.453,0,0,1,.506.376,2.091,2.091,0,0,1,.291.487,3.139,3.139,0,0,1,.328,1.526Zm-.382.051a3.234,3.234,0,0,0-.153-1.009,2.924,2.924,0,0,0-.344-.745,1.023,1.023,0,0,0-.3-.273,1.094,1.094,0,0,0-.583-.16,1.115,1.115,0,0,0-1.007.656,3.1,3.1,0,0,0-.364,1.531v.843a3.234,3.234,0,0,0,.153,1.011,2.816,2.816,0,0,0,.349.747.99.99,0,0,0,.291.269,1.075,1.075,0,0,0,.587.164,1.111,1.111,0,0,0,1-.658,3.111,3.111,0,0,0,.365-1.533Z" transform="translate(-1715.064 -805.335)" fill="#fff"/>
        <path id="Контур_13677-2" data-name="Контур 13677" d="M1737.051,808.428a2.207,2.207,0,0,1-.7.788,1.521,1.521,0,0,1-.836.264,1.451,1.451,0,0,1-.768-.228,1.6,1.6,0,0,1-.59-.667,2.078,2.078,0,0,1,.216-2.2,1.384,1.384,0,0,1,1.164-.576,1.535,1.535,0,0,1,.948.324,2.075,2.075,0,0,1,.665.938,5.061,5.061,0,0,1,.3,1.832,3.093,3.093,0,0,1-.26,1.348,2.623,2.623,0,0,1-.508.706,2.9,2.9,0,0,1-.753.556,2.638,2.638,0,0,1-1.194.287,1.293,1.293,0,0,1-.67-.155.213.213,0,0,1-.118-.182.171.171,0,0,1,.055-.13.184.184,0,0,1,.132-.052.411.411,0,0,1,.159.05.926.926,0,0,0,.41.086,2.271,2.271,0,0,0,1.667-.7,2.38,2.38,0,0,0,.7-1.752C1737.069,808.838,1737.063,808.659,1737.051,808.428Zm-.073-.638a2.682,2.682,0,0,0-.6-1.259,1.184,1.184,0,0,0-.836-.335,1.122,1.122,0,0,0-.856.41,1.514,1.514,0,0,0-.369,1.052,1.479,1.479,0,0,0,.369,1.032,1.1,1.1,0,0,0,.834.408,1.077,1.077,0,0,0,.53-.146,1.694,1.694,0,0,0,.494-.437A5.955,5.955,0,0,0,1736.978,807.79Z" transform="translate(-1728.127 -805.335)" fill="#fff"/>
        <path id="Контур_13678-2" data-name="Контур 13678" d="M1754.93,804.6l-3.079,6.6c-.052.112-.118.168-.2.168a.183.183,0,0,1-.134-.057.173.173,0,0,1-.057-.125.38.38,0,0,1,.046-.15l3.074-6.6a.361.361,0,0,1,.1-.137.189.189,0,0,1,.11-.032.183.183,0,0,1,.134.057.174.174,0,0,1,.057.126A.407.407,0,0,1,1754.93,804.6Z" transform="translate(-1740.258 -804.27)" fill="#fff"/>
        <path id="Контур_13679-2" data-name="Контур 13679" d="M1771.569,806v5.411h1.312a.293.293,0,0,1,.2.052.177.177,0,0,1,.059.139.178.178,0,0,1-.059.137.286.286,0,0,1-.2.054h-3.007a.285.285,0,0,1-.2-.054.178.178,0,0,1-.059-.137.176.176,0,0,1,.059-.139.292.292,0,0,1,.2-.052h1.312V806.53l-1.248.392a.52.52,0,0,1-.132.027.174.174,0,0,1-.126-.057.184.184,0,0,1-.057-.135.205.205,0,0,1,.046-.127.441.441,0,0,1,.15-.077Z" transform="translate(-1752.829 -805.469)" fill="#fff"/>
        <path id="Контур_13680-2" data-name="Контур 13680" d="M1788.188,806.641v1.873a3.945,3.945,0,0,1,.647-.212,2.661,2.661,0,0,1,.587-.071,1.6,1.6,0,0,1,1.205.506,1.841,1.841,0,0,1,.485,1.33,2.032,2.032,0,0,1-.547,1.476,1.822,1.822,0,0,1-1.366.565,2.377,2.377,0,0,1-1.043-.241,2.891,2.891,0,0,1-.647-.419c-.116-.1-.174-.184-.174-.251a.192.192,0,0,1,.055-.138.174.174,0,0,1,.128-.057.247.247,0,0,1,.164.082,2.158,2.158,0,0,0,1.5.642,1.465,1.465,0,0,0,1.106-.457,1.69,1.69,0,0,0,.438-1.219,1.44,1.44,0,0,0-.379-1.041,1.272,1.272,0,0,0-.961-.394,2.542,2.542,0,0,0-1.193.314.569.569,0,0,1-.2.073.17.17,0,0,1-.132-.055.219.219,0,0,1-.05-.154v-2.537h2.669a.286.286,0,0,1,.2.054.183.183,0,0,1,.059.141.178.178,0,0,1-.059.137.286.286,0,0,1-.2.054Z" transform="translate(-1765.093 -805.643)" fill="#fff"/>
      </g>
      <g id="uzcard-logo-1-4" data-name="uzcard-logo-1" transform="translate(27.491 18.34)">
        <path id="Path_217-4" data-name="Path 217" d="M600.381-514.62q0,6.1-2.788,9.078t-8.6,2.963q-5.425,0-8.231-2.963t-2.806-8.939v-13.367a.57.57,0,0,1,.568-.568h6.558a.569.569,0,0,1,.568.568v13.657a6.546,6.546,0,0,0,.913,3.762,3,3,0,0,0,2.619,1.318,3.025,3.025,0,0,0,2.612-1.24,6.215,6.215,0,0,0,.9-3.665v-2.557h7.693Z" transform="translate(-577.955 528.415)" fill="#fff" fill-rule="evenodd"/>
        <path id="Path_218-4" data-name="Path 218" d="M714.086-518.065h-7.1v-9.756a.6.6,0,0,1,.595-.595h1.062a6.034,6.034,0,0,0,6.035,6.03h0v4.32Z" transform="translate(-692.256 528.415)" fill="#fff" fill-rule="evenodd"/>
        <path id="Path_219-4" data-name="Path 219" d="M734.747-528.415h3.929a.6.6,0,0,1,.595.595v3.934a4.524,4.524,0,0,1-4.524-4.524Z" transform="translate(-716.845 528.415)" fill="#eb6e00" fill-rule="evenodd"/>
        <path id="Path_220-4" data-name="Path 220" d="M579.246-268.181a1.131,1.131,0,0,0,1.287-1.193v-1.711h-.62v1.694a.615.615,0,0,1-.667.671.618.618,0,0,1-.672-.671v-1.694h-.616v1.715A1.131,1.131,0,0,0,579.246-268.181Zm5.037-.051v-.535h-1.377l1.347-1.831v-.488H582.11v.535h1.347l-1.347,1.826v.492Zm2.9.051a1.313,1.313,0,0,0,1.193-.7l-.522-.252a.765.765,0,0,1-.671.415.888.888,0,0,1-.894-.936.888.888,0,0,1,.894-.936.773.773,0,0,1,.671.415l.522-.257a1.306,1.306,0,0,0-1.193-.7,1.45,1.45,0,0,0-1.518,1.476A1.449,1.449,0,0,0,587.186-268.181Zm5.306-.051-1.1-2.853h-.761l-1.1,2.853h.693l.179-.483h1.223l.175.483Zm-1.035-1.018h-.89l.445-1.228Zm5.134,1.733-1.047-1.8a.818.818,0,0,0,.624-.847.888.888,0,0,0-.958-.92h-1.334v2.853h.607v-1.014h.445l.965,1.728Zm-1.47-2.263h-.637v-.77h.637a.387.387,0,0,1,.427.385A.387.387,0,0,1,595.121-269.781Zm3.749,1.548a1.4,1.4,0,0,0,1.514-1.424,1.4,1.4,0,0,0-1.514-1.429h-1.125v2.853Zm0-.535h-.518v-1.783h.518a.835.835,0,0,1,.894.894.854.854,0,0,1-.251.642.854.854,0,0,1-.643.248Z" transform="translate(-577.959 300.507)" fill="#fff" fill-rule="evenodd"/>
      </g>
    </g>
  </g>
</svg>
