<svg xmlns="http://www.w3.org/2000/svg" width="64.902" height="64.902" viewBox="0 0 64.902 64.902">
  <g id="error" transform="translate(-170 -64)">
    <path id="Контур_13874" data-name="Контур 13874" d="M232.2,93.747a2.705,2.705,0,0,0-2.7,2.7A27.043,27.043,0,1,1,221.641,77.4a2.7,2.7,0,1,0,3.837-3.812A32.451,32.451,0,1,0,234.9,96.451,2.705,2.705,0,0,0,232.2,93.747Z" fill="#fe706f"/>
    <path id="Контур_13875" data-name="Контур 13875" d="M318.843,192.794a2.7,2.7,0,0,0-3.824,0l-6.2,6.2-6.2-6.2a2.7,2.7,0,1,0-3.824,3.824l6.2,6.2-6.2,6.2a2.7,2.7,0,1,0,3.824,3.824l6.2-6.2,6.2,6.2a2.7,2.7,0,0,0,3.824-3.824l-6.2-6.2,6.2-6.2A2.7,2.7,0,0,0,318.843,192.794Z" transform="translate(-106.368 -106.368)" fill="#fe706f"/>
  </g>
</svg>
