<svg xmlns="http://www.w3.org/2000/svg" width="20.945" height="20.645" viewBox="0 0 20.945 20.645">
  <g id="instagram" transform="translate(0.5 0.5)">
    <path id="Контур_8" data-name="Контур 8" d="M38.667,34.49h9.651a5.163,5.163,0,0,1,5.147,5.147v9.351a5.162,5.162,0,0,1-5.147,5.147H38.667a5.162,5.162,0,0,1-5.147-5.147V39.637A5.162,5.162,0,0,1,38.667,34.49Zm9.873,3.4a1.16,1.16,0,1,1-1.16,1.16A1.159,1.159,0,0,1,48.54,37.892Zm-5.048,1.193a5.228,5.228,0,1,1-5.228,5.228A5.227,5.227,0,0,1,43.492,39.085Zm0,1.7a3.525,3.525,0,1,1-3.525,3.525A3.525,3.525,0,0,1,43.492,40.787Zm-4-4.581h7.991a4.275,4.275,0,0,1,4.262,4.262v7.52a4.425,4.425,0,0,1-4.262,4.433H39.5a4.425,4.425,0,0,1-4.262-4.433v-7.52A4.275,4.275,0,0,1,39.5,36.206Z" transform="translate(-33.52 -34.49)" fill="#fff" stroke="rgba(0,0,0,0)" stroke-width="1" fill-rule="evenodd"/>
  </g>
</svg>
