<svg id="light" xmlns="http://www.w3.org/2000/svg" width="168.045" height="51.582" viewBox="0 0 168.045 51.582">
  <path id="Контур_13794" data-name="Контур 13794" d="M9909.295,1386.643c.954,0,1.833-.022,2.636-.06a24.04,24.04,0,0,0,2.483-.244.466.466,0,0,1,.564.526v2.825c0,.325-.2.548-.6.673a16.668,16.668,0,0,1-3.011.64,25.114,25.114,0,0,1-3.27.228,13.528,13.528,0,0,1-5.157-.868,8.414,8.414,0,0,1-3.424-2.5,10.415,10.415,0,0,1-1.913-4,21.931,21.931,0,0,1-.6-5.38v-1.73a22.83,22.83,0,0,1,.58-5.38,10.309,10.309,0,0,1,1.882-4,8.219,8.219,0,0,1,3.406-2.5,13.477,13.477,0,0,1,5.152-.868,18.383,18.383,0,0,1,3.194.282,18.658,18.658,0,0,1,2.82.694.88.88,0,0,1,.45.266.663.663,0,0,1,.113.412v2.706a.466.466,0,0,1-.563.532q-1.05-.155-2.294-.228c-.825-.049-1.666-.076-2.517-.076a8.228,8.228,0,0,0-3.031.488,4.366,4.366,0,0,0-1.975,1.546,6.787,6.787,0,0,0-1.068,2.647,19.173,19.173,0,0,0-.32,3.78v1.166a18.289,18.289,0,0,0,.337,3.78,6.657,6.657,0,0,0,1.111,2.636,4.49,4.49,0,0,0,2.012,1.524A8.2,8.2,0,0,0,9909.295,1386.643Zm10.044-21.591c0-.4.189-.6.565-.6h4.664a.532.532,0,0,1,.6.6V1384.5a2.815,2.815,0,0,0,.374,1.616,1.825,1.825,0,0,0,1.545.526H9936a.533.533,0,0,1,.6.6v2.782c0,.477-.212.727-.641.754-1.378.125-2.955.228-4.735.32s-3.628.13-5.53.13a12.692,12.692,0,0,1-2.99-.3,4.564,4.564,0,0,1-1.973-.955,3.566,3.566,0,0,1-1.074-1.714,9.071,9.071,0,0,1-.32-2.592Zm26.592,25.089a.567.567,0,0,1-.641.64h-4.551a.566.566,0,0,1-.64-.64v-25.013c0-.45.212-.678.64-.678h4.551c.428,0,.641.228.641.678Zm17.6-3.5c.949,0,1.828-.022,2.631-.06a23.883,23.883,0,0,0,2.483-.244.466.466,0,0,1,.564.526v2.825c0,.325-.2.548-.6.673a16.529,16.529,0,0,1-3.01.64,25.117,25.117,0,0,1-3.271.228,13.483,13.483,0,0,1-5.151-.868,8.346,8.346,0,0,1-3.423-2.5,10.354,10.354,0,0,1-1.92-4,21.934,21.934,0,0,1-.6-5.38v-1.73a22.778,22.778,0,0,1,.58-5.38,10.391,10.391,0,0,1,1.881-4,8.26,8.26,0,0,1,3.407-2.5,13.49,13.49,0,0,1,5.152-.868,18.364,18.364,0,0,1,3.193.282,18.614,18.614,0,0,1,2.821.694.922.922,0,0,1,.455.266.7.7,0,0,1,.107.412v2.706a.465.465,0,0,1-.562.532q-1.05-.155-2.294-.228c-.825-.049-1.665-.076-2.517-.076a8.241,8.241,0,0,0-3.032.488,4.359,4.359,0,0,0-1.974,1.546,6.787,6.787,0,0,0-1.068,2.647,19.173,19.173,0,0,0-.32,3.78v1.166a18.71,18.71,0,0,0,.336,3.78,6.658,6.658,0,0,0,1.112,2.636,4.517,4.517,0,0,0,2.012,1.524A8.213,8.213,0,0,0,9963.534,1386.643Zm28.924-22.193a.417.417,0,0,1,.411.228.449.449,0,0,1-.076.488l-8.047,11.958,9.1,12.978a.417.417,0,0,1-.374.678h-5.3a1.456,1.456,0,0,1-.641-.114,1.071,1.071,0,0,1-.411-.412l-7.713-11.736v11.622a.567.567,0,0,1-.641.64h-4.55a.568.568,0,0,1-.64-.64v-25.013c0-.45.217-.678.64-.678h4.55c.429,0,.641.228.641.678v10.608l7.187-10.836a1.029,1.029,0,0,1,.861-.45Z" transform="translate(-9842.099 -1356.602)" fill="#fefefe"/>
  <path id="Контур_13795" data-name="Контур 13795" d="M9919.846,6946.7c.684,0,.846-.1.846-.558v-5.348h.271l3.986,5.516c.227.31.455.39,1.074.39.721,0,.846-.141.846-.39a1.1,1.1,0,0,0-.287-.662l-4.133-5.429,3.928-5.266a1.093,1.093,0,0,0,.264-.6c0-.244-.205-.347-.824-.347-.742,0-.889.06-1.117.391l-3.715,5.222h-.293v-5.076c0-.434-.162-.537-.846-.537s-.846.1-.846.537v11.6C9919,6946.593,9919.168,6946.7,9919.846,6946.7Z" transform="translate(-9864.782 -6896.009)" fill="#53b7d1"/>
  <path id="_1" data-name="1" d="M11598.9,7378.549c3.061,0,4.215-1.134,4.215-5.386,0-4.339-.889-5.163-3.883-5.163-3.053,0-4.23,1.09-4.23,5.37C11595,7377.7,11595.883,7378.549,11598.9,7378.549Zm.043-1.465c-1.939,0-2.213-.58-2.213-3.921,0-3.059.418-3.721,2.441-3.721,1.943,0,2.207.559,2.207,3.905C11601.377,7376.4,11600.965,7377.084,11598.941,7377.084Z" transform="translate(-11531.62 -7327.655)" fill="#53b7d1"/>
  <path id="_2" data-name="2" d="M13537.408,7406.537c0-.434-.162-.537-.846-.537s-.847.1-.847.537v8.054h-3.655v-8.054c0-.434-.162-.537-.846-.537-.7,0-.868.1-.868.537v8.054h-3.654v-8.054c0-.434-.163-.537-.847-.537s-.846.1-.846.537v9.084c0,.412.125.516.618.516h11.172c.516,0,.618-.1.618-.516Z" transform="translate(-13451.054 -7365.45)" fill="#53b7d1"/>
  <path id="_3" data-name="3" d="M16251.154,7378.549a9.813,9.813,0,0,0,2.869-.435c.389-.141.492-.265.492-.8,0-.559-.1-.684-.287-.684a13.469,13.469,0,0,1-2.912.434c-2.229,0-2.561-.472-2.582-3.384h5.186c.617,0,.742-.292.742-.868,0-3.243-.354-4.811-3.611-4.811-2.479,0-4.053.45-4.053,5.37C16247,7377.93,16248.2,7378.549,16251.154,7378.549Zm-.146-9.106c1.963,0,2,.949,2,3.059h-4.273C16248.816,7369.773,16249.4,7369.442,16251.008,7369.442Z" transform="translate(-16158.19 -7327.655)" fill="#53b7d1"/>
  <path id="_4" data-name="4" d="M17858.221,7416.137c.678,0,.846-.1.846-.559v-9.063c0-.412-.123-.515-.619-.515h-5.082c-.557,0-.66.1-.7.537l-.811,7.311c-.1.862-.225.987-.7.987-.355,0-.559-.06-.83-.06-.229,0-.33.06-.33.618,0,.581.145.721.52.808a5.078,5.078,0,0,0,1.133.12c1.3,0,1.633-.678,1.756-1.8l.766-7.018h3.2v8.071C17857.375,7416.033,17857.537,7416.137,17858.221,7416.137Z" transform="translate(-17752.424 -7365.45)" fill="#53b7d1"/>
  <path id="_5" data-name="5" d="M19960.148,6802.688a9.849,9.849,0,0,0,2.873-.433c.391-.141.492-.267.492-.8,0-.559-.1-.683-.287-.683a13.543,13.543,0,0,1-2.91.433c-2.229,0-2.561-.471-2.584-3.384h5.188c.617,0,.742-.292.742-.868,0-3.243-.352-4.81-3.619-4.81-2.475,0-4.043.449-4.043,5.369C19956,6802.071,19957.2,6802.688,19960.148,6802.688Zm-.143-9.105c1.957,0,2,.949,2,3.058h-4.275C19957.816,6793.914,19958.4,6793.583,19960.006,6793.583Zm-1.779-2.848c.764,0,.912-.1.912-.64v-.434c0-.537-.148-.662-.912-.662s-.9.125-.9.662v.434c0,.537.141.64.9.64Zm3.037,0c.766,0,.908-.1.908-.64v-.434c0-.537-.143-.662-.908-.662-.785,0-.928.125-.928.662v.434C19960.336,6790.632,19960.479,6790.735,19961.264,6790.735Z" transform="translate(-19846.92 -6751.796)" fill="#53b7d1"/>
  <path id="_6" data-name="6" d="M21776.848,7416.137c.682,0,.844-.082.844-.559v-4.149h.17l3.508,4.273c.289.353.391.435,1.074.435.617,0,.867-.1.867-.332a.815.815,0,0,0-.25-.537l-3.656-4.436,3.393-3.964a1.006,1.006,0,0,0,.285-.58c0-.207-.205-.288-.824-.288-.705,0-.846.059-1.139.412l-3.244,3.862h-.184v-3.736c0-.478-.162-.537-.844-.537s-.848.059-.848.537v9.041C21776,7416.055,21776.162,7416.137,21776.848,7416.137Z" transform="translate(-21656.975 -7365.45)" fill="#53b7d1"/>
  <path id="Контур_13797" data-name="Контур 13797" d="M6.291,0H33.235a6.291,6.291,0,0,1,0,12.582H6.291A6.291,6.291,0,0,1,6.291,0Z" transform="translate(128.519 38.999)" fill="#53b7d1"/>
  <path id="Контур_13796" data-name="Контур 13796" d="M24770,7314.883V7306h1.182v7.836h4.367v1.047Z" transform="translate(-24634.438 -7265.992)" fill="#fefefe"/>
  <path id="_1-2" data-name="1" d="M26027,7307.236V7306h1.09v1.236Zm0,7.646v-6.442h1.09v6.442Z" transform="translate(-25884.619 -7265.992)" fill="#fefefe"/>
  <path id="_2-2" data-name="2" d="M26457.223,7738.11l1.053.146a1,1,0,0,0,.373.715,1.818,1.818,0,0,0,1.107.3,1.938,1.938,0,0,0,1.17-.3,1.482,1.482,0,0,0,.561-.846,6.839,6.839,0,0,0,.08-1.394,2.244,2.244,0,0,1-1.783.846,2.424,2.424,0,0,1-2.055-.96,3.647,3.647,0,0,1-.729-2.294,4.247,4.247,0,0,1,.33-1.7,2.549,2.549,0,0,1,2.459-1.626,2.284,2.284,0,0,1,1.875.932v-.8h1.006v5.564a5.217,5.217,0,0,1-.3,2.126,2.235,2.235,0,0,1-.975.992,3.349,3.349,0,0,1-1.625.364,3.107,3.107,0,0,1-1.861-.516A1.75,1.75,0,0,1,26457.223,7738.11Zm.895-3.862a2.8,2.8,0,0,0,.5,1.839,1.611,1.611,0,0,0,1.266.586,1.627,1.627,0,0,0,1.264-.581,2.7,2.7,0,0,0,.51-1.812,2.665,2.665,0,0,0-.525-1.778,1.642,1.642,0,0,0-1.266-.6,1.553,1.553,0,0,0-1.234.591A2.587,2.587,0,0,0,26458.117,7734.248Z" transform="translate(-26312.287 -7688.687)" fill="#fefefe"/>
  <path id="_3-2" data-name="3" d="M27807,7314.883V7306h1.1v3.194a2.416,2.416,0,0,1,1.918-.89,2.581,2.581,0,0,1,1.238.281,1.68,1.68,0,0,1,.748.776,3.59,3.59,0,0,1,.223,1.442v4.078h-1.09v-4.073a1.7,1.7,0,0,0-.354-1.187,1.293,1.293,0,0,0-.992-.374,1.74,1.74,0,0,0-.906.249,1.4,1.4,0,0,0-.607.684,3.2,3.2,0,0,0-.178,1.183v3.52Z" transform="translate(-27654.965 -7265.992)" fill="#fefefe"/>
  <path id="_4-2" data-name="4" d="M28967.994,7349.711l.146.966a4.387,4.387,0,0,1-.818.1,1.865,1.865,0,0,1-.922-.19,1.112,1.112,0,0,1-.463-.494,4.118,4.118,0,0,1-.129-1.291v-3.709H28965v-.846h.809v-1.589l1.09-.656v2.245h1.1v.846h-1.1v3.77a1.9,1.9,0,0,0,.061.6.409.409,0,0,0,.184.212.713.713,0,0,0,.375.081A3.7,3.7,0,0,0,28967.994,7349.711Z" transform="translate(-28806.686 -7301.796)" fill="#fefefe"/>
  <g id="_2300978878608" transform="translate(0 0)">
    <g id="Page-1">
      <g id="Android">
        <g id="Group">
          <g id="CLICK--EVOLUTION">
            <path id="Combined-Shape" d="M1.291,15.54c1.529-3.308,3.829-5.6,6.036-7.831A39.881,39.881,0,0,1,15.278,1.32c4.5-2.63,8.254-1.285,11.357.4A33.842,33.842,0,0,1,34.58,7.627a26.09,26.09,0,0,1,5.478,7.9c1.589,4.377,2.018,7.284-.157,11.362A28.958,28.958,0,0,1,34.422,34a43.194,43.194,0,0,1-7.788,6.232c-4.1,2.544-7.712,2.164-11.758,0a24.706,24.706,0,0,1-6.909-5.19c-2.213-2.224-5.038-5.413-6.356-8.151-.033-.06-.054-.119-.081-.179-.005,0-.005-.005-.011-.011-.027-.054-.049-.108-.076-.168-.005-.005-.005-.016-.011-.022-.027-.054-.049-.108-.076-.163a.041.041,0,0,0-.011-.022c-.022-.054-.049-.108-.065-.157l-.016-.027c-.022-.054-.043-.1-.071-.157,0-.011-.005-.022-.005-.033-.027-.049-.043-.1-.071-.157-.005-.005-.005-.016-.011-.022a1.349,1.349,0,0,1-.06-.157.041.041,0,0,1-.011-.022c-.022-.054-.043-.1-.065-.157l-.005-.016c-.022-.054-.043-.1-.065-.152a.059.059,0,0,0-.005-.027c-.016-.049-.038-.1-.054-.146-.005-.011-.011-.027-.016-.038C.808,25,.792,24.961.776,24.912a.264.264,0,0,1-.016-.038c-.016-.043-.033-.092-.049-.136A.1.1,0,0,0,.7,24.695c-.016-.049-.033-.092-.049-.136a.128.128,0,0,1-.011-.043,1.358,1.358,0,0,1-.049-.136.128.128,0,0,0-.011-.043c-.016-.043-.027-.087-.043-.13a.128.128,0,0,1-.011-.043C.51,24.125.5,24.082.488,24.044c-.005-.022-.011-.033-.016-.054-.011-.038-.016-.076-.033-.119-.005-.011-.005-.027-.011-.043A1.057,1.057,0,0,1,.4,23.7a.512.512,0,0,0-.016-.049c-.011-.043-.016-.087-.027-.125-.005-.022-.011-.038-.016-.054a1.22,1.22,0,0,1-.027-.119A.337.337,0,0,0,.293,23.3a.5.5,0,0,1-.022-.125c-.005-.016-.011-.033-.016-.054C.244,23.084.239,23.046.228,23a.2.2,0,0,1-.011-.06c-.005-.033-.011-.06-.016-.1C.2,22.824.19,22.8.184,22.775s-.011-.065-.016-.092L.152,22.6c-.005-.027-.011-.06-.016-.092a.366.366,0,0,0-.011-.076.671.671,0,0,0-.011-.1C.108,22.319.108,22.3.1,22.276c-.005-.038-.011-.071-.016-.114a.231.231,0,0,0-.011-.06.691.691,0,0,0-.005-.108c-.005-.027-.005-.043-.011-.071a.815.815,0,0,0-.011-.108c0-.022-.005-.043-.005-.065s-.005-.06-.011-.1c0-.022-.005-.054-.005-.076V21.5a.558.558,0,0,1-.005-.1.309.309,0,0,1-.005-.071.623.623,0,0,1-.005-.1.358.358,0,0,0-.005-.076V20.98A.309.309,0,0,1,0,20.909v-.174c0-.033.005-.065.005-.1v-.076a.589.589,0,0,1,.005-.1v-.076a.691.691,0,0,0,.005-.108.2.2,0,0,0,.005-.06c0-.033.005-.071.005-.108v-.06c.005-.033.005-.071.011-.1s.005-.049.005-.065a.735.735,0,0,0,.011-.108c.005-.027.005-.049.011-.071a.809.809,0,0,0,.011-.114c0-.016.005-.038.005-.054.005-.043.011-.081.016-.119.005-.022.005-.033.011-.054.005-.038.011-.081.016-.119A.15.15,0,0,1,.13,19.19c.005-.043.016-.081.022-.119.005-.022.005-.038.011-.054a.93.93,0,0,1,.022-.13A.193.193,0,0,1,.2,18.832c.005-.043.016-.087.022-.13.005-.016.005-.033.011-.049.011-.038.022-.081.033-.125a.128.128,0,0,1,.011-.043c.005-.043.016-.087.027-.136a.138.138,0,0,1,.011-.038.747.747,0,0,1,.033-.141c.005-.011.005-.027.011-.033.011-.054.022-.1.038-.157C.4,17.97.4,17.959.4,17.948a1.358,1.358,0,0,1,.038-.141c.005-.016.005-.027.011-.033.011-.049.027-.1.043-.152A.092.092,0,0,1,.5,17.6a1.241,1.241,0,0,1,.043-.152c.005-.011.005-.022.011-.027l.049-.163c0-.011.005-.016.005-.022a1.533,1.533,0,0,0,.06-.168c0-.005.005-.011.011-.022.016-.049.033-.1.054-.157.005-.011.005-.016.011-.027C.765,16.8.786,16.75.8,16.7c.005,0,.005-.011.011-.016.022-.06.043-.114.065-.174a.017.017,0,0,0,.005-.011c.022-.06.049-.119.071-.179,0-.005.005-.011.005-.016.027-.06.049-.114.076-.174,0-.005.005-.011.005-.016.022-.06.049-.114.071-.174l.011-.016c.022-.06.054-.119.076-.174L1.2,15.73C1.237,15.665,1.264,15.605,1.291,15.54ZM10.1,18.3c-.016.033-.033.065-.049.1l-.005.005a.769.769,0,0,1-.043.1L10,18.512a.662.662,0,0,1-.038.092c0,.005-.005.005-.005.011a.522.522,0,0,1-.038.1l-.005.005c-.016.038-.022.071-.038.1v.005c-.016.033-.027.065-.038.092,0,.005-.005.011-.005.016-.011.033-.022.06-.033.087a.02.02,0,0,1-.005.016c-.011.033-.022.06-.033.087a.019.019,0,0,1-.005.011.372.372,0,0,1-.027.092c-.005.005-.005.005-.005.011a.836.836,0,0,0-.027.092.02.02,0,0,0-.005.016c-.011.033-.022.054-.033.081a.041.041,0,0,1-.005.022.432.432,0,0,1-.016.081c-.005.005-.005.011-.011.016a.432.432,0,0,0-.016.081.02.02,0,0,0-.005.016c-.011.033-.016.054-.027.087a.02.02,0,0,1-.005.016c-.005.033-.011.054-.016.081,0,.011,0,.016-.005.022-.005.027-.011.049-.016.076a.041.041,0,0,0-.005.022.38.38,0,0,0-.016.076.033.033,0,0,1-.005.022c-.005.022-.011.049-.016.071a.069.069,0,0,1-.005.033c-.005.022-.005.049-.011.071a.069.069,0,0,0-.005.033.233.233,0,0,0-.011.065.049.049,0,0,1-.005.027.272.272,0,0,1-.011.065v.033a.2.2,0,0,0-.011.065.192.192,0,0,0-.005.033c0,.022-.005.038-.005.06a.106.106,0,0,0-.005.038V20.7a.059.059,0,0,0-.005.033c0,.022-.005.038-.005.06s0,.027-.005.033v.06a.08.08,0,0,0-.005.038v.054c0,.016-.005.033-.005.049v.423a.167.167,0,0,1,.005.049v.043a.2.2,0,0,1,.005.054.15.15,0,0,0,.005.049v.043a.135.135,0,0,1,.005.049.08.08,0,0,1,.005.038v.06a.092.092,0,0,1,.005.038c.005.022.005.038.011.06v.033a.325.325,0,0,1,.011.065c0,.011.005.027.005.033.005.022.005.038.011.054v.043c.005.016.005.033.011.054s.005.027.005.043a.13.13,0,0,1,.011.049c.005.011.005.027.011.043s.005.033.011.054a.049.049,0,0,1,.005.027.317.317,0,0,0,.011.071c.005.011.005.022.011.027.005.027.011.043.016.071a.235.235,0,0,0,.005.027.167.167,0,0,0,.016.071c0,.011.005.022.005.033a.456.456,0,0,0,.022.065c0,.011.005.016.005.027s.011.049.016.065.005.022.011.033.011.043.016.065a.041.041,0,0,1,.005.027c.005.022.016.043.022.071.005.005.005.011.011.016a.38.38,0,0,1,.016.076c.005.011.005.016.011.022a.425.425,0,0,0,.027.076.235.235,0,0,0,.005.027.425.425,0,0,0,.027.076c0,.005.005.016.005.022a.657.657,0,0,1,.027.076.028.028,0,0,0,.011.022.477.477,0,0,0,.027.081.02.02,0,0,1,.005.016c.011.027.022.06.033.081a.02.02,0,0,1,.005.016c.011.027.022.06.033.081l.005.016a.509.509,0,0,1,.033.081.019.019,0,0,0,.005.011.9.9,0,0,1,.033.087c.005.005.005.011.011.016.011.033.027.06.038.092a.017.017,0,0,0,.005.011c.011.033.027.06.038.092l.005.011a.706.706,0,0,0,.043.092.019.019,0,0,1,.005.011c.011.033.027.06.038.092.005,0,.005.005.011.005a.305.305,0,0,0,.038.1c.005,0,.005,0,.005.005a.547.547,0,0,0,.049.1A19.244,19.244,0,0,0,13.8,29.12a13.973,13.973,0,0,0,3.84,2.885c2.245,1.2,4.257,1.41,6.535,0a24.291,24.291,0,0,0,4.322-3.46,16.178,16.178,0,0,0,3.043-3.954c1.2-2.267.971-3.878.087-6.307A14.39,14.39,0,0,0,28.587,13.9a18.921,18.921,0,0,0-4.409-3.287c-1.73-.933-3.813-1.676-6.313-.217A22.234,22.234,0,0,0,13.45,13.94,15.2,15.2,0,0,0,10.1,18.3Z" transform="translate(0 0.162)" fill="#53b7d1" fill-rule="evenodd"/>
          </g>
        </g>
      </g>
    </g>
  </g>
</svg>
