<svg xmlns="http://www.w3.org/2000/svg" xmlns:xlink="http://www.w3.org/1999/xlink" width="174.33" height="64.437" viewBox="0 0 174.33 64.437">
  <defs>
    <style>
      .cls-1 {
        fill: #4ebcd8;
      }

      .cls-2 {
        fill: url(#linear-gradient);
      }

      .cls-3 {
        fill: url(#linear-gradient-2);
      }

      .cls-4 {
        fill: #b3faff;
      }

      .cls-5 {
        fill: url(#linear-gradient-3);
      }

      .cls-6 {
        fill: #fff;
      }
    </style>
    <linearGradient id="linear-gradient" x1="0.565" y1="0.832" x2="-0.031" y2="1.272" gradientUnits="objectBoundingBox">
      <stop offset="0.234" stop-opacity="0"/>
      <stop offset="1" stop-color="#0b193e" stop-opacity="0.502"/>
    </linearGradient>
    <linearGradient id="linear-gradient-2" x1="1.19" y1="-0.207" x2="0.442" y2="0.55" gradientUnits="objectBoundingBox">
      <stop offset="0.234" stop-opacity="0"/>
      <stop offset="1" stop-color="#0b193e" stop-opacity="0.251"/>
    </linearGradient>
    <linearGradient id="linear-gradient-3" x1="0.133" y1="0.833" x2="0.897" y2="0.087" gradientUnits="objectBoundingBox">
      <stop offset="0.234" stop-color="#53c6e2"/>
      <stop offset="1" stop-color="#79e8ef"/>
    </linearGradient>
  </defs>
  <g id="logo" transform="translate(-360.515 -788.892)">
    <path id="Контур_13826" data-name="Контур 13826" class="cls-1" d="M423.178,822.957a17.732,17.732,0,0,0-.267-2.169,1.185,1.185,0,0,0-.071-.32,32.248,32.248,0,0,0-1.089-4.013,24.355,24.355,0,0,0-1.778-4.231,43.168,43.168,0,0,0-6.662-8.854,49.548,49.548,0,0,0-10.1-7.991A38.858,38.858,0,0,0,398.1,792.7a18.187,18.187,0,0,0-4.6-1.324c-.236-.036-.467-.067-.7-.089a13.123,13.123,0,0,0-3.516.089,15.06,15.06,0,0,0-2.04.462,15.264,15.264,0,0,0-2.924,1.213q-.833.453-1.64.947c-.564.347-1.124.7-1.671,1.08-.48.32-.951.653-1.413,1q-2.227,1.647-4.307,3.48a.1.1,0,0,0-.031.031q-1.253,1.107-2.449,2.28c-.4.382-.8.769-1.191,1.16-1.178,1.156-2.342,2.347-3.467,3.569-.444.476-.876.964-1.293,1.462a34.136,34.136,0,0,0-3.378,4.809,24.144,24.144,0,0,0-2.444,5.889c-.071.289-.138.573-.2.867a12.787,12.787,0,0,0-.24,1.533c0,.3-.053.613-.058.933a14.421,14.421,0,0,0,.053,2.147c.018.151.036.307.058.458.093.676.218,1.351.378,2.018.138.587.3,1.169.493,1.742.071.213.142.422.218.631,0,0,0,0,0,0,.08.209.16.418.24.622s.169.413.262.618.178.409.276.609a29.7,29.7,0,0,0,3.778,6.133c.227.293.453.582.689.867a91.4,91.4,0,0,0,14,12.516l-.178.24c.227.138.467.276.7.409.013,0,.022.013.036.018.956.542,1.929,1.04,2.924,1.5.413.2.831.387,1.249.564a19.1,19.1,0,0,0,2.142.751,18.871,18.871,0,0,0,2.378.516,13.016,13.016,0,0,0,5.76-.378,18.008,18.008,0,0,0,4.853-2.16c.649-.4,1.3-.818,1.933-1.249a.079.079,0,0,1,.031-.022c.32-.213.636-.431.951-.649s.609-.422.916-.64c.009-.009.022-.013.031-.027q1.807-1.313,3.52-2.742c1.151-.96,2.267-1.964,3.351-3,.351-.333.7-.671,1.049-1.013s.684-.689,1.022-1.04.676-.7,1-1.049a42.187,42.187,0,0,0,4.413-5.516,30.949,30.949,0,0,0,2.969-5.467A15.421,15.421,0,0,0,423.178,822.957Zm-45.245,8.382a16.862,16.862,0,0,1-2.52-4.48,9.558,9.558,0,0,1-.329-1.067,9.263,9.263,0,0,1-.329-2.636c0-.213.013-.422.027-.613a10.278,10.278,0,0,1,.631-2.6,15.775,15.775,0,0,1,2.569-4.387.152.152,0,0,1,.027-.027c.311-.373.631-.742.96-1.1A.154.154,0,0,0,379,814.4c.324-.364.658-.72,1-1.071l.027-.027c.333-.351.68-.7,1.031-1.04a.51.51,0,0,1,.071-.067c.222-.218.449-.436.676-.644.089-.084.178-.169.271-.253.031-.031.067-.062.1-.093.422-.4.853-.8,1.3-1.173s.876-.729,1.329-1.071c.151-.12.311-.24.467-.351s.316-.227.476-.338q.953-.647,1.938-1.236a8.373,8.373,0,0,1,2.991-1.08c.12-.018.236-.031.356-.044.289-.027.578-.044.871-.071a7.617,7.617,0,0,1,.782.049,8.987,8.987,0,0,1,2.5.618,21.791,21.791,0,0,1,3.965,2.093,26.769,26.769,0,0,1,7.787,7.551.541.541,0,0,1,.044.062,16.335,16.335,0,0,1,2.4,6.058,8.128,8.128,0,0,1,.156,1.182,8.376,8.376,0,0,1-.276,2.636,9.063,9.063,0,0,1-.5,1.387,19.11,19.11,0,0,1-3.018,4.7q-.647.76-1.329,1.484l-.027.027c-.156.164-.316.324-.471.484a36.842,36.842,0,0,1-4.04,3.538c-.729.551-1.484,1.076-2.253,1.573l-.378.231a13.145,13.145,0,0,1-1.178.658L396,840.2a8.237,8.237,0,0,1-4.853.778,8.667,8.667,0,0,1-1.364-.316c-.156-.044-.307-.093-.458-.142a14.138,14.138,0,0,1-1.52-.622l-.569-.293a21.286,21.286,0,0,1-5.076-3.618A46.982,46.982,0,0,1,377.933,831.339Z" transform="translate(0 -1.288)"/>
    <path id="Контур_13827" data-name="Контур 13827" class="cls-2" d="M428.9,819.182a8.961,8.961,0,0,0-2.562-.708L432.132,815l9.858,10.938a2.134,2.134,0,0,1,.139,2.677l-1.182,1.606c-.168-.334-.354-.66-.549-.981a26.726,26.726,0,0,0-7.6-7.842A22.074,22.074,0,0,0,428.9,819.182Z" transform="translate(-36.567 -14.502)"/>
    <path id="Контур_13828" data-name="Контур 13828" class="cls-3" d="M420.818,841.229c-.222.569-.147.3-.4.72a11.513,11.513,0,0,1-1.924,1.787l-35.73,20.792-.093.062c-.231-.133-.471-.271-.7-.409l.178-.24a91.4,91.4,0,0,1-14-12.516c-.236-.284-.462-.573-.689-.867a29.7,29.7,0,0,1-3.778-6.133c-.1-.2-.187-.4-.276-.609s-.178-.409-.262-.618-.16-.413-.24-.622c0,0,0,0,0,0-.036-.227-.067-.453-.1-.68-.084-.64-.138-1.284-.164-1.924a21.2,21.2,0,0,1,.009-2.191c.6-.556.991-.929,1-.929l19.316-11.814c-.227.209-.453.427-.676.644a.508.508,0,0,0-.071.067c-.351.342-.7.689-1.031,1.04l-.027.027c-.338.351-.671.707-1,1.071a.153.153,0,0,1-.027.027c-.329.36-.649.729-.96,1.1a.149.149,0,0,0-.027.027,15.775,15.775,0,0,0-2.569,4.387,10.278,10.278,0,0,0-.631,2.6c-.013.191-.027.4-.027.613a9.262,9.262,0,0,0,.329,2.636,9.564,9.564,0,0,0,.329,1.067,16.863,16.863,0,0,0,2.52,4.48,46.985,46.985,0,0,0,4.227,4.645,21.286,21.286,0,0,0,5.076,3.618l.569.293a14.138,14.138,0,0,0,1.52.622c.151.049.3.1.458.142a8.666,8.666,0,0,0,1.364.316,8.237,8.237,0,0,0,4.853-.778l.053-.027A13.137,13.137,0,0,0,398.4,853l.378-.231c.769-.5,1.524-1.022,2.253-1.573a36.845,36.845,0,0,0,4.04-3.538c.156-.16.316-.32.471-.484l.027-.027q.68-.727,1.329-1.484a19.111,19.111,0,0,0,3.018-4.7,9.066,9.066,0,0,0,.5-1.387,8.375,8.375,0,0,0,.276-2.636,8.123,8.123,0,0,0-.156-1.182,16.335,16.335,0,0,0-2.4-6.058.537.537,0,0,0-.044-.062,26.769,26.769,0,0,0-7.787-7.551,21.79,21.79,0,0,0-3.965-2.093,8.987,8.987,0,0,0-2.5-.618l2.293-1.4,2.667-1.311.867-.858a3.476,3.476,0,0,1,3.689.511,4.338,4.338,0,0,1,.4.4,4.577,4.577,0,0,1,.311.44l16.516,20.2A4.381,4.381,0,0,1,420.818,841.229Z" transform="translate(-1.164 -14.773)"/>
    <path id="Контур_13829" data-name="Контур 13829" class="cls-4" d="M435.485,815.156l-.32.44a3.944,3.944,0,0,0-.66-4.266L416.094,790.9a3.241,3.241,0,0,0-2.28-1.068,3.234,3.234,0,0,0-2.019.6l.1-.14a.648.648,0,0,1,.051-.065,3.218,3.218,0,0,1,4.2-.916,3.147,3.147,0,0,1,.808.647l18.282,20.281A3.907,3.907,0,0,1,435.485,815.156Z" transform="translate(-28.488)"/>
    <path id="Контур_13830" data-name="Контур 13830" class="cls-5" d="M406.178,812.5l-9.72-10.782-8.694-9.645a3.387,3.387,0,0,0-.364-.351,3.56,3.56,0,0,0-.444-.3,3.294,3.294,0,0,0-1.471-.418,3.256,3.256,0,0,0-2.018.6l-2.3,3.36-19.6,28.578s-.3.418-.756,1.036c.093.676.218,1.351.378,2.018.138.586.3,1.169.493,1.742.071.213.142.422.218.631,0,0,0,0,0,0,.08.208.16.418.24.622s.169.413.262.618.178.409.276.608a29.708,29.708,0,0,0,3.778,6.134c.227.293.453.582.689.866,1.089,1.365,2.24,2.681,3.436,3.956.644.689,1.3,1.373,1.969,2.04l.333.329c.973.96,1.978,1.889,2.987,2.809a25.882,25.882,0,0,0,3.307,2.5c.587.391,1.187.769,1.8,1.124.227.138.467.276.7.408.013,0,.022.014.036.018l.058-.08,7.729-10.525.089-.12,15.8-21.529,1.458-1.987a3.542,3.542,0,0,0,.244-.733A3.917,3.917,0,0,0,406.178,812.5Z" transform="translate(-0.161 -1.173)"/>
    <ellipse id="Эллипс_122" data-name="Эллипс 122" class="cls-6" cx="3.387" cy="4.529" rx="3.387" ry="4.529" transform="translate(383.42 808.912) rotate(-45)"/>
    <g id="Сгруппировать_3203" data-name="Сгруппировать 3203" transform="translate(434.207 799.226)">
      <path id="Контур_13831" data-name="Контур 13831" class="cls-6" d="M726.386,840.317a.524.524,0,0,1-.434.209h-5.333a4.771,4.771,0,0,1-.522-.042.865.865,0,0,1-.616-.366c-.094-.125-.178-.256-.261-.386L711.7,828.3l-.23-.345c-.115.036-.083.115-.083.167v11.425a3.135,3.135,0,0,1,0,.386.522.522,0,0,1-.49.553h-.032a1.531,1.531,0,0,1-.35,0h-4.357a1.936,1.936,0,0,1-.386-.031.523.523,0,0,1-.46-.523q-.011-.232,0-.465v-25.69a.575.575,0,0,1,.523-.575,1.529,1.529,0,0,1,.272,0h4.5a1.161,1.161,0,0,1,.193,0,.6.6,0,0,1,.59.6h0v10.944c.141,0,.172-.12.225-.2q1.081-1.619,2.152-3.244,2.434-3.657,4.879-7.355c.057-.083.115-.172.177-.256a1.125,1.125,0,0,1,.92-.523H724.7a1.526,1.526,0,0,1,.345.032.407.407,0,0,1,.333.47.414.414,0,0,1-.046.131,2.51,2.51,0,0,1-.183.3l-3.39,5.031-4.644,6.906c-.068.094-.125.193-.193.3l.22.329,8.959,12.762c.094.141.193.277.287.412Z" transform="translate(-625.753 -812.713)"/>
      <path id="Контур_13832" data-name="Контур 13832" class="cls-6" d="M526.322,826.26c0-.825,0-1.656.063-2.486a19.338,19.338,0,0,1,.846-4.968,10.726,10.726,0,0,1,.726-1.713,8.589,8.589,0,0,1,4.639-4.111,12.016,12.016,0,0,1,3.019-.71,17.98,17.98,0,0,1,2.366-.125,19.835,19.835,0,0,1,3.286.324,18.966,18.966,0,0,1,2.638.653l.256.089a.642.642,0,0,1,.47.679v2.805c-.031.412-.23.585-.637.522-.219,0-.433-.057-.653-.078-.376-.042-.747-.094-1.123-.12-1.243-.089-2.486-.125-3.73-.094a8.339,8.339,0,0,0-2.032.3,4.7,4.7,0,0,0-3.082,2.612,8.321,8.321,0,0,0-.695,2.257,18.194,18.194,0,0,0-.261,3.056c0,1.1,0,2.2.036,3.307a12.234,12.234,0,0,0,.523,3.213,9,9,0,0,0,.418,1.044,4.764,4.764,0,0,0,3.072,2.6,7.34,7.34,0,0,0,2.089.329c1.045,0,2.053,0,3.072-.026a23.58,23.58,0,0,0,2.711-.251,1.8,1.8,0,0,1,.23,0,.46.46,0,0,1,.476.428,1.98,1.98,0,0,1,0,.308v2.764a.653.653,0,0,1-.381.59,2.643,2.643,0,0,1-.4.151,18.765,18.765,0,0,1-2.581.564,30.212,30.212,0,0,1-3.291.287,18.552,18.552,0,0,1-2.638-.12,12.086,12.086,0,0,1-2.612-.559,8.8,8.8,0,0,1-4.231-2.915,10.031,10.031,0,0,1-1.567-2.857,16.213,16.213,0,0,1-.721-2.977A31.2,31.2,0,0,1,526.322,826.26Z" transform="translate(-526.319 -812.144)"/>
      <path id="Контур_13833" data-name="Контур 13833" class="cls-6" d="M653.084,826.265c0-1.045,0-2.089.084-3.108a17.245,17.245,0,0,1,1.087-5.109,8.718,8.718,0,0,1,5.782-5.3,12.1,12.1,0,0,1,2.393-.48,18.31,18.31,0,0,1,2.33-.12,19.927,19.927,0,0,1,3.249.324,18.884,18.884,0,0,1,2.675.663,3.518,3.518,0,0,1,.36.146.554.554,0,0,1,.329.491v2.8c0,.523-.256.726-.752.648-.768-.12-1.567-.167-2.325-.22-1.044-.068-2.089-.078-3.134-.057a7.607,7.607,0,0,0-2.293.392,4.6,4.6,0,0,0-2.544,2.058,7.035,7.035,0,0,0-.815,2.09,16.151,16.151,0,0,0-.329,2.345,40.975,40.975,0,0,0-.042,4.179,13.612,13.612,0,0,0,.444,3.307,8.59,8.59,0,0,0,.392,1.134,4.88,4.88,0,0,0,3.521,2.962,8.932,8.932,0,0,0,2.236.245c.852,0,1.708,0,2.565-.036a23.678,23.678,0,0,0,2.711-.251h.151a.486.486,0,0,1,.56.4.476.476,0,0,1,0,.124v2.842a.737.737,0,0,1-.59.841,13.873,13.873,0,0,1-1.844.47,29.676,29.676,0,0,1-3.782.423,20,20,0,0,1-2.565-.047,12.415,12.415,0,0,1-3.453-.726,8.8,8.8,0,0,1-5.062-4.9,13.812,13.812,0,0,1-.935-3.082,23.937,23.937,0,0,1-.392-4.446Z" transform="translate(-596.743 -812.144)"/>
      <path id="Контур_13834" data-name="Контур 13834" class="cls-6" d="M578.533,825.132V814.241a3.326,3.326,0,0,1,.026-.523.47.47,0,0,1,.428-.439,1.98,1.98,0,0,1,.308,0h4.513a1.9,1.9,0,0,1,.381.042.449.449,0,0,1,.381.392,1.584,1.584,0,0,1,.031.267v19.876a5.37,5.37,0,0,0,.089,1.16,1.385,1.385,0,0,0,1.426,1.238c.259.013.519.013.778,0h8.677a3.12,3.12,0,0,1,.387,0,.522.522,0,0,1,.522.522.842.842,0,0,1,0,.115v2.841a1.175,1.175,0,0,1,0,.193.627.627,0,0,1-.522.585l-.193.031-2.246.167c-.71.052-1.426.094-2.137.136h-.7l-3.578.1c-.491,0-.982.036-1.473,0-.664,0-1.327,0-1.985-.063a8.369,8.369,0,0,1-2.022-.376,7.654,7.654,0,0,1-.721-.288,3.7,3.7,0,0,1-2-2.314,7.272,7.272,0,0,1-.3-1.64,12.011,12.011,0,0,1-.073-1.368Z" transform="translate(-555.326 -812.771)"/>
      <path id="Контур_13835" data-name="Контур 13835" class="cls-6" d="M627.062,826.9V814.259a4.658,4.658,0,0,1,.026-.523.523.523,0,0,1,.455-.465,2,2,0,0,1,.35-.031h4.4a1.967,1.967,0,0,1,.423.052.481.481,0,0,1,.376.4,2.5,2.5,0,0,1,.042.344v25.424a4.454,4.454,0,0,1-.026.585.523.523,0,0,1-.46.491,1.569,1.569,0,0,1-.35.031H627.9a1.889,1.889,0,0,1-.381-.036.481.481,0,0,1-.428-.439c0-.157-.026-.314-.032-.465V826.9Z" transform="translate(-582.286 -812.753)"/>
    </g>
    <g id="Сгруппировать_3205" data-name="Сгруппировать 3205" transform="translate(436.302 833.482)">
      <g id="Сгруппировать_3204" data-name="Сгруппировать 3204" transform="translate(0)">
        <path id="Контур_13836" data-name="Контур 13836" class="cls-6" d="M542.125,889.218l-4.505,4.761,5.069,7.39h-3.943l-3.276-5.1-1.3,1.348v3.755h-3.14V889.218h3.106v4.642l4.062-4.642Z" transform="translate(-531.032 -889.218)"/>
        <path id="Контур_13837" data-name="Контур 13837" class="cls-6" d="M562.911,896.168a4.487,4.487,0,0,1,3.328,1.288,4.555,4.555,0,0,1,1.28,3.354,4.618,4.618,0,0,1-1.288,3.388,4.994,4.994,0,0,1-6.724.009,4.585,4.585,0,0,1-1.289-3.38,4.534,4.534,0,0,1,1.306-3.362A4.6,4.6,0,0,1,562.911,896.168Zm-.068,2.15a1.456,1.456,0,0,0-1.272.657,3.238,3.238,0,0,0-.452,1.852,3.306,3.306,0,0,0,.461,1.895,1.487,1.487,0,0,0,1.3.665,1.462,1.462,0,0,0,1.289-.674,3.4,3.4,0,0,0,.452-1.9,3.151,3.151,0,0,0-.461-1.843A1.515,1.515,0,0,0,562.843,898.318Z" transform="translate(-546.135 -893.079)"/>
        <path id="Контур_13838" data-name="Контур 13838" class="cls-6" d="M582.64,905.55v-8.807h2.85v6.605h2.373v-6.605h2.85v6.605h2.372v-6.605h2.85v8.807Z" transform="translate(-559.703 -893.398)"/>
        <path id="Контур_13839" data-name="Контур 13839" class="cls-6" d="M625.434,901.569H618.88a2.1,2.1,0,0,0,.555,1.51,1.972,1.972,0,0,0,1.459.538,1.793,1.793,0,0,0,1.656-1.024h2.714a3.875,3.875,0,0,1-1.579,2.184,5.5,5.5,0,0,1-6.28-.469,4.292,4.292,0,0,1-1.357-3.336,4.518,4.518,0,0,1,4.71-4.728,4.432,4.432,0,0,1,3.422,1.357,5.255,5.255,0,0,1,1.255,3.712Zm-2.85-1.656a1.948,1.948,0,0,0-.538-1.254,1.719,1.719,0,0,0-1.271-.469,1.758,1.758,0,0,0-1.86,1.724Z" transform="translate(-578.262 -893.121)"/>
        <path id="Контур_13840" data-name="Контур 13840" class="cls-6" d="M644.769,905.55v-6.6h-1.826l-.1,2.7q-.017.511-.034.768t-.094.768a3.958,3.958,0,0,1-.188.8,4.688,4.688,0,0,1-.341.683,1.785,1.785,0,0,1-.538.6,3.187,3.187,0,0,1-.785.358,3.575,3.575,0,0,1-1.092.154,4.909,4.909,0,0,1-1.451-.239v-2.27a1.53,1.53,0,0,0,.648.12q1.007,0,1.041-1.5l.136-5.137h7.526v8.807Z" transform="translate(-590.634 -893.398)"/>
        <path id="Контур_13841" data-name="Контур 13841" class="cls-6" d="M672.357,897.666H665.8a2.094,2.094,0,0,0,.555,1.51,1.97,1.97,0,0,0,1.459.538,1.793,1.793,0,0,0,1.656-1.024h2.713a3.874,3.874,0,0,1-1.579,2.184,5.5,5.5,0,0,1-6.281-.469,4.294,4.294,0,0,1-1.357-3.337,4.518,4.518,0,0,1,4.71-4.728A4.433,4.433,0,0,1,671.1,893.7a5.257,5.257,0,0,1,1.254,3.712Zm-5-8.448v2.116h-2.645v-2.116Zm2.15,6.792a1.948,1.948,0,0,0-.537-1.254,1.721,1.721,0,0,0-1.272-.469,1.759,1.759,0,0,0-1.86,1.724Zm1.588-6.792v2.116h-2.628v-2.116Z" transform="translate(-604.33 -889.218)"/>
        <path id="Контур_13842" data-name="Контур 13842" class="cls-6" d="M696.206,896.743l-3.192,3.345,3.653,5.461H693.2l-2.116-3.43-.87.921v2.509h-2.9v-8.807h2.868V899.9l2.7-3.158Z" transform="translate(-617.854 -893.398)"/>
      </g>
    </g>
  </g>
</svg>
