<svg xmlns="http://www.w3.org/2000/svg" width="29.22" height="29.22" viewBox="0 0 29.22 29.22">
  <g id="phoneMob" transform="translate(0.001)">
    <g id="Сгруппировать_3258" data-name="Сгруппировать 3258" transform="translate(-0.001)">
      <g id="Сгруппировать_3257" data-name="Сгруппировать 3257" transform="translate(0)">
        <path id="Контур_13869" data-name="Контур 13869" d="M24.7,4.152a14.792,14.792,0,0,0-20.552,0A14.792,14.792,0,0,0,25.067,25.068,14.792,14.792,0,0,0,24.7,4.152Zm-.332,20.22,0,0a13.806,13.806,0,1,1,4.048-9.758A13.806,13.806,0,0,1,24.367,24.368Z" transform="translate(0.001)" fill="#b3b3b5"/>
      </g>
    </g>
    <g id="Сгруппировать_3260" data-name="Сгруппировать 3260" transform="translate(4.583 4.68)">
      <g id="Сгруппировать_3259" data-name="Сгруппировать 3259">
        <path id="Контур_13870" data-name="Контур 13870" d="M120.218,116.983l-3.161-3.15a1.839,1.839,0,0,0-2.6,0l0,0-1.811,1.811a.4.4,0,0,1-.512.045,20.876,20.876,0,0,1-4.876-4.786.394.394,0,0,1,.039-.512l1.856-1.856a1.839,1.839,0,0,0,0-2.6l-3.161-3.161a1.884,1.884,0,0,0-2.6,0l-1,1a5.625,5.625,0,0,0-1.395,5.737,16.872,16.872,0,0,0,2.059,4.173,21.878,21.878,0,0,0,6.316,6.2,16.1,16.1,0,0,0,4.68,2.081,5.418,5.418,0,0,0,1.3.157,5.692,5.692,0,0,0,4.01-1.687l.861-.861A1.839,1.839,0,0,0,120.218,116.983Zm-.8,1.831,0,0,.006-.017-.861.861a4.5,4.5,0,0,1-4.247,1.215,14.951,14.951,0,0,1-4.342-1.946,20.8,20.8,0,0,1-5.985-5.866,15.747,15.747,0,0,1-1.924-3.892,4.5,4.5,0,0,1,1.125-4.6l1-1a.714.714,0,0,1,1.01,0l0,0,3.161,3.161a.714.714,0,0,1,0,1.01l0,0-1.856,1.856a1.513,1.513,0,0,0-.157,1.969,22.157,22.157,0,0,0,5.146,5.051,1.524,1.524,0,0,0,1.946-.169l1.794-1.822a.714.714,0,0,1,1.01,0l0,0,3.167,3.172A.714.714,0,0,1,119.421,118.814Z" transform="translate(-100.712 -102.253)" fill="#b3b3b5"/>
      </g>
    </g>
  </g>
</svg>
