<svg id="premium" xmlns="http://www.w3.org/2000/svg" width="181.81" height="52.03" viewBox="0 0 181.81 52.03">
  <path id="Контур_13794" data-name="Контур 13794" d="M9909.338,1386.723c.958,0,1.84-.022,2.646-.06a24.047,24.047,0,0,0,2.492-.245c.376-.022.567.152.567.528v2.836c0,.327-.2.55-.6.675a16.688,16.688,0,0,1-3.021.642,25.208,25.208,0,0,1-3.281.229,13.579,13.579,0,0,1-5.176-.871,8.45,8.45,0,0,1-3.435-2.509,10.465,10.465,0,0,1-1.922-4.017,22.079,22.079,0,0,1-.6-5.4V1376.8a22.879,22.879,0,0,1,.582-5.4,10.343,10.343,0,0,1,1.89-4.016,8.234,8.234,0,0,1,3.418-2.509,13.519,13.519,0,0,1,5.17-.871,18.466,18.466,0,0,1,3.206.283,18.7,18.7,0,0,1,2.829.7.878.878,0,0,1,.452.267.667.667,0,0,1,.114.414v2.716a.468.468,0,0,1-.566.533q-1.052-.155-2.3-.229c-.828-.049-1.671-.076-2.525-.076a8.264,8.264,0,0,0-3.042.49,4.387,4.387,0,0,0-1.981,1.551,6.8,6.8,0,0,0-1.071,2.656,19.226,19.226,0,0,0-.321,3.793v1.17a18.346,18.346,0,0,0,.337,3.793,6.7,6.7,0,0,0,1.116,2.645,4.5,4.5,0,0,0,2.019,1.529A8.233,8.233,0,0,0,9909.338,1386.723Zm10.08-21.667c0-.4.19-.6.566-.6h4.68a.534.534,0,0,1,.6.6v19.517a2.823,2.823,0,0,0,.376,1.622,1.832,1.832,0,0,0,1.551.528h8.942a.534.534,0,0,1,.6.6v2.792c0,.479-.212.729-.643.757-1.383.125-2.966.229-4.751.321s-3.642.131-5.552.131a12.716,12.716,0,0,1-3-.3,4.6,4.6,0,0,1-1.981-.958,3.585,3.585,0,0,1-1.077-1.72,9.13,9.13,0,0,1-.321-2.6Zm26.685,25.177a.568.568,0,0,1-.642.642h-4.567a.568.568,0,0,1-.642-.642v-25.1c0-.452.212-.68.642-.68h4.567c.43,0,.642.229.642.68Zm17.666-3.51c.953,0,1.835-.022,2.64-.06a23.909,23.909,0,0,0,2.493-.245.468.468,0,0,1,.566.528v2.836c0,.327-.2.55-.6.675a16.549,16.549,0,0,1-3.021.642,25.219,25.219,0,0,1-3.281.229,13.525,13.525,0,0,1-5.171-.871,8.369,8.369,0,0,1-3.434-2.509,10.389,10.389,0,0,1-1.928-4.017,21.984,21.984,0,0,1-.6-5.4V1376.8a22.879,22.879,0,0,1,.582-5.4,10.412,10.412,0,0,1,1.889-4.016,8.284,8.284,0,0,1,3.418-2.509,13.545,13.545,0,0,1,5.171-.871,18.455,18.455,0,0,1,3.205.283,18.685,18.685,0,0,1,2.83.7.925.925,0,0,1,.457.267.707.707,0,0,1,.108.414v2.716a.467.467,0,0,1-.565.533q-1.052-.155-2.3-.229c-.828-.049-1.671-.076-2.525-.076a8.264,8.264,0,0,0-3.042.49,4.382,4.382,0,0,0-1.981,1.551,6.812,6.812,0,0,0-1.072,2.656,19.3,19.3,0,0,0-.321,3.793v1.17a18.684,18.684,0,0,0,.338,3.793,6.653,6.653,0,0,0,1.116,2.645,4.523,4.523,0,0,0,2.019,1.529A8.239,8.239,0,0,0,9963.769,1386.723Zm29.026-22.271a.419.419,0,0,1,.413.229.453.453,0,0,1-.076.49l-8.076,12,9.132,13.024a.418.418,0,0,1-.376.68h-5.322a1.454,1.454,0,0,1-.642-.114,1.079,1.079,0,0,1-.415-.414l-7.738-11.777v11.663a.568.568,0,0,1-.643.642h-4.565a.571.571,0,0,1-.643-.642v-25.1c0-.452.218-.68.643-.68h4.565c.431,0,.643.229.643.68v10.646l7.211-10.874a1.037,1.037,0,0,1,.866-.452Z" transform="translate(-9841.905 -1356.576)" fill="#fefefe"/>
  <path id="Контур_13795" data-name="Контур 13795" d="M9919.85,6946.741c.686,0,.848-.1.848-.561v-5.366h.273l4,5.535c.229.31.457.392,1.078.392.723,0,.848-.141.848-.392a1.1,1.1,0,0,0-.289-.664l-4.146-5.448,3.941-5.285a1.1,1.1,0,0,0,.266-.6c0-.245-.207-.349-.826-.349-.746,0-.893.06-1.121.392l-3.729,5.241h-.295v-5.094c0-.435-.162-.539-.848-.539s-.85.1-.85.539v11.642C9919,6946.638,9919.168,6946.741,9919.85,6946.741Z" transform="translate(-9864.591 -6895.875)" fill="#53b7d1"/>
  <path id="_1" data-name="1" d="M11598.914,7378.586c3.068,0,4.229-1.138,4.229-5.4,0-4.354-.893-5.182-3.9-5.182-3.064,0-4.246,1.094-4.246,5.389C11595,7377.737,11595.887,7378.586,11598.914,7378.586Zm.043-1.47c-1.949,0-2.221-.582-2.221-3.935,0-3.07.418-3.734,2.449-3.734,1.949,0,2.215.561,2.215,3.918C11601.4,7376.43,11600.988,7377.116,11598.957,7377.116Z" transform="translate(-11531.396 -7327.514)" fill="#53b7d1"/>
  <path id="_2" data-name="2" d="M13537.452,7406.539c0-.436-.162-.539-.849-.539s-.849.1-.849.539v8.083h-3.669v-8.083c0-.436-.162-.539-.849-.539-.7,0-.87.1-.87.539v8.083h-3.668v-8.083c0-.436-.164-.539-.85-.539s-.849.1-.849.539v9.117c0,.413.125.517.619.517h11.212c.518,0,.62-.1.62-.517Z" transform="translate(-13450.794 -7365.307)" fill="#53b7d1"/>
  <path id="_3" data-name="3" d="M16251.17,7378.586a9.859,9.859,0,0,0,2.879-.436c.391-.142.5-.267.5-.805,0-.561-.1-.687-.288-.687a13.548,13.548,0,0,1-2.924.436c-2.236,0-2.568-.473-2.59-3.4h5.2c.621,0,.746-.293.746-.87,0-3.254-.354-4.828-3.626-4.828-2.487,0-4.065.452-4.065,5.389C16247,7377.965,16248.2,7378.586,16251.17,7378.586Zm-.146-9.138c1.97,0,2.007.952,2.007,3.069h-4.288C16248.824,7369.78,16249.406,7369.448,16251.023,7369.448Z" transform="translate(-16157.88 -7327.514)" fill="#53b7d1"/>
  <path id="_4" data-name="4" d="M17858.25,7416.172c.68,0,.85-.1.85-.561v-9.1c0-.414-.125-.517-.619-.517h-5.1c-.561,0-.664.1-.7.539l-.811,7.337c-.1.865-.229.991-.7.991-.354,0-.559-.061-.832-.061-.23,0-.332.061-.332.621,0,.583.146.724.521.811a5.114,5.114,0,0,0,1.137.12c1.307,0,1.639-.68,1.764-1.8l.768-7.043h3.213v8.1C17857.4,7416.068,17857.566,7416.172,17858.25,7416.172Z" transform="translate(-17752.08 -7365.307)" fill="#53b7d1"/>
  <path id="_5" data-name="5" d="M19960.164,6802.737a9.9,9.9,0,0,0,2.885-.435c.391-.142.494-.267.494-.805,0-.561-.1-.686-.289-.686a13.6,13.6,0,0,1-2.922.436c-2.238,0-2.568-.474-2.592-3.4h5.2c.621,0,.746-.293.746-.871,0-3.255-.354-4.828-3.629-4.828-2.488,0-4.061.452-4.061,5.388C19956,6802.117,19957.2,6802.737,19960.164,6802.737Zm-.143-9.138c1.965,0,2.008.953,2.008,3.07h-4.289C19957.822,6793.931,19958.406,6793.6,19960.021,6793.6Zm-1.785-2.857c.768,0,.912-.1.912-.643v-.435c0-.539-.145-.664-.912-.664s-.908.125-.908.664v.435c0,.54.141.643.908.643Zm3.047,0c.77,0,.91-.1.91-.643v-.435c0-.539-.141-.664-.91-.664-.789,0-.93.125-.93.664v.435C19960.354,6790.639,19960.494,6790.742,19961.283,6790.742Z" transform="translate(-19846.535 -6751.665)" fill="#53b7d1"/>
  <path id="_6" data-name="6" d="M21776.85,7416.172c.688,0,.85-.082.85-.561v-4.164h.17l3.52,4.288c.289.354.393.436,1.078.436.621,0,.871-.1.871-.333a.816.816,0,0,0-.25-.539l-3.67-4.452,3.4-3.978a1.013,1.013,0,0,0,.285-.583c0-.207-.205-.288-.828-.288-.705,0-.848.06-1.141.414l-3.254,3.875h-.186v-3.75c0-.479-.162-.539-.85-.539s-.85.06-.85.539v9.073C21776,7416.091,21776.164,7416.172,21776.85,7416.172Z" transform="translate(-21656.553 -7365.307)" fill="#53b7d1"/>
  <path id="Контур_13797" data-name="Контур 13797" d="M6.313,0H46.525a6.313,6.313,0,1,1,0,12.627H6.313A6.313,6.313,0,0,1,6.313,0Z" transform="translate(128.972 39.137)" fill="#d67e2a"/>
  <g id="_2300978878608" transform="translate(0 0)">
    <g id="Page-1">
      <g id="Android">
        <g id="Group">
          <g id="CLICK--EVOLUTION">
            <path id="Combined-Shape" d="M1.3,15.6c1.535-3.32,3.842-5.622,6.058-7.859a40.022,40.022,0,0,1,7.979-6.411c4.517-2.64,8.284-1.29,11.4.4A33.961,33.961,0,0,1,34.7,7.655a26.182,26.182,0,0,1,5.5,7.924c1.595,4.392,2.025,7.309-.158,11.4a29.06,29.06,0,0,1-5.5,7.135,43.346,43.346,0,0,1-7.815,6.253c-4.115,2.553-7.739,2.172-11.8,0A24.794,24.794,0,0,1,8,35.161c-2.221-2.231-5.056-5.432-6.379-8.18-.033-.06-.054-.12-.082-.18-.005,0-.005-.005-.011-.011-.027-.054-.049-.109-.076-.169-.005-.005-.005-.016-.011-.022-.027-.054-.049-.109-.076-.163a.041.041,0,0,0-.011-.022c-.022-.054-.049-.109-.065-.158l-.016-.027c-.022-.054-.044-.1-.071-.158,0-.011-.005-.022-.005-.033-.027-.049-.044-.1-.071-.158-.005-.005-.005-.016-.011-.022a1.354,1.354,0,0,1-.06-.158.041.041,0,0,1-.011-.022c-.022-.054-.044-.1-.065-.158l-.005-.016c-.022-.054-.044-.1-.065-.152A.059.059,0,0,0,.9,25.327c-.016-.049-.038-.1-.054-.147-.005-.011-.011-.027-.016-.038C.811,25.093.795,25.049.778,25a.265.265,0,0,1-.016-.038c-.016-.044-.033-.093-.049-.136A.1.1,0,0,0,.7,24.782c-.016-.049-.033-.093-.049-.136A.128.128,0,0,1,.642,24.6a1.362,1.362,0,0,1-.049-.136.128.128,0,0,0-.011-.044c-.016-.044-.027-.087-.044-.131a.128.128,0,0,1-.011-.044c-.016-.038-.022-.082-.038-.12-.005-.022-.011-.033-.016-.054-.011-.038-.016-.076-.033-.12-.005-.011-.005-.027-.011-.044A1.06,1.06,0,0,1,.4,23.787a.514.514,0,0,0-.016-.049c-.011-.044-.016-.087-.027-.125-.005-.022-.011-.038-.016-.054a1.224,1.224,0,0,1-.027-.12.338.338,0,0,0-.016-.054.5.5,0,0,1-.022-.125c-.005-.016-.011-.033-.016-.054-.011-.038-.016-.076-.027-.12a.2.2,0,0,1-.011-.06c-.005-.033-.011-.06-.016-.1C.2,22.9.19,22.878.185,22.856s-.011-.065-.016-.093l-.016-.082c-.005-.027-.011-.06-.016-.093a.368.368,0,0,0-.011-.076.673.673,0,0,0-.011-.1C.109,22.4.109,22.377.1,22.355c-.005-.038-.011-.071-.016-.114a.231.231,0,0,0-.011-.06.694.694,0,0,0-.005-.109C.065,22.045.065,22.029.06,22a.818.818,0,0,0-.011-.109c0-.022-.005-.044-.005-.065s-.005-.06-.011-.1c0-.022-.005-.054-.005-.076v-.082a.56.56,0,0,1-.005-.1A.31.31,0,0,1,.016,21.4a.625.625,0,0,1-.005-.1.359.359,0,0,0-.005-.076v-.174A.31.31,0,0,1,0,20.984v-.174c0-.033.005-.065.005-.1V20.63a.592.592,0,0,1,.005-.1v-.076a.694.694,0,0,0,.005-.109.2.2,0,0,0,.005-.06c0-.033.005-.071.005-.109v-.06c.005-.033.005-.071.011-.1s.005-.049.005-.065a.738.738,0,0,0,.011-.109c.005-.027.005-.049.011-.071a.812.812,0,0,0,.011-.114c0-.016.005-.038.005-.054.005-.044.011-.082.016-.12.005-.022.005-.033.011-.054.005-.038.011-.082.016-.12a.151.151,0,0,1,.005-.049c.005-.044.016-.082.022-.12.005-.022.005-.038.011-.054a.934.934,0,0,1,.022-.131A.193.193,0,0,1,.2,18.9c.005-.044.016-.087.022-.131.005-.016.005-.033.011-.049.011-.038.022-.082.033-.125a.128.128,0,0,1,.011-.044c.005-.044.016-.087.027-.136a.138.138,0,0,1,.011-.038.75.75,0,0,1,.033-.142c.005-.011.005-.027.011-.033.011-.054.022-.1.038-.158C.4,18.034.4,18.023.4,18.012a1.363,1.363,0,0,1,.038-.142c.005-.016.005-.027.011-.033.011-.049.027-.1.044-.152a.092.092,0,0,1,.011-.027,1.245,1.245,0,0,1,.044-.152c.005-.011.005-.022.011-.027l.049-.163c0-.011.005-.016.005-.022a1.538,1.538,0,0,0,.06-.169c0-.005.005-.011.011-.022.016-.049.033-.1.054-.158.005-.011.005-.016.011-.027.016-.054.038-.109.054-.163.005,0,.005-.011.011-.016.022-.06.044-.114.065-.174a.017.017,0,0,0,.005-.011c.022-.06.049-.12.071-.18,0-.005.005-.011.005-.016.027-.06.049-.114.076-.174,0-.005.005-.011.005-.016.022-.06.049-.114.071-.174l.011-.016c.022-.06.054-.12.076-.174l.005-.016C1.241,15.721,1.268,15.661,1.3,15.6Zm8.839,2.765c-.016.033-.033.065-.049.1l-.005.005a.771.771,0,0,1-.044.1l-.005.011a.664.664,0,0,1-.038.093c0,.005-.005.005-.005.011a.524.524,0,0,1-.038.1l-.005.005c-.016.038-.022.071-.038.1v.005c-.016.033-.027.065-.038.093,0,.005-.005.011-.005.016-.011.033-.022.06-.033.087a.02.02,0,0,1-.005.016c-.011.033-.022.06-.033.087a.019.019,0,0,1-.005.011.373.373,0,0,1-.027.093c-.005.005-.005.005-.005.011a.839.839,0,0,0-.027.093.02.02,0,0,0-.005.016c-.011.033-.022.054-.033.082a.041.041,0,0,1-.005.022.434.434,0,0,1-.016.082c-.005.005-.005.011-.011.016a.434.434,0,0,0-.016.082.02.02,0,0,0-.005.016c-.011.033-.016.054-.027.087a.02.02,0,0,1-.005.016c-.005.033-.011.054-.016.082,0,.011,0,.016-.005.022-.005.027-.011.049-.016.076a.041.041,0,0,0-.005.022.381.381,0,0,0-.016.076.033.033,0,0,1-.005.022c-.005.022-.011.049-.016.071a.069.069,0,0,1-.005.033c-.005.022-.005.049-.011.071a.069.069,0,0,0-.005.033.234.234,0,0,0-.011.065.049.049,0,0,1-.005.027.273.273,0,0,1-.011.065v.033a.2.2,0,0,0-.011.065.192.192,0,0,0-.005.033c0,.022-.005.038-.005.06a.106.106,0,0,0-.005.038v.065a.059.059,0,0,0-.005.033c0,.022-.005.038-.005.06s0,.027-.005.033v.06A.081.081,0,0,0,9.421,21v.054c0,.016-.005.033-.005.049v.425a.168.168,0,0,1,.005.049v.044a.2.2,0,0,1,.005.054.151.151,0,0,0,.005.049v.044a.135.135,0,0,1,.005.049.081.081,0,0,1,.005.038v.06a.093.093,0,0,1,.005.038c.005.022.005.038.011.06v.033a.326.326,0,0,1,.011.065c0,.011.005.027.005.033.005.022.005.038.011.054v.044c.005.016.005.033.011.054s.005.027.005.044a.13.13,0,0,1,.011.049c.005.011.005.027.011.044s.005.033.011.054a.049.049,0,0,1,.005.027.318.318,0,0,0,.011.071c.005.011.005.022.011.027.005.027.011.044.016.071a.236.236,0,0,0,.005.027.168.168,0,0,0,.016.071c0,.011.005.022.005.033a.457.457,0,0,0,.022.065c0,.011.005.016.005.027s.011.049.016.065.005.022.011.033.011.044.016.065a.041.041,0,0,1,.005.027c.005.022.016.044.022.071.005.005.005.011.011.016a.381.381,0,0,1,.016.076c.005.011.005.016.011.022a.426.426,0,0,0,.027.076.236.236,0,0,0,.005.027.427.427,0,0,0,.027.076c0,.005.005.016.005.022a.66.66,0,0,1,.027.076.028.028,0,0,0,.011.022.479.479,0,0,0,.027.082.02.02,0,0,1,.005.016c.011.027.022.06.033.082a.02.02,0,0,1,.005.016c.011.027.022.06.033.082l.005.016a.511.511,0,0,1,.033.082.019.019,0,0,0,.005.011.9.9,0,0,1,.033.087c.005.005.005.011.011.016.011.033.027.06.038.093a.017.017,0,0,0,.005.011c.011.033.027.06.038.093l.005.011a.708.708,0,0,0,.044.093.019.019,0,0,1,.005.011c.011.033.027.06.038.093.005,0,.005.005.011.005a.306.306,0,0,0,.038.1c.005,0,.005,0,.005.005a.549.549,0,0,0,.049.1,19.312,19.312,0,0,0,3.538,4.545,14.022,14.022,0,0,0,3.853,2.9c2.253,1.2,4.272,1.415,6.558,0A24.377,24.377,0,0,0,28.6,28.647a16.235,16.235,0,0,0,3.053-3.968c1.208-2.275.974-3.891.087-6.33a14.441,14.441,0,0,0-3.053-4.4,18.987,18.987,0,0,0-4.425-3.3c-1.736-.936-3.826-1.682-6.335-.218A22.312,22.312,0,0,0,13.5,13.99,15.253,15.253,0,0,0,10.134,18.36Z" transform="translate(0 0.162)" fill="#53b7d1" fill-rule="evenodd"/>
          </g>
        </g>
      </g>
    </g>
  </g>
  <text id="Premium-2" data-name="Premium" transform="translate(155.118 49.03)" fill="#fff" font-size="11" font-family="SegoeUI-Light, Segoe UI" font-weight="300"><tspan x="-20.585" y="0">Premium</tspan></text>
</svg>
