<svg xmlns="http://www.w3.org/2000/svg" width="20.892" height="18.877" viewBox="0 0 20.892 18.877">
  <g id="telegram" transform="translate(0.516 0.5)">
    <path id="Контур_9" data-name="Контур 9" d="M34.15,47.713l18.989-7.244c.543-.207.537.24.414.828S50.4,57.13,50.19,57.8a.7.7,0,0,1-1.242.207c-.311-.362-4.449-4.088-4.449-4.088s-2.231,2.043-2.535,2.328c-.647.606-1.136-.374-1.449-1.4l-1.346-4.4L34,48.488C33.512,48.3,33.809,47.824,34.15,47.713Zm6,2.358,9.933-6.416L41.854,51.52l-.311,3-1.4-4.449Z" transform="translate(-33.742 -40.417)" fill="#fff" stroke="rgba(0,0,0,0)" stroke-width="1" fill-rule="evenodd"/>
  </g>
</svg>
