<svg xmlns="http://www.w3.org/2000/svg" width="29.223" height="29.223" viewBox="0 0 29.223 29.223">
  <defs>
    <style>
      .cls-1 {
        fill: #b3b3b5;
      }
    </style>
  </defs>
  <g id="userIcon" transform="translate(-50 -140)">
    <path id="Контур_13739" data-name="Контур 13739" class="cls-1" d="M79.223,154.612a14.612,14.612,0,1,0-14.612,14.612,14.6,14.6,0,0,0,14.612-14.612Zm-14.612-12.9a12.9,12.9,0,0,1,10.69,20.12,14.606,14.606,0,0,0-21.38,0,12.9,12.9,0,0,1,10.69-20.12ZM54.989,163.2a12.9,12.9,0,0,1,19.244,0,12.887,12.887,0,0,1-19.244,0Zm0,0"/>
    <path id="Контур_13740" data-name="Контур 13740" class="cls-1" d="M221.137,212.986a5.143,5.143,0,0,0,5.137-5.137v-1.712a5.137,5.137,0,1,0-10.274,0v1.712a5.143,5.143,0,0,0,5.137,5.137Zm-3.425-6.849a3.425,3.425,0,1,1,6.849,0v1.712a3.425,3.425,0,1,1-6.849,0Zm0,0" transform="translate(-156.525 -57.518)"/>
  </g>
</svg>
