<svg width="166" height="54" viewBox="0 0 166 54" fill="none" xmlns="http://www.w3.org/2000/svg">
<g clip-path="url(#clip0_2405_39)">
<path fill-rule="evenodd" clip-rule="evenodd" d="M0.015625 53.6188C0.4283 47.841 9.60653 39.043 15.4013 39.043C17.873 39.043 20.9626 40.6455 23.7238 42.9327C20.362 46.3184 17.8146 50.3761 17.6181 53.6188H0.015625Z" fill="#FF6600"/>
<path fill-rule="evenodd" clip-rule="evenodd" d="M20.5508 53.6188C20.9635 47.841 30.1417 39.043 35.9386 39.043C38.4103 39.043 41.4999 40.6455 44.2612 42.9327C40.8993 46.3184 38.352 50.3761 38.1554 53.6188H20.5508Z" fill="#FF6600"/>
<path fill-rule="evenodd" clip-rule="evenodd" d="M41.0898 53.6188C41.5026 47.841 50.6808 39.043 56.4756 39.043C62.2702 39.043 71.4507 47.841 71.8632 53.6188H41.0898Z" fill="#FF6600"/>
<path fill-rule="evenodd" clip-rule="evenodd" d="M23.7256 26.2493C20.9644 28.5343 17.8746 30.1389 15.4029 30.1389C9.47424 30.1369 0 20.9272 0 15.1662C0 9.40514 9.47424 0.193359 15.4029 0.193359C17.8746 0.193359 20.9644 1.79586 23.7256 4.08306C20.2254 7.60731 17.6089 11.8625 17.6089 15.1662C17.6089 18.4699 20.2254 22.7251 23.7256 26.2493Z" fill="#FF6600"/>
<path fill-rule="evenodd" clip-rule="evenodd" d="M44.2607 26.2493C41.4995 28.5366 38.4099 30.1389 35.9382 30.1389C30.0094 30.1389 20.5352 20.9294 20.5352 15.1662C20.5352 9.40304 30.0094 0.193359 35.9382 0.193359C38.4099 0.193359 41.4995 1.79586 44.2607 4.08306C40.7605 7.60731 38.1441 11.8625 38.1441 15.1662C38.1441 18.4699 40.7605 22.7251 44.2607 26.2493Z" fill="#FF6600"/>
<path fill-rule="evenodd" clip-rule="evenodd" d="M71.8801 15.1662C71.8801 20.9272 62.4038 30.1389 56.4773 30.1389C50.5506 30.1389 41.0742 20.9294 41.0742 15.1662C41.0742 9.40304 50.5464 0.193359 56.4773 0.193359C62.408 0.193359 71.8801 9.40514 71.8801 15.1662Z" fill="url(#paint0_linear_2405_39)"/>
<path fill-rule="evenodd" clip-rule="evenodd" d="M91.4263 19.6585C87.6063 19.6585 84.6074 16.5207 84.6074 12.8389C84.6074 9.15718 87.6042 6.01936 91.4263 6.01936C95.2484 6.01936 98.2106 9.15718 98.2106 12.8389C98.2106 16.5207 95.2139 19.6585 91.4263 19.6585ZM91.4263 24.5878C98.0787 24.5878 103.513 19.3056 103.513 12.8389C103.513 6.37222 98.0787 1.09004 91.4263 1.09004C84.7739 1.09004 79.3398 6.37222 79.3398 12.8389C79.3398 19.3056 84.7414 24.5878 91.4263 24.5878ZM107.836 6.01936C109.582 6.01936 110.965 4.67519 110.965 3.00969C110.965 1.34417 109.582 0 107.836 0C106.09 0 104.74 1.34417 104.74 3.00969C104.74 4.67519 106.155 6.01936 107.836 6.01936ZM105.367 24.2034H110.34V8.19734H105.367V24.2057V24.2034ZM113.311 24.2034H118.285V0.193225H113.311V24.2057V24.2034ZM127.91 24.5563C130.151 24.5563 131.665 23.4663 132.389 22.6031V24.2034H137.363V8.19734H132.389V9.79776C131.665 8.93244 130.151 7.8445 127.91 7.8445C123.596 7.8445 120.27 11.6859 120.27 16.1994C120.27 20.7128 123.596 24.5563 127.91 24.5563ZM129.029 20.1688C126.789 20.1688 125.274 18.5034 125.274 16.1994C125.274 13.8954 126.789 12.2299 129.029 12.2299C131.27 12.2299 132.784 13.8954 132.784 16.1994C132.784 18.5034 131.27 20.1688 129.029 20.1688ZM160.952 24.2034H165.927V15.0778C165.927 10.5959 163.718 7.8424 159.667 7.8424C157.921 7.8424 155.65 8.70561 154.596 10.6589C153.576 8.86523 151.895 7.8424 149.525 7.8424C147.55 7.8424 146.2 8.70561 145.309 9.82716V8.19315H140.336V24.2014H145.309V16.422C145.309 13.4774 146.528 12.2278 148.274 12.2278C150.02 12.2278 150.646 13.5719 150.646 15.9095V24.2014H155.618V16.2287C155.717 13.4438 156.871 12.2278 158.582 12.2278C160.293 12.2278 160.952 13.5719 160.952 15.9095V24.2014V24.2034Z" fill="#FF6600"/>
<path fill-rule="evenodd" clip-rule="evenodd" d="M88.9388 53.9972C93.9859 53.9972 97.1491 50.9226 98.1083 46.8794H92.5643C91.8902 48.2615 90.8228 49.2989 88.9388 49.2989C86.6636 49.2989 84.9935 47.7091 84.9935 44.9788C84.9935 42.2484 86.6636 40.6605 88.9388 40.6605C90.8228 40.6605 91.8881 41.696 92.5643 43.08H98.1083C97.1491 39.037 93.9859 35.9623 88.9388 35.9623C83.5351 35.9623 79.5898 39.9696 79.5898 44.9808C79.5898 49.992 83.5351 53.9995 88.9388 53.9995V53.9972ZM100.003 53.6172H105.37V27.704H100.003V53.6172ZM111.243 33.9923C113.127 33.9923 114.62 32.541 114.62 30.7431C114.62 28.9452 113.127 27.4961 111.243 27.4961C109.359 27.4961 107.902 28.9474 107.902 30.7431C107.902 32.5389 109.43 33.9923 111.243 33.9923ZM108.576 53.6172H113.943V36.3424H108.576V53.6172ZM125.433 53.9972C130.481 53.9972 133.644 50.9226 134.603 46.8794H129.057C128.381 48.2615 127.315 49.2989 125.431 49.2989C123.156 49.2989 121.486 47.7091 121.486 44.9788C121.486 42.2484 123.156 40.6605 125.431 40.6605C127.315 40.6605 128.381 41.696 129.057 43.08H134.603C133.644 39.037 130.481 35.9623 125.433 35.9623C120.03 35.9623 116.085 39.9696 116.085 44.9808C116.085 49.992 120.03 53.9995 125.433 53.9995V53.9972ZM148.474 53.6172H154.978L146.873 44.1491L153.413 36.3403H147.05L141.861 42.5256V27.7019H136.494V53.6151H141.861V45.9091L148.472 53.6151L148.474 53.6172Z" fill="white"/>
</g>
<defs>
<linearGradient id="paint0_linear_2405_39" x1="56.4773" y1="17.3714" x2="56.4773" y2="0.193359" gradientUnits="userSpaceOnUse">
<stop stop-color="#EB5E00"/>
<stop offset="1" stop-color="#F7AC00"/>
</linearGradient>
<clipPath id="clip0_2405_39">
<rect width="166" height="54" fill="white"/>
</clipPath>
</defs>
</svg>
