<svg width="235" height="54" viewBox="0 0 235 54" fill="none" xmlns="http://www.w3.org/2000/svg">
<g clip-path="url(#clip0_0_77)">
<path fill-rule="evenodd" clip-rule="evenodd" d="M79.3044 1.10168H84.0117L91.197 10.9727L98.4444 1.10168H103.152V23.999H97.9559V9.90632L91.2325 19.1252L84.4736 9.87107V23.999H79.3044V1.10168ZM119.672 21.9191C118.002 23.5407 115.986 24.3516 113.623 24.3516C111.261 24.3516 109.245 23.5407 107.575 21.9191C105.905 20.2974 105.07 18.3055 105.07 15.9347C105.07 13.5639 105.905 11.5809 107.575 9.95039C109.245 8.32871 111.261 7.51787 113.623 7.51787C115.986 7.51787 118.002 8.32871 119.672 9.95039C121.341 11.5721 122.176 13.5639 122.176 15.9347C122.176 18.3055 121.341 20.2886 119.672 21.9191ZM111.048 18.7462C111.731 19.4513 112.593 19.8126 113.632 19.8126C114.671 19.8126 115.533 19.4601 116.217 18.7462C116.901 18.0323 117.238 17.0981 117.238 15.9435C117.238 14.789 116.901 13.8459 116.217 13.1409C115.533 12.4358 114.671 12.0744 113.632 12.0744C112.593 12.0744 111.731 12.427 111.048 13.1409C110.364 13.8547 110.026 14.789 110.026 15.9435C110.026 17.0981 110.364 18.0411 111.048 18.7462ZM121.208 23.999H126.67L131.058 19.134H132.452V23.999H137.355V7.87923H129.85C127.985 7.87923 126.528 8.39041 125.462 9.41277C124.397 10.4351 123.873 11.7571 123.873 13.3964C123.873 15.3971 124.77 16.8866 126.573 17.8825L121.208 24.0078V23.999ZM130.143 15.2649C129.69 15.2649 129.29 15.1151 128.953 14.8154C128.615 14.5158 128.447 14.1191 128.447 13.6256C128.447 12.3829 128.997 11.7571 130.108 11.7571H132.443V15.2737H130.134L130.143 15.2649ZM156.273 24.3604C153.822 24.3604 151.788 23.5495 150.162 21.9279C148.537 20.3062 147.729 18.3144 147.729 15.9435C147.729 13.5727 148.537 11.5897 150.162 9.9592C151.788 8.33753 153.822 7.52669 156.273 7.52669C158.502 7.52669 160.35 8.14363 161.797 9.3687C163.245 10.5938 164.204 12.1978 164.657 14.172H159.586C158.866 12.6649 157.765 11.9158 156.273 11.9158C155.216 11.9158 154.346 12.2771 153.671 12.9998C152.996 13.7225 152.667 14.7008 152.667 15.9523C152.667 17.2039 153.005 18.1821 153.671 18.9049C154.346 19.6276 155.207 19.9889 156.273 19.9889C157.765 19.9889 158.875 19.2398 159.586 17.7327H164.657C164.204 19.7069 163.245 21.3109 161.797 22.536C160.35 23.7611 158.502 24.378 156.273 24.378V24.3604ZM174.027 24.3604C171.514 24.3604 169.453 23.5672 167.837 21.9719C166.22 20.3767 165.412 18.3584 165.412 15.9083C165.412 13.4581 166.229 11.5016 167.864 9.90632C169.498 8.3199 171.549 7.51787 174.019 7.51787C175.209 7.51787 176.328 7.72058 177.385 8.13482C178.433 8.54023 179.365 9.13074 180.182 9.90632C181 10.6819 181.63 11.6778 182.083 12.9029C182.536 14.128 182.74 15.5117 182.705 17.0628H170.191C170.279 17.9442 170.67 18.6757 171.363 19.275C172.056 19.8655 173.033 20.1652 174.285 20.1652C174.996 20.1652 175.653 20.0242 176.23 19.7333C176.816 19.4425 177.207 19.0811 177.402 18.6493H182.536C182.012 20.3503 180.973 21.7252 179.419 22.774C177.855 23.8228 176.061 24.3516 174.027 24.3516V24.3604ZM173.894 11.3958C172.962 11.3958 172.189 11.6338 171.567 12.1097C170.945 12.5856 170.537 13.2025 170.315 13.9781H177.269C177.029 13.0968 176.594 12.4446 175.955 12.0304C175.315 11.6073 174.631 11.4046 173.894 11.4046V11.3958ZM184.659 7.87923H188.753L193.922 14.2337L199.091 7.87923H203.186V23.999H198.283V15.3266L193.931 20.6499L189.579 15.3266V23.999H184.677V7.87923H184.659ZM206.117 23.999V7.87923H211.02V12.3917H213.879C214.723 12.3917 215.496 12.5151 216.189 12.7619C216.881 13.0087 217.45 13.3348 217.894 13.7314C218.338 14.128 218.711 14.5863 219.013 15.0974C219.315 15.6174 219.537 16.1198 219.661 16.631C219.795 17.1333 219.857 17.6357 219.857 18.1293C219.857 18.755 219.75 19.3896 219.528 20.0506C219.315 20.7028 218.978 21.3374 218.533 21.9367C218.089 22.536 217.459 23.0295 216.651 23.4173C215.842 23.8051 214.91 23.999 213.871 23.999H206.108H206.117ZM211.02 16.5164V19.8743H213.258C214.599 19.8743 215.274 19.3015 215.274 18.1645C215.274 17.0276 214.599 16.5164 213.258 16.5164H211.02ZM218.862 23.999H224.324L228.712 19.134H230.106V23.999H235.009V7.87923H227.504C225.639 7.87923 224.182 8.39041 223.116 9.41277C222.051 10.4351 221.527 11.7571 221.527 13.3964C221.527 15.3971 222.424 16.8866 224.227 17.8825L218.862 24.0078V23.999ZM227.797 15.2649C227.344 15.2649 226.944 15.1151 226.607 14.8154C226.269 14.5158 226.101 14.1191 226.101 13.6256C226.101 12.3829 226.651 11.7571 227.761 11.7571H230.097V15.2737H227.788L227.797 15.2649Z" fill="#FF6600"/>
<path fill-rule="evenodd" clip-rule="evenodd" d="M23.3233 26.1495C20.6055 28.441 17.5679 30.0539 15.1432 30.0539C9.31687 30.0539 0 20.8086 0 15.0269C0 9.24531 9.31687 0 15.1432 0C17.5768 0 20.6143 1.61286 23.3233 3.90436C19.8772 7.43855 17.3104 11.7131 17.3104 15.0269C17.3104 18.3408 19.8861 22.6153 23.3233 26.1495Z" fill="#FF6600"/>
<path fill-rule="evenodd" clip-rule="evenodd" d="M43.5202 26.1495C40.8024 28.441 37.7648 30.0539 35.3401 30.0539C29.5138 30.0539 20.1969 20.8086 20.1969 15.0269C20.1969 9.24531 29.5049 0 35.3313 0C37.7648 0 40.8024 1.61286 43.5113 3.90436C40.0652 7.43855 37.4984 11.7131 37.4984 15.0269C37.4984 18.3408 40.0741 22.6153 43.5113 26.1495H43.5202Z" fill="#FF6600"/>
<path fill-rule="evenodd" clip-rule="evenodd" d="M70.6714 15.0269C70.6714 20.8086 61.3545 30.0539 55.5281 30.0539C49.7018 30.0539 40.3849 20.8086 40.3849 15.0269C40.3849 9.24531 49.7018 0 55.5281 0C61.3545 0 70.6714 9.24531 70.6714 15.0269Z" fill="url(#paint0_linear_0_77)"/>
<path fill-rule="evenodd" clip-rule="evenodd" d="M0.0177002 53.621C0.426257 47.8218 9.45003 38.9907 15.1432 38.9907C17.5768 38.9907 20.6143 40.6036 23.3232 42.8951C20.0192 46.297 17.5146 50.3689 17.3192 53.621H0.0177002Z" fill="#FF6600"/>
<path fill-rule="evenodd" clip-rule="evenodd" d="M20.2058 53.621C20.6144 47.8218 29.6381 38.9907 35.3313 38.9907C37.7649 38.9907 40.8024 40.6036 43.5113 42.8951C40.2073 46.2882 37.7027 50.3689 37.5073 53.621H20.2058Z" fill="#FF6600"/>
<path fill-rule="evenodd" clip-rule="evenodd" d="M40.4027 53.621C40.8113 47.8218 49.835 38.9907 55.5282 38.9907C61.2213 38.9907 70.254 47.8218 70.6537 53.621H40.4027Z" fill="#FF6600"/>
<path fill-rule="evenodd" clip-rule="evenodd" d="M87.44 54C92.4048 54 95.5134 50.9153 96.4549 46.8523H91.0015C90.3354 48.236 89.2873 49.276 87.44 49.276C85.2018 49.276 83.5587 47.6808 83.5587 44.9398C83.5587 42.1988 85.2018 40.6036 87.44 40.6036C89.2962 40.6036 90.3443 41.6435 91.0015 43.0273H96.4549C95.5134 38.9731 92.4048 35.8796 87.44 35.8796C82.1287 35.8796 78.2474 39.8985 78.2474 44.931C78.2474 49.9634 82.1287 53.9824 87.44 53.9824V54ZM98.32 53.621H103.596V27.6125H98.32V53.621ZM109.369 33.923C111.225 33.923 112.691 32.4688 112.691 30.662C112.691 28.8552 111.225 27.401 109.369 27.401C107.513 27.401 106.083 28.8552 106.083 30.662C106.083 32.4688 107.584 33.923 109.369 33.923ZM106.749 53.621H112.024V36.285H106.749V53.621ZM123.322 54C128.287 54 131.395 50.9153 132.337 46.8523H126.883C126.217 48.236 125.169 49.276 123.322 49.276C121.084 49.276 119.441 47.6808 119.441 44.9398C119.441 42.1988 121.084 40.6036 123.322 40.6036C125.169 40.6036 126.226 41.6435 126.883 43.0273H132.337C131.395 38.9731 128.287 35.8796 123.322 35.8796C118.011 35.8796 114.129 39.8985 114.129 44.931C114.129 49.9634 118.011 53.9824 123.322 53.9824V54ZM145.979 53.621H152.374L144.407 44.1201L150.837 36.285H144.585L139.487 42.4896V27.6125H134.211V53.621H139.487V45.8916L145.988 53.621H145.979Z" fill="white"/>
</g>
<defs>
<linearGradient id="paint0_linear_0_77" x1="55.5281" y1="17.2391" x2="55.5281" y2="0" gradientUnits="userSpaceOnUse">
<stop stop-color="#EB5E00"/>
<stop offset="1" stop-color="#F7AC00"/>
</linearGradient>
<clipPath id="clip0_0_77">
<rect width="235" height="54" fill="white"/>
</clipPath>
</defs>
</svg>
