<svg width="196" height="57" viewBox="0 0 196 57" fill="none" xmlns="http://www.w3.org/2000/svg">
<g clip-path="url(#clip0_2353_185)">
<path d="M191 0H5C2.23858 0 0 2.23858 0 5V52C0 54.7614 2.23858 57 5 57H191C193.761 57 196 54.7614 196 52V5C196 2.23858 193.761 0 191 0Z" fill="#1E1F2E"/>
<path fill-rule="evenodd" clip-rule="evenodd" d="M68.5361 15.875C69.086 15.8751 69.5984 16.0166 70.0732 16.2998C70.5482 16.5831 70.9276 16.9833 71.2109 17.5C71.4943 18.0167 71.6357 18.6044 71.6357 19.2627C71.6357 19.9209 71.4942 20.5088 71.2109 21.0254C70.9276 21.5336 70.5481 21.933 70.0732 22.2246C69.5983 22.5079 69.086 22.6503 68.5361 22.6504C67.9862 22.6504 67.4696 22.5079 66.9863 22.2246C66.5115 21.933 66.1319 21.5335 65.8486 21.0254C65.5653 20.5088 65.4239 19.9209 65.4238 19.2627C65.4238 18.6127 65.5653 18.0294 65.8486 17.5127C66.1403 16.9961 66.5231 16.5958 66.998 16.3125C67.473 16.0208 67.9861 15.875 68.5361 15.875ZM68.5361 16.875C68.1612 16.875 67.8234 16.9705 67.5234 17.1621C67.2234 17.3538 66.9855 17.629 66.8105 17.9873C66.6355 18.3456 66.5488 18.771 66.5488 19.2627C66.5489 19.7541 66.6357 20.1789 66.8105 20.5371C66.9855 20.8954 67.2234 21.1706 67.5234 21.3623C67.8234 21.554 68.1611 21.6504 68.5361 21.6504C68.911 21.6503 69.2489 21.5539 69.5488 21.3623C69.8486 21.1707 70.0815 20.8953 70.248 20.5371C70.423 20.1789 70.5107 19.7542 70.5107 19.2627C70.5107 18.771 70.423 18.3456 70.248 17.9873C70.0814 17.6292 69.8487 17.3537 69.5488 17.1621C69.2489 16.9705 68.911 16.875 68.5361 16.875Z" fill="white"/>
<path fill-rule="evenodd" clip-rule="evenodd" d="M95.6963 15.875C96.2463 15.875 96.7594 16.0165 97.2344 16.2998C97.7092 16.5831 98.0878 16.9835 98.3711 17.5C98.6544 18.0167 98.7969 18.6044 98.7969 19.2627C98.7968 19.9209 98.6544 20.5088 98.3711 21.0254C98.0879 21.5333 97.709 21.9331 97.2344 22.2246C96.7594 22.5079 96.2463 22.6504 95.6963 22.6504C95.1464 22.6504 94.6298 22.5079 94.1465 22.2246C93.6716 21.933 93.2921 21.5336 93.0088 21.0254C92.7255 20.5088 92.584 19.9209 92.584 19.2627C92.584 18.6128 92.7255 18.0293 93.0088 17.5127C93.3005 16.996 93.6842 16.5958 94.1592 16.3125C94.6341 16.0209 95.1464 15.875 95.6963 15.875ZM95.6963 16.875C95.3214 16.875 94.9835 16.9705 94.6836 17.1621C94.3837 17.3537 94.1466 17.6291 93.9717 17.9873C93.7967 18.3456 93.709 18.771 93.709 19.2627C93.709 19.7542 93.7968 20.1789 93.9717 20.5371C94.1466 20.8953 94.3838 21.1706 94.6836 21.3623C94.9835 21.5539 95.3214 21.6504 95.6963 21.6504C96.0713 21.6504 96.409 21.554 96.709 21.3623C97.0089 21.1706 97.2425 20.8954 97.4092 20.5371C97.584 20.1789 97.6719 19.7541 97.6719 19.2627C97.6719 18.771 97.5842 18.3456 97.4092 17.9873C97.2425 17.629 97.009 17.3538 96.709 17.1621C96.409 16.9705 96.0712 16.875 95.6963 16.875Z" fill="white"/>
<path fill-rule="evenodd" clip-rule="evenodd" d="M102.71 15.875C103.443 15.875 104.043 16.0999 104.51 16.5498C104.976 16.9915 105.21 17.6252 105.21 18.4502V22.5127H104.272C104.247 22.0877 104.231 21.8125 104.223 21.6875C104.023 22.0041 103.752 22.2454 103.41 22.4121C103.077 22.5704 102.693 22.6504 102.26 22.6504C101.843 22.6504 101.452 22.5748 101.085 22.4248C100.727 22.2665 100.439 22.0373 100.223 21.7373C100.006 21.429 99.8975 21.0626 99.8975 20.6377C99.8975 19.996 100.156 19.4917 100.673 19.125C101.198 18.7502 101.872 18.5625 102.697 18.5625C103.164 18.5625 103.647 18.625 104.147 18.75V18.6377C104.147 18.0294 104.022 17.5788 103.772 17.2871C103.531 16.9873 103.16 16.8379 102.66 16.8379C102.26 16.8379 101.927 16.9212 101.66 17.0879C101.394 17.2546 101.169 17.5002 100.985 17.8252L100.173 17.3623C100.373 16.9124 100.698 16.5537 101.147 16.2871C101.606 16.0122 102.127 15.875 102.71 15.875ZM102.71 19.4375C102.168 19.4375 101.747 19.5417 101.447 19.75C101.156 19.9583 101.01 20.2501 101.01 20.625C101.01 20.975 101.135 21.2502 101.385 21.4502C101.635 21.6419 101.96 21.7373 102.36 21.7373C102.852 21.7372 103.272 21.5956 103.622 21.3125C103.972 21.0208 104.147 20.6206 104.147 20.1123V19.6377C103.622 19.5044 103.143 19.4375 102.71 19.4375Z" fill="white"/>
<path fill-rule="evenodd" clip-rule="evenodd" d="M112.696 22.5127H111.759C111.742 22.0794 111.717 21.7121 111.684 21.4121C111.45 21.8287 111.138 22.1413 110.746 22.3496C110.363 22.5496 109.955 22.6503 109.521 22.6504C109.021 22.6504 108.55 22.5167 108.108 22.25C107.675 21.9834 107.325 21.596 107.059 21.0879C106.792 20.5713 106.659 19.9626 106.659 19.2627C106.659 18.5712 106.792 17.9711 107.059 17.4629C107.325 16.9462 107.675 16.5538 108.108 16.2871C108.55 16.0121 109.021 15.875 109.521 15.875C109.938 15.875 110.334 15.9705 110.709 16.1621C111.084 16.3538 111.392 16.6421 111.634 17.0254V13H112.696V22.5127ZM109.646 16.8877C109.08 16.8877 108.626 17.0961 108.284 17.5127C107.943 17.9294 107.771 18.5127 107.771 19.2627C107.772 20.0209 107.943 20.6088 108.284 21.0254C108.626 21.4417 109.08 21.6504 109.646 21.6504C110.188 21.6503 110.654 21.4583 111.046 21.0752C111.438 20.6919 111.634 20.0876 111.634 19.2627C111.634 18.4461 111.438 17.8462 111.046 17.4629C110.654 17.0796 110.188 16.8878 109.646 16.8877Z" fill="white"/>
<path fill-rule="evenodd" clip-rule="evenodd" d="M120.733 15.875C121.283 15.8751 121.796 16.0166 122.271 16.2998C122.746 16.5831 123.125 16.9833 123.408 17.5C123.692 18.0167 123.833 18.6044 123.833 19.2627C123.833 19.9209 123.692 20.5088 123.408 21.0254C123.125 21.5336 122.745 21.933 122.271 22.2246C121.796 22.5079 121.283 22.6503 120.733 22.6504C120.183 22.6504 119.667 22.5079 119.184 22.2246C118.709 21.933 118.329 21.5335 118.046 21.0254C117.763 20.5088 117.621 19.9209 117.621 19.2627C117.621 18.6127 117.763 18.0294 118.046 17.5127C118.338 16.9961 118.72 16.5958 119.195 16.3125C119.67 16.0208 120.183 15.875 120.733 15.875ZM120.733 16.875C120.359 16.875 120.021 16.9705 119.721 17.1621C119.421 17.3538 119.183 17.629 119.008 17.9873C118.833 18.3456 118.746 18.771 118.746 19.2627C118.746 19.7541 118.833 20.1789 119.008 20.5371C119.183 20.8954 119.421 21.1706 119.721 21.3623C120.021 21.554 120.358 21.6504 120.733 21.6504C121.108 21.6503 121.446 21.5539 121.746 21.3623C122.046 21.1707 122.279 20.8953 122.445 20.5371C122.62 20.1789 122.708 19.7542 122.708 19.2627C122.708 18.771 122.62 18.3456 122.445 17.9873C122.279 17.6292 122.046 17.3537 121.746 17.1621C121.446 16.9705 121.108 16.8751 120.733 16.875Z" fill="white"/>
<path fill-rule="evenodd" clip-rule="evenodd" d="M59.5 13.3623C60.3917 13.3623 61.1921 13.5421 61.9004 13.9004C62.6168 14.2587 63.1797 14.7832 63.5879 15.4746C63.9962 16.1579 64.2002 16.9749 64.2002 17.9248C64.2002 18.8831 63.9962 19.7087 63.5879 20.4004C63.1879 21.0837 62.6287 21.608 61.9121 21.9746C61.2038 22.3329 60.3999 22.5127 59.5 22.5127H57V13.3623H59.5ZM58.1123 21.5254H59.3496C60.4994 21.5254 61.3998 21.2127 62.0498 20.5879C62.6998 19.9629 63.0254 19.0748 63.0254 17.9248C63.0254 16.7916 62.6954 15.9121 62.0371 15.2871C61.3871 14.654 60.491 14.3379 59.3496 14.3379H58.1123V21.5254Z" fill="white"/>
<path d="M74.9512 20.9004L76.5137 16.0254H77.3389L79.0391 20.9004L80.626 16.0254H81.626L79.3262 22.5127H78.626L76.9014 17.7627L75.251 22.5127H74.5264L72.1387 16.0254H73.251L74.9512 20.9004Z" fill="white"/>
<path d="M85.8545 15.875C86.5462 15.875 87.1009 16.1042 87.5176 16.5625C87.9342 17.0208 88.1426 17.6711 88.1426 18.5127V22.5127H87.0801V18.8125C87.0801 18.196 86.9549 17.721 86.7051 17.3877C86.4634 17.0544 86.1005 16.8877 85.6172 16.8877C85.3007 16.8877 85.0009 16.9625 84.7178 17.1123C84.4428 17.254 84.217 17.471 84.042 17.7627C83.8671 18.046 83.7803 18.4003 83.7803 18.8252V22.5127H82.7178V16.0254H83.6553C83.6719 16.4417 83.6962 16.7998 83.7295 17.0996C83.9461 16.6998 84.238 16.3958 84.6045 16.1875C84.9794 15.9792 85.3963 15.875 85.8545 15.875Z" fill="white"/>
<path d="M91.0312 22.5127H89.9688V13H91.0312V22.5127Z" fill="white"/>
<path d="M128.519 15.875C129.21 15.875 129.764 16.1043 130.181 16.5625C130.597 17.0208 130.806 17.671 130.806 18.5127V22.5127H129.743V18.8125C129.743 18.1959 129.618 17.721 129.368 17.3877C129.127 17.0545 128.764 16.8878 128.281 16.8877C127.965 16.8877 127.664 16.9623 127.381 17.1123C127.106 17.254 126.881 17.471 126.706 17.7627C126.531 18.046 126.443 18.4002 126.443 18.8252V22.5127H125.381V16.0254H126.318C126.335 16.4417 126.36 16.7998 126.394 17.0996C126.61 16.6998 126.902 16.3958 127.269 16.1875C127.644 15.9792 128.06 15.875 128.519 15.875Z" fill="white"/>
<path d="M65.28 31.2304L71.2 45.8704H68.12L66.84 42.5304H61.14L59.9 45.8704H57L62.74 31.2304H65.28ZM65.9 40.0504L63.94 34.9104L62.04 40.0504H65.9Z" fill="white"/>
<path d="M78.5531 35.2504C79.3931 35.2504 80.1665 35.4637 80.8731 35.8904C81.5931 36.3171 82.1598 36.9437 82.5731 37.7704C82.9998 38.5971 83.2131 39.5704 83.2131 40.6904C83.2131 41.8104 82.9998 42.7837 82.5731 43.6104C82.1598 44.4237 81.5931 45.0437 80.8731 45.4704C80.1665 45.8971 79.3931 46.1104 78.5531 46.1104C77.9131 46.1104 77.3198 45.9837 76.7731 45.7304C76.2265 45.4771 75.7731 45.0904 75.4131 44.5704V50.5104H72.6331V35.5104H75.0731L75.1331 36.1904C75.1465 36.3237 75.1598 36.4637 75.1731 36.6104C75.1865 36.7571 75.2065 36.9104 75.2331 37.0704C75.5931 36.4571 76.0598 36.0037 76.6331 35.7104C77.2198 35.4037 77.8598 35.2504 78.5531 35.2504ZM77.9131 43.6504C78.6331 43.6504 79.2131 43.3904 79.6531 42.8704C80.1065 42.3371 80.3331 41.6104 80.3331 40.6904C80.3331 39.7437 80.1131 38.9971 79.6731 38.4504C79.2331 37.9037 78.6465 37.6304 77.9131 37.6304C77.2198 37.6304 76.6265 37.8904 76.1331 38.4104C75.6531 38.9171 75.4131 39.6771 75.4131 40.6904C75.4131 41.6904 75.6531 42.4371 76.1331 42.9304C76.6131 43.4104 77.2065 43.6504 77.9131 43.6504Z" fill="white"/>
<path d="M91.1508 35.2504C91.9908 35.2504 92.7641 35.4637 93.4708 35.8904C94.1908 36.3171 94.7574 36.9437 95.1708 37.7704C95.5974 38.5971 95.8108 39.5704 95.8108 40.6904C95.8108 41.8104 95.5974 42.7837 95.1708 43.6104C94.7574 44.4237 94.1908 45.0437 93.4708 45.4704C92.7641 45.8971 91.9908 46.1104 91.1508 46.1104C90.5108 46.1104 89.9174 45.9837 89.3708 45.7304C88.8241 45.4771 88.3708 45.0904 88.0108 44.5704V50.5104H85.2308V35.5104H87.6708L87.7308 36.1904C87.7441 36.3237 87.7574 36.4637 87.7708 36.6104C87.7841 36.7571 87.8041 36.9104 87.8308 37.0704C88.1908 36.4571 88.6574 36.0037 89.2308 35.7104C89.8174 35.4037 90.4575 35.2504 91.1508 35.2504ZM90.5108 43.6504C91.2308 43.6504 91.8108 43.3904 92.2508 42.8704C92.7041 42.3371 92.9308 41.6104 92.9308 40.6904C92.9308 39.7437 92.7108 38.9971 92.2708 38.4504C91.8308 37.9037 91.2441 37.6304 90.5108 37.6304C89.8174 37.6304 89.2241 37.8904 88.7308 38.4104C88.2508 38.9171 88.0108 39.6771 88.0108 40.6904C88.0108 41.6904 88.2508 42.4371 88.7308 42.9304C89.2108 43.4104 89.8041 43.6504 90.5108 43.6504Z" fill="white"/>
<path d="M104.528 40.2504V37.7504H110.128V43.7104C109.675 44.4437 108.948 45.0304 107.948 45.4704C106.962 45.8971 105.868 46.1104 104.668 46.1104C103.242 46.1104 101.975 45.7904 100.868 45.1504C99.7618 44.5104 98.9018 43.6171 98.2884 42.4704C97.6751 41.3237 97.3684 40.0104 97.3684 38.5304C97.3684 37.0371 97.6818 35.7171 98.3084 34.5704C98.9484 33.4237 99.8218 32.5371 100.928 31.9104C102.035 31.2837 103.262 30.9704 104.608 30.9704C105.955 30.9704 107.122 31.2771 108.108 31.8904C109.108 32.4904 109.782 33.2637 110.128 34.2104L107.728 35.5904C107.435 34.9771 107.015 34.4971 106.468 34.1504C105.922 33.7904 105.275 33.6104 104.528 33.6104C103.742 33.6104 103.035 33.8104 102.408 34.2104C101.782 34.6104 101.288 35.1837 100.928 35.9304C100.568 36.6771 100.388 37.5437 100.388 38.5304C100.388 39.5437 100.568 40.4237 100.928 41.1704C101.302 41.9171 101.822 42.4904 102.488 42.8904C103.168 43.2904 103.955 43.4904 104.848 43.4904C105.888 43.4904 106.702 43.2037 107.288 42.6304V40.2504H104.528Z" fill="white"/>
<path d="M116.642 35.2504C118.042 35.2504 119.135 35.6504 119.922 36.4504C120.709 37.2371 121.102 38.3637 121.102 39.8304V45.8704H118.762C118.749 45.7637 118.729 45.5904 118.702 45.3504C118.689 45.0971 118.662 44.8771 118.622 44.6904C118.315 45.1704 117.915 45.5304 117.422 45.7704C116.942 45.9971 116.355 46.1104 115.662 46.1104C114.942 46.1104 114.282 45.9837 113.682 45.7304C113.095 45.4771 112.629 45.1104 112.282 44.6304C111.935 44.1371 111.762 43.5571 111.762 42.8904C111.762 42.1971 111.955 41.5971 112.342 41.0904C112.742 40.5704 113.275 40.1704 113.942 39.8904C114.609 39.6104 115.342 39.4704 116.142 39.4704C116.862 39.4704 117.602 39.5904 118.362 39.8304C118.322 38.2971 117.669 37.5304 116.402 37.5304C115.389 37.5304 114.649 37.9837 114.182 38.8904L112.202 37.7504C112.575 36.9771 113.149 36.3704 113.922 35.9304C114.695 35.4771 115.602 35.2504 116.642 35.2504ZM118.362 41.6704C117.695 41.5104 117.115 41.4304 116.622 41.4304C115.969 41.4304 115.462 41.5504 115.102 41.7904C114.742 42.0171 114.562 42.3437 114.562 42.7704C114.562 43.1571 114.702 43.4571 114.982 43.6704C115.275 43.8837 115.649 43.9904 116.102 43.9904C116.702 43.9904 117.229 43.8237 117.682 43.4904C118.135 43.1437 118.362 42.6704 118.362 42.0704V41.6704Z" fill="white"/>
<path d="M126.331 45.8704H123.551V30.6504H126.331V45.8704Z" fill="white"/>
<path d="M131.683 45.8704H128.903V30.6504H131.683V45.8704Z" fill="white"/>
<path d="M138.854 35.2504C139.774 35.2504 140.588 35.4571 141.294 35.8704C142.014 36.2704 142.568 36.8437 142.954 37.5904C143.354 38.3237 143.554 39.1704 143.554 40.1304C143.554 40.5571 143.514 40.9904 143.434 41.4304H136.554C136.674 42.2037 136.954 42.7904 137.394 43.1904C137.834 43.5771 138.381 43.7704 139.034 43.7704C139.501 43.7704 139.914 43.6704 140.274 43.4704C140.648 43.2571 140.934 42.9437 141.134 42.5304L143.174 43.7304C142.894 44.4904 142.354 45.0771 141.554 45.4904C140.768 45.9037 139.888 46.1104 138.914 46.1104C137.981 46.1104 137.114 45.9037 136.314 45.4904C135.514 45.0771 134.868 44.4571 134.374 43.6304C133.894 42.8037 133.654 41.8104 133.654 40.6504C133.654 39.5037 133.894 38.5237 134.374 37.7104C134.868 36.8971 135.508 36.2837 136.294 35.8704C137.081 35.4571 137.934 35.2504 138.854 35.2504ZM138.774 37.5104C138.228 37.5104 137.761 37.6837 137.374 38.0304C136.988 38.3771 136.728 38.8637 136.594 39.4904H140.714C140.661 38.8504 140.454 38.3637 140.094 38.0304C139.748 37.6837 139.308 37.5104 138.774 37.5104Z" fill="white"/>
<path d="M148.007 37.1504C148.3 36.5237 148.694 36.0504 149.187 35.7304C149.68 35.4104 150.24 35.2504 150.867 35.2504C151.28 35.2504 151.64 35.3304 151.947 35.4904V38.0304C151.614 37.7904 151.227 37.6704 150.787 37.6704C149.947 37.6704 149.3 37.9637 148.847 38.5504C148.394 39.1371 148.167 39.9704 148.167 41.0504V45.8704H145.387V35.5104H147.827C147.894 36.3104 147.954 36.8571 148.007 37.1504ZM160.787 35.5104H163.687L159.027 47.2304C158.534 48.4704 157.96 49.3637 157.307 49.9104C156.654 50.4704 155.834 50.7504 154.847 50.7504C154.354 50.7504 153.894 50.6771 153.467 50.5304C153.054 50.3971 152.7 50.2104 152.407 49.9704L153.487 47.8504C153.914 48.1437 154.36 48.2904 154.827 48.2904C155.134 48.2904 155.394 48.2237 155.607 48.0904C155.82 47.9704 156.027 47.7504 156.227 47.4304C156.44 47.1237 156.674 46.6637 156.927 46.0504L152.447 35.5104H155.547L158.287 42.6504L160.787 35.5104Z" fill="white"/>
<g clip-path="url(#clip1_2353_185)">
<path fill-rule="evenodd" clip-rule="evenodd" d="M21.8204 11C14.6299 11 12 13.6299 12 20.8185V36.1815C12 43.3701 14.6299 46 21.8204 46H37.1747C44.3653 46 47 43.3701 47 36.1815V20.8185C47 13.6299 44.3701 11 37.1796 11H21.8204Z" fill="url(#paint0_linear_2353_185)"/>
<path fill-rule="evenodd" clip-rule="evenodd" d="M27.2668 31.3H28.6717L27.9668 29.6599L27.2668 31.3ZM26.9207 32.1264L26.5036 33.0792H25.5547L27.5731 28.5H28.3936L30.4042 33.0792H29.429L29.0178 32.1264H26.9207ZM42.1943 33.0763H43.1111V28.5H42.1933L42.1943 33.0763ZM38.5417 31.1104H40.2333V30.2763H38.5417V29.3381H40.9965V28.5029H37.6249V33.0792H41.085V32.244H38.5417V31.1104ZM34.8968 31.651L33.8575 28.5H33.0992L32.0589 31.65L31.0468 28.5029H30.0571L31.6544 33.0821H32.4235L33.4657 30.074L34.5069 33.0821H35.2828L36.8762 28.5029H35.9118L34.8968 31.651ZM24.1537 31.1231C24.1537 31.8678 23.7843 32.2654 23.1115 32.2654C22.4368 32.2654 22.0644 31.8571 22.0644 31.091V28.5029H21.135V31.1231C21.135 32.4113 21.8506 33.1501 23.0989 33.1501C24.3599 33.1501 25.0822 32.3976 25.0822 31.0842V28.5H24.1537V31.1231ZM18.9174 28.5H19.8468V33.0821H18.9174V31.2222H16.8183V33.0831H15.8889V28.5H16.8183V30.3482H18.9183L18.9174 28.5ZM29.5 22.6667C26.2829 22.6667 23.6667 20.0494 23.6667 16.8333H24.4911C24.4911 19.5944 26.7379 21.8422 29.5 21.8422C32.2621 21.8422 34.5089 19.5954 34.5089 16.8333H35.3333C35.3333 20.0494 32.7161 22.6667 29.5 22.6667Z" fill="white"/>
</g>
</g>
<defs>
<linearGradient id="paint0_linear_2353_185" x1="29.5" y1="11" x2="29.5" y2="46" gradientUnits="userSpaceOnUse">
<stop stop-color="#FB6361"/>
<stop offset="1" stop-color="#ED3E45"/>
</linearGradient>
<clipPath id="clip0_2353_185">
<rect width="196" height="57" fill="white"/>
</clipPath>
<clipPath id="clip1_2353_185">
<rect width="35" height="35" fill="white" transform="translate(12 11)"/>
</clipPath>
</defs>
</svg>
