<svg xmlns="http://www.w3.org/2000/svg" width="50" height="50" viewBox="0 0 50 50">
  <g id="login" transform="translate(-1782 -539)">
    <circle id="Эллипс_118" data-name="Эллипс 118" cx="25" cy="25" r="25" transform="translate(1782 539)" fill="#9f9f9f" opacity="0.1"/>
    <path id="Контур_13924" data-name="Контур 13924" d="M21.877,10.938a17.454,17.454,0,0,1-3.352,10.607.855.855,0,0,1-.676.331H7.264a.855.855,0,1,1,0-1.709H17.421a15.95,15.95,0,0,0,2.747-9.229,15.95,15.95,0,0,0-2.747-9.229H7.264A.855.855,0,1,1,7.264,0H17.849a.855.855,0,0,1,.676.331A17.455,17.455,0,0,1,21.877,10.938ZM9.763,13.64a.855.855,0,0,0,1.209,1.209l3.306-3.306a.857.857,0,0,0,0-1.209L10.971,7.028A.855.855,0,1,0,9.763,8.237l1.847,1.847H.855a.855.855,0,0,0,0,1.709H11.61Z" transform="translate(1796.123 553)" fill="#9f9f9f" stroke="#9f9f9f" stroke-width="0.6"/>
  </g>
</svg>
