<svg width="87" height="61" viewBox="0 0 87 61" fill="none" xmlns="http://www.w3.org/2000/svg">
<g clip-path="url(#clip0_23_429)">
<path d="M52.517 59.6861H26.4576C25.3545 59.6843 24.2971 59.2456 23.5173 58.4656C22.7374 57.6855 22.2987 56.6276 22.2971 55.5246V51.9528C22.2971 42.7991 26.5805 37.7542 36.1772 35.6455C36.6771 34.9456 37.0201 32.7456 37.0771 30.8239C34.237 28.5677 32.1649 25.4885 31.1449 22.0077C30.9146 21.9035 30.712 21.7467 30.5536 21.5497C30.3951 21.3528 30.2854 21.1213 30.233 20.8741C28.4783 12.8362 28.8332 7.64126 31.3329 4.52668C33.3456 2.02702 36.6241 0.858534 41.9114 0.762548C42.0478 0.751915 42.1847 0.749742 42.3214 0.755713C42.458 0.749737 42.595 0.75191 42.7313 0.762548C48.0426 0.862534 51.337 2.03446 53.3598 4.55012C55.8814 7.67969 56.2354 12.8847 54.4736 20.9326C54.4209 21.1845 54.3085 21.4197 54.1458 21.6191C53.9831 21.8185 53.775 21.9758 53.5388 22.078C52.5105 25.5271 50.4478 28.5774 47.6296 30.8161C47.6796 32.7698 48.0195 34.9446 48.5214 35.6445C58.1201 37.7532 62.4055 42.7931 62.4055 51.9518V55.5236C62.4039 56.6266 61.9652 57.6846 61.1854 58.4646C60.4055 59.2447 59.3482 59.6833 58.2452 59.6852L52.517 59.6861ZM53.5518 48.0129V57.6112H58.2452C58.7994 57.6112 59.331 57.3916 59.7231 57C60.1153 56.6084 60.336 56.0769 60.3368 55.5226V51.9499C60.3368 43.77 56.8173 39.6128 48.2145 37.693L42.3514 41.7648L36.4921 37.693C27.8933 39.6128 24.3698 43.77 24.3698 51.9499V55.5226C24.3704 56.0764 24.5906 56.6074 24.9822 56.999C25.3738 57.3906 25.9047 57.6107 26.4585 57.6112H31.1519V48.0129C31.1519 47.7377 31.2613 47.4733 31.4559 47.2786C31.6505 47.084 31.9144 46.975 32.1897 46.975C32.3258 46.975 32.4607 47.0019 32.5865 47.0541C32.7122 47.1063 32.8264 47.1832 32.9225 47.2796C33.0186 47.376 33.0949 47.4896 33.1467 47.6155C33.1985 47.7414 33.225 47.8768 33.2246 48.0129V57.6112H51.484V48.0129C51.4836 47.8768 51.5102 47.7414 51.562 47.6155C51.6139 47.4896 51.69 47.376 51.7861 47.2796C51.8823 47.1832 51.9965 47.1063 52.1223 47.0541C52.248 47.0019 52.3828 46.975 52.5189 46.975C52.6548 46.9754 52.7894 47.0027 52.9148 47.055C53.0402 47.1074 53.154 47.1842 53.2498 47.2806C53.3456 47.377 53.4215 47.4908 53.4732 47.6165C53.5248 47.7422 53.5512 47.877 53.5508 48.0129H53.5518ZM38.154 36.3329L42.3533 39.2485L46.5527 36.33C45.9866 34.9466 45.6688 33.4737 45.6139 31.98C44.5861 32.4299 43.4772 32.6651 42.3553 32.6703C41.2335 32.6669 40.1245 32.4326 39.0968 31.9829C39.0408 33.4769 38.7216 34.9498 38.154 36.3329ZM35.1033 12.9708L33.3946 20.8897C33.3423 21.0916 33.255 21.2823 33.1366 21.4541C34.5744 26.0014 38.1699 30.6012 42.3503 30.6012C46.5077 30.6012 50.1003 26.0283 51.5491 21.5029C51.4469 21.3542 51.3717 21.1884 51.3271 21.0137C50.7162 18.786 49.8963 14.4144 49.8593 14.2314C49.8523 14.1854 49.8463 14.1318 49.8433 14.0898C47.3315 13.9478 44.8748 13.2967 42.6223 12.176L43.7721 15.2528C43.8447 15.4497 43.8562 15.6634 43.805 15.8669C43.7538 16.0705 43.6423 16.2541 43.4851 16.3932C43.3278 16.5322 43.1319 16.6203 42.9234 16.6451C42.715 16.67 42.5039 16.63 42.3183 16.5319L35.5993 12.9796C35.5196 12.9383 35.431 12.9175 35.3412 12.9181C35.2591 12.9193 35.1782 12.9371 35.1033 12.9708ZM42.3774 9.77108C42.4848 9.79457 42.5881 9.83386 42.6842 9.88728C42.7202 9.91027 46.5178 12.0482 49.8263 12.0872C50.3392 12.0761 50.8376 12.2578 51.2226 12.5969C51.6076 12.936 51.8512 13.4077 51.905 13.918C51.978 14.3049 52.405 16.5617 52.8469 18.5375C54.0097 12.2743 53.6468 8.22035 51.7471 5.85267C50.0983 3.80395 47.1867 2.8686 42.3214 2.8316C37.48 2.8676 34.5843 3.79647 32.9456 5.83119C31.0688 8.16487 30.7049 12.168 31.8288 18.3412L33.1535 12.1877C33.192 12.0147 33.274 11.8546 33.3915 11.722C33.7832 11.2907 34.3068 11.0015 34.8804 10.8998C35.4539 10.7981 36.0452 10.8892 36.5612 11.1596L40.8776 13.4395L40.3186 11.9397C40.3016 11.8927 40.2886 11.8402 40.2756 11.7972C40.2173 11.525 40.2279 11.2421 40.3063 10.975C40.3846 10.7079 40.5284 10.4647 40.7245 10.2671C40.8934 10.0986 41.094 9.96519 41.3147 9.87458C41.5354 9.78397 41.7718 9.73761 42.0104 9.73886C42.1333 9.73737 42.2562 9.74737 42.3774 9.76815V9.77108ZM65.1811 55.3361C64.9063 55.3356 64.643 55.2261 64.4489 55.0315C64.2549 54.8369 64.1461 54.573 64.1464 54.2982C64.1464 54.1623 64.1731 54.0273 64.2251 53.9018C64.2771 53.7763 64.3534 53.6629 64.4496 53.5669C64.5457 53.4708 64.6597 53.3942 64.7852 53.3423C64.9108 53.2904 65.0453 53.264 65.1811 53.2642H75.3968V46.271C75.3968 46.1348 75.4237 46.0003 75.4759 45.8745C75.5281 45.7488 75.6045 45.6348 75.7009 45.5387C75.7974 45.4425 75.9118 45.3659 76.0377 45.3141C76.1636 45.2622 76.2985 45.2356 76.4346 45.236C76.5705 45.2358 76.7052 45.2631 76.8308 45.315C76.9564 45.367 77.0706 45.4425 77.1667 45.5387C77.2628 45.6348 77.3391 45.7489 77.391 45.8745C77.443 46.0002 77.4696 46.135 77.4695 46.271V53.2642H80.7541C81.1048 53.2636 81.441 53.1242 81.6893 52.8765C81.9375 52.6288 82.0775 52.2928 82.0789 51.9421V49.2422C82.1371 47.4846 81.824 45.7347 81.16 44.1062C80.975 43.6833 80.7515 43.2784 80.4922 42.8964H80.3921C78.2953 42.9562 76.226 42.4089 74.4329 41.3205C73.6297 40.7978 72.924 40.1398 72.3473 39.3745L72.0473 39.5834C71.0812 40.2522 69.9336 40.6089 68.7587 40.6067C67.5845 40.6095 66.4379 40.2527 65.4732 39.5834L65.1732 39.3745C64.5055 40.2615 63.6646 41.0034 62.7015 41.5558C62.5451 41.6477 62.3669 41.6953 62.1856 41.6945C62.0034 41.6954 61.8243 41.6483 61.6662 41.5578C61.5082 41.4672 61.3769 41.3365 61.2857 41.1789C61.1482 40.9414 61.1108 40.659 61.1814 40.3938C61.2521 40.1287 61.4253 39.9026 61.6627 39.765C63.5164 38.6912 64.6622 36.7772 65.0862 34.0656C62.3626 32.0329 60.4298 27.9949 60.1868 24.2994C60.1278 24.2994 60.0709 24.2994 60.0149 24.2994C59.7406 24.2988 59.4777 24.1897 59.2838 23.9957C59.0898 23.8017 58.9806 23.5387 58.9801 23.2644C58.9797 23.1282 59.0061 22.9928 59.058 22.8669C59.1098 22.741 59.1859 22.6275 59.282 22.5311C59.3782 22.4346 59.4924 22.3577 59.6182 22.3055C59.7439 22.2533 59.8787 22.2264 60.0149 22.2264C64.0073 22.2264 66.635 18.3967 66.661 18.3598C66.7477 18.2303 66.8627 18.1227 66.9973 18.0444C67.1319 17.9661 67.2826 17.919 67.4379 17.9077C67.5933 17.8934 67.7498 17.9151 67.8955 17.9711C68.0411 18.0271 68.1719 18.1162 68.2778 18.2309C70.8762 20.7232 74.3149 22.1503 77.9145 22.2303C78.0507 22.2303 78.1854 22.2572 78.3112 22.3094C78.4369 22.3616 78.5512 22.4385 78.6473 22.535C78.7435 22.6314 78.8196 22.745 78.8714 22.8709C78.9232 22.9968 78.9497 23.1321 78.9493 23.2683C78.9488 23.5426 78.8396 23.8056 78.6456 23.9996C78.4517 24.1936 78.1888 24.3027 77.9145 24.3033C77.7145 24.3033 77.5145 24.2966 77.3145 24.2896C77.0765 27.9891 75.1429 32.0319 72.4153 34.0646C72.5089 35.1545 72.8367 36.2113 73.3763 37.1628C73.9159 38.1144 74.6545 38.9387 75.5418 39.5785C77.3482 40.6125 79.4419 41.0302 81.5069 40.7698C79.0153 39.07 76.7376 36.1431 77.9844 31.9927C80.919 22.21 78.5954 16.3485 75.4468 14.1308C74.5853 13.4594 73.5327 13.0786 72.441 13.0441C71.3493 13.0096 70.2748 13.3227 69.3726 13.9385C69.1944 14.073 68.9777 14.1466 68.7544 14.1484C68.5311 14.1502 68.3131 14.0799 68.1328 13.9482C67.2318 13.3272 66.1561 13.0102 65.0623 13.0431C63.9685 13.076 62.9137 13.4577 62.0517 14.1318C58.8991 16.3495 56.5754 22.211 59.513 31.9936C60.052 33.6357 59.9745 35.4185 59.295 37.0076C59.2131 37.1917 59.0796 37.348 58.9106 37.4577C58.7417 37.5674 58.5445 37.6258 58.3431 37.6257C58.201 37.6258 58.0604 37.5966 57.9302 37.5397C57.8055 37.4853 57.6927 37.4065 57.5984 37.3083C57.5042 37.2102 57.4302 37.0944 57.3808 36.9676C57.3314 36.8408 57.3075 36.7052 57.3105 36.5692C57.3135 36.4331 57.3433 36.2992 57.3983 36.1747C57.8801 35.0359 57.926 33.7597 57.5273 32.5892C53.4358 18.9491 59.041 13.7175 60.8587 12.4397C61.9775 11.5907 63.3193 11.086 64.7201 10.9867C66.121 10.8875 67.5204 11.1984 68.7477 11.8811C69.9757 11.1991 71.3755 10.8885 72.7767 10.9877C74.1778 11.0869 75.52 11.5914 76.6397 12.4397C78.4544 13.7175 84.0596 18.9501 79.9672 32.5892C78.3674 37.9365 84.7825 40.1671 85.0565 40.2601C85.2634 40.3302 85.443 40.4631 85.5698 40.6409C85.6967 40.8187 85.7645 41.0327 85.7634 41.2512C85.7623 41.47 85.6916 41.6825 85.5614 41.8585C85.4313 42.0345 85.2485 42.1644 85.0395 42.2295C84.2984 42.449 83.5416 42.6118 82.7758 42.7158C82.8688 42.8938 82.9537 43.0757 83.0367 43.2606C83.8187 45.154 84.1914 47.1908 84.1306 49.2383V51.9382C84.1293 52.838 83.7712 53.7009 83.1349 54.3373C82.4986 54.9736 81.6359 55.3319 80.736 55.3332L65.1811 55.3361ZM66.232 37.5886L66.658 37.8883C67.277 38.3152 68.0112 38.5435 68.7632 38.5435C69.5151 38.5435 70.2494 38.3152 70.8685 37.8883L71.2983 37.5886C70.9444 36.7912 70.6805 35.9565 70.5115 35.1006C69.9481 35.2919 69.3576 35.3911 68.7627 35.3945C68.1678 35.3911 67.5773 35.2919 67.0139 35.1006C66.8445 35.9539 66.5823 36.7864 66.232 37.5827V37.5886ZM62.2595 24.0123C62.4745 28.2057 65.5281 33.3245 68.7637 33.3245C71.9992 33.3245 75.0268 28.2553 75.2628 24.0709C72.4578 23.5441 69.8363 22.3027 67.6519 20.4659C66.2329 22.1414 64.3605 23.3717 62.2595 24.0094V24.0123ZM8.59196 55.3332H4.26956C3.36881 55.3319 2.50534 54.9727 1.86888 54.3353C1.23243 53.6979 0.874999 52.834 0.875 51.9333V49.2403C0.875 42.2183 4.14058 38.3427 11.4506 36.7059C11.8348 35.6484 12.0294 34.5307 12.0255 33.4055C9.9373 31.7125 8.40115 29.4356 7.61309 26.8654C7.42459 26.7653 7.26008 26.6254 7.1311 26.4553C7.00212 26.2853 6.9117 26.0897 6.86612 25.8812C5.52131 19.725 5.80536 15.7295 7.75809 13.3028C9.33488 11.3431 11.8765 10.424 15.9569 10.3521C16.0648 10.3457 16.173 10.3457 16.2809 10.3521C16.3887 10.3437 16.4971 10.3437 16.6049 10.3521C20.6733 10.424 23.204 11.3396 24.7718 13.2833C26.7185 15.699 26.9994 19.6892 25.6576 25.8333C25.6136 26.0393 25.5258 26.2334 25.4005 26.4026C25.2751 26.5718 25.1149 26.7116 24.9307 26.8137C24.1485 29.4071 22.6058 31.7066 20.5023 33.4134C20.4944 34.5359 20.6881 35.6508 21.0743 36.7049C22.2425 36.9558 23.3876 37.3039 24.4977 37.7458C24.752 37.8502 24.9545 38.051 25.0611 38.3043C25.1678 38.5576 25.1697 38.8424 25.0666 39.0971C24.9616 39.3508 24.7607 39.5531 24.5076 39.6596C24.2545 39.7661 23.9697 39.7686 23.7149 39.6664C22.7486 39.2816 21.7528 38.9753 20.7373 38.7505L16.2589 41.8595L11.7845 38.7505C5.51138 40.1823 2.94369 43.2491 2.94369 49.2393V51.9323C2.94369 52.2829 3.08295 52.6189 3.33084 52.8668C3.57873 53.1146 3.91496 53.2544 4.26553 53.2544H7.55414V46.2612C7.55414 46.1254 7.58085 45.9903 7.63286 45.8648C7.68488 45.7393 7.76109 45.6259 7.8572 45.5299C7.95331 45.4338 8.06742 45.3572 8.19297 45.3053C8.31852 45.2534 8.45306 45.227 8.58891 45.2272C8.72498 45.2268 8.85987 45.2535 8.98571 45.3053C9.11154 45.3571 9.22593 45.4329 9.32233 45.5289C9.41873 45.6249 9.49514 45.7391 9.5474 45.8648C9.59965 45.9904 9.62672 46.1251 9.62685 46.2612V53.2544H19.4555C19.5919 53.254 19.727 53.2805 19.8531 53.3325C19.9792 53.3845 20.0938 53.4606 20.1902 53.5571C20.2867 53.6535 20.3632 53.7679 20.4152 53.894C20.4672 54.0201 20.4937 54.1559 20.4933 54.2923C20.4933 54.4285 20.4664 54.563 20.4142 54.6888C20.362 54.8145 20.2855 54.9285 20.1891 55.0247C20.0927 55.1208 19.9783 55.1974 19.8524 55.2492C19.7265 55.3011 19.5916 55.3277 19.4555 55.3274L8.59196 55.3332ZM13.4103 37.363L16.2619 39.3422L19.1144 37.363C18.7699 36.4558 18.5618 35.5025 18.4966 34.5343C17.7826 34.8033 17.026 34.942 16.2629 34.9434C15.4995 34.9423 14.7426 34.8023 14.0292 34.5304C13.9636 35.4993 13.7551 36.4532 13.4103 37.3611V37.363ZM10.8226 20.9658C10.6936 21.6367 10.1517 24.4454 9.73878 25.9652C9.70645 26.0813 9.66084 26.1934 9.60281 26.2991C10.6837 29.5876 13.2813 32.8763 16.2619 32.8763C19.2615 32.8763 21.8611 29.5704 22.935 26.2698C22.8684 26.1537 22.8173 26.0292 22.783 25.8997L21.5201 20.047C21.5055 20.0519 21.4912 20.0571 21.4772 20.0636L16.4108 22.741C16.2253 22.8391 16.0143 22.8791 15.8058 22.8543C15.5974 22.8294 15.4013 22.7413 15.244 22.6023C15.0855 22.4648 14.9729 22.2824 14.9214 22.079C14.8699 21.8755 14.8821 21.6612 14.9561 21.4648L15.607 19.7199C14.1011 20.4234 12.4793 20.8457 10.8216 20.9658H10.8226ZM9.37188 14.6073C8.13905 16.1371 7.8091 18.7845 8.37202 22.658C8.58699 21.6301 8.7589 20.7241 8.80189 20.4962C8.85027 20.0506 9.06366 19.6401 9.40008 19.344C9.7365 19.0479 10.1716 18.8882 10.6196 18.8968C12.4701 18.7295 14.265 18.1756 15.888 17.271C15.9807 17.2167 16.0822 17.1785 16.1878 17.1587C16.4513 17.1021 16.7249 17.1127 16.983 17.19C17.2412 17.2672 17.4757 17.409 17.6647 17.6011C17.8431 17.7802 17.9738 18.001 18.0449 18.2436C18.116 18.4861 18.1251 18.7425 18.0716 18.9895C18.0619 19.0381 18.0475 19.0863 18.0287 19.1321L17.8436 19.6379L20.5073 18.227C20.9472 17.9981 21.4503 17.9206 21.9385 18.0073C22.4267 18.0939 22.8726 18.3402 23.2069 18.7064C23.3233 18.8398 23.4051 18.9996 23.4449 19.1721L24.1588 22.4959C24.7007 18.6964 24.3668 16.0975 23.1589 14.5917C21.9761 13.1199 19.8505 12.4491 16.2819 12.4231C12.6994 12.4491 10.5607 13.1235 9.37384 14.6073H9.37188Z" fill="url(#paint0_linear_23_429)"/>
</g>
<defs>
<linearGradient id="paint0_linear_23_429" x1="14.9893" y1="50.8473" x2="49.6878" y2="-1.51878" gradientUnits="userSpaceOnUse">
<stop stop-color="#0073FF"/>
<stop offset="1" stop-color="#00DEFF"/>
</linearGradient>
<clipPath id="clip0_23_429">
<rect width="85.9062" height="59.9318" fill="white" transform="translate(0.375 0.25293)"/>
</clipPath>
</defs>
</svg>
