<svg width="50" height="51" viewBox="0 0 50 51" fill="none" xmlns="http://www.w3.org/2000/svg">
<rect y="0.5" width="50" height="50" rx="25" fill="#9F9F9F" fill-opacity="0.1"/>
<path d="M36.6695 35.7812C35.1354 33.1362 32.7539 31.0861 29.9101 29.9625C31.3058 28.9157 32.3368 27.4563 32.857 25.791C33.3772 24.1257 33.3602 22.339 32.8085 20.6839C32.2568 19.0287 31.1983 17.5892 29.783 16.569C28.3677 15.5489 26.6673 15 24.9226 15C23.178 15 21.4775 15.5489 20.0622 16.569C18.6469 17.5892 17.5884 19.0287 17.0367 20.6839C16.485 22.339 16.468 24.1257 16.9882 25.791C17.5084 27.4563 18.5394 28.9157 19.9351 29.9625C17.0913 31.0861 14.7098 33.1362 13.1757 35.7812C13.0017 36.0829 12.9546 36.4414 13.0449 36.7778C13.1351 37.1142 13.3553 37.401 13.657 37.575C13.9587 37.749 14.3171 37.7961 14.6535 37.7059C14.9899 37.6156 15.2767 37.3954 15.4507 37.0938C16.4107 35.4312 17.7914 34.0506 19.4541 33.0907C21.1167 32.1308 23.0028 31.6255 24.9226 31.6255C26.8424 31.6255 28.7285 32.1308 30.3911 33.0907C32.0538 34.0506 33.4345 35.4312 34.3945 37.0938C34.5106 37.2927 34.6766 37.4578 34.8761 37.5729C35.0756 37.688 35.3017 37.7491 35.532 37.75C35.7625 37.7518 35.9892 37.6914 36.1882 37.575C36.3377 37.4889 36.4687 37.3742 36.5738 37.2374C36.6789 37.1006 36.7559 36.9445 36.8006 36.7779C36.8453 36.6113 36.8568 36.4375 36.8343 36.2665C36.8117 36.0955 36.7558 35.9306 36.6695 35.7812ZM19.2351 23.3125C19.2351 22.1876 19.5687 21.088 20.1936 20.1527C20.8186 19.2174 21.7068 18.4884 22.7461 18.0579C23.7853 17.6275 24.9289 17.5148 26.0322 17.7343C27.1355 17.9537 28.1489 18.4954 28.9443 19.2908C29.7397 20.0862 30.2814 21.0997 30.5008 22.2029C30.7203 23.3062 30.6076 24.4498 30.1772 25.489C29.7467 26.5283 29.0177 27.4165 28.0824 28.0415C27.1471 28.6664 26.0475 29 24.9226 29C23.4142 29 21.9676 28.4008 20.9009 27.3342C19.8343 26.2676 19.2351 24.8209 19.2351 23.3125Z" fill="#9F9F9F"/>
</svg>
