<svg width="196" height="57" viewBox="0 0 196 57" fill="none" xmlns="http://www.w3.org/2000/svg">
<g clip-path="url(#clip0_2353_150)">
<path d="M191 0H5C2.23858 0 0 2.23858 0 5V52C0 54.7614 2.23858 57 5 57H191C193.761 57 196 54.7614 196 52V5C196 2.23858 193.761 0 191 0Z" fill="#1E1F2E"/>
<path fill-rule="evenodd" clip-rule="evenodd" d="M68.6768 15.7002C69.2851 15.7002 69.8147 15.8417 70.2646 16.125C70.7228 16.4083 71.0772 16.813 71.3271 17.3379C71.577 17.8628 71.7021 18.4794 71.7021 19.1875C71.7021 19.8956 71.577 20.5122 71.3271 21.0371C71.0772 21.562 70.7228 21.9667 70.2646 22.25C69.8147 22.5333 69.2851 22.6748 68.6768 22.6748C68.0686 22.6748 67.5354 22.5332 67.0771 22.25C66.6188 21.9667 66.2646 21.5621 66.0146 21.0371C65.773 20.5121 65.6514 19.8958 65.6514 19.1875C65.6514 18.4792 65.773 17.8629 66.0146 17.3379C66.2646 16.8129 66.6188 16.4083 67.0771 16.125C67.5354 15.8418 68.0686 15.7002 68.6768 15.7002ZM68.6768 16.6748C68.0769 16.6748 67.5976 16.8998 67.2393 17.3496C66.8893 17.7996 66.7139 18.4125 66.7139 19.1875C66.7139 19.9625 66.8893 20.5754 67.2393 21.0254C67.5976 21.4752 68.0769 21.7002 68.6768 21.7002C69.2766 21.7002 69.7516 21.4752 70.1016 21.0254C70.4599 20.5754 70.6396 19.9625 70.6396 19.1875C70.6396 18.4125 70.4599 17.7996 70.1016 17.3496C69.7516 16.8998 69.2766 16.6748 68.6768 16.6748Z" fill="white"/>
<path fill-rule="evenodd" clip-rule="evenodd" d="M95.0449 15.7002C95.6532 15.7002 96.1828 15.8417 96.6328 16.125C97.091 16.4083 97.4454 16.813 97.6953 17.3379C97.9452 17.8628 98.0703 18.4794 98.0703 19.1875C98.0703 19.8956 97.9452 20.5122 97.6953 21.0371C97.4454 21.562 97.091 21.9667 96.6328 22.25C96.1828 22.5333 95.6532 22.6748 95.0449 22.6748C94.4367 22.6748 93.9036 22.5332 93.4453 22.25C92.987 21.9667 92.6328 21.5621 92.3828 21.0371C92.1412 20.5121 92.0195 19.8958 92.0195 19.1875C92.0195 18.4792 92.1412 17.8629 92.3828 17.3379C92.6328 16.8129 92.987 16.4083 93.4453 16.125C93.9036 15.8418 94.4367 15.7002 95.0449 15.7002ZM95.0449 16.6748C94.445 16.6748 93.9657 16.8998 93.6074 17.3496C93.2574 17.7996 93.082 18.4125 93.082 19.1875C93.082 19.9625 93.2574 20.5754 93.6074 21.0254C93.9657 21.4752 94.445 21.7002 95.0449 21.7002C95.6447 21.7002 96.1198 21.4752 96.4697 21.0254C96.8281 20.5754 97.0078 19.9625 97.0078 19.1875C97.0078 18.4125 96.8281 17.7996 96.4697 17.3496C96.1198 16.8998 95.6447 16.6748 95.0449 16.6748Z" fill="white"/>
<path fill-rule="evenodd" clip-rule="evenodd" d="M101.747 15.7002C102.514 15.7002 103.118 15.9085 103.56 16.3252C104.009 16.7418 104.234 17.3044 104.234 18.0127V22.5H103.197V21.5498H103.122C102.939 21.883 102.656 22.154 102.272 22.3623C101.889 22.5706 101.489 22.6748 101.072 22.6748C100.431 22.6748 99.9175 22.5081 99.5342 22.1748C99.1594 21.8332 98.9717 21.3833 98.9717 20.8252C98.9717 19.3919 100.064 18.6748 102.247 18.6748H103.197V18.1377C103.197 17.6877 103.059 17.3292 102.784 17.0625C102.509 16.7877 102.147 16.6505 101.697 16.6504C101.139 16.6504 100.581 16.8918 100.022 17.375L99.4092 16.6748C100.076 16.0248 100.855 15.7002 101.747 15.7002ZM102.447 19.625C101.622 19.625 101.014 19.7205 100.622 19.9121C100.23 20.0954 100.034 20.3794 100.034 20.7627C100.034 21.0543 100.143 21.2879 100.359 21.4629C100.584 21.6378 100.885 21.7246 101.26 21.7246C101.535 21.7246 101.822 21.6621 102.122 21.5371C102.422 21.4121 102.676 21.2211 102.885 20.9629C103.093 20.6962 103.197 20.3663 103.197 19.9746V19.625H102.447Z" fill="white"/>
<path fill-rule="evenodd" clip-rule="evenodd" d="M111.412 22.5H110.374V21.5498H110.299C110.082 21.9081 109.795 22.1877 109.437 22.3877C109.078 22.5793 108.682 22.6748 108.249 22.6748C107.708 22.6748 107.22 22.521 106.787 22.2129C106.354 21.9046 106.012 21.4792 105.762 20.9375C105.52 20.3958 105.399 19.7873 105.399 19.1123C105.399 18.4541 105.52 17.8662 105.762 17.3496C106.012 16.8248 106.354 16.421 106.787 16.1377C107.22 15.8461 107.708 15.7002 108.249 15.7002C108.649 15.7002 109.028 15.8 109.387 16C109.745 16.2 110.049 16.4752 110.299 16.8252H110.374V13H111.412V22.5ZM108.462 16.7246C108.079 16.7246 107.732 16.8288 107.424 17.0371C107.124 17.2454 106.887 17.5373 106.712 17.9121C106.545 18.2871 106.462 18.7125 106.462 19.1875C106.462 19.6625 106.55 20.0879 106.725 20.4629C106.9 20.8377 107.141 21.1296 107.449 21.3379C107.757 21.5461 108.108 21.6504 108.499 21.6504C108.866 21.6504 109.195 21.546 109.486 21.3379C109.778 21.1296 110.004 20.8378 110.162 20.4629C110.329 20.0879 110.412 19.6625 110.412 19.1875C110.412 18.7125 110.329 18.2871 110.162 17.9121C109.995 17.5372 109.762 17.2454 109.462 17.0371C109.17 16.8288 108.837 16.7246 108.462 16.7246Z" fill="white"/>
<path fill-rule="evenodd" clip-rule="evenodd" d="M119.887 15.7002C120.495 15.7002 121.025 15.8417 121.475 16.125C121.933 16.4083 122.287 16.8129 122.537 17.3379C122.787 17.8628 122.912 18.4793 122.912 19.1875C122.912 19.8957 122.787 20.5122 122.537 21.0371C122.287 21.5621 121.933 21.9667 121.475 22.25C121.025 22.5333 120.495 22.6748 119.887 22.6748C119.279 22.6747 118.745 22.5333 118.287 22.25C117.829 21.9667 117.475 21.5621 117.225 21.0371C116.983 20.5122 116.862 19.8957 116.862 19.1875C116.862 18.4793 116.983 17.8628 117.225 17.3379C117.475 16.8129 117.829 16.4083 118.287 16.125C118.745 15.8417 119.279 15.7003 119.887 15.7002ZM119.887 16.6748C119.287 16.6749 118.807 16.8997 118.449 17.3496C118.099 17.7996 117.925 18.4125 117.925 19.1875C117.925 19.9625 118.099 20.5754 118.449 21.0254C118.807 21.4753 119.287 21.7001 119.887 21.7002C120.487 21.7002 120.963 21.4754 121.312 21.0254C121.671 20.5754 121.85 19.9625 121.85 19.1875C121.85 18.4125 121.671 17.7996 121.312 17.3496C120.963 16.8996 120.487 16.6748 119.887 16.6748Z" fill="white"/>
<path d="M90.5322 21.125C90.5322 21.4666 90.7025 21.6376 91.0439 21.6377H91.3564V22.6123H90.8066C89.9318 22.6123 89.4943 22.2084 89.4941 21.4004V13H90.5322V21.125Z" fill="white"/>
<path fill-rule="evenodd" clip-rule="evenodd" d="M60.0127 13C60.9877 13 61.8167 13.1919 62.5 13.5752C63.1916 13.9585 63.7169 14.5081 64.0752 15.2246C64.4335 15.9329 64.6123 16.775 64.6123 17.75C64.6123 18.7249 64.4248 19.5705 64.0498 20.2871C63.6748 20.9954 63.1253 21.5415 62.4004 21.9248C61.6837 22.3081 60.8165 22.5 59.7998 22.5H57V13H60.0127ZM58.0752 21.4746H59.7998C60.9915 21.4746 61.9048 21.1544 62.5381 20.5127C63.1714 19.871 63.4873 18.9499 63.4873 17.75C63.4873 16.55 63.1792 15.629 62.5625 14.9873C61.9459 14.3458 61.0585 14.0254 59.9004 14.0254H58.0752V21.4746Z" fill="white"/>
<path d="M74.6943 21.0879H74.7568L76.3066 15.875H77.4316L79.0068 21.0879H79.0693L80.6445 15.875H81.7822L79.5947 22.5H78.4697L76.9072 17.2754H76.8447L75.2949 22.5H74.1699L71.9697 15.875H73.1074L74.6943 21.0879Z" fill="white"/>
<path d="M85.6553 15.7002C86.3886 15.7002 86.9642 15.9294 87.3809 16.3877C87.7973 16.8376 88.0058 17.4751 88.0059 18.2998V22.5H86.9678V18.4502C86.9678 17.9169 86.8176 17.4837 86.5176 17.1504C86.2176 16.8171 85.8426 16.6504 85.3926 16.6504C84.8428 16.6505 84.3972 16.8293 84.0557 17.1875C83.714 17.5375 83.543 18.0002 83.543 18.5752V22.5H82.5059V15.875H83.543V16.8125H83.6055C83.8055 16.4792 84.0972 16.2127 84.4805 16.0127C84.8721 15.8044 85.2637 15.7002 85.6553 15.7002Z" fill="white"/>
<path d="M127.289 15.7002C128.022 15.7002 128.598 15.9294 129.015 16.3877C129.431 16.8376 129.64 17.4751 129.64 18.2998V22.5H128.602V18.4502C128.602 17.9169 128.451 17.4837 128.151 17.1504C127.851 16.8171 127.476 16.6504 127.026 16.6504C126.477 16.6505 126.031 16.8293 125.689 17.1875C125.348 17.5375 125.177 18.0002 125.177 18.5752V22.5H124.14V15.875H125.177V16.8125H125.239C125.439 16.4792 125.731 16.2127 126.114 16.0127C126.506 15.8044 126.897 15.7002 127.289 15.7002Z" fill="white"/>
<path fill-rule="evenodd" clip-rule="evenodd" d="M113.663 34.0742C116.603 34.0742 119.423 36.2948 119.423 40.1748C119.423 44.0146 116.503 46.2547 113.684 46.2549C112.084 46.2549 110.683 45.6747 109.863 44.6348V51.3945H107.184V34.3145H109.863V35.875C110.683 34.7751 112.063 34.0743 113.663 34.0742ZM113.243 36.5342C111.223 36.5343 109.764 38.1348 109.764 40.1348C109.764 42.1547 111.223 43.7743 113.243 43.7744C115.223 43.7744 116.764 42.1747 116.764 40.1348C116.764 38.1148 115.223 36.5342 113.243 36.5342Z" fill="white"/>
<path fill-rule="evenodd" clip-rule="evenodd" d="M127.022 34.0742C129.962 34.0742 132.782 36.2948 132.782 40.1748C132.782 44.0146 129.863 46.2547 127.043 46.2549C125.443 46.2549 124.043 45.6747 123.223 44.6348V51.3945H120.543V34.3145H123.223V35.875C124.043 34.7751 125.423 34.0743 127.022 34.0742ZM126.603 36.5342C124.583 36.5343 123.123 38.1348 123.123 40.1348C123.123 42.1547 124.583 43.7743 126.603 43.7744C128.583 43.7744 130.123 42.1747 130.123 40.1348C130.123 38.1148 128.583 36.5342 126.603 36.5342Z" fill="white"/>
<path fill-rule="evenodd" clip-rule="evenodd" d="M78.8408 34.0742C82.3206 34.0744 84.8604 36.6349 84.8604 40.0947V41.1143H75.3408C75.7208 42.7743 77.0204 43.875 78.9404 43.875C80.4604 43.875 81.6207 43.0744 82.1807 41.8145L84.4004 43.0947C83.3804 44.9947 81.5804 46.2549 78.9404 46.2549C75.2604 46.2549 72.7607 43.5743 72.7607 40.1943C72.7609 36.7745 75.4209 34.0742 78.8408 34.0742ZM78.8408 36.4551C77.2209 36.4551 75.9605 37.4146 75.4805 38.8545H82.1201C81.7201 37.2748 80.5205 36.4552 78.8408 36.4551Z" fill="white"/>
<path d="M138.182 34.0547C140.562 34.0547 142.062 34.9747 142.962 36.4746L140.662 37.6348C140.182 36.8148 139.302 36.2949 138.182 36.2949C136.902 36.2951 136.302 36.8948 136.302 37.5547C136.302 38.3347 137.222 38.535 138.982 38.915C140.902 39.2951 143.102 39.9748 143.103 42.4346C143.103 44.0746 141.642 46.2549 138.302 46.2549C135.682 46.2548 134.043 45.2546 133.103 43.415L135.603 42.2148C136.163 43.3146 137.142 43.915 138.422 43.915C139.762 43.915 140.422 43.2749 140.422 42.4951C140.422 41.6351 139.122 41.4743 137.682 41.1543C135.682 40.7343 133.582 40.0945 133.582 37.6348C133.582 35.7549 135.402 34.0549 138.182 34.0547Z" fill="white"/>
<path d="M64.46 31.2148C67.4798 31.215 69.8597 32.7552 71.0996 34.9551L68.6992 36.3945C67.7792 34.6947 66.3794 33.8545 64.4795 33.8545C61.7595 33.8545 59.6992 36.0749 59.6992 38.7148C59.6993 41.4146 61.7394 43.574 64.5791 43.5742C66.799 43.5742 68.2597 42.3349 68.7998 40.415H64.1396V37.8145H71.7197V38.8945C71.7197 42.8345 68.9591 46.2148 64.5791 46.2148C60.0194 46.2146 57.0001 42.7746 57 38.7148C57 34.5548 60.14 31.2148 64.46 31.2148Z" fill="white"/>
<path d="M89.8623 34.3145H92.2422V36.7344H89.8623V41.1143C89.8623 43.1542 90.1622 43.4746 92.2422 43.4746V46.0146H91.8623C88.2423 46.0146 87.1426 44.8547 87.1426 41.1348V36.7344H85.1426V34.3145H87.1426V32.5342L89.8623 30.6748V34.3145Z" fill="white"/>
<path fill-rule="evenodd" clip-rule="evenodd" d="M106.211 46.0146H103.37L102.471 43.415H96.8105L95.9102 46.0146H93.0703L98.2705 31.415H101.011L106.211 46.0146ZM97.7305 40.8145H101.57L99.6504 35.2744L97.7305 40.8145Z" fill="white"/>
<g clip-path="url(#clip1_2353_150)">
<path d="M22.7363 11H36.2637C39.997 11 41.3507 11.3887 42.7155 12.1186C44.0804 12.8485 45.1515 13.9196 45.8814 15.2845C46.6113 16.6493 47 18.003 47 21.7363V35.2637C47 38.997 46.6113 40.3507 45.8814 41.7155C45.1515 43.0804 44.0804 44.1515 42.7155 44.8814C41.3507 45.6113 39.997 46 36.2637 46H22.7363C19.003 46 17.6493 45.6113 16.2845 44.8814C14.9196 44.1515 13.8485 43.0804 13.1186 41.7155C12.3887 40.3507 12 38.997 12 35.2637V21.7363C12 18.003 12.3887 16.6493 13.1186 15.2845C13.8485 13.9196 14.9196 12.8485 16.2845 12.1186C17.6493 11.3887 19.003 11 22.7363 11Z" fill="white"/>
<mask id="mask0_2353_150" style="mask-type:luminance" maskUnits="userSpaceOnUse" x="12" y="11" width="35" height="35">
<path d="M22.7363 11H36.2637C39.997 11 41.3507 11.3887 42.7155 12.1186C44.0804 12.8485 45.1515 13.9196 45.8814 15.2845C46.6113 16.6493 47 18.003 47 21.7363V35.2637C47 38.997 46.6113 40.3507 45.8814 41.7155C45.1515 43.0804 44.0804 44.1515 42.7155 44.8814C41.3507 45.6113 39.997 46 36.2637 46H22.7363C19.003 46 17.6493 45.6113 16.2845 44.8814C14.9196 44.1515 13.8485 43.0804 13.1186 41.7155C12.3887 40.3507 12 38.997 12 35.2637V21.7363C12 18.003 12.3887 16.6493 13.1186 15.2845C13.8485 13.9196 14.9196 12.8485 16.2845 12.1186C17.6493 11.3887 19.003 11 22.7363 11Z" fill="white"/>
</mask>
<g mask="url(#mask0_2353_150)">
<path fill-rule="evenodd" clip-rule="evenodd" d="M37.0569 50.7115H10.7528C8.83966 50.7115 7.28847 49.1583 7.28847 47.2421V40.1926L16.9472 30.4705L37.0569 50.7115Z" fill="#00E691"/>
</g>
<mask id="mask1_2353_150" style="mask-type:luminance" maskUnits="userSpaceOnUse" x="12" y="11" width="35" height="35">
<path d="M22.7363 11H36.2637C39.997 11 41.3507 11.3887 42.7155 12.1186C44.0804 12.8485 45.1515 13.9196 45.8814 15.2845C46.6113 16.6493 47 18.003 47 21.7363V35.2637C47 38.997 46.6113 40.3507 45.8814 41.7155C45.1515 43.0804 44.0804 44.1515 42.7155 44.8814C41.3507 45.6113 39.997 46 36.2637 46H22.7363C19.003 46 17.6493 45.6113 16.2845 44.8814C14.9196 44.1515 13.8485 43.0804 13.1186 41.7155C12.3887 40.3507 12 38.997 12 35.2637V21.7363C12 18.003 12.3887 16.6493 13.1186 15.2845C13.8485 13.9196 14.9196 12.8485 16.2845 12.1186C17.6493 11.3887 19.003 11 22.7363 11Z" fill="white"/>
</mask>
<g mask="url(#mask1_2353_150)">
<path fill-rule="evenodd" clip-rule="evenodd" d="M43.0358 26.8738L22.5936 6.28846H48.2465C50.1602 6.28846 51.7115 7.84287 51.7115 9.76044V18.1369L43.0358 26.8738Z" fill="#00CCFF"/>
</g>
<mask id="mask2_2353_150" style="mask-type:luminance" maskUnits="userSpaceOnUse" x="12" y="11" width="35" height="35">
<path d="M22.7363 11H36.2637C39.997 11 41.3507 11.3887 42.7155 12.1186C44.0804 12.8485 45.1515 13.9196 45.8814 15.2845C46.6113 16.6493 47 18.003 47 21.7363V35.2637C47 38.997 46.6113 40.3507 45.8814 41.7155C45.1515 43.0804 44.0804 44.1515 42.7155 44.8814C41.3507 45.6113 39.997 46 36.2637 46H22.7363C19.003 46 17.6493 45.6113 16.2845 44.8814C14.9196 44.1515 13.8485 43.0804 13.1186 41.7155C12.3887 40.3507 12 38.997 12 35.2637V21.7363C12 18.003 12.3887 16.6493 13.1186 15.2845C13.8485 13.9196 14.9196 12.8485 16.2845 12.1186C17.6493 11.3887 19.003 11 22.7363 11Z" fill="white"/>
</mask>
<g mask="url(#mask2_2353_150)">
<path fill-rule="evenodd" clip-rule="evenodd" d="M48.2401 50.6733H41.1477L32.0062 41.4944L51.7115 21.7084V47.2046C51.7115 47.5882 51.6494 47.9569 51.5345 48.3021C51.0748 49.6798 49.7733 50.6733 48.2401 50.6733Z" fill="#8F61FF"/>
</g>
<mask id="mask3_2353_150" style="mask-type:luminance" maskUnits="userSpaceOnUse" x="12" y="11" width="35" height="35">
<path d="M22.7363 11H36.2637C39.997 11 41.3507 11.3887 42.7155 12.1186C44.0804 12.8485 45.1515 13.9196 45.8814 15.2845C46.6113 16.6493 47 18.003 47 21.7363V35.2637C47 38.997 46.6113 40.3507 45.8814 41.7155C45.1515 43.0804 44.0804 44.1515 42.7155 44.8814C41.3507 45.6113 39.997 46 36.2637 46H22.7363C19.003 46 17.6493 45.6113 16.2845 44.8814C14.9196 44.1515 13.8485 43.0804 13.1186 41.7155C12.3887 40.3507 12 38.997 12 35.2637V21.7363C12 18.003 12.3887 16.6493 13.1186 15.2845C13.8485 13.9196 14.9196 12.8485 16.2845 12.1186C17.6493 11.3887 19.003 11 22.7363 11Z" fill="white"/>
</mask>
<g mask="url(#mask3_2353_150)">
<path fill-rule="evenodd" clip-rule="evenodd" d="M7.28847 36.0952V9.75484C7.28847 9.40162 7.3415 9.06052 7.43961 8.73954C7.87395 7.3204 9.19399 6.28846 10.7553 6.28846H18.9524L27.9504 15.3309L7.28847 36.0952Z" fill="#FF5C69"/>
</g>
<mask id="mask4_2353_150" style="mask-type:luminance" maskUnits="userSpaceOnUse" x="12" y="11" width="35" height="35">
<path d="M22.7363 11H36.2637C39.997 11 41.3507 11.3887 42.7155 12.1186C44.0804 12.8485 45.1515 13.9196 45.8814 15.2845C46.6113 16.6493 47 18.003 47 21.7363V35.2637C47 38.997 46.6113 40.3507 45.8814 41.7155C45.1515 43.0804 44.0804 44.1515 42.7155 44.8814C41.3507 45.6113 39.997 46 36.2637 46H22.7363C19.003 46 17.6493 45.6113 16.2845 44.8814C14.9196 44.1515 13.8485 43.0804 13.1186 41.7155C12.3887 40.3507 12 38.997 12 35.2637V21.7363C12 18.003 12.3887 16.6493 13.1186 15.2845C13.8485 13.9196 14.9196 12.8485 16.2845 12.1186C17.6493 11.3887 19.003 11 22.7363 11Z" fill="white"/>
</mask>
<g mask="url(#mask4_2353_150)">
<path d="M28.6044 32.5397V22.4423H30.3956V32.5397H28.6044Z" fill="#00E08A"/>
</g>
<path fill-rule="evenodd" clip-rule="evenodd" d="M36.2637 11.2221C39.9341 11.2221 41.2681 11.5964 42.6108 12.3145C43.9363 13.0234 44.9766 14.0637 45.6855 15.3892C46.4036 16.7319 46.7779 18.0659 46.7779 21.7363V35.2637C46.7779 38.9341 46.4036 40.2681 45.6855 41.6108C44.9766 42.9363 43.9363 43.9766 42.6108 44.6855C41.2681 45.4036 39.9341 45.7779 36.2637 45.7779H22.7363C19.0659 45.7779 17.7319 45.4036 16.3892 44.6855C15.0637 43.9766 14.0234 42.9363 13.3145 41.6108C12.5964 40.2681 12.2221 38.9341 12.2221 35.2637V21.7363C12.2221 18.0659 12.5964 16.7319 13.3145 15.3892C14.0234 14.0637 15.0637 13.0234 16.3892 12.3145C17.7319 11.5964 19.0659 11.2221 22.7363 11.2221H36.2637Z" stroke="black" stroke-opacity="0.08" stroke-width="0.66"/>
<mask id="mask5_2353_150" style="mask-type:luminance" maskUnits="userSpaceOnUse" x="12" y="11" width="35" height="35">
<path d="M22.7363 11H36.2637C39.997 11 41.3507 11.3887 42.7155 12.1186C44.0804 12.8485 45.1515 13.9196 45.8814 15.2845C46.6113 16.6493 47 18.003 47 21.7363V35.2637C47 38.997 46.6113 40.3507 45.8814 41.7155C45.1515 43.0804 44.0804 44.1515 42.7155 44.8814C41.3507 45.6113 39.997 46 36.2637 46H22.7363C19.003 46 17.6493 45.6113 16.2845 44.8814C14.9196 44.1515 13.8485 43.0804 13.1186 41.7155C12.3887 40.3507 12 38.997 12 35.2637V21.7363C12 18.003 12.3887 16.6493 13.1186 15.2845C13.8485 13.9196 14.9196 12.8485 16.2845 12.1186C17.6493 11.3887 19.003 11 22.7363 11Z" fill="white"/>
</mask>
<g mask="url(#mask5_2353_150)">
<path d="M24.262 28.1622L29.5 33.4002L34.738 28.1622" stroke="#0FCFFF" stroke-width="2.66"/>
</g>
</g>
</g>
<defs>
<clipPath id="clip0_2353_150">
<rect width="196" height="57" fill="white"/>
</clipPath>
<clipPath id="clip1_2353_150">
<rect width="35" height="35" fill="white" transform="translate(12 11)"/>
</clipPath>
</defs>
</svg>
