<svg xmlns="http://www.w3.org/2000/svg" width="16.434" height="16.436" viewBox="0 0 16.434 16.436">
  <path id="exit" d="M1599.5-2921.383l-5.656-5.657-5.656,5.657a1.5,1.5,0,0,1-2.121,0,1.5,1.5,0,0,1,0-2.121l5.657-5.657-5.657-5.657a1.5,1.5,0,0,1,0-2.121,1.5,1.5,0,0,1,2.121,0l5.656,5.657,5.656-5.657a1.5,1.5,0,0,1,2.121,0,1.5,1.5,0,0,1,0,2.121l-5.657,5.657,5.657,5.657a1.5,1.5,0,0,1,0,2.121,1.494,1.494,0,0,1-1.06.439A1.5,1.5,0,0,1,1599.5-2921.383Z" transform="translate(-1585.622 2937.379)" fill="#9f9f9f"/>
</svg>
