<svg width="119" height="37" viewBox="0 0 119 37" fill="none" xmlns="http://www.w3.org/2000/svg">
<g clip-path="url(#clip0_550_314)">
<path d="M36.9118 18.4118C36.9118 8.24326 28.7271 0 18.6308 0C8.53452 0 0.349854 8.24326 0.349854 18.4118C0.349854 28.5804 8.53452 36.8237 18.6308 36.8237C28.7271 36.8237 36.9118 28.5804 36.9118 18.4118Z" fill="#FFFF00"/>
<path d="M4.63993 17.0357C4.09998 13.9516 3.83 12.4096 4.21972 11.1258C4.56252 9.99653 5.25145 9.00557 6.18782 8.29489C7.25237 7.487 8.78345 7.21509 11.8456 6.67129L21.0959 5.02853C24.1581 4.4847 25.6892 4.21282 26.9638 4.60531C28.0851 4.95057 29.069 5.64443 29.7746 6.5875C30.5768 7.65967 30.8467 9.20171 31.3867 12.2858L32.6553 19.5322C33.1953 22.6163 33.4653 24.1583 33.0756 25.4421C32.7328 26.5714 32.0438 27.5624 31.1074 28.273C30.0429 29.0809 28.5118 29.3528 25.4497 29.8967L16.1994 31.5394C13.1372 32.0832 11.6061 32.3551 10.3314 31.9626C9.21021 31.6174 8.22625 30.9235 7.52067 29.9804C6.71849 28.9083 6.4485 27.3662 5.90857 24.2821L4.63993 17.0357Z" fill="#7000FF"/>
<path d="M23.8454 12.7642C24.3969 12.8864 24.9306 12.9909 25.4543 13.126C26.0108 13.2686 26.5623 13.4419 27.1138 13.5973C27.1922 13.6202 27.2226 13.6508 27.2226 13.74C27.22 15.475 27.2377 17.2127 27.215 18.9477C27.1897 20.8127 26.6053 22.4994 25.4796 23.9822C24.2248 25.6358 22.5831 26.7007 20.5744 27.1848C19.7826 27.3759 18.9757 27.4396 18.1637 27.3912C16.2334 27.2765 14.5234 26.5912 13.0612 25.3198C11.5535 24.0128 10.6023 22.3669 10.2203 20.3949C10.1116 19.8344 10.0685 19.2662 10.0685 18.6955C10.066 17.0521 10.0685 15.4113 10.0635 13.768C10.0635 13.6585 10.0989 13.6202 10.1975 13.5897C11.2499 13.2508 12.3225 12.9833 13.4078 12.7845C13.4179 12.782 13.428 12.7845 13.4533 12.782C13.4533 12.8253 13.4533 12.8686 13.4533 12.9094C13.4533 14.9706 13.4457 17.0343 13.4584 19.0955C13.466 20.135 13.6051 21.1618 13.9567 22.1478C14.235 22.93 14.6473 23.6281 15.262 24.1937C15.8388 24.7211 16.5143 25.0549 17.2707 25.2179C18.3407 25.4498 19.4083 25.4319 20.4581 25.0982C21.6976 24.7058 22.5577 23.8752 23.1092 22.7058C23.4052 22.0816 23.5823 21.4191 23.6936 20.7389C23.8175 19.9821 23.8479 19.2178 23.8479 18.4534C23.8479 16.6139 23.8479 14.7718 23.8479 12.9323C23.8454 12.8839 23.8454 12.838 23.8454 12.7642Z" fill="white"/>
<path d="M20.1494 16.586C19.14 16.586 18.1408 16.586 17.1365 16.586C17.1365 14.2165 17.1365 11.8496 17.1365 9.48519C17.4502 9.38582 19.5524 9.37819 20.1494 9.47756C20.1494 11.847 20.1494 14.2165 20.1494 16.586Z" fill="white"/>
<path d="M23.8454 12.7642C24.3969 12.8864 24.9306 12.9909 25.4543 13.126C26.0108 13.2686 26.5623 13.4419 27.1138 13.5973C27.1922 13.6202 27.2226 13.6508 27.2226 13.74C27.22 15.475 27.2377 17.2127 27.215 18.9477C27.1897 20.8127 26.6053 22.4994 25.4796 23.9822C24.2248 25.6358 22.5831 26.7007 20.5744 27.1848C19.7826 27.3759 18.9757 27.4396 18.1637 27.3912C16.2334 27.2765 14.5234 26.5912 13.0612 25.3198C11.5535 24.0128 10.6023 22.3669 10.2203 20.3949C10.1116 19.8344 10.0685 19.2662 10.0685 18.6955C10.066 17.0521 10.0685 15.4113 10.0635 13.768C10.0635 13.6585 10.0989 13.6202 10.1975 13.5897C11.2499 13.2508 12.3225 12.9833 13.4078 12.7845C13.4179 12.782 13.428 12.7845 13.4533 12.782C13.4533 12.8253 13.4533 12.8686 13.4533 12.9094C13.4533 14.9706 13.4457 17.0343 13.4584 19.0955C13.466 20.135 13.6051 21.1618 13.9567 22.1478C14.235 22.93 14.6473 23.6281 15.262 24.1937C15.8388 24.7211 16.5143 25.0549 17.2707 25.2179C18.3407 25.4498 19.4083 25.4319 20.4581 25.0982C21.6976 24.7058 22.5577 23.8752 23.1092 22.7058C23.4052 22.0816 23.5823 21.4191 23.6936 20.7389C23.8175 19.9821 23.8479 19.2178 23.8479 18.4534C23.8479 16.6139 23.8479 14.7718 23.8479 12.9323C23.8454 12.8839 23.8454 12.838 23.8454 12.7642Z" fill="white"/>
<path d="M20.1494 16.586C19.14 16.586 18.1408 16.586 17.1365 16.586C17.1365 14.2165 17.1365 11.8496 17.1365 9.48519C17.4502 9.38582 19.5524 9.37819 20.1494 9.47756C20.1494 11.847 20.1494 14.2165 20.1494 16.586Z" fill="white"/>
<path d="M23.8454 12.7642C24.3969 12.8864 24.9306 12.9909 25.4543 13.126C26.0108 13.2686 26.5623 13.4419 27.1138 13.5973C27.1922 13.6202 27.2226 13.6508 27.2226 13.74C27.22 15.475 27.2377 17.2127 27.215 18.9477C27.1897 20.8127 26.6053 22.4994 25.4796 23.9822C24.2248 25.6358 22.5831 26.7007 20.5744 27.1848C19.7826 27.3759 18.9757 27.4396 18.1637 27.3912C16.2334 27.2765 14.5234 26.5912 13.0612 25.3198C11.5535 24.0128 10.6023 22.3669 10.2203 20.3949C10.1116 19.8344 10.0685 19.2662 10.0685 18.6955C10.066 17.0521 10.0685 15.4113 10.0635 13.768C10.0635 13.6585 10.0989 13.6202 10.1975 13.5897C11.2499 13.2508 12.3225 12.9833 13.4078 12.7845C13.4179 12.782 13.428 12.7845 13.4533 12.782C13.4533 12.8253 13.4533 12.8686 13.4533 12.9094C13.4533 14.9706 13.4457 17.0343 13.4584 19.0955C13.466 20.135 13.6051 21.1618 13.9567 22.1478C14.235 22.93 14.6473 23.6281 15.262 24.1937C15.8388 24.7211 16.5143 25.0549 17.2707 25.2179C18.3407 25.4498 19.4083 25.4319 20.4581 25.0982C21.6976 24.7058 22.5577 23.8752 23.1092 22.7058C23.4052 22.0816 23.5823 21.4191 23.6936 20.7389C23.8175 19.9821 23.8479 19.2178 23.8479 18.4534C23.8479 16.6139 23.8479 14.7718 23.8479 12.9323C23.8454 12.8839 23.8454 12.838 23.8454 12.7642Z" fill="white"/>
<path d="M20.1494 16.586C19.14 16.586 18.1408 16.586 17.1365 16.586C17.1365 14.2165 17.1365 11.8496 17.1365 9.48519C17.4502 9.38582 19.5524 9.37819 20.1494 9.47756C20.1494 11.847 20.1494 14.2165 20.1494 16.586Z" fill="white"/>
<path d="M23.8454 12.7642C24.3969 12.8864 24.9306 12.9909 25.4543 13.126C26.0108 13.2686 26.5623 13.4419 27.1138 13.5973C27.1922 13.6202 27.2226 13.6508 27.2226 13.74C27.22 15.475 27.2377 17.2127 27.215 18.9477C27.1897 20.8127 26.6053 22.4994 25.4796 23.9822C24.2248 25.6358 22.5831 26.7007 20.5744 27.1848C19.7826 27.3759 18.9757 27.4396 18.1637 27.3912C16.2334 27.2765 14.5234 26.5912 13.0612 25.3198C11.5535 24.0128 10.6023 22.3669 10.2203 20.3949C10.1116 19.8344 10.0685 19.2662 10.0685 18.6955C10.066 17.0521 10.0685 15.4113 10.0635 13.768C10.0635 13.6585 10.0989 13.6202 10.1975 13.5897C11.2499 13.2508 12.3225 12.9833 13.4078 12.7845C13.4179 12.782 13.428 12.7845 13.4533 12.782C13.4533 12.8253 13.4533 12.8686 13.4533 12.9094C13.4533 14.9706 13.4457 17.0343 13.4584 19.0955C13.466 20.135 13.6051 21.1618 13.9567 22.1478C14.235 22.93 14.6473 23.6281 15.262 24.1937C15.8388 24.7211 16.5143 25.0549 17.2707 25.2179C18.3407 25.4498 19.4083 25.4319 20.4581 25.0982C21.6976 24.7058 22.5577 23.8752 23.1092 22.7058C23.4052 22.0816 23.5823 21.4191 23.6936 20.7389C23.8175 19.9821 23.8479 19.2178 23.8479 18.4534C23.8479 16.6139 23.8479 14.7718 23.8479 12.9323C23.8454 12.8839 23.8454 12.838 23.8454 12.7642Z" fill="white"/>
<path d="M20.1494 16.586C19.14 16.586 18.1408 16.586 17.1365 16.586C17.1365 14.2165 17.1365 11.8496 17.1365 9.48519C17.4502 9.38582 19.5524 9.37819 20.1494 9.47756C20.1494 11.847 20.1494 14.2165 20.1494 16.586Z" fill="white"/>
<path d="M59.515 21.4175C57.726 21.4175 56.3738 22.1508 55.703 23.2612C55.0216 22.156 53.5445 21.4175 51.9997 21.4175C48.968 21.4175 47.4182 23.3503 47.4182 25.7441V31.4902H50.2471V26.1474C50.2471 25.0107 50.8455 23.9946 52.2184 23.9946C53.5912 23.9946 54.2988 24.9584 54.2988 26.1107V31.4954H57.1383V26.1055C57.1383 24.9584 57.8091 23.9893 59.1667 23.9893C60.5346 23.9893 61.1793 25.0055 61.1793 26.1422V31.485H64.0085V25.7441C64.0189 23.3503 62.5575 21.4175 59.515 21.4175Z" fill="white"/>
<path d="M76.6463 28.0174V21.606H73.8431L73.8638 23.167C73.2555 22.2503 72.1839 21.4175 70.2804 21.4175C67.0093 21.4175 65.3294 23.9736 65.3294 26.5403C65.267 29.1383 67.1705 31.7259 70.1402 31.7259C71.7107 31.7259 73.1513 31.024 73.8431 29.7826C74.1238 30.5997 74.8259 31.4954 76.2823 31.4954H77.9048V29.1016H77.4522C76.8856 29.0964 76.6463 28.8817 76.6463 28.0174ZM70.8734 29.2483C69.2612 29.2483 68.0648 28.1326 68.0648 26.5612C68.0648 25.0107 69.2662 23.916 70.8734 23.916C72.5323 23.916 73.734 25.0107 73.734 26.5612C73.734 28.1274 72.5323 29.2483 70.8734 29.2483Z" fill="white"/>
<path d="M79.71 24.9796V31.4904H82.5392V27.1219C82.5392 25.43 83.7613 24.3458 85.311 24.3458H87.1625V21.4072H85.7739C84.0629 21.4072 82.8149 22.8739 82.5442 23.7329V23.4291V21.6063H79.7153V24.9796H79.71Z" fill="white"/>
<path d="M88.8374 31.4903H91.6666V26.6503L96.0663 31.4903H99.4105L94.8493 26.4094L99.0568 21.6061H95.7283L91.6666 26.2365V18.5471H88.8374V31.4903Z" fill="white"/>
<path d="M102.723 27.326C102.723 28.4154 103.285 29.5102 105.095 29.5102C106.754 29.5102 106.993 28.5045 106.993 28.5045H110.103C110.103 28.5045 109.812 31.7259 105.09 31.7259C101.798 31.7259 99.7383 29.8716 99.7383 26.5612C99.7383 23.2508 101.798 21.4175 105.059 21.4175C108.267 21.4175 110.342 23.2508 110.342 26.5612C110.342 26.9226 110.28 27.326 110.28 27.326H102.723ZM102.76 25.5817H107.321C107.321 24.775 106.858 23.6279 105.059 23.6279C103.28 23.6279 102.76 24.7803 102.76 25.5817Z" fill="white"/>
<path d="M116.808 29.0124C115.84 29.0124 115.486 28.5776 115.486 27.2V23.7167H118.555V21.4225H115.486V19.4478H113.957L111.227 22.0772V23.7167H112.657V27.5719C112.657 30.3376 113.999 31.5057 116.808 31.5057H118.56V29.0071H116.808V29.0124Z" fill="white"/>
<path d="M79.1118 10.7951C79.1118 12.4084 78.2068 13.1522 76.8595 13.1522C75.5127 13.1522 74.639 12.4189 74.639 10.7951V5.46802H71.7317V10.8946C71.7317 14.4303 74.67 15.8184 76.8752 15.8184C79.0804 15.8184 82.0242 14.4303 82.0242 10.8946V5.46802H79.1168L79.1118 10.7951Z" fill="white"/>
<path d="M69.2825 7.94037V5.46802H59.843V7.94037H65.4287L59.614 13.1575V15.6298H69.6308V13.1575H63.4781L69.2825 7.94037Z" fill="white"/>
<path d="M96.5709 5.27393C94.7297 5.27393 93.3412 6.02821 92.6547 7.17534C91.9526 6.02821 90.4338 5.27393 88.8527 5.27393C85.7478 5.27393 84.1306 7.26437 84.1306 9.72623V15.6295H87.0376V10.1453C87.0376 8.96674 87.6513 7.93483 89.0609 7.93483C89.3469 7.91914 89.6383 7.96105 89.9032 8.06582C90.1739 8.17054 90.4181 8.32771 90.621 8.53199C90.8239 8.73628 90.9798 8.98244 91.0839 9.25481C91.1827 9.52719 91.2294 9.81531 91.2087 10.1034V15.6347H94.116V10.1034C94.116 8.92483 94.8078 7.92963 96.2014 7.92963C97.5954 7.92963 98.2661 8.96674 98.2661 10.14V15.6243H101.173V9.73672C101.173 7.27486 99.6758 5.28441 96.5498 5.28441L96.5709 5.27393Z" fill="white"/>
<path d="M54.798 10.7951C54.798 12.4084 53.8929 13.1522 52.5564 13.1522C51.2199 13.1522 50.3252 12.4189 50.3252 10.7951V5.46802H47.4182V10.8946C47.4182 14.4303 50.3462 15.8184 52.5618 15.8184C54.7823 15.8184 57.7 14.4303 57.7 10.8946V5.46802H54.7926L54.798 10.7951Z" fill="white"/>
</g>
<defs>
<clipPath id="clip0_550_314">
<rect width="118.223" height="36.8237" fill="white" transform="translate(0.349854)"/>
</clipPath>
</defs>
</svg>
