<svg width="97" height="22" viewBox="0 0 97 22" fill="none" xmlns="http://www.w3.org/2000/svg">
<g clip-path="url(#clip0_465_345)">
<path fill-rule="evenodd" clip-rule="evenodd" d="M14.2535 15.5973C14.2535 18.9503 11.5591 21.3454 7.42136 21.3454C5.01567 21.2496 2.70622 20.2915 0.974121 18.4713L2.41753 16.8427C3.76472 18.0881 5.30436 19.3335 7.42136 19.3335C9.73082 19.3335 12.329 17.9923 12.329 15.6931C12.329 13.777 10.7893 12.4358 7.51759 11.4778C3.76472 10.3282 1.84017 8.79534 1.84017 5.92129C1.74394 2.95144 4.24585 0.556396 7.71004 0.556396C10.3082 0.556396 11.9441 1.70602 13.5799 3.04724L12.2327 4.58007C10.8855 3.33465 9.53836 2.47243 7.9025 2.47243C5.78549 2.56823 3.76472 3.81365 3.76472 5.72969C3.76472 7.45412 4.72699 8.50794 8.19118 9.56175C11.3667 10.5198 14.2535 11.9568 14.2535 15.5973ZM31.2858 2.47243C31.2858 3.33465 32.0556 4.10106 32.9216 4.10106C33.4028 4.10106 33.7877 3.90946 34.0764 3.62205C34.365 3.33465 34.5575 2.85564 34.5575 2.47243C34.5575 1.61022 33.7877 0.843802 32.9216 0.843802C32.0556 0.843802 31.2858 1.51441 31.2858 2.47243ZM47.2595 1.13121H45.2387V20.9622H47.2595V1.13121ZM51.8784 20.2915C51.8784 20.2915 53.1294 21.2496 57.171 21.2496C61.2125 21.2496 64.4842 18.2797 64.4842 14.3518C64.4842 10.3282 61.2125 7.45412 57.171 7.45412C56.0162 7.45412 54.8615 7.64572 53.8992 8.12473V1.13121H51.8784V20.2915ZM66.7937 14.3518C66.7937 18.3755 70.0654 21.6328 74.107 21.6328C78.1485 21.6328 81.4203 18.3755 81.4203 14.3518C81.4203 10.3282 78.1485 7.07091 74.107 7.07091C70.0654 7.07091 66.7937 10.3282 66.7937 14.3518ZM93.4487 20.9622H96.0468L90.2732 14.1602L95.6619 7.74152H93.0638L89.0222 12.6274L84.9807 7.74152H82.3825L87.7713 14.1602L82.0939 20.9622H84.692L89.1185 15.6931L93.4487 20.9622ZM74.107 9.08275C71.99 9.08275 70.0654 10.3282 69.1994 12.34C68.3333 14.3518 68.8145 16.5553 70.3541 18.0881C71.8937 19.6209 74.2032 20.0999 76.1278 19.2377C78.1485 18.3755 79.3995 16.4595 79.3995 14.3518C79.3995 11.4778 77.09 9.08275 74.107 9.08275ZM57.171 9.37015C56.0162 9.37015 54.8615 9.75336 53.8992 10.424V18.5671C54.9577 19.0461 56.1125 19.3335 57.171 19.2377C60.0578 19.2377 62.4635 17.2259 62.4635 14.256C62.4635 11.2862 60.154 9.37015 57.171 9.37015ZM38.5991 1.13121H40.6198V20.9622H38.5991V1.13121ZM26.3782 20.9622L19.4498 14.0644L25.7046 7.74152H28.4952L22.2404 14.0644L29.1688 20.9622H26.3782ZM17.429 1.13121V20.9622H19.4498V1.13121H17.429ZM31.9594 20.9622H33.9801V7.74152H31.9594V20.9622Z" fill="white"/>
</g>
<defs>
<clipPath id="clip0_465_345">
<rect width="95.2652" height="21.0764" fill="white" transform="translate(0.974121 0.556396)"/>
</clipPath>
</defs>
</svg>
