<svg width="121" height="30" viewBox="0 0 121 30" fill="none" xmlns="http://www.w3.org/2000/svg">
<g clip-path="url(#clip0_550_373)">
<path fill-rule="evenodd" clip-rule="evenodd" d="M64.5151 4.16084L64.0465 5.54748C63.4916 4.13407 62.425 3.79143 61.3693 3.85032C57.6416 4.04306 55.2338 7.56053 53.4077 12.3683C51.7378 18.2039 52.0664 22.1658 55.8586 22.3157C56.7798 22.3532 57.8086 21.8713 58.7351 21.0843L57.911 23.5203C57.41 25.014 56.6505 28.1407 53.8279 28.1888H48.9583L48.425 29.4845H54.0056C58.7028 29.4845 60.9329 27.011 62.1018 23.606L68.7652 4.18761L64.5151 4.1662V4.16084ZM62.6082 9.83591L59.834 17.9523C59.3438 19.4032 58.2288 20.4526 57.1191 20.4526C54.7651 20.4526 57.1515 13.7763 57.4747 12.8769C57.9756 11.4795 59.5647 5.69739 61.7248 5.69739C63.1576 5.69739 63.5293 6.83241 62.6082 9.83591ZM84.4459 22.4602C85.9704 22.4602 87.4194 21.775 88.6368 20.6828L88.2166 21.9677L92.4021 22.0159L98.5376 4.15549H94.2929L90.1451 16.3248C89.5472 18.0755 88.556 20.4311 86.4498 20.4472C84.9146 20.4579 85.6957 18.6751 86.2613 16.9993L90.6191 4.15549H86.3259L81.6502 17.8452C80.7668 20.4472 82.0919 22.4602 84.4459 22.4602ZM69.7779 22.0105H65.5332L71.6687 4.15013L75.8541 4.19832L75.434 5.48324C76.6514 4.39641 78.1004 3.679 79.6248 3.70577C82.2697 3.7486 83.3632 5.54213 82.6145 7.74256L77.7449 22.0159H73.4517L77.7987 9.20951C78.3697 7.53376 78.9138 5.78305 77.594 5.80447C75.8218 5.83124 74.2651 8.74372 73.6725 10.4944L69.7833 22.0159L69.7779 22.0105ZM52.9121 27.0271H49.3784L50.752 23.1134H54.2857L52.9121 27.0271ZM52.6051 9.1292L51.8186 11.4635L48.161 22.0426H43.9648L44.4496 20.8434C43.717 21.534 42.4296 22.1979 41.1529 22.23C38.7127 22.2889 37.2475 20.7203 37.5923 18.6537L37.7431 17.7489C38.0017 16.9244 38.2764 16.1213 38.5619 15.3718C40.2156 11.0137 42.1602 10.8853 47.8971 10.6122L48.7266 8.2244C49.1576 6.83776 50.1703 5.19413 47.6762 5.18342C46.044 5.17807 45.3061 6.06145 44.3472 8.87222H41.4061C42.5912 5.57961 44.9344 3.76466 48.0371 3.7593C52.4219 3.7486 53.8656 5.41899 52.6051 9.13455V9.1292ZM47.4069 12.1916C47.4877 11.956 47.3261 11.8543 47.1429 11.865C44.8051 11.865 44.1156 12.4165 43.5662 13.7442L41.5246 19.1998C41.3899 20.0457 41.9717 20.4419 42.5211 20.4579C43.5877 20.4847 44.9128 19.4246 45.6616 17.2563L47.4069 12.1916ZM116.987 3.70577C119.427 3.70577 120.774 5.41364 119.977 7.75326L115.107 22.0159H110.819L115.22 9.22022C115.813 7.49093 116.492 5.81518 114.962 5.77235C114.251 5.75628 113.599 6.20601 113.028 6.83776C112.069 7.88711 111.326 9.52003 110.889 10.8531L107.146 22.0159H102.901L107.248 9.22022C108.007 6.98767 108.352 5.87942 106.984 5.77235C105.767 5.67598 104.075 7.3785 102.912 10.8531L99.1678 22.0159H94.8746L101.032 4.19297L105.287 4.18226L104.786 5.47253C105.966 4.39106 107.226 3.679 108.912 3.70577C110.809 3.73789 111.864 4.57309 112.338 5.92761C113.642 4.58379 115.269 3.70577 116.992 3.70577H116.987ZM5.58443 4.04841C4.87877 4.04841 4.30778 4.61592 4.30778 5.31727C4.30778 6.01862 4.87877 6.58613 5.58443 6.58613C5.95612 6.58613 15.663 6.58613 15.663 6.58613L16.0885 7.67296C16.0885 7.67296 10.3301 7.67296 9.97461 7.67296C9.26356 7.67296 8.68718 8.24582 8.68718 8.95252C8.68718 9.65923 9.26356 10.2321 9.97461 10.2321C10.3301 10.2321 18.2432 10.2214 18.2432 10.2214L14.2355 22.0105H18.5287L22.2509 10.9067C23.4629 7.27677 25.0305 5.75628 26.3448 5.76699C27.9393 5.7777 27.0774 7.81751 26.6842 8.96859L22.2563 22.0105H26.501L30.2448 10.8478C30.999 8.52957 32.4911 5.78841 34.3172 5.76699C35.9978 5.74558 34.942 8.14945 34.6619 8.97394L30.1748 22.0105H34.468L39.3484 7.69973C40.1779 5.30656 38.7235 3.70577 36.3426 3.70577C34.6242 3.70577 32.992 4.58379 31.6885 5.92761C31.209 4.57309 30.1586 3.73254 28.2625 3.70577C27.0397 3.6897 25.9785 4.10195 24.9874 4.69087C23.7592 2.1478 20.7373 0.423866 17.9254 0.423866H1.32354C0.612496 0.418512 0.0415039 0.986018 0.0415039 1.69272C0.0415039 2.39943 0.612496 2.96694 1.32354 2.96694C1.72755 2.96694 14.2301 2.96694 14.2301 2.96694L14.6664 4.04841C14.6664 4.04841 5.8807 4.04841 5.57905 4.04841H5.58443Z" fill="#C31F3A"/>
</g>
<defs>
<clipPath id="clip0_550_373">
<rect width="120.161" height="29.0713" fill="white" transform="translate(0.0415039 0.418457)"/>
</clipPath>
</defs>
</svg>
