<svg width="118" height="33" viewBox="0 0 118 33" fill="none" xmlns="http://www.w3.org/2000/svg">
<g clip-path="url(#clip0_550_377)">
<path d="M92.5995 23.2086C92.5995 24.2737 91.753 25.139 90.71 25.139C89.6662 25.139 88.822 24.2757 88.822 23.2086C88.822 22.1414 89.6662 21.2781 90.71 21.2781C91.753 21.2781 92.5995 22.1414 92.5995 23.2086Z" fill="white"/>
<path d="M70.3487 12.5589C66.9894 12.5589 64.2534 15.3507 64.2534 18.7841C64.2534 22.2173 66.9894 25.0071 70.3487 25.0071C72.5941 25.0071 74.5562 23.7561 75.6134 21.8996L73.1726 20.4647C72.6038 21.4599 71.5584 22.1394 70.3487 22.1394C68.8263 22.1394 67.5541 21.0702 67.1808 19.6314H76.3775C76.4127 19.3536 76.4381 19.0718 76.4381 18.7841C76.4381 18.2864 76.3775 17.8028 76.2662 17.3392C75.6291 14.6013 73.2194 12.5569 70.3468 12.5569M67.3938 17.3392C67.9234 16.2141 69.0413 15.4266 70.3468 15.4266C71.6522 15.4266 72.768 16.2141 73.2996 17.3392H67.3938Z" fill="white"/>
<path d="M46.1356 15.4266C47.4469 15.4266 48.5706 16.222 49.0963 17.359L51.5391 15.9202C50.5228 13.9238 48.4827 12.5569 46.1356 12.5569C42.7743 12.5569 40.0403 15.3486 40.0403 18.782C40.0403 22.2153 42.7723 25.0051 46.1356 25.0051C48.4846 25.0051 50.5248 23.6381 51.5391 21.6437L49.0963 20.2028C48.5706 21.3399 47.4469 22.1353 46.1356 22.1353C44.324 22.1353 42.8525 20.6285 42.8525 18.78C42.8525 16.9314 44.324 15.4226 46.1356 15.4226" fill="white"/>
<path d="M29.0886 22.1575C28.6958 21.9377 28.5023 21.4121 28.5023 20.5887V15.4168H31.7131V13.1226H28.5023V10.147L25.6922 11.0842V13.1226H23.6265V15.4168H25.6922V20.4089C25.6922 22.9669 26.978 24.068 27.7421 24.4937C28.3968 24.8614 29.1003 25.0092 29.7921 25.0092C31.0194 25.0092 32.2193 24.5436 33.0655 23.992L31.6096 21.8478C30.7751 22.3933 29.6553 22.4752 29.0886 22.1575Z" fill="white"/>
<path d="M36.4368 8.23633C35.3933 8.23633 34.5471 9.10368 34.5471 10.1668C34.5471 11.23 35.3933 12.0973 36.4368 12.0973C37.4805 12.0973 38.3266 11.234 38.3266 10.1668C38.3266 9.09967 37.4805 8.23633 36.4368 8.23633Z" fill="white"/>
<path d="M85.0874 21.8458C84.2531 22.3913 83.1331 22.4772 82.5647 22.1555C82.1739 21.9357 81.9766 21.4141 81.9766 20.5887V15.4148H85.191V13.1226H81.9766V10.147L79.1683 11.0842V13.1226H77.1028V15.4148H79.1683V20.4069C79.1683 22.9689 80.4505 24.066 81.2162 24.4957C81.8729 24.8614 82.5762 25.0072 83.2703 25.0072C84.4977 25.0072 85.6976 24.5417 86.5395 23.9901L85.0874 21.8458Z" fill="white"/>
<path d="M35.0312 24.6974H37.8395V13.1245L35.0312 14.0897V24.6974Z" fill="white"/>
<path d="M63.7291 12.9805H59.8069L56.0978 16.8695V7.71265L53.2915 8.67992V24.6973H56.0978V20.9842L56.8756 20.1728L60.5867 24.6973H64.2548L58.8415 18.1065L63.7291 12.9805Z" fill="white"/>
<path d="M105.416 24.6995H102.41V23.6523C101.499 24.5836 100.307 25.0492 98.8339 25.0492C97.4678 25.0492 96.3654 24.5955 95.5311 23.6883C94.6968 22.781 94.2786 21.6059 94.2786 20.163V13.0886H97.2857V19.5116C97.2857 20.3329 97.4952 20.9924 97.9112 21.49C98.3295 21.9856 98.8865 22.2354 99.5859 22.2354C101.47 22.2354 102.41 20.9005 102.41 18.2325V13.0906H105.416V24.7015V24.6995Z" fill="white"/>
<path d="M117.6 24.6993H107.51V22.6989L113.613 15.6004H107.669V13.0884H117.327V15.1368L111.222 22.1853H117.6V24.6993Z" fill="white"/>
<path fill-rule="evenodd" clip-rule="evenodd" d="M21.4027 31.0025V32.4553H5.34466C2.58331 32.4553 0.345703 30.1691 0.345703 27.3494V5.58845C0.345703 2.76667 2.58331 0.480469 5.34466 0.480469H21.4027V1.92933C20.1618 1.94931 19.1533 2.9845 19.1533 4.2575C19.1533 5.5305 20.1618 6.56369 21.4027 6.57968V8.03453C20.1618 8.05451 19.1533 9.08568 19.1533 10.3607C19.1533 11.6357 20.1618 12.6689 21.4027 12.6868V14.1397C20.1618 14.1597 19.1533 15.1909 19.1533 16.4679C19.1533 17.7449 20.1618 18.7741 21.4027 18.7901V20.2449C20.1618 20.2629 19.1533 21.2961 19.1533 22.5711C19.1533 23.8461 20.1618 24.8793 21.4027 24.8973V26.3501C20.1618 26.3661 19.1533 27.4013 19.1533 28.6763C19.1533 29.9513 20.1618 30.9845 21.4027 31.0025ZM10.3806 8.23636C9.33703 8.23636 8.49088 9.10363 8.49088 10.1669C8.49088 11.23 9.33703 12.0973 10.3806 12.0973C11.4241 12.0973 12.2704 11.234 12.2704 10.1669C12.2704 9.0997 11.4241 8.23636 10.3806 8.23636ZM11.7838 24.6974H8.97551V14.0898L11.7838 13.1245V24.6974Z" fill="white"/>
</g>
<defs>
<clipPath id="clip0_550_377">
<rect width="117.254" height="31.9785" fill="white" transform="translate(0.345703 0.480469)"/>
</clipPath>
</defs>
</svg>
