<svg width="14" height="14" viewBox="0 0 14 14" fill="none" xmlns="http://www.w3.org/2000/svg">
<path fill-rule="evenodd" clip-rule="evenodd" d="M0.532667 2.01133C0 2.938 0 4.18 0 6.66667C0 9.15333 0 10.3953 0.532667 11.322C0.885718 11.9373 1.39605 12.4476 2.01133 12.8007C2.938 13.3333 4.18 13.3333 6.66667 13.3333C9.15333 13.3333 10.3953 13.3333 11.322 12.8007C11.9373 12.4476 12.4476 11.9373 12.8007 11.322C13.3333 10.3953 13.3333 9.15333 13.3333 6.66667C13.3333 4.18 13.3333 2.938 12.8007 2.01133C12.4476 1.39605 11.9373 0.885718 11.322 0.532667C10.3953 0 9.15333 0 6.66667 0C4.18 0 2.938 0 2.01133 0.532667C1.39605 0.885718 0.885718 1.39605 0.532667 2.01133ZM9.46133 11.96C8.79667 12.02 7.93333 12.0213 6.66667 12.0213C5.4 12.0213 4.53667 12.02 3.872 11.96C3.22533 11.902 2.89533 11.796 2.664 11.6633C2.25019 11.4257 1.90692 11.0825 1.66933 10.6687C1.536 10.4373 1.43067 10.1073 1.37267 9.46067C1.31267 8.796 1.31133 7.93267 1.31133 6.666C1.31133 5.39933 1.31267 4.536 1.37267 3.87133C1.43067 3.22467 1.53667 2.89467 1.66933 2.66333C1.90692 2.24952 2.25019 1.90626 2.664 1.66867C2.89533 1.53533 3.22533 1.43 3.872 1.372C4.53667 1.312 5.4 1.31067 6.66667 1.31067C7.93333 1.31067 8.79667 1.312 9.46133 1.372C10.108 1.43 10.438 1.536 10.6687 1.66867C11.0827 1.90667 11.426 2.25 11.664 2.66333C11.7967 2.89467 11.9027 3.22467 11.9607 3.87133C12.0207 4.536 12.022 5.39933 12.022 6.666C12.022 7.93267 12.0207 8.796 11.9607 9.46067C11.9027 10.1073 11.7967 10.4373 11.664 10.668C11.4265 11.0821 11.0832 11.4256 10.6693 11.6633C10.438 11.796 10.108 11.902 9.46133 11.96ZM9.24533 3.19C9.24533 2.95228 9.33977 2.72429 9.50786 2.5562C9.67596 2.3881 9.90394 2.29367 10.1417 2.29367C10.3794 2.29367 10.6074 2.3881 10.7755 2.5562C10.9436 2.72429 11.038 2.95228 11.038 3.19C11.038 3.42763 10.9436 3.65553 10.7756 3.82357C10.6075 3.9916 10.3796 4.086 10.142 4.086C9.90436 4.086 9.67646 3.9916 9.50843 3.82357C9.3404 3.65553 9.246 3.42763 9.246 3.19M6.66733 3.19C5.74544 3.19 4.86131 3.55622 4.20943 4.2081C3.55755 4.85997 3.19133 5.74411 3.19133 6.666C3.19133 7.58789 3.55755 8.47203 4.20943 9.1239C4.86131 9.77578 5.74544 10.142 6.66733 10.142C7.58931 10.142 8.47353 9.77574 9.12547 9.1238C9.77741 8.47187 10.1437 7.58765 10.1437 6.66567C10.1437 5.74369 9.77741 4.85947 9.12547 4.20753C8.47353 3.55559 7.58931 3.19 6.66733 3.19ZM4.59067 6.66667C4.59067 6.39404 4.64436 6.12409 4.74869 5.87222C4.85302 5.62034 5.00594 5.39149 5.19871 5.19871C5.39149 5.00594 5.62034 4.85302 5.87222 4.74869C6.12409 4.64436 6.39404 4.59067 6.66667 4.59067C6.93929 4.59067 7.20925 4.64436 7.46112 4.74869C7.71299 4.85302 7.94185 5.00594 8.13462 5.19871C8.32739 5.39149 8.48031 5.62034 8.58464 5.87222C8.68897 6.12409 8.74267 6.39404 8.74267 6.66667C8.74267 7.21726 8.52395 7.74529 8.13462 8.13462C7.74529 8.52395 7.21726 8.74267 6.66667 8.74267C6.11608 8.74267 5.58804 8.52395 5.19871 8.13462C4.80939 7.74529 4.59067 7.21726 4.59067 6.66667Z" fill="#C4C8CC"/>
</svg>
