<svg width="24" height="24" viewBox="0 0 24 24" fill="none" xmlns="http://www.w3.org/2000/svg">
<path fill-rule="evenodd" clip-rule="evenodd" d="M11.6667 23.3333C18.1107 23.3333 23.3333 18.1101 23.3333 11.6667C23.3333 5.22323 18.1107 0 11.6667 0C5.22266 0 0 5.22323 0 11.6667C0 18.1101 5.22266 23.3333 11.6667 23.3333ZM11.6667 21C16.821 21 21 16.8215 21 11.6667C21 6.5118 16.821 2.33333 11.6667 2.33333C6.51237 2.33333 2.33333 6.5118 2.33333 11.6667C2.33333 16.8215 6.51237 21 11.6667 21Z" fill="url(#paint0_linear_187_72)"/>
<path d="M10.5 1.16667H12.8333V22.1667H10.5V1.16667Z" fill="url(#paint1_linear_187_72)"/>
<path d="M11.6667 10.5H21V12.8333H11.6667V10.5Z" fill="url(#paint2_linear_187_72)"/>
<path d="M11.6667 10.0995L18.2663 3.49986L19.9162 5.14978L13.3166 11.7494L11.6667 10.0995Z" fill="url(#paint3_linear_187_72)"/>
<defs>
<linearGradient id="paint0_linear_187_72" x1="12.6875" y1="23.625" x2="12.6875" y2="-1.4347e-06" gradientUnits="userSpaceOnUse">
<stop stop-color="#0073FF"/>
<stop offset="1" stop-color="#00C2FF"/>
</linearGradient>
<linearGradient id="paint1_linear_187_72" x1="12.6875" y1="23.625" x2="12.6875" y2="-1.4347e-06" gradientUnits="userSpaceOnUse">
<stop stop-color="#0073FF"/>
<stop offset="1" stop-color="#00C2FF"/>
</linearGradient>
<linearGradient id="paint2_linear_187_72" x1="12.6875" y1="23.625" x2="12.6875" y2="-1.4347e-06" gradientUnits="userSpaceOnUse">
<stop stop-color="#0073FF"/>
<stop offset="1" stop-color="#00C2FF"/>
</linearGradient>
<linearGradient id="paint3_linear_187_72" x1="12.6875" y1="23.625" x2="12.6875" y2="-1.4347e-06" gradientUnits="userSpaceOnUse">
<stop stop-color="#0073FF"/>
<stop offset="1" stop-color="#00C2FF"/>
</linearGradient>
</defs>
</svg>
