<svg width="20" height="30" viewBox="0 0 20 30" fill="none" xmlns="http://www.w3.org/2000/svg">
<path d="M6.6 25.1625C6.6 24.8343 6.73038 24.5195 6.96246 24.2875C7.19453 24.0554 7.50929 23.925 7.8375 23.925H11.9625C12.2907 23.925 12.6055 24.0554 12.8375 24.2875C13.0696 24.5195 13.2 24.8343 13.2 25.1625C13.2 25.4907 13.0696 25.8055 12.8375 26.0375C12.6055 26.2696 12.2907 26.4 11.9625 26.4H7.8375C7.50929 26.4 7.19453 26.2696 6.96246 26.0375C6.73038 25.8055 6.6 25.4907 6.6 25.1625Z" fill="url(#paint0_linear_181_578)"/>
<path fill-rule="evenodd" clip-rule="evenodd" d="M0 4.95C0 3.63718 0.521517 2.37813 1.44982 1.44982C2.37813 0.521516 3.63718 0 4.95 0H14.85C16.1628 0 17.4219 0.521516 18.3502 1.44982C19.2785 2.37813 19.8 3.63718 19.8 4.95V24.75C19.8 26.0628 19.2785 27.3219 18.3502 28.2502C17.4219 29.1785 16.1628 29.7 14.85 29.7H4.95C3.63718 29.7 2.37813 29.1785 1.44982 28.2502C0.521517 27.3219 0 26.0628 0 24.75V4.95ZM6.6 2.475V3.7125C6.6 4.3956 7.1544 4.95 7.8375 4.95H11.9625C12.2907 4.95 12.6055 4.81962 12.8375 4.58755C13.0696 4.35547 13.2 4.04071 13.2 3.7125V2.475H14.85C15.5064 2.475 16.1359 2.73576 16.6001 3.19991C17.0642 3.66406 17.325 4.29359 17.325 4.95V24.75C17.325 25.4064 17.0642 26.0359 16.6001 26.5001C16.1359 26.9642 15.5064 27.225 14.85 27.225H4.95C4.29359 27.225 3.66406 26.9642 3.19991 26.5001C2.73576 26.0359 2.475 25.4064 2.475 24.75V4.95C2.475 4.29359 2.73576 3.66406 3.19991 3.19991C3.66406 2.73576 4.29359 2.475 4.95 2.475H6.6Z" fill="url(#paint1_linear_181_578)"/>
<defs>
<linearGradient id="paint0_linear_181_578" x1="10.7662" y1="30.0713" x2="10.7662" y2="-1.82611e-06" gradientUnits="userSpaceOnUse">
<stop stop-color="#0073FF"/>
<stop offset="1" stop-color="#00C2FF"/>
</linearGradient>
<linearGradient id="paint1_linear_181_578" x1="10.7662" y1="30.0713" x2="10.7662" y2="-1.82611e-06" gradientUnits="userSpaceOnUse">
<stop stop-color="#0073FF"/>
<stop offset="1" stop-color="#00C2FF"/>
</linearGradient>
</defs>
</svg>
