<svg width="21" height="21" viewBox="0 0 21 21" fill="none" xmlns="http://www.w3.org/2000/svg">
<path fill-rule="evenodd" clip-rule="evenodd" d="M19.1115 4.55175C19.7507 5.19092 20.0106 6.03902 20.031 6.90241C20.0528 7.75852 19.8446 8.69034 19.4843 9.62725C18.7628 11.5033 17.3585 13.5846 15.4716 15.4715C13.5847 17.3584 11.5034 18.7627 9.62736 19.4842C8.69117 19.8438 7.75862 20.0527 6.90251 20.0309C6.03985 20.0112 5.19102 19.7506 4.55185 19.1114L1.63992 16.1995C1.00075 15.5603 0.740859 14.7122 0.720476 13.8488C0.698636 12.9927 0.906839 12.0609 1.26719 11.124C1.98862 9.24797 3.3929 7.16667 5.27984 5.27973C7.16677 3.3928 9.24808 1.98852 11.1241 1.26709C12.0603 0.907463 12.9928 0.698532 13.8489 0.720372C14.7116 0.740027 15.5604 1.00065 16.1996 1.63982L19.1115 4.55175ZM3.09589 14.7435C2.93063 14.5783 2.79159 14.2936 2.77849 13.7971C2.76611 13.2941 2.88987 12.6389 3.18834 11.8629C3.78529 10.3137 5.00466 8.46685 6.7358 6.7357C8.46768 5.00383 10.3131 3.78445 11.863 3.18824C12.639 2.88976 13.2942 2.76601 13.7972 2.77838C14.2945 2.79076 14.5784 2.93053 14.7436 3.09578C14.9089 3.26103 15.0479 3.54568 15.061 4.04216C15.0734 4.5452 14.9496 5.20038 14.6512 5.97641C14.055 7.52629 12.8349 9.37246 11.1037 11.1036C9.37183 12.8355 7.5264 14.0548 5.97652 14.6511C5.20049 14.9495 4.5453 15.0733 4.04227 15.0609C3.54505 15.0485 3.26114 14.9088 3.09589 14.7435ZM16.9858 5.33797C16.8919 5.79005 16.7499 6.25232 16.5723 6.71532C15.8509 8.59133 14.4466 10.6726 12.5597 12.5596C10.6727 14.4465 8.59144 15.8508 6.71542 16.5722C6.26815 16.7468 5.80754 16.8851 5.33808 16.9857L6.00782 17.6555C6.17307 17.8207 6.45772 17.9598 6.9542 17.9729C7.45724 17.9852 8.11242 17.8615 8.88845 17.563C10.4383 16.9668 12.2845 15.7467 14.0156 14.0155C15.7475 12.2837 16.9669 10.4382 17.5631 8.88835C17.8616 8.11232 17.9853 7.45713 17.973 6.9541C17.9606 6.45688 17.8208 6.17297 17.6556 6.00772L16.9858 5.33797V5.33797Z" fill="url(#paint0_linear_181_838)"/>
<defs>
<linearGradient id="paint0_linear_181_838" x1="16.236" y1="14.9619" x2="5.91681" y2="4.64276" gradientUnits="userSpaceOnUse">
<stop stop-color="#0073FF"/>
<stop offset="1" stop-color="#00C2FF"/>
</linearGradient>
</defs>
</svg>
