<svg width="20" height="13" viewBox="0 0 20 13" fill="none" xmlns="http://www.w3.org/2000/svg">
<path d="M3.15 7.63L0.175 3.185H2.7475L4.7775 6.16L6.7725 3.185H9.275L6.335 7.5425L9.45 12.46H6.86L4.69 8.995L2.5375 12.46H0L3.15 7.63ZM10.243 10.5525L14.5305 6.86C14.9271 6.51 15.2655 6.20666 15.5455 5.95C15.8255 5.68166 16.053 5.43666 16.228 5.215C16.403 4.99334 16.5255 4.7775 16.5955 4.5675C16.6771 4.3575 16.718 4.13 16.718 3.885C16.718 3.38334 16.578 2.98084 16.298 2.6775C16.018 2.3625 15.6038 2.205 15.0555 2.205C14.4255 2.205 13.9296 2.38 13.568 2.73C13.218 3.06834 13.043 3.6575 13.043 4.4975H10.418C10.418 3.10916 10.8088 2.0125 11.5905 1.2075C12.3837 0.4025 13.5388 0 15.0555 0C15.7671 0 16.3855 0.0991665 16.9105 0.297499C17.4471 0.484166 17.8962 0.7525 18.258 1.1025C18.6196 1.44084 18.888 1.84916 19.063 2.3275C19.2496 2.80584 19.343 3.325 19.343 3.885C19.343 4.305 19.2671 4.7075 19.1155 5.0925C18.9638 5.46584 18.7537 5.8275 18.4855 6.1775C18.2287 6.5275 17.9255 6.87166 17.5755 7.21C17.2255 7.53666 16.8521 7.86334 16.4555 8.19L13.9355 10.29H19.518V12.46H10.243V10.5525Z" fill="url(#paint0_linear_181_758)"/>
<defs>
<linearGradient id="paint0_linear_181_758" x1="10.6129" y1="12.6158" x2="10.6129" y2="-7.66141e-07" gradientUnits="userSpaceOnUse">
<stop stop-color="#0073FF"/>
<stop offset="1" stop-color="#00C2FF"/>
</linearGradient>
</defs>
</svg>
