<svg width="196" height="216" viewBox="0 0 196 216" fill="none" xmlns="http://www.w3.org/2000/svg">
<path fill-rule="evenodd" clip-rule="evenodd" d="M103.711 32.1005C101.095 30.3408 99.1345 26.7555 102.231 22.9408C97.3326 19.3296 95.8984 10.7508 99.9018 5.60484C101.699 3.3592 104.186 1.76819 106.978 1.07785C109.77 0.387503 112.712 0.636277 115.349 1.7857C118.214 3.15938 120.702 5.20818 122.601 7.75602C122.601 7.75602 122.638 2.411 126.835 1.41052C131.031 0.410039 134.815 4.86854 136.853 8.48344C138.891 12.0983 139.612 17.7616 138.946 20.6934C139.805 18.9796 140.849 17.9554 141.801 18.449C142.752 18.9426 142.699 20.8392 141.761 22.4502C143.295 22.334 145.118 21.8974 145.596 23.5387C146.074 25.1801 144.752 26.8613 142.871 27.2572C143.735 31.3798 142.888 37.3893 141.237 40.6438C139.585 43.8984 136.261 46.6438 134.433 47.2195C132.605 47.7952 106.325 33.8625 103.71 32.1035L103.711 32.1005Z" fill="#00092F"/>
<path fill-rule="evenodd" clip-rule="evenodd" d="M124.567 185.614L88.9358 184.397L90.3403 180.489L122.971 181.679L124.567 185.614Z" fill="#464646"/>
<path fill-rule="evenodd" clip-rule="evenodd" d="M111.784 152.933C111.323 158.039 108.149 194.722 107.659 198.555C107.168 202.388 104.878 204.488 104.656 200.263C104.435 196.039 102.227 153.597 102.227 153.597L106.827 147.96C106.827 147.96 112.246 147.834 111.785 152.936L111.784 152.933Z" fill="#2C2C2C"/>
<path fill-rule="evenodd" clip-rule="evenodd" d="M116.819 152.083C119.101 157.501 131.009 195.208 132.002 198.916C132.994 202.625 132.036 205.738 129.725 200.889C127.414 196.039 109.453 152.68 109.453 152.68C109.453 152.68 114.538 146.665 116.819 152.083Z" fill="#464646"/>
<path fill-rule="evenodd" clip-rule="evenodd" d="M104.438 151.734C103.012 154.65 89.547 188.024 89.547 188.024L85.329 186.197C85.329 186.197 95.1873 158.1 97.5857 151.56C99.984 145.019 105.866 148.822 104.44 151.734H104.438Z" fill="#464646"/>
<path fill-rule="evenodd" clip-rule="evenodd" d="M131.418 64.8885C135.913 64.5703 141.148 64.8323 145.749 69.3922C151.845 75.2129 155.472 83.1533 155.879 91.5722C156.456 102.179 153.535 119.131 147.774 132.035C142.013 144.938 136.715 150.085 127.541 152.368C118.366 154.65 90.5002 153.094 82.0863 153.341C73.6726 153.589 89.5463 128.276 89.5463 128.276L115.288 107.976C115.288 107.976 126.921 65.2037 131.42 64.8878L131.418 64.8885Z" fill="#FFD853"/>
<path fill-rule="evenodd" clip-rule="evenodd" d="M121.408 62.1622C127.021 63.0368 132.428 64.9228 137.368 67.7284C142.066 70.4294 149.555 80.896 149.555 80.896L138.117 90.5042L139.201 111.983L94.3948 109.89L92.4663 91.2582C89.2257 90.4077 86.0582 89.2993 82.9943 87.9438C78.0896 85.7511 75.9525 83.7257 75.9525 83.7257C75.9525 83.7257 81.2871 73.4397 83.7824 69.5866C86.2777 65.7334 92.0246 62.7675 99.2544 62.0423C103.025 61.6191 106.818 61.4214 110.613 61.4503C114.222 61.5068 117.827 61.7451 121.413 62.1644L121.408 62.1622Z" fill="#78E8FD"/>
<path fill-rule="evenodd" clip-rule="evenodd" d="M133.969 79.5841C132.392 87.3541 132.611 99.1941 130.81 100.431C129.01 101.669 116.965 97.7044 110.65 96.0757C103.523 94.2375 95.9702 90.7928 94.992 90.0003C94.0137 89.2078 93.6688 83.2389 94.0137 79.8579C93.1849 83.6075 92.6664 87.4191 92.4634 91.2539C92.3834 94.911 92.4975 98.5697 92.8053 102.215L140.268 106.446C140.268 106.446 135.545 71.814 133.969 79.5841Z" fill="#37A4B9"/>
<path fill-rule="evenodd" clip-rule="evenodd" d="M121.384 60.66C123.581 61.0833 126.093 61.7581 126.139 63.4964C126.185 65.2347 123.882 68.2946 122.185 70.7721C120.487 73.2496 118.724 76.0853 117.621 75.9832C116.519 75.8811 114.328 67.892 114.328 67.892C114.328 67.892 110.11 75.1004 108.8 74.8843C107.491 74.6682 105.484 69.2388 104.838 66.54C104.193 63.8412 104.394 61.6353 104.952 60.6629C105.509 59.6906 107.417 59.1149 110.885 59.712C114.353 60.3092 119.186 60.2367 121.383 60.6592L121.384 60.66Z" fill="#37A4B9"/>
<path fill-rule="evenodd" clip-rule="evenodd" d="M106.485 22.539C104.292 28.7165 101.366 40.0866 104.15 47.0042C106.935 53.9217 111.394 56.542 111.394 56.542L110.61 61.4482L114.328 67.8921L121.465 62.189L121.282 55.899C124.66 55.4235 127.727 53.6707 129.851 51.0016C133.921 46.0185 136.763 40.9295 136.854 36.821C132.893 35.3307 129.725 33.9742 124.089 28.8986C120.302 25.3407 116.916 21.3788 113.991 17.0837C111.164 18.407 108.616 20.2587 106.485 22.539Z" fill="#E88D95"/>
<path fill-rule="evenodd" clip-rule="evenodd" d="M135.351 39.3806C131.207 40.4788 130.695 46.7525 130.695 46.7525C130.695 46.7525 124.567 51.601 124.567 54.9916C127.546 53.5351 130.057 51.2708 131.811 48.4567C134.413 44.3956 139.803 38.2003 135.351 39.3806Z" fill="#DA6771"/>
<path fill-rule="evenodd" clip-rule="evenodd" d="M92.4634 91.2584L92.4027 94.393C92.4027 94.393 99.5489 96.1172 106.15 97.8214C110.498 98.992 114.749 100.499 118.863 102.33C118.863 102.33 125.319 101.917 129.528 102.169C133.737 102.421 138.983 106.042 140.048 107.379C141.112 108.715 138.187 107.971 134.404 107.971C130.621 107.971 81.8807 108.498 75.9444 107.567C70.0081 106.636 71.4637 99.9415 72.9681 96.5412L77.9646 85.2422C80.352 86.5869 82.8082 87.8056 85.3231 88.8933C87.4573 89.6888 92.4604 91.2613 92.4604 91.2613L92.4634 91.2584Z" fill="#E88D95"/>
<path fill-rule="evenodd" clip-rule="evenodd" d="M91.383 94.4669C90.2826 94.5617 85.7753 94.7097 83.761 95.4349C86.3701 93.5038 89.3226 92.0864 92.4612 91.2583L92.4005 94.3929C92.4005 94.3929 92.3191 94.387 91.3807 94.4669H91.383Z" fill="#DA6771"/>
<path fill-rule="evenodd" clip-rule="evenodd" d="M130.074 102.219C131.973 103.054 133.559 104.469 134.604 106.262C134.764 106.514 134.859 106.802 134.882 107.1C134.904 107.398 134.853 107.696 134.732 107.97H141.582C142.725 107.97 139.662 105.932 136.92 104.395C134.836 103.153 132.495 102.409 130.077 102.219H130.074Z" fill="#DA6771"/>
<path fill-rule="evenodd" clip-rule="evenodd" d="M151.036 97.5993C150.078 91.1399 145.275 82.8067 141.17 74.3307C137.065 65.8548 132.594 56.6189 132.594 56.6189C132.594 56.6189 135.751 51.999 136.854 49.1671C137.958 46.3351 138.046 39.7691 136.854 39.0601C135.663 38.3512 133.662 40.979 132.898 42.4878C132.133 43.9967 131.796 47.2342 131.796 47.2342C130.201 48.4515 128.709 49.7971 127.333 51.2576C125.335 53.4413 124.862 54.7356 125.717 55.8078L127.663 58.2587C127.663 58.2587 129.987 71.854 131.674 80.5098C133.362 89.1655 135.317 99.1918 135.885 102.11C136.453 105.029 139.849 107.731 142.596 108.178C145.343 108.626 152.278 105.984 151.032 97.6015L151.036 97.5993Z" fill="#E88D95"/>
<path fill-rule="evenodd" clip-rule="evenodd" d="M54.7212 196.936C54.1684 198.676 52.1563 202.941 52.1563 202.941C52.1563 202.941 53.2338 205.156 52.4161 207.081C51.5984 209.006 44.8525 209.555 41.9895 209.295C39.1264 209.035 39.4735 202.694 39.4735 202.694L46.2926 201.131L48.8545 195.069C48.8545 195.069 55.2725 195.197 54.719 196.936H54.7212Z" fill="#E88D95"/>
<path fill-rule="evenodd" clip-rule="evenodd" d="M41.6121 208.801C41.595 206.868 41.2166 204.954 40.4961 203.16C39.3255 200.393 37.9172 199.403 37.9172 199.403C37.9172 199.403 32.1534 198.987 29.8668 203.46C27.5802 207.933 28.8152 212.46 29.6618 213.213C30.5084 213.966 34.6043 214.008 39.9234 213.246C45.2425 212.485 52.6514 212.967 53.0214 209.868C53.3114 207.405 50.5964 207.404 48.907 207.667L41.6128 208.801H41.6121Z" fill="#ABF9FF"/>
<path fill-rule="evenodd" clip-rule="evenodd" d="M93.8797 190.88L96.1175 196.097C96.1175 196.097 99.3668 195.641 99.9507 198.229C100.535 200.818 92.6173 206.596 92.6173 206.596L88.0456 204.227L91.6153 197.918L88.9898 193.648L93.8797 190.88Z" fill="#E88D95"/>
<path fill-rule="evenodd" clip-rule="evenodd" d="M92.7971 205.67C91.7162 204.771 90.5114 204.032 89.2199 203.476C87.8664 202.874 86.3622 202.697 84.9057 202.967C84.0695 203.494 83.3756 204.218 82.8852 205.077C82.3949 205.935 82.1231 206.9 82.0938 207.888C81.9598 211.334 84.7859 213.734 85.9921 214.798C87.1983 215.862 88.0596 215.099 89.5492 213.798C91.0389 212.497 101.588 202.365 103.017 200.879C104.446 199.393 102.601 196.73 101.005 197.734C99.409 198.737 92.803 205.67 92.803 205.67H92.7971Z" fill="#ABF9FF"/>
<path fill-rule="evenodd" clip-rule="evenodd" d="M76.3277 114.438C69.456 117.141 53.4469 120.519 50.5831 127.37C47.7193 134.22 52.7424 142.392 57.8832 151.206C63.0239 160.021 87.72 196.039 87.72 196.039L96.2455 191.292C96.2455 191.292 82.3587 150.102 81.0089 146.078C79.6592 142.053 115.288 114.562 115.288 114.562C115.288 114.562 83.2008 111.732 76.3277 114.436V114.438Z" fill="#616161"/>
<path fill-rule="evenodd" clip-rule="evenodd" d="M131.152 115.826C132.456 119.441 133.553 126.122 132.121 130.729C130.69 135.336 128.071 140.37 117.448 141.876C106.825 143.382 89.9762 147.119 87.8584 147.639C85.7405 148.159 81.9324 156.311 75.9444 166.274L56.4898 198.651L46.2918 195.474C46.2918 195.474 52.2392 173.169 55.5981 159.806C58.9569 146.443 62.6133 134.252 68.0811 129.384C73.549 124.515 103.009 115.823 103.009 115.823C103.009 115.823 129.849 112.208 131.152 115.823V115.826Z" fill="#8B8B8B"/>
<path fill-rule="evenodd" clip-rule="evenodd" d="M180.23 118.188C181.997 126.032 188.269 169.242 189.965 178.267C191.661 187.293 191.782 194.114 192.588 198.691C193.393 203.269 189.027 206.295 187.532 199.71L168.998 118.105C168.998 118.105 178.465 110.345 180.23 118.188Z" fill="#464646"/>
<path fill-rule="evenodd" clip-rule="evenodd" d="M13.7437 116.888C11.9373 124.986 5.51708 169.601 3.77956 178.919C2.04204 188.237 1.9207 195.28 1.09634 200.009C0.271978 204.737 4.74157 207.859 6.27188 201.06C7.8022 194.26 18.658 146.045 20.673 137.092C22.688 128.14 25.2418 116.802 25.2418 116.802C25.2418 116.802 15.5515 108.79 13.7437 116.888Z" fill="#464646"/>
<path fill-rule="evenodd" clip-rule="evenodd" d="M195.001 115.826C195.04 117.222 194.865 119.97 188.457 119.761C182.049 119.551 118.435 119.444 94.0137 118.636C69.5922 117.828 10.9724 118.718 7.07773 118.759C3.18311 118.8 1.18661 118.389 1.13406 115.826C1.08153 113.264 1.03047 110.868 0.996429 109.214C0.962387 107.56 2.61925 107.563 5.40387 107.563C8.18848 107.563 34.4503 107.148 53.0458 107.563C71.6413 107.979 147.866 107.976 163.298 107.976H189.414C192.106 107.976 194.901 107.758 194.915 110.989C194.929 114.22 194.964 114.432 195.001 115.826Z" fill="#E6E6E6"/>
<path fill-rule="evenodd" clip-rule="evenodd" d="M98.2665 100.438C99.2547 100.409 100.217 100.758 100.957 101.412C101.698 102.067 102.162 102.979 102.255 103.963C102.356 105.87 101.009 107.959 98.0001 107.967C94.9912 107.974 70.1065 107.764 70.1065 107.764L70.3537 100.518C70.3537 100.518 95.3694 100.592 98.2665 100.438Z" fill="#8B8B8B"/>
<path fill-rule="evenodd" clip-rule="evenodd" d="M65.2573 76.4762C64.3123 74.587 62.2233 71.9622 56.8213 72.2175C51.4193 72.4728 27.8525 72.4513 22.9959 72.4513C18.1393 72.4513 16.1139 74.9673 18.7727 79.323C21.4315 83.6786 30.1095 99.5487 31.5295 101.875C32.9496 104.202 36.805 107.325 40.804 107.379C44.8029 107.433 73.3307 107.834 75.9473 107.803C78.5639 107.772 80.1187 104.458 77.5435 100.533C74.9683 96.6079 66.3177 78.6 65.2595 76.4762H65.2573Z" fill="#E6E6E6"/>
<path fill-rule="evenodd" clip-rule="evenodd" d="M47.1487 89.4365C47.4307 87.9639 50.1021 86.4898 51.6761 87.9639C53.25 89.438 53.8569 94.6853 52.7942 96.2852C51.7316 97.8851 48.8589 96.0558 48.8589 96.0558C48.634 96.5007 48.295 96.8778 47.8764 97.1485C47.4578 97.4193 46.9748 97.5738 46.4768 97.5965C44.7408 97.6793 42.4335 94.8289 41.6572 91.7801C40.8809 88.7313 42.2492 87.9639 43.7137 87.9639C44.3592 87.9425 45.0015 88.0633 45.5952 88.3178C46.1888 88.5723 46.7192 88.9542 47.1487 89.4365Z" fill="white"/>
<path fill-rule="evenodd" clip-rule="evenodd" d="M46.2593 85.5107C45.5489 82.9207 43.0255 82.194 40.8913 82.4545C41.4175 85.4344 44.612 86.133 46.2593 85.5107Z" fill="white"/>
<path fill-rule="evenodd" clip-rule="evenodd" d="M120.781 33.0551C119.967 32.6333 119.199 33.75 118.983 34.6151C118.768 35.4801 118.596 36.8602 119.445 37.1089C120.294 37.3575 121.155 36.0729 121.275 35.3329C121.395 34.5929 121.628 33.4977 120.781 33.0581V33.0551Z" fill="#1A1A1A"/>
<path fill-rule="evenodd" clip-rule="evenodd" d="M110.755 30.167C110.109 29.9331 109.247 30.5947 108.951 31.6055C108.655 32.6164 108.74 33.699 109.453 34.1415C110.166 34.584 110.955 33.4459 111.239 32.6156C111.524 31.7854 111.559 30.457 110.755 30.167Z" fill="#1A1A1A"/>
<path d="M113.836 23.3714C113.084 20.4018 110.992 20.5305 109.788 22.6314M113.5 36.0912C112.75 36.8801 110.701 37.9412 110.653 38.4985C110.587 39.2962 111.812 40.2693 111.812 40.2693L113.5 36.0912ZM116.259 47.2623C115.938 46.6703 114.08 46.0783 112.605 46.2825L116.259 47.2623ZM123.826 32.0553C122.751 30.5982 121.172 29.4379 119.57 30.1461L123.826 32.0553Z" stroke="#1A1A1A" stroke-width="1.587" stroke-linecap="round" stroke-linejoin="round"/>
<path fill-rule="evenodd" clip-rule="evenodd" d="M111.394 56.542C113.503 57.8629 117.076 57.2332 117.076 57.2332L110.612 61.4378C110.612 61.4378 111.182 58.3772 111.394 56.542Z" fill="#DA6771"/>
</svg>
