<svg width="319" height="274" viewBox="0 0 319 274" fill="none" xmlns="http://www.w3.org/2000/svg">
<path fill-rule="evenodd" clip-rule="evenodd" d="M128.149 37.8739C135.63 13.2309 149.733 -0.20873 190.539 0.00245141C217.728 0.142435 241.354 0.553935 247.085 35.9769C301.149 45.6611 330.66 71.7269 314.66 96.7767C293.213 130.356 269.845 117.702 269.845 117.702C269.845 117.702 280.155 139.2 261.804 151.655C241.768 165.253 194.696 148.616 194.696 148.616C194.696 148.616 142.386 160.737 120.689 146.765C98.9921 132.793 113.959 117.914 113.959 117.914C113.959 117.914 65.3537 114.137 74.0394 76.63C79.408 53.4531 100.631 43.0533 128.149 37.8739Z" fill="#FCBE30"/>
<path fill-rule="evenodd" clip-rule="evenodd" d="M137.477 241.707C131.398 243.485 126.264 246.037 133.651 246.162C141.038 246.286 170.668 246.785 181.531 246.966C192.394 247.148 205.408 246.623 200.44 244.663L192.3 241.45C192.3 241.45 229.254 244.304 241.199 244.341C253.143 244.377 272.95 244.007 257.103 239.595C241.256 235.183 216.31 237.209 214.353 224.044C212.397 210.878 211.896 161.6 212.417 142.824C212.939 124.048 212.994 122.199 213.213 114.4C213.433 106.601 213.501 99.8445 220.308 95.9389L236.728 86.5219C241.55 83.756 240.613 83.042 229.266 84.7731C220.937 86.2101 212.771 88.164 204.847 90.6156C204.134 83.9181 204.147 77.1862 204.889 70.4905C206.138 59.859 210.138 59.5848 212.421 54.3421C214.703 49.0993 212.726 48.5257 206.554 53.0498C200.382 57.574 194.089 64.8931 194.089 64.8931C194.089 64.8931 187.82 62.8401 184.244 60.2071C180.668 57.574 178.825 60.0078 184.244 65.1663C189.663 70.3249 192.061 73.1788 192.206 77.9424C192.351 82.7061 187.945 90.6577 187.945 90.6577C187.945 90.6577 181.6 85.9596 173.607 78.7443C166.405 72.2421 157.503 60.4101 159.448 65.9654C161.392 71.5207 163.67 74.9613 168.632 81.835C173.593 88.7087 176.805 94.0281 176.805 94.0281C176.805 94.0281 164.755 88.3896 160.559 87.1039C155.179 85.4552 150.514 85.6068 168.632 96.6257C173.754 99.7416 173.599 103.851 173.599 111.64C173.599 119.429 173.94 142.825 173.94 142.825L164.219 216.762C164.219 216.762 143.549 239.933 137.474 241.707H137.477Z" fill="#DA6771"/>
<path fill-rule="evenodd" clip-rule="evenodd" d="M152.165 132.812C149.148 132.275 142.813 128.378 142.136 122.152C141.459 115.926 145.176 111.158 148.506 111.171C148.097 106.359 151.791 103.071 155.907 102.301C160.023 101.531 170.598 101.215 175.502 102.571C178.151 103.431 180.588 104.84 182.655 106.707C184.721 108.574 186.37 110.856 187.494 113.404C189.392 118.022 189.973 123.076 189.174 128.004C188.516 130.804 187.653 133.551 186.591 136.223C186.591 136.223 190.445 138.269 190.687 141.322C190.928 144.375 189.216 144.863 187.824 144.767C186.409 144.384 185.078 143.735 183.904 142.856C183.904 142.856 184.085 146.587 183.144 148.472C182.203 150.357 179.636 152.741 178.015 149.517C176.395 146.292 155.187 133.347 152.17 132.812H152.165Z" fill="#332727"/>
<path fill-rule="evenodd" clip-rule="evenodd" d="M157.946 102.015C159.253 100.372 160.938 99.0701 162.857 98.2196C164.776 97.369 166.872 96.9954 168.967 97.1305C175.296 97.2512 180.775 102.985 181.516 107.636C181.863 111.315 181.655 115.026 180.898 118.644L177.312 120.055C177.312 120.055 178.228 111.629 173.036 106.401C171.099 104.452 168.699 103.027 166.06 102.26C163.422 101.493 160.632 101.409 157.952 102.015H157.946Z" fill="#888888"/>
<path fill-rule="evenodd" clip-rule="evenodd" d="M102.78 147.544C106.68 154.128 110.005 161.038 112.716 168.195C117.497 168.711 122.249 169.467 126.954 170.46L134.267 173.21C134.978 172.241 135.904 171.451 136.971 170.9C138.039 170.349 139.219 170.053 140.421 170.034C142.643 170.117 144.788 170.871 146.575 172.195C146.514 167.28 146.064 162.378 145.228 157.535C144.197 152.914 142.785 148.388 141.005 144.001C141.005 144.001 137.426 141.247 130.265 142.07C123.105 142.893 117.342 148.065 117.342 148.065C115.378 145.853 112.656 144.458 109.713 144.158C108.356 144.01 106.984 144.25 105.757 144.849C104.529 145.448 103.497 146.382 102.777 147.543L102.78 147.544Z" fill="#78E8FD"/>
<path fill-rule="evenodd" clip-rule="evenodd" d="M133.173 180.112C132.414 178.893 131.263 175.911 132.233 175.75C133.203 175.588 134.823 176.877 136.484 175.045C136.977 174.422 137.33 173.7 137.519 172.928C137.708 172.157 137.728 171.353 137.579 170.573C137.579 170.573 136.47 172.331 134.15 170.48C131.829 168.629 126.41 162.733 125.056 161.442C123.702 160.151 121.798 160.943 122.066 162.619C120.135 162.15 117.67 162.316 117.308 164.951C117.139 167.363 117.679 169.773 118.861 171.882C120.458 174.405 122.419 176.678 124.682 178.626C125.983 179.548 126.371 178.9 127.392 179.495C128.413 180.09 130.563 183.788 130.563 183.788C130.563 183.788 133.931 181.329 133.173 180.112Z" fill="#E88D95"/>
<path fill-rule="evenodd" clip-rule="evenodd" d="M15.8962 262.891C11.1617 262.022 6.34823 261.658 1.53684 261.805C-1.26624 262.058 -0.08371 264.39 4.45215 266.789C8.98801 269.188 18.8042 272.383 21.9947 273.657C25.1851 274.932 26.4243 271.968 26.4436 268.843C26.463 265.717 19.1723 263.701 15.8938 262.898L15.8962 262.891Z" fill="#D2416E"/>
<path fill-rule="evenodd" clip-rule="evenodd" d="M27.3788 260.078C24.6168 261.843 23.6575 263.438 21.9223 263.566C19.7933 263.568 17.6704 263.339 15.5909 262.883C13.4901 262.505 15.2168 265.275 18.4519 266.715C21.687 268.156 23.7069 270.25 25.1911 269.718C26.6754 269.185 28.9234 265.736 30.3979 264.942C31.8725 264.148 30.1421 258.305 27.3812 260.078H27.3788Z" fill="#E78C94"/>
<path fill-rule="evenodd" clip-rule="evenodd" d="M158.361 162.424C158.361 162.424 148.964 190.453 146.584 194.086C144.205 197.719 133.65 215.278 130.877 218.026C128.104 220.775 139.686 222.438 139.686 222.438L156.517 202.407L158.366 162.42L158.361 162.424Z" fill="#DF8905"/>
<path fill-rule="evenodd" clip-rule="evenodd" d="M47.757 247.615C52.7261 238.402 71.5066 218.353 80.5542 211.08C89.6018 203.806 96.1697 204.281 109.614 208.617L142.057 219.079C142.057 219.079 42.7904 256.828 47.757 247.615Z" fill="#2C2C2C"/>
<path fill-rule="evenodd" clip-rule="evenodd" d="M148.601 205.471L137.319 218.688C137.319 218.688 115.579 215.912 102.78 218.258C89.9807 220.604 74.2083 228.982 55.0706 239.521C44.7212 245.086 34.7407 251.312 25.1911 258.159L30.2133 269.184C30.2133 269.184 68.7397 253.256 80.629 249.025C92.5183 244.793 97.9037 247.145 113.178 250.758C128.452 254.372 151.993 256.351 163.342 248.948C174.692 241.546 176.905 222.884 174.692 210.237C172.479 197.59 150.162 203.648 148.601 205.477V205.471Z" fill="#464646"/>
<path fill-rule="evenodd" clip-rule="evenodd" d="M186.825 183.788C185.517 189.098 176.004 208.681 175.462 209.638C174.92 210.595 174.223 210.041 171.226 208.804L163.077 205.443C162.639 205.261 149.725 194.974 149.725 194.974C149.725 194.974 159.961 198.19 160.306 195.594C162.757 192.931 164.944 190.037 166.838 186.953C166.838 186.953 188.131 178.481 186.825 183.788Z" fill="#DF8905"/>
<path fill-rule="evenodd" clip-rule="evenodd" d="M177.721 157.646C182.613 157.948 189.445 161.248 190.253 168.8C191.062 176.353 187.211 186.599 178.475 194.195C169.739 201.791 159.651 212.751 154.983 212.945C150.314 213.139 145.58 209.325 142.057 205.663C138.533 202.001 128.453 185.094 128.453 185.094L133.357 178.699C133.357 178.699 138.36 183.752 142.057 188.019C144.26 190.596 147.026 192.633 150.141 193.97L150.312 193.367C150.312 193.367 151.036 190.672 152.274 185.105C153.142 181.197 157.032 166.126 158.361 162.42C159.691 158.713 162.075 156.628 168.123 157.051C174.171 157.475 172.829 157.341 177.721 157.641V157.646Z" fill="#FCBE30"/>
<path fill-rule="evenodd" clip-rule="evenodd" d="M152.467 135.052C154.087 140.131 156.2 146.203 160.618 150.032C165.035 153.861 168.988 152.864 168.988 152.864L168.467 157.078C168.467 157.078 167.375 160.441 170.72 160.8C174.065 161.16 177.889 157.663 177.889 157.663L178.009 149.521C177.253 146.985 177.097 144.306 177.553 141.699C178.123 139.219 179.085 136.845 180.403 134.669L177.588 127.001C176.102 126.713 174.702 126.083 173.501 125.16C172.301 124.238 171.331 123.048 170.669 121.686C168.2 116.906 169.052 113.412 169.052 113.412C166.738 116.556 163.872 119.255 160.595 121.376C157.362 123.212 153.905 124.62 150.31 125.566C150.838 128.769 151.558 131.938 152.465 135.056L152.467 135.052Z" fill="#E88D95"/>
<path fill-rule="evenodd" clip-rule="evenodd" d="M178.543 117.138C176.808 117.208 174.714 120.365 174.695 123.57C174.675 126.775 174.908 129.603 176.377 132.176C177.845 134.748 179.902 135.554 181.348 135.446C182.795 135.337 182.366 117.949 181.129 117.376C180.296 117.1 179.412 117.017 178.543 117.135V117.138Z" fill="#5D5D5D"/>
<path fill-rule="evenodd" clip-rule="evenodd" d="M180.965 117.073C179.566 117.114 178.545 119.384 178.128 122.102C177.717 124.907 177.834 127.763 178.475 130.524C179.117 133.005 180.298 135.455 181.733 135.455C183.168 135.455 185.255 131.621 185.628 129.435C185.989 127.006 185.815 124.527 185.12 122.171C184.436 120.055 182.476 117.03 180.966 117.073H180.965Z" fill="#888888"/>
<path fill-rule="evenodd" clip-rule="evenodd" d="M156.034 132.177C156.245 132.116 156.467 132.1 156.685 132.129C156.903 132.159 157.112 132.234 157.3 132.349C157.487 132.464 157.649 132.617 157.774 132.798C157.899 132.979 157.985 133.184 158.026 133.4C158.359 134.445 158.682 135.693 157.746 135.961C156.81 136.229 156.242 135.184 155.85 134.444C155.458 133.705 155.453 132.43 156.034 132.177Z" fill="#332727"/>
<path fill-rule="evenodd" clip-rule="evenodd" d="M162.547 130.094C162.743 130.033 162.949 130.013 163.153 130.034C163.357 130.055 163.554 130.118 163.733 130.218C163.912 130.317 164.069 130.452 164.194 130.614C164.32 130.777 164.411 130.962 164.462 131.161C164.8 132.084 164.945 133.487 164.302 133.816C163.659 134.144 162.655 133.487 162.226 132.433C161.798 131.378 161.975 130.381 162.547 130.092V130.094Z" fill="#332727"/>
<path d="M160.52 135.936C160.541 137.427 160.471 138.918 160.311 140.4C160.282 141.229 161.63 141.387 163.087 140.966" stroke="#1A1A1A" stroke-width="0.548" stroke-linecap="round" stroke-linejoin="round"/>
<path d="M160.574 127.564C161.186 126.253 163.187 125.708 164.998 126.539M164.351 147.282C165.34 147.497 166.372 147.368 167.276 146.915C168.181 146.462 168.903 145.714 169.324 144.794L164.351 147.282ZM153.492 129.444C153.828 128.985 154.307 128.653 154.855 128.499C155.402 128.346 155.984 128.381 156.509 128.599L153.492 129.444Z" stroke="#1A1A1A" stroke-width="0.669" stroke-linecap="round" stroke-linejoin="round"/>
<path fill-rule="evenodd" clip-rule="evenodd" d="M150.209 194.156C152.149 195.252 154.22 196.441 155.17 196.46C156.119 196.478 167.801 179.151 169.324 174.452C164.751 180.832 157.097 190.879 154.146 192.761C151.196 194.644 152.003 193.951 150.209 194.156Z" fill="#DF8905"/>
<path d="M117.236 148.902C118.999 151.103 120.751 157.371 121.156 160.8" stroke="#3387B7" stroke-width="0.669" stroke-linecap="round" stroke-linejoin="round"/>
<path fill-rule="evenodd" clip-rule="evenodd" d="M168.988 152.87C170.857 152.508 172.629 151.755 174.185 150.659C175.074 149.826 168.467 157.084 168.467 157.084C168.467 157.084 168.851 154.059 168.988 152.87Z" fill="#DA6771"/>
</svg>
