<svg width="108" height="174" viewBox="0 0 108 174" fill="none" xmlns="http://www.w3.org/2000/svg">
<path fill-rule="evenodd" clip-rule="evenodd" d="M16.6548 8.53613L17.466 105.332L96 105.61V9.14153L16.6548 8.53613Z" fill="white"/>
<path fill-rule="evenodd" clip-rule="evenodd" d="M12.6246 108.647C11.1006 114.492 1.88038 155.681 1.02838 159.412C0.176383 163.142 1.70759 166.404 3.60419 160C5.50079 153.595 17.9064 111.709 18.6402 109.232C19.374 106.756 14.1492 102.802 12.6246 108.647Z" fill="#DFF2FC"/>
<path fill-rule="evenodd" clip-rule="evenodd" d="M7.59838 103.07C9.23098 103.184 30.5184 103.223 38.3532 103.223H67.602V109.152L38.2704 109.452C27.6462 109.561 10.4304 109.315 8.28418 109.337C6.13798 109.36 4.62418 109.241 4.61638 107.901C4.60858 106.561 4.59298 105.054 4.58758 104.361C4.58218 103.668 5.38558 102.915 7.59838 103.069V103.07Z" fill="#C0DEED"/>
<path fill-rule="evenodd" clip-rule="evenodd" d="M17.7798 1.93494L16.86 14.2385C16.86 14.2385 41.4876 13.9259 58.6002 13.8989L95.2764 13.8389L96 3.11094L17.7798 1.93494Z" fill="#DFF2FC"/>
<path fill-rule="evenodd" clip-rule="evenodd" d="M15 80.3345C14.9028 76.2209 14.22 9.75231 14.2242 6.14331C14.2284 2.53431 18.708 1.68711 18.708 6.14331V79.5803C18.708 84.3353 15.0978 84.4475 15 80.3345Z" fill="#C0DEED"/>
<path fill-rule="evenodd" clip-rule="evenodd" d="M94.5342 77.5925C94.437 73.4801 93.7542 7.01091 93.7584 3.40191C93.7626 -0.207089 98.2422 -1.05489 98.2422 3.40191V76.8419C98.2422 81.5975 94.6314 81.7091 94.5342 77.5955V77.5925Z" fill="#C0DEED"/>
<path fill-rule="evenodd" clip-rule="evenodd" d="M11.4534 5.35373C13.3458 5.39813 51.1734 4.51913 58.1496 4.54613C65.1258 4.57313 91.7579 4.67393 96.8225 4.69313C101.887 4.71233 101.887 4.10813 101.887 2.63933C101.887 1.17053 102.439 0.73253 99.9065 0.36953C97.3745 0.00652982 78.6966 0.36953 66.4368 0.36953C54.177 0.36953 31.665 -0.18007 23.0712 0.0599297L12.12 0.36953C10.7844 0.40673 10.4226 1.33733 10.4832 2.70353C10.5438 4.06973 10.4052 5.32913 11.4516 5.35373H11.4534Z" fill="#C0DEED"/>
<path fill-rule="evenodd" clip-rule="evenodd" d="M6.47998 84.1199C5.93398 82.1915 6.52198 79.5599 11.2506 79.3973L31.755 78.6899C34.635 78.5909 37.2702 79.5599 38.6634 83.0292C40.0566 86.4984 44.1384 96.6546 45.1308 99.1242C46.1232 101.594 43.8108 103.048 41.2662 103.048H16.3404C13.7556 103.048 11.9388 102.491 10.7364 99.1242C9.53398 95.757 7.09618 86.2955 6.47998 84.1199Z" fill="#C0DEED"/>
<path fill-rule="evenodd" clip-rule="evenodd" d="M12.1242 100.709C15.9462 100.619 30.1842 100.456 35.3064 100.465C40.4286 100.474 47.4108 100.484 50.1756 100.49C52.9404 100.495 54.447 100.141 54.4908 101.09C54.5346 102.038 54.5454 102.293 54.564 102.702C54.5826 103.111 52.4868 103.111 50.2548 103.111H27.6654C19.0554 103.111 15.9054 103.163 14.7654 103.163C13.6254 103.163 12.4716 103.147 12.0888 102.523C11.7891 102.046 11.5418 101.539 11.3514 101.009C11.3226 100.78 11.4504 100.727 12.1266 100.709L12.1242 100.709Z" fill="#DFF2FC"/>
<path d="M28.5198 14.1065C28.5888 19.6193 28.5852 28.3133 28.7736 34.4237" stroke="#DFF2FC" stroke-width="1.278" stroke-linecap="round" stroke-linejoin="round"/>
<path fill-rule="evenodd" clip-rule="evenodd" d="M27.6858 34.5509C27.2586 34.6061 27.0696 36.9287 26.8602 37.8455C26.6508 38.7623 27.5202 38.9255 28.2402 38.9255L29.82 38.9189C30.4386 38.9153 30.8634 38.3585 30.6774 37.5947C30.4914 36.8309 30.0696 35.1017 29.9628 34.6673C29.856 34.2329 29.3106 34.5173 28.7754 34.5059C28.4123 34.4853 28.0482 34.5007 27.6882 34.5521L27.6858 34.5509Z" fill="#C0DEED"/>
<path fill-rule="evenodd" clip-rule="evenodd" d="M73.1478 43.4561C70.5636 41.3465 66.687 34.8161 70.5306 29.7953C74.3742 24.7745 82.7526 26.4023 86.5668 28.8845C89.6096 30.9641 91.8877 33.983 93.0528 37.4795C94.7928 36.1595 96.8022 38.4395 95.0196 40.0679C97.0596 42.2987 97.305 46.5287 96.5694 50.1539C95.8338 53.7791 92.4078 56.4383 89.0268 57.1391C85.6458 57.8399 75.7326 45.5651 73.1478 43.4591V43.4561Z" fill="#FCBE30"/>
<path fill-rule="evenodd" clip-rule="evenodd" d="M80.1504 65.7533C76.7178 66.3911 73.9182 68.0897 69.9264 71.9135C65.9346 75.7373 63.5472 81.1145 63.5472 81.1145L71.7012 89.0477L82.9302 97.0313L95.0046 97.8449L95.5194 86.9165L106.876 85.3943C106.876 85.3943 105.521 77.4797 100.541 72.8255C95.562 68.1713 87.9546 65.8553 87.9546 65.8553C87.9546 65.8553 83.5836 65.1155 80.1504 65.7533Z" fill="#31FFC0"/>
<path fill-rule="evenodd" clip-rule="evenodd" d="M95.52 86.9165C95.5151 84.4348 95.3195 81.9571 94.935 79.5053L93.759 90.6497C94.1273 90.7383 94.5157 90.6818 94.8435 90.4919C95.1713 90.302 95.4136 89.9933 95.52 89.6297C95.7 89.1365 95.4996 87.6251 95.52 86.9171V86.9165Z" fill="#33C79C"/>
<path fill-rule="evenodd" clip-rule="evenodd" d="M72.7866 89.8199C73.7022 86.7455 74.2734 85.0979 75.2694 81.7511C74.7894 86.2661 74.1894 89.5889 74.1894 89.5889C74.1894 89.5889 71.4864 94.1933 72.789 89.8199H72.7866Z" fill="#33C79C"/>
<path fill-rule="evenodd" clip-rule="evenodd" d="M49.5 64.4399C48.4136 64.9494 47.5203 65.7956 46.9528 66.8528C46.3853 67.9101 46.1736 69.1221 46.3494 70.3091C46.6422 73.1891 48.921 75.3533 51.4134 75.1091C53.9058 74.8649 51.468 63.5423 49.5 64.4429V64.4399Z" fill="#37A4B9"/>
<path fill-rule="evenodd" clip-rule="evenodd" d="M50.0364 67.6295C49.7286 65.7011 49.1856 62.3015 49.1856 62.3015C51.053 60.9782 53.2159 60.132 55.4856 59.8367C59.2482 59.3567 60.8922 59.6345 60.8922 59.6345C61.341 61.9797 61.6187 64.3543 61.7232 66.7397C61.9206 70.8503 62.1024 74.6597 62.1024 74.6597C60.5387 75.3241 58.9121 75.8292 57.2472 76.1675C55.6772 76.4326 54.079 76.4873 52.4946 76.3301C52.4946 76.3301 50.3466 69.5573 50.0382 67.6301L50.0364 67.6295Z" fill="#78E8FD"/>
<path fill-rule="evenodd" clip-rule="evenodd" d="M63.9738 81.5429L60.3594 87.1362C60.3594 87.1362 58.7832 84.0371 57.5622 81.7499L54.633 76.2641C54.633 76.2641 56.193 75.1241 55.8702 73.4513C55.5474 71.7785 54.5004 71.3597 54.5004 71.3597C54.8008 71.1322 55.0279 70.8215 55.1537 70.4662C55.2794 70.1108 55.2982 69.7264 55.2078 69.3605C54.8352 68.1695 53.1282 68.1695 53.1282 68.1695C53.1282 68.1695 54.102 66.7896 53.7474 65.6544C53.3928 64.5192 52.1772 65.3381 50.9772 66.5201C49.7772 67.7021 49.2732 68.5655 49.4112 70.5023C49.5492 72.4391 49.872 75.2993 50.8776 76.4675C50.4414 79.3283 51.7596 88.5234 53.1282 93.1842C54.4968 97.845 57.2682 100.924 60.4062 100.213C63.5442 99.5009 73.281 89.3075 73.281 89.3075C73.281 89.3075 65.1294 79.7561 63.9738 81.5429Z" fill="#E88D95"/>
<path fill-rule="evenodd" clip-rule="evenodd" d="M73.5762 40.0679C71.571 44.9933 71.6868 48.7781 71.7114 53.6369C71.736 58.4957 72.7818 61.3619 75.4386 62.7635C76.9051 63.5153 78.5769 63.7681 80.2002 63.4835L80.1504 65.7563C80.1504 65.7563 80.4504 67.8485 83.0976 68.1485C85.7448 68.4485 87.9546 65.8583 87.9546 65.8583C87.9546 65.8583 88.587 60.7991 88.9572 57.7223C89.3274 54.6455 89.52 53.0423 89.52 53.0423C89.52 53.0423 91.9014 53.2283 92.2302 50.9201C92.559 48.6119 89.4294 48.0473 89.4294 48.0473C86.5356 47.4824 83.724 46.5574 81.06 45.2939C76.578 43.2179 75.4764 41.9693 73.5762 40.0679Z" fill="#E88D95"/>
<path fill-rule="evenodd" clip-rule="evenodd" d="M80.2002 63.4799C81.4374 63.2009 83.7402 62.2799 84.3114 61.7075C83.202 63.3148 81.7883 64.6891 80.1504 65.7527C80.1504 65.7527 80.1804 64.3865 80.2002 63.4799Z" fill="#DA6771"/>
<path fill-rule="evenodd" clip-rule="evenodd" d="M68.8776 149.314L102.737 149.017L103.301 151.937H67.602L68.8776 149.314Z" fill="#DFF2FC"/>
<path fill-rule="evenodd" clip-rule="evenodd" d="M101.22 120.878C101.891 126.149 106.482 160.598 107.02 166.408C107.558 172.217 106.946 177.422 105.52 171.148C104.094 164.873 96.9504 120.045 96.9504 120.045C96.9504 120.045 100.55 115.61 101.222 120.88L101.22 120.878Z" fill="#DFF2FC"/>
<path fill-rule="evenodd" clip-rule="evenodd" d="M72.615 138.114C70.5306 145.384 65.055 165.011 64.3818 168.346C63.7086 171.68 61.4226 173.14 62.2968 167.926C63.171 162.712 69.4488 132.746 69.4488 132.746C69.4488 132.746 74.6994 130.846 72.615 138.116V138.114Z" fill="#DFF2FC"/>
<path fill-rule="evenodd" clip-rule="evenodd" d="M93.12 114.528C97.86 114.388 102.794 114.173 104.481 114.191C106.168 114.209 106.464 115.782 106.464 117.295C106.464 118.807 106.109 120.97 103.999 120.922C101.888 120.874 82.5618 121.252 77.3352 121.304C72.1086 121.355 76.5552 115.091 76.5552 115.091C76.5552 115.091 88.3752 114.671 93.1194 114.528H93.12Z" fill="#C0DEED"/>
<path fill-rule="evenodd" clip-rule="evenodd" d="M72.5964 143.125C72.2112 144.613 69.45 149.327 68.919 150.151C68.388 150.975 69.1188 152.648 71.1108 151.562C73.1028 150.476 78.0378 147.453 78.3054 146.114C78.573 144.776 76.5564 142.646 76.5564 142.646C76.5564 142.646 72.9822 141.637 72.5964 143.126V143.125Z" fill="#8B8B8B"/>
<path fill-rule="evenodd" clip-rule="evenodd" d="M35.6514 161.234C33.128 162.982 30.4765 164.539 27.7194 165.889C26.1948 166.505 24.6396 168.289 27.2154 168.56C30.1238 168.765 33.0452 168.686 35.9382 168.324C37.3896 168.061 37.7748 166.753 37.845 165.811C37.9152 164.869 39.0708 163.296 39.0708 163.296C39.0708 163.296 36.8646 160.267 35.6508 161.234H35.6514Z" fill="#8B8B8B"/>
<path fill-rule="evenodd" clip-rule="evenodd" d="M65.6496 105.808C63.0018 107.146 59.6742 108.94 57.0654 111.718C54.4566 114.497 48.2664 124.836 45.06 132.58C41.8536 140.324 34.4244 161.183 34.4244 161.183L40.2648 164.87C40.2648 164.87 44.8248 157.588 49.1856 150.4C53.5464 143.212 59.6016 133.754 62.973 130.237C66.3444 126.719 77.9214 115.868 77.9214 115.868C77.9214 115.868 89.8056 115.616 94.4982 114.62C99.1908 113.623 91.3866 107.924 91.3866 107.924L76.5564 103.223C76.5564 103.223 68.2974 104.47 65.6496 105.808Z" fill="#2C2C2C"/>
<path fill-rule="evenodd" clip-rule="evenodd" d="M101.887 99.1343C101.821 103.061 102.53 111.354 96.57 113.973C92.2548 115.868 87.9576 114.122 85.2114 112.477C82.4652 110.832 79.4814 107.587 79.4814 107.587C79.4814 107.587 79.6302 117.481 79.095 123.932L77.5536 142.532L71.7012 143.214C71.7012 143.214 68.7576 131.274 67.3722 123.572C65.9868 115.871 64.2156 105.367 64.9764 99.4391C65.7372 93.5117 69.9096 89.2991 75.1164 89.0489C80.3232 88.7987 82.9572 89.5289 84.0852 90.0089C85.2132 90.4889 101.956 95.2109 101.889 99.1379L101.887 99.1343Z" fill="#464646"/>
<path fill-rule="evenodd" clip-rule="evenodd" d="M106.08 85.1333C106.41 88.3278 106.517 91.5415 106.398 94.7507C106.199 97.5959 104.107 100.396 99.978 99.1211C95.8494 97.8461 95.8314 96.4487 92.2572 94.1519C89.6484 92.554 86.9158 91.1673 84.0858 90.0053C84.0858 90.0053 86.3694 87.7745 89.313 87.7613C91.4177 87.8572 93.4866 88.3418 95.415 89.1905L95.5218 86.9165C95.5218 86.9165 105.842 82.5965 106.082 85.1333H106.08Z" fill="#E88D95"/>
<path d="M76.3974 51.1841C76.1874 52.0001 75.8376 53.4761 75.711 53.8469C75.5844 54.2177 76.6332 54.1193 77.226 54.1193M77.226 58.2C76.3974 55.4999 78.5 54.4999 80.4588 56.0046L77.226 58.2Z" stroke="#1A1A1A" stroke-width="1.278" stroke-linecap="round" stroke-linejoin="round"/>
<path fill-rule="evenodd" clip-rule="evenodd" d="M75.9381 47.1405C75.6113 46.7964 74.9375 46.9939 74.4546 47.471C73.9717 47.948 73.6615 48.6965 73.9949 48.9798C74.3284 49.2631 75.0297 48.9875 75.5445 48.5053C76.0592 48.0232 76.276 47.4959 75.9381 47.1405Z" fill="#332727"/>
<path fill-rule="evenodd" clip-rule="evenodd" d="M79.1724 47.6247C78.7433 47.832 78.8364 48.5819 79.1136 49.1614C79.3907 49.741 80.0815 50.3421 80.5068 50.1496C80.9322 49.9571 80.8432 49.039 80.4909 48.3911C80.1386 47.7433 79.666 47.385 79.1729 47.6244L79.1724 47.6247Z" fill="#332727"/>
<path d="M20.7924 8.38974C28.7922 8.35074 48.2952 8.28534 60.5124 8.19414C72.7296 8.10294 87.1674 8.25414 91.8588 8.08914M21.006 11.5109C29.0058 11.4713 48.5088 11.4059 60.726 11.3153C72.9432 11.2247 87.381 11.3753 92.0724 11.2097L21.006 11.5109Z" stroke="#C0DEED" stroke-width="0.779" stroke-linecap="round" stroke-linejoin="round"/>
</svg>
