<svg width="83" height="57" viewBox="0 0 83 57" fill="none" xmlns="http://www.w3.org/2000/svg">
<path d="M63.0519 45.9901C63.1899 46.04 63.3377 46.065 63.4954 46.065C63.6531 46.065 63.801 46.04 63.939 45.9901H63.0519ZM63.0519 45.9901C62.9139 45.941 62.7858 45.857 62.6675 45.7382L63.0519 45.9901ZM68.5125 24.3064C68.2441 24.2725 67.9726 24.2459 67.6982 24.2265C64.3886 23.9766 60.7821 24.7224 57.9147 26.774C55.0984 28.7892 53.0404 31.5712 52.0139 35.098C51.2649 37.4981 51.0599 40.0616 51.6246 42.575H51.1179C50.5974 40.0279 50.7065 37.3881 51.5162 34.9985L51.5192 34.9894L51.5221 34.9803C52.6616 31.3929 54.6912 28.5269 57.83 26.5417L57.8444 26.5326L57.8584 26.5231C60.7802 24.533 64.3995 23.6344 68.0444 23.8586C68.2008 23.8682 68.3569 23.8808 68.5125 23.8963V24.3064ZM52.875 46.65V45.9309C54.3958 48.8647 56.5878 51.1609 59.4403 52.7979C62.5425 54.5783 66.1626 55.0879 69.5283 54.3238C72.851 53.5694 75.9315 51.805 78.2436 49.0248L78.2619 49.0029L78.2789 48.9799C80.2959 46.2513 81.6079 42.9606 81.3574 39.3683C81.3483 35.3595 79.8196 31.3275 76.9749 28.5288C75.6568 27.232 74.1933 26.1958 72.5875 25.4615V24.9732C74.4109 25.7618 76.083 26.9149 77.4809 28.2871C80.4258 31.4133 82 35.1832 82 39.6408C82 43.1517 80.6657 46.4801 78.3807 49.4083C76.1134 52.0786 72.9539 54.0667 69.3658 54.7286C65.719 55.4014 62.1185 54.9466 58.9867 53.186C56.2095 51.6247 53.97 49.3944 52.5481 46.65H52.875ZM70.5875 5.1875V22.2153C70.5625 22.2095 70.5375 22.2038 70.5125 22.1982V5.1875C70.5125 2.91623 68.6713 1.075 66.4 1.075H5.1875C2.91623 1.075 1.075 2.91623 1.075 5.1875V40.4625C1.075 42.7338 2.91623 44.575 5.1875 44.575H49.5625C49.5701 44.6 49.5777 44.625 49.5853 44.65H5.1875C2.87481 44.65 1 42.7752 1 40.4625V5.1875C1 2.87481 2.87481 1 5.1875 1H66.4C68.7127 1 70.5875 2.87481 70.5875 5.1875ZM63.3971 45.0515C63.3933 45.0486 63.3862 45.0427 63.3763 45.0328L58.2904 39.9228C58.2847 39.917 58.2826 39.9138 58.2823 39.9133C58.2819 39.9127 58.2812 39.9116 58.28 39.9084C58.278 39.903 58.2685 39.8744 58.2702 39.8089C58.2741 39.6861 58.3042 39.656 58.319 39.6412L58.32 39.6402C58.3348 39.6253 58.3428 39.6219 58.348 39.6199C58.3549 39.6171 58.3811 39.608 58.4392 39.608C58.4972 39.608 58.5234 39.6171 58.5303 39.6199C58.5355 39.6219 58.5435 39.6253 58.5583 39.6402L62.7867 43.8886L63.4954 44.6008L64.2042 43.8886L74.2281 33.8172C74.2398 33.8054 74.2466 33.8021 74.2541 33.7991C74.2639 33.7953 74.2957 33.785 74.3626 33.785C74.4288 33.785 74.4602 33.7952 74.4698 33.799C74.4771 33.8018 74.484 33.8052 74.496 33.8172C74.5079 33.8293 74.5119 33.8367 74.5153 33.8456C74.5195 33.8567 74.53 33.8898 74.53 33.9579C74.53 34.0267 74.5195 34.0603 74.5151 34.0716C74.5117 34.0806 74.5077 34.088 74.496 34.0998L63.6146 45.0328L64.3234 45.7382L63.6146 45.0328C63.6047 45.0428 63.5976 45.0486 63.5938 45.0515C63.5728 45.0585 63.542 45.065 63.4954 45.065C63.4489 45.065 63.4181 45.0585 63.3971 45.0515Z" stroke="url(#paint0_linear_1064_3096)" stroke-width="2"/>
<mask id="path-2-inside-1_1064_3096" fill="white">
<path d="M39.4251 8.69744V13.6421C39.4251 13.9231 39.3135 14.1926 39.1148 14.3914C38.916 14.5901 38.6465 14.7017 38.3655 14.7017C38.0845 14.7017 37.815 14.5901 37.6163 14.3914C37.4176 14.1926 37.306 13.9231 37.306 13.6421V8.69744C37.306 8.60377 37.2687 8.51393 37.2025 8.44769C37.1363 8.38146 37.0464 8.34425 36.9528 8.34425H32.0081C31.7271 8.34425 31.4576 8.23261 31.2588 8.0339C31.0601 7.8352 30.9485 7.56569 30.9485 7.28467C30.9485 7.00366 31.0601 6.73415 31.2588 6.53544C31.4576 6.33673 31.7271 6.2251 32.0081 6.2251H36.9528C37.6085 6.2251 38.2373 6.48558 38.701 6.94923C39.1646 7.41288 39.4251 8.04173 39.4251 8.69744ZM38.3655 30.9485C38.0845 30.9485 37.815 31.0601 37.6163 31.2588C37.4176 31.4576 37.306 31.7271 37.306 32.0081V36.9528C37.306 37.0464 37.2687 37.1363 37.2025 37.2025C37.1363 37.2687 37.0464 37.306 36.9528 37.306H32.0081C31.7271 37.306 31.4576 37.4176 31.2588 37.6163C31.0601 37.815 30.9485 38.0845 30.9485 38.3655C30.9485 38.6465 31.0601 38.916 31.2588 39.1148C31.4576 39.3135 31.7271 39.4251 32.0081 39.4251H36.9528C37.6085 39.4251 38.2373 39.1646 38.701 38.701C39.1646 38.2373 39.4251 37.6085 39.4251 36.9528V32.0081C39.4251 31.7271 39.3135 31.4576 39.1148 31.2588C38.916 31.0601 38.6465 30.9485 38.3655 30.9485ZM13.6421 37.306H8.69744C8.60377 37.306 8.51393 37.2687 8.44769 37.2025C8.38146 37.1363 8.34425 37.0464 8.34425 36.9528V32.0081C8.34425 31.7271 8.23261 31.4576 8.0339 31.2588C7.8352 31.0601 7.56569 30.9485 7.28467 30.9485C7.00366 30.9485 6.73415 31.0601 6.53544 31.2588C6.33673 31.4576 6.2251 31.7271 6.2251 32.0081V36.9528C6.2251 37.6085 6.48558 38.2373 6.94923 38.701C7.41288 39.1646 8.04173 39.4251 8.69744 39.4251H13.6421C13.9231 39.4251 14.1926 39.3135 14.3914 39.1148C14.5901 38.916 14.7017 38.6465 14.7017 38.3655C14.7017 38.0845 14.5901 37.815 14.3914 37.6163C14.1926 37.4176 13.9231 37.306 13.6421 37.306ZM7.28467 14.7017C7.56569 14.7017 7.8352 14.5901 8.0339 14.3914C8.23261 14.1926 8.34425 13.9231 8.34425 13.6421V8.69744C8.34425 8.60377 8.38146 8.51393 8.44769 8.44769C8.51393 8.38146 8.60377 8.34425 8.69744 8.34425H13.6421C13.9231 8.34425 14.1926 8.23261 14.3914 8.0339C14.5901 7.8352 14.7017 7.56569 14.7017 7.28467C14.7017 7.00366 14.5901 6.73415 14.3914 6.53544C14.1926 6.33673 13.9231 6.2251 13.6421 6.2251H8.69744C8.04173 6.2251 7.41288 6.48558 6.94923 6.94923C6.48558 7.41288 6.2251 8.04173 6.2251 8.69744V13.6421C6.2251 13.9231 6.33673 14.1926 6.53544 14.3914C6.73415 14.5901 7.00366 14.7017 7.28467 14.7017ZM31.3017 30.9485C31.1372 30.9485 30.975 30.9102 30.8278 30.8366C30.6807 30.7631 30.5527 30.6563 30.454 30.5247C29.5658 29.3403 28.414 28.379 27.0898 27.717C25.7657 27.0549 24.3055 26.7102 22.8251 26.7102C21.3447 26.7102 19.8845 27.0549 18.5604 27.717C17.2362 28.379 16.0844 29.3403 15.1962 30.5247C15.1127 30.636 15.0081 30.7298 14.8883 30.8007C14.7686 30.8716 14.6361 30.9182 14.4983 30.9379C14.3606 30.9575 14.2203 30.9499 14.0855 30.9154C13.9507 30.8808 13.8241 30.8201 13.7128 30.7366C13.6014 30.6531 13.5077 30.5485 13.4368 30.4288C13.3659 30.309 13.3193 30.1765 13.2996 30.0388C13.2799 29.901 13.2875 29.7608 13.3221 29.626C13.3566 29.4912 13.4174 29.3645 13.5008 29.2532C14.8342 27.4659 16.6546 26.101 18.744 25.3222C17.6306 24.4692 16.8124 23.2888 16.4045 21.9468C15.9966 20.6049 16.0194 19.1688 16.4698 17.8405C16.9201 16.5122 17.7753 15.3584 18.9153 14.5412C20.0552 13.724 21.4225 13.2845 22.8251 13.2845C24.2277 13.2845 25.595 13.724 26.7349 14.5412C27.8749 15.3584 28.7301 16.5122 29.1804 17.8405C29.6308 19.1688 29.6536 20.6049 29.2457 21.9468C28.8378 23.2888 28.0196 24.4692 26.9062 25.3222C28.9956 26.101 30.816 27.4659 32.1494 29.2532C32.2674 29.4106 32.3393 29.5978 32.357 29.7938C32.3747 29.9898 32.3374 30.1868 32.2494 30.3628C32.1614 30.5388 32.0261 30.6868 31.8587 30.7903C31.6914 30.8937 31.4985 30.9485 31.3017 30.9485ZM22.8251 24.5911C23.7332 24.5911 24.6209 24.3218 25.376 23.8172C26.1311 23.3127 26.7196 22.5956 27.0671 21.7567C27.4146 20.9177 27.5055 19.9945 27.3284 19.1038C27.1512 18.2131 26.7139 17.395 26.0718 16.7529C25.4296 16.1108 24.6115 15.6735 23.7209 15.4963C22.8302 15.3191 21.907 15.4101 21.068 15.7576C20.229 16.1051 19.5119 16.6936 19.0074 17.4487C18.5029 18.2037 18.2336 19.0915 18.2336 19.9996C18.2336 21.2173 18.7174 22.3852 19.5784 23.2462C20.4395 24.1073 21.6074 24.5911 22.8251 24.5911Z"/>
</mask>
<path d="M39.4251 8.69744V13.6421C39.4251 13.9231 39.3135 14.1926 39.1148 14.3914C38.916 14.5901 38.6465 14.7017 38.3655 14.7017C38.0845 14.7017 37.815 14.5901 37.6163 14.3914C37.4176 14.1926 37.306 13.9231 37.306 13.6421V8.69744C37.306 8.60377 37.2687 8.51393 37.2025 8.44769C37.1363 8.38146 37.0464 8.34425 36.9528 8.34425H32.0081C31.7271 8.34425 31.4576 8.23261 31.2588 8.0339C31.0601 7.8352 30.9485 7.56569 30.9485 7.28467C30.9485 7.00366 31.0601 6.73415 31.2588 6.53544C31.4576 6.33673 31.7271 6.2251 32.0081 6.2251H36.9528C37.6085 6.2251 38.2373 6.48558 38.701 6.94923C39.1646 7.41288 39.4251 8.04173 39.4251 8.69744ZM38.3655 30.9485C38.0845 30.9485 37.815 31.0601 37.6163 31.2588C37.4176 31.4576 37.306 31.7271 37.306 32.0081V36.9528C37.306 37.0464 37.2687 37.1363 37.2025 37.2025C37.1363 37.2687 37.0464 37.306 36.9528 37.306H32.0081C31.7271 37.306 31.4576 37.4176 31.2588 37.6163C31.0601 37.815 30.9485 38.0845 30.9485 38.3655C30.9485 38.6465 31.0601 38.916 31.2588 39.1148C31.4576 39.3135 31.7271 39.4251 32.0081 39.4251H36.9528C37.6085 39.4251 38.2373 39.1646 38.701 38.701C39.1646 38.2373 39.4251 37.6085 39.4251 36.9528V32.0081C39.4251 31.7271 39.3135 31.4576 39.1148 31.2588C38.916 31.0601 38.6465 30.9485 38.3655 30.9485ZM13.6421 37.306H8.69744C8.60377 37.306 8.51393 37.2687 8.44769 37.2025C8.38146 37.1363 8.34425 37.0464 8.34425 36.9528V32.0081C8.34425 31.7271 8.23261 31.4576 8.0339 31.2588C7.8352 31.0601 7.56569 30.9485 7.28467 30.9485C7.00366 30.9485 6.73415 31.0601 6.53544 31.2588C6.33673 31.4576 6.2251 31.7271 6.2251 32.0081V36.9528C6.2251 37.6085 6.48558 38.2373 6.94923 38.701C7.41288 39.1646 8.04173 39.4251 8.69744 39.4251H13.6421C13.9231 39.4251 14.1926 39.3135 14.3914 39.1148C14.5901 38.916 14.7017 38.6465 14.7017 38.3655C14.7017 38.0845 14.5901 37.815 14.3914 37.6163C14.1926 37.4176 13.9231 37.306 13.6421 37.306ZM7.28467 14.7017C7.56569 14.7017 7.8352 14.5901 8.0339 14.3914C8.23261 14.1926 8.34425 13.9231 8.34425 13.6421V8.69744C8.34425 8.60377 8.38146 8.51393 8.44769 8.44769C8.51393 8.38146 8.60377 8.34425 8.69744 8.34425H13.6421C13.9231 8.34425 14.1926 8.23261 14.3914 8.0339C14.5901 7.8352 14.7017 7.56569 14.7017 7.28467C14.7017 7.00366 14.5901 6.73415 14.3914 6.53544C14.1926 6.33673 13.9231 6.2251 13.6421 6.2251H8.69744C8.04173 6.2251 7.41288 6.48558 6.94923 6.94923C6.48558 7.41288 6.2251 8.04173 6.2251 8.69744V13.6421C6.2251 13.9231 6.33673 14.1926 6.53544 14.3914C6.73415 14.5901 7.00366 14.7017 7.28467 14.7017ZM31.3017 30.9485C31.1372 30.9485 30.975 30.9102 30.8278 30.8366C30.6807 30.7631 30.5527 30.6563 30.454 30.5247C29.5658 29.3403 28.414 28.379 27.0898 27.717C25.7657 27.0549 24.3055 26.7102 22.8251 26.7102C21.3447 26.7102 19.8845 27.0549 18.5604 27.717C17.2362 28.379 16.0844 29.3403 15.1962 30.5247C15.1127 30.636 15.0081 30.7298 14.8883 30.8007C14.7686 30.8716 14.6361 30.9182 14.4983 30.9379C14.3606 30.9575 14.2203 30.9499 14.0855 30.9154C13.9507 30.8808 13.8241 30.8201 13.7128 30.7366C13.6014 30.6531 13.5077 30.5485 13.4368 30.4288C13.3659 30.309 13.3193 30.1765 13.2996 30.0388C13.2799 29.901 13.2875 29.7608 13.3221 29.626C13.3566 29.4912 13.4174 29.3645 13.5008 29.2532C14.8342 27.4659 16.6546 26.101 18.744 25.3222C17.6306 24.4692 16.8124 23.2888 16.4045 21.9468C15.9966 20.6049 16.0194 19.1688 16.4698 17.8405C16.9201 16.5122 17.7753 15.3584 18.9153 14.5412C20.0552 13.724 21.4225 13.2845 22.8251 13.2845C24.2277 13.2845 25.595 13.724 26.7349 14.5412C27.8749 15.3584 28.7301 16.5122 29.1804 17.8405C29.6308 19.1688 29.6536 20.6049 29.2457 21.9468C28.8378 23.2888 28.0196 24.4692 26.9062 25.3222C28.9956 26.101 30.816 27.4659 32.1494 29.2532C32.2674 29.4106 32.3393 29.5978 32.357 29.7938C32.3747 29.9898 32.3374 30.1868 32.2494 30.3628C32.1614 30.5388 32.0261 30.6868 31.8587 30.7903C31.6914 30.8937 31.4985 30.9485 31.3017 30.9485ZM22.8251 24.5911C23.7332 24.5911 24.6209 24.3218 25.376 23.8172C26.1311 23.3127 26.7196 22.5956 27.0671 21.7567C27.4146 20.9177 27.5055 19.9945 27.3284 19.1038C27.1512 18.2131 26.7139 17.395 26.0718 16.7529C25.4296 16.1108 24.6115 15.6735 23.7209 15.4963C22.8302 15.3191 21.907 15.4101 21.068 15.7576C20.229 16.1051 19.5119 16.6936 19.0074 17.4487C18.5029 18.2037 18.2336 19.0915 18.2336 19.9996C18.2336 21.2173 18.7174 22.3852 19.5784 23.2462C20.4395 24.1073 21.6074 24.5911 22.8251 24.5911Z" fill="black" stroke="url(#paint1_linear_1064_3096)" stroke-width="4" mask="url(#path-2-inside-1_1064_3096)"/>
<path d="M45.6499 13.4873H63.2874" stroke="url(#paint2_linear_1064_3096)" stroke-width="2" stroke-linecap="square"/>
<path d="M45.6499 18.6748H63.2874" stroke="url(#paint3_linear_1064_3096)" stroke-width="2" stroke-linecap="square"/>
<defs>
<linearGradient id="paint0_linear_1064_3096" x1="49.8" y1="54.5159" x2="88.3041" y2="31.826" gradientUnits="userSpaceOnUse">
<stop stop-color="#0073FF"/>
<stop offset="1" stop-color="#00DEFF"/>
</linearGradient>
<linearGradient id="paint1_linear_1064_3096" x1="26.1451" y1="38.5308" x2="44.0605" y2="31.4046" gradientUnits="userSpaceOnUse">
<stop stop-color="#0073FF"/>
<stop offset="1" stop-color="#00DEFF"/>
</linearGradient>
<linearGradient id="paint2_linear_1064_3096" x1="44.81" y1="14.4873" x2="45.4214" y2="10.2732" gradientUnits="userSpaceOnUse">
<stop stop-color="#0073FF"/>
<stop offset="1" stop-color="#00DEFF"/>
</linearGradient>
<linearGradient id="paint3_linear_1064_3096" x1="44.81" y1="19.6748" x2="45.4214" y2="15.4607" gradientUnits="userSpaceOnUse">
<stop stop-color="#0073FF"/>
<stop offset="1" stop-color="#00DEFF"/>
</linearGradient>
</defs>
</svg>
