<svg width="57" height="57" viewBox="0 0 57 57" fill="none" xmlns="http://www.w3.org/2000/svg">
<path d="M14.9209 37.8779V25.6581C14.9209 24.3147 15.1843 23.0266 15.6716 21.8307M41.2624 37.8779V29.4882M20.774 16.1067C22.9988 14.825 25.524 14.1569 28.0916 14.1706C34.0975 14.1706 39.1629 17.674 40.7487 22.4682M22.8233 40.5121V34.7775M33.3599 40.5121V26.9541C33.3599 24.2594 31.0024 22.0731 28.0916 22.0731C25.1809 22.0731 22.8233 24.2594 22.8233 26.9541V29.0456" stroke="url(#paint0_linear_1064_3117)" stroke-width="2"/>
<path d="M54.4329 27.3415H53.4329V27.3426L54.4329 27.3415ZM38.0181 49.0246C37.6276 48.6341 36.9944 48.6341 36.6039 49.0246C36.2133 49.4151 36.2133 50.0483 36.6039 50.4388L38.0181 49.0246ZM42.5793 55L41.8722 55.7071L42.5793 56.4142L43.2864 55.7071L42.5793 55ZM56.4571 42.5364C56.8476 42.1458 56.8476 41.5127 56.4571 41.1222C56.0666 40.7316 55.4334 40.7316 55.0429 41.1222L56.4571 42.5364ZM28.0915 52.6829C14.0954 52.6829 2.75 41.3376 2.75 27.3415H0.75C0.75 42.4421 12.9908 54.6829 28.0915 54.6829V52.6829ZM2.75 27.3415C2.75 13.3454 14.0954 2 28.0915 2V0C12.9908 0 0.75 12.2408 0.75 27.3415H2.75ZM28.0915 2C42.0876 2 53.4329 13.3454 53.4329 27.3415H55.4329C55.4329 12.2408 43.1921 0 28.0915 0V2ZM53.4329 27.3426C53.4359 29.9209 53.0445 32.4845 52.2724 34.9444L54.1806 35.5434C55.0138 32.8888 55.4361 30.1225 55.4329 27.3403L53.4329 27.3426ZM36.6039 50.4388L41.8722 55.7071L43.2864 54.2929L38.0181 49.0246L36.6039 50.4388ZM43.2864 55.7071L56.4571 42.5364L55.0429 41.1222L41.8722 54.2929L43.2864 55.7071Z" fill="url(#paint1_linear_1064_3117)"/>
<defs>
<linearGradient id="paint0_linear_1064_3117" x1="30.7258" y1="39.8025" x2="44.9402" y2="34.1485" gradientUnits="userSpaceOnUse">
<stop stop-color="#0073FF"/>
<stop offset="1" stop-color="#00DEFF"/>
</linearGradient>
<linearGradient id="paint1_linear_1064_3117" x1="34.15" y1="53.5455" x2="63.2896" y2="41.9547" gradientUnits="userSpaceOnUse">
<stop stop-color="#0073FF"/>
<stop offset="1" stop-color="#00DEFF"/>
</linearGradient>
</defs>
</svg>
