<svg id="step1" xmlns="http://www.w3.org/2000/svg" width="43.687" height="49.766" viewBox="0 0 43.687 49.766">
  <path id="Контур_13958" data-name="Контур 13958" d="M37.223,45.98l7.6,7.646a.921.921,0,0,1,.28.653.782.782,0,0,1-.28.653L37.27,62.485a.9.9,0,0,1-1.305,0,.921.921,0,0,1-.28-.653.847.847,0,0,1,.28-.653l5.968-6.015h-29.7a.932.932,0,0,1,0-1.865h29.7l-6.015-6.015a.9.9,0,0,1,0-1.305A.9.9,0,0,1,37.223,45.98Z" transform="translate(-1.416 -27.313)" fill="#fff"/>
  <path id="Контур_13959" data-name="Контур 13959" d="M45.662,16H66.177a4.928,4.928,0,0,1,4.662,5.13v8.363H68.974V21.13a2.957,2.957,0,0,0-2.8-3.078H45.662a2.957,2.957,0,0,0-2.8,3.078v39.5a2.957,2.957,0,0,0,2.8,3.078H66.177a2.957,2.957,0,0,0,2.8-3.078V51.759h1.865v8.876a4.928,4.928,0,0,1-4.662,5.13H45.662A4.928,4.928,0,0,1,41,60.635V21.13A4.928,4.928,0,0,1,45.662,16Z" transform="translate(-41 -16)" fill="#fff"/>
  <g id="Сгруппировать_13184" data-name="Сгруппировать 13184" transform="translate(10.322 4.538)">
    <path id="Контур_13933" data-name="Контур 13933" d="M2581.445,2332.144H2573.6a.675.675,0,1,1,0-1.351h7.845a.675.675,0,1,1,0,1.351Z" transform="translate(-2572.925 -2330.793)" fill="#fff" stroke="rgba(0,0,0,0)" stroke-width="1"/>
  </g>
  <g id="Контур_13960" data-name="Контур 13960" transform="translate(12.187 39.811)" fill="none">
    <path d="M2.921,0A2.921,2.921,0,1,1,0,2.921,2.921,2.921,0,0,1,2.921,0Z" stroke="none"/>
    <path d="M 2.92138671875 1.499996662139893 C 2.137626647949219 1.499996662139893 1.499996662139893 2.137626647949219 1.499996662139893 2.92138671875 C 1.499996662139893 3.705146789550781 2.137626647949219 4.342776775360107 2.92138671875 4.342776775360107 C 3.705146789550781 4.342776775360107 4.342776775360107 3.705146789550781 4.342776775360107 2.92138671875 C 4.342776775360107 2.137626647949219 3.705146789550781 1.499996662139893 2.92138671875 1.499996662139893 M 2.92138671875 -3.337860107421875e-06 C 4.534826755523682 -3.337860107421875e-06 5.842776775360107 1.307946681976318 5.842776775360107 2.92138671875 C 5.842776775360107 4.534826755523682 4.534826755523682 5.842776775360107 2.92138671875 5.842776775360107 C 1.307946681976318 5.842776775360107 -3.337860107421875e-06 4.534826755523682 -3.337860107421875e-06 2.92138671875 C -3.337860107421875e-06 1.307946681976318 1.307946681976318 -3.337860107421875e-06 2.92138671875 -3.337860107421875e-06 Z" stroke="none" fill="#fff"/>
  </g>
</svg>
