<svg id="step4" xmlns="http://www.w3.org/2000/svg" width="40" height="55" viewBox="0 0 40 55">
  <g id="Сгруппировать_13190" data-name="Сгруппировать 13190">
    <g id="Сгруппировать_13186" data-name="Сгруппировать 13186" transform="translate(8 10.538)">
      <path id="Контур_13964" data-name="Контур 13964" d="M2582.768,2332.354h-9.063a.78.78,0,1,1,0-1.56h9.063a.78.78,0,0,1,0,1.56Z" transform="translate(-2571.425 -2330.793)" fill="#fff" stroke="rgba(0,0,0,0)" stroke-width="2"/>
      <path id="Контур_13965" data-name="Контур 13965" d="M2585.768,2332.354h-12.063a.78.78,0,1,1,0-1.56h12.063a.78.78,0,0,1,0,1.56Z" transform="translate(-2572.925 -2326.793)" fill="#fff" stroke="rgba(0,0,0,0)" stroke-width="2"/>
    </g>
    <g id="Сгруппировать_13189" data-name="Сгруппировать 13189">
      <path id="Контур_13963" data-name="Контур 13963" d="M5,2H25a3,3,0,0,1,3,3V33.045Q28.494,33,29,33t1,.045V5a5,5,0,0,0-5-5H5A5,5,0,0,0,0,5V45a5,5,0,0,0,5,5H19.779a10.968,10.968,0,0,1-1.029-2H5a3,3,0,0,1-3-3V5A3,3,0,0,1,5,2Z" fill="#fff" fill-rule="evenodd"/>
      <g id="Сгруппировать_13188" data-name="Сгруппировать 13188" transform="translate(20 35)">
        <circle id="Эллипс_123" data-name="Эллипс 123" cx="9.5" cy="9.5" r="9.5" fill="none" stroke="#fff" stroke-width="2"/>
        <g id="Сгруппировать_13187" data-name="Сгруппировать 13187" transform="translate(8.72 6)">
          <path id="Контур_13966" data-name="Контур 13966" d="M5.843,1.56H.78A.78.78,0,1,1,.78,0H5.843a.78.78,0,0,1,0,1.56Z" transform="translate(1.56 2.189) rotate(90)" fill="#fff" stroke="rgba(0,0,0,0)" stroke-width="2"/>
          <circle id="Эллипс_124" data-name="Эллипс 124" cx="0.75" cy="0.75" r="0.75" transform="translate(0.03)" fill="#fff"/>
        </g>
      </g>
    </g>
  </g>
</svg>
