<svg xmlns="http://www.w3.org/2000/svg" width="39.04" height="39.111" viewBox="0 0 39.04 39.111">
  <g id="step2" transform="translate(-28.98 -30.107)">
    <path id="Контур_13961" data-name="Контур 13961" d="M41.3,24.907h-.712V18.5a2.082,2.082,0,0,0-2.136-2.064V9.815A2.123,2.123,0,0,0,37.6,8.107a2.885,2.885,0,0,0-2.278-.5h-.071l-2.634,1L31.339,6.612a4.078,4.078,0,0,0-5.41-1.139L6.922,16.364A2.143,2.143,0,0,0,5,18.429V41.279a2.1,2.1,0,0,0,2.136,2.136H38.457a2.082,2.082,0,0,0,2.136-2.064V34.873H41.3a2.1,2.1,0,0,0,2.136-2.136V27.042A2.1,2.1,0,0,0,41.3,24.907ZM35.752,9.032a1.235,1.235,0,0,1,1,.214.636.636,0,0,1,.285.569v5.837L33.4,9.886ZM26.712,6.754a2.7,2.7,0,0,1,3.488.641l5.624,8.969H9.841Zm12.458,34.6a.657.657,0,0,1-.712.641H7.136a.657.657,0,0,1-.712-.641V18.429a.657.657,0,0,1,.712-.641H38.457a.657.657,0,0,1,.712.641v6.407H29.915a4.983,4.983,0,1,0,0,9.966h9.254Zm2.847-8.613a.673.673,0,0,1-.712.712H29.915a3.559,3.559,0,1,1,0-7.119H41.3a.673.673,0,0,1,.712.712Z" transform="translate(24.28 25.504)" fill="#fff" stroke="#fff" stroke-width="0.6"/>
    <path id="Контур_13962" data-name="Контур 13962" d="M39.139,37a2.139,2.139,0,1,0,2.139,2.139A2.1,2.1,0,0,0,39.139,37Zm0,2.852a.713.713,0,1,1,.713-.713A.674.674,0,0,1,39.139,39.852Z" transform="translate(15.73 16.306)" fill="#fff"/>
  </g>
</svg>
