<svg xmlns="http://www.w3.org/2000/svg" width="48.716" height="49.32" viewBox="0 0 48.716 49.32">
  <path id="step3" d="M266.166,420.75a5.8,5.8,0,0,1-1.948-1.122c0-.012,0-.012-.012-.012-.074-.062-.136-.136-.21-.2a.047.047,0,0,1-.025-.025,5.9,5.9,0,0,1-1.713-3.784,17.394,17.394,0,0,0,3.514-10.8,19.071,19.071,0,0,0-.579-4.686v-.009a5.179,5.179,0,0,0-.925-6.474,14.052,14.052,0,0,0-8.74-3.612,8.854,8.854,0,0,0-1.147,0,14.5,14.5,0,0,0-13.695,14.781,1.247,1.247,0,0,0,.432.937,4.285,4.285,0,0,0,2.5,1,16.425,16.425,0,0,0,3.747,9.27,1.274,1.274,0,0,0,.937.419,1.19,1.19,0,0,0,.8-.308,1.233,1.233,0,0,0,.123-1.738,14.108,14.108,0,0,1-3.144-7.939c2.81-.776,6.5-3.083,11.526-7.187l3.9,3.588a1.288,1.288,0,0,0,.961.321,1.175,1.175,0,0,0,.715-.333,14.984,14.984,0,0,1,.123,1.973,14.688,14.688,0,0,1-3.23,9.566v.012l-.025.025a7.23,7.23,0,0,1-5.4,2.724,1.233,1.233,0,1,0,0,2.466,9.07,9.07,0,0,0,5.5-1.923,8.157,8.157,0,0,0,1.418,2.713l-6.558,6.558a1.234,1.234,0,0,0,1.738,1.751l6.62-6.62a8.372,8.372,0,0,0,2.022,1.011c9.787,3.268,10.847,5.35,10.847,6.09,0,2.528-7.063,5.819-15.433,7.187a38.8,38.8,0,0,1-8.173.444,1.254,1.254,0,0,0-1.295,1.171,1.238,1.238,0,0,0,1.171,1.295c.7.037,1.43.049,2.158.049a39.891,39.891,0,0,0,6.546-.518c6.5-1.072,17.491-4.3,17.491-9.628C278.7,426.249,274.832,423.647,266.166,420.75ZM262.96,399l-.8,1.1L258.5,396.71a1.237,1.237,0,0,0-1.627-.037c-6.09,5.056-10.4,7.619-12.844,7.619a2.189,2.189,0,0,1-.851-.148,12,12,0,0,1,11.353-11.653c.136-.012.259-.012.395-.012s.284,0,.469.012a11.344,11.344,0,0,1,7.223,2.983,2.677,2.677,0,0,1,.347,3.532Zm1.245,20.612c-.074-.062-.136-.136-.21-.2a1.559,1.559,0,0,1,.16.136c.014.025.038.037.051.062Zm-23.116,19.305a11.1,11.1,0,1,1,11.094-11.1A11.1,11.1,0,0,1,241.089,438.921Zm0-19.724a8.632,8.632,0,1,0,8.629,8.631,8.632,8.632,0,0,0-8.629-8.631ZM239.7,432.632a1.233,1.233,0,0,1-.872-.361l-3.537-3.537a1.233,1.233,0,0,1,1.743-1.743l2.666,2.665,5.453-5.453a1.233,1.233,0,0,1,1.74,1.746l-6.325,6.324a1.229,1.229,0,0,1-.868.359Z" transform="translate(-229.988 -390.012)" fill="#fff" fill-rule="evenodd"/>
</svg>
