<svg width="160" height="65" viewBox="0 0 160 65" fill="none" xmlns="http://www.w3.org/2000/svg">
<g id="Group 4275">
<path id="Vector" d="M84.4998 43.702C83.0998 43.702 81.7998 43.502 80.5998 43.102C79.3998 42.702 78.3998 42.002 77.4998 41.202C76.5998 40.402 75.9998 39.302 75.4998 38.002C74.9998 36.702 74.7998 35.202 74.7998 33.502V32.702C74.7998 31.102 75.0998 29.702 75.5998 28.402C76.0998 27.202 76.7998 26.102 77.6998 25.302C78.5998 24.502 79.5998 23.802 80.7998 23.402C81.9998 23.002 83.2998 22.802 84.5998 22.802C85.9998 22.802 87.2998 23.002 88.2998 23.402C89.3998 23.802 90.2998 24.302 90.9998 24.902C91.7998 25.602 92.2998 26.302 92.7998 27.202C93.1998 28.102 93.4998 29.002 93.5998 30.002H88.4998C88.1998 29.102 87.7998 28.302 87.1998 27.802C86.5998 27.302 85.6998 27.002 84.5998 27.002C83.8998 27.002 83.2998 27.102 82.7998 27.302C82.1998 27.502 81.6998 27.902 81.2998 28.302C80.8998 28.802 80.4998 29.402 80.2998 30.102C79.9998 30.802 79.8998 31.602 79.8998 32.602V33.402C79.8998 34.502 79.9998 35.402 80.2998 36.102C80.4998 36.902 80.8998 37.502 81.2998 38.002C81.6998 38.502 82.1998 38.902 82.7998 39.102C83.3998 39.302 83.9998 39.402 84.6998 39.402C85.6998 39.402 86.5998 39.102 87.2998 38.602C87.9998 38.102 88.4998 37.402 88.6998 36.402H93.7998C93.6998 37.502 93.3998 38.502 92.8998 39.402C92.3998 40.302 91.7998 41.102 90.9998 41.702C90.1998 42.302 89.2998 42.802 88.2998 43.202C86.9998 43.502 85.7998 43.702 84.4998 43.702Z" fill="white"/>
<path id="Vector_2" d="M103.8 43.502C102.6 43.502 101.6 43.402 100.8 43.202C100 43.002 99.3001 42.602 98.7001 42.102C98.2001 41.602 97.8001 40.802 97.5001 39.902C97.2001 39.002 97.1001 37.902 97.1001 36.502V16.802H102.1V35.902C102.1 36.502 102.1 37.102 102.2 37.502C102.3 37.902 102.4 38.302 102.6 38.502C102.8 38.802 103.1 39.002 103.4 39.102C103.8 39.202 104.2 39.302 104.7 39.302C105 39.302 105.3 39.302 105.5 39.302C105.7 39.302 105.9 39.302 106.1 39.202V43.402C105.9 43.402 105.8 43.502 105.6 43.502C105.4 43.502 105.2 43.502 105 43.602C104.8 43.602 104.6 43.602 104.3 43.602L103.8 43.502Z" fill="white"/>
<path id="Vector_3" d="M109.8 23.202H114.8V43.202H109.8V23.202ZM112.3 21.102C111.4 21.102 110.6 20.802 110.1 20.302C109.6 19.802 109.3 19.102 109.3 18.302C109.3 17.502 109.6 16.802 110.1 16.302C110.6 15.802 111.4 15.502 112.3 15.502C113.2 15.502 114 15.802 114.5 16.302C115 16.802 115.3 17.502 115.3 18.302C115.3 19.102 115 19.802 114.5 20.302C114 20.802 113.3 21.102 112.3 21.102Z" fill="white"/>
<path id="Vector_4" d="M128.6 43.702C127.2 43.702 125.9 43.502 124.7 43.102C123.5 42.702 122.5 42.002 121.6 41.202C120.7 40.402 120.1 39.302 119.6 38.002C119.1 36.702 118.9 35.202 118.9 33.502V32.702C118.9 31.102 119.2 29.702 119.7 28.402C120.2 27.202 120.9 26.102 121.8 25.302C122.7 24.502 123.7 23.802 124.9 23.402C126.1 23.002 127.4 22.802 128.7 22.802C130.1 22.802 131.4 23.002 132.4 23.402C133.5 23.802 134.4 24.302 135.1 24.902C135.9 25.602 136.4 26.302 136.9 27.202C137.3 28.102 137.6 29.002 137.7 30.002H132.6C132.3 29.102 131.9 28.302 131.3 27.802C130.7 27.302 129.8 27.002 128.7 27.002C128 27.002 127.4 27.102 126.9 27.302C126.3 27.502 125.8 27.902 125.4 28.302C125 28.802 124.6 29.402 124.4 30.102C124.1 30.802 124 31.602 124 32.602V33.402C124 34.502 124.1 35.402 124.4 36.102C124.6 36.902 125 37.502 125.4 38.002C125.8 38.502 126.3 38.902 126.9 39.102C127.5 39.302 128.1 39.402 128.8 39.402C129.8 39.402 130.7 39.102 131.4 38.602C132.1 38.102 132.6 37.402 132.8 36.402H137.9C137.8 37.502 137.5 38.502 137 39.402C136.5 40.302 135.9 41.102 135.1 41.702C134.3 42.302 133.4 42.802 132.4 43.202C131.1 43.502 129.9 43.702 128.6 43.702Z" fill="white"/>
<path id="Vector_5" d="M141.1 43.302V16.802H146.1V31.402L153.5 23.202H159.2L151.8 31.602L160 43.302H154.1L148.4 35.102L146.1 37.502V43.302H141.1Z" fill="white"/>
<path id="Vector_6" fill-rule="evenodd" clip-rule="evenodd" d="M11 11.002C3.7 18.302 0 25.302 0 32.402V32.502C0 39.502 3.7 46.502 11 53.902C18.4 61.302 25.4 64.902 32.4 64.902H32.5C39.5 64.902 46.6 61.202 53.9 53.902C68.6 39.202 68.7 25.802 53.9 11.002C46.5 3.60197 39.5 0.00197391 32.4 0.00197391C25.4 -0.0980261 18.4 3.60197 11 11.002ZM20.8 44.102C12.7 36.002 12.8 28.702 20.8 20.702C28.8 12.702 36.1 12.602 44.2 20.702C52.3 28.802 52.2 36.102 44.2 44.102C40.2 48.102 36.4 50.102 32.5 50.102C28.7 50.102 24.8 48.102 20.8 44.102Z" fill="url(#paint0_linear_150_999)"/>
</g>
<defs>
<linearGradient id="paint0_linear_150_999" x1="10.8012" y1="55.168" x2="52.249" y2="11.7009" gradientUnits="userSpaceOnUse">
<stop stop-color="#0073FF"/>
<stop offset="1" stop-color="#00DEFF"/>
</linearGradient>
</defs>
</svg>
