<svg width="16" height="17" viewBox="0 0 16 17" fill="none" xmlns="http://www.w3.org/2000/svg">
<path fill-rule="evenodd" clip-rule="evenodd" d="M10.3828 1.8335H4.2696C1.38852 1.8335 0.333984 2.88873 0.333984 5.76982V11.8858C0.333984 14.7676 1.38852 15.8215 4.2703 15.8215H10.3821C13.2639 15.8215 14.3198 14.7676 14.3198 11.8858V5.76982C14.3226 2.88873 13.2688 1.8342 10.3828 1.8342V1.8335Z" fill="white"/>
<path d="M2.97716 8.79931H3.35898V10.6839H2.97716V9.91818H2.11424V10.6839H1.73242V8.79931H2.11424V9.55734H2.97716V8.79931ZM5.13029 9.87762C5.13029 10.1804 4.97854 10.3475 4.70232 10.3475C4.4268 10.3475 4.27155 10.1804 4.27155 9.86083V8.79931H3.88974V9.87622C3.88974 10.4049 4.18344 10.7084 4.69603 10.7084C5.20861 10.7084 5.5121 10.4049 5.5121 9.85874V8.79931H5.13029V9.87762ZM9.54492 10.0944L9.11696 8.79931H8.80367L8.3792 10.0958L7.96172 8.79931H7.55613L8.21207 10.6839H8.52885L8.95542 9.44615L9.38199 10.6839H9.70226L10.3589 8.79931H9.9617L9.54492 10.0937V10.0944ZM11.0428 9.87062H11.7386V9.53007H11.0428V9.14546H12.0526V8.79931H10.6666V10.679H12.089V10.3398H11.0428V9.87132V9.87062ZM12.5435 10.679H12.9211V8.79931H12.5435V10.679ZM6.26734 10.2895L6.09601 10.6811H5.7058L6.52957 8.80001H6.86523L7.6925 10.6811H7.29809L7.13586 10.2909L6.26734 10.2895ZM6.40929 9.95034H6.98411L6.696 9.27692L6.40929 9.95034ZM7.32886 6.49933C6.71151 6.49915 6.1195 6.25382 5.68296 5.81729C5.24643 5.38075 5.0011 4.78874 5.00092 4.17139H5.32958C5.34337 4.69247 5.56005 5.18759 5.93349 5.55128C6.30692 5.91496 6.80759 6.11848 7.32886 6.11848C7.85013 6.11848 8.3508 5.91496 8.72424 5.55128C9.09767 5.18759 9.31436 4.69247 9.32814 4.17139H9.65681C9.65662 4.7888 9.41132 5.38089 8.97481 5.81754C8.53829 6.25418 7.94628 6.49896 7.32886 6.49933Z" fill="#141414"/>
</svg>
