<svg width="13" height="16" viewBox="0 0 13 16" fill="none" xmlns="http://www.w3.org/2000/svg">
<path d="M10.414 8.16046C10.3951 6.22213 11.9985 5.27841 12.0726 5.23479C11.1649 3.90864 9.75754 3.72833 9.26229 3.71379C8.08153 3.59019 6.93563 4.42339 6.33436 4.42339C5.72002 4.42339 4.79197 3.72688 3.79421 3.74723C2.50743 3.76759 1.30489 4.51355 0.645521 5.66957C-0.713875 8.02959 0.299862 11.4962 1.60407 13.404C2.25762 14.3375 3.01865 15.3816 4.01641 15.3438C4.99239 15.303 5.35693 14.7214 6.53478 14.7214C7.70247 14.7214 8.04522 15.3438 9.06331 15.3205C10.1105 15.303 10.7698 14.3826 11.3987 13.4389C12.1539 12.3687 12.456 11.3144 12.4676 11.2606C12.4429 11.2519 10.4343 10.4841 10.414 8.16046Z" fill="white"/>
<path d="M8.49184 2.46035C9.01613 1.8031 9.37777 0.907364 9.2761 0C8.51653 0.0348985 7.56669 0.526387 7.01916 1.1691C6.53553 1.73621 6.10128 2.66538 6.21456 3.53785C7.06854 3.60183 7.9443 3.10743 8.49184 2.46035Z" fill="white"/>
</svg>
