<svg width="14" height="16" viewBox="0 0 14 16" fill="none" xmlns="http://www.w3.org/2000/svg">
<path d="M11.1371 8.50892C11.1169 6.48782 12.8317 5.50381 12.9109 5.45832C11.9401 4.07554 10.4351 3.88754 9.90544 3.87237C8.64269 3.7435 7.41722 4.61228 6.7742 4.61228C6.1172 4.61228 5.12471 3.88602 4.05767 3.90725C2.68154 3.92847 1.39549 4.70628 0.690345 5.91166C-0.763444 8.37246 0.320684 11.9871 1.71545 13.9763C2.41439 14.9497 3.22826 16.0384 4.2953 15.999C5.33905 15.9565 5.7289 15.35 6.98854 15.35C8.23731 15.35 8.60386 15.999 9.69265 15.9747C10.8125 15.9565 11.5177 14.9968 12.1902 14.0127C12.9978 12.8968 13.3209 11.7976 13.3333 11.7415C13.3069 11.7324 11.1589 10.9318 11.1371 8.50892Z" fill="white"/>
<path d="M9.08149 2.56541C9.64219 1.88009 10.0289 0.94611 9.92021 0C9.10789 0.0363887 8.0921 0.548865 7.50655 1.21903C6.98934 1.81035 6.52493 2.7792 6.64608 3.68892C7.55936 3.75563 8.49594 3.24012 9.08149 2.56541Z" fill="white"/>
</svg>
