<svg width="24" height="25" viewBox="0 0 24 25" fill="none" xmlns="http://www.w3.org/2000/svg">
<path fill-rule="evenodd" clip-rule="evenodd" d="M0.870935 3.43653L0.0436623 20.9865C-0.018156 22.298 -0.0490651 22.9537 0.196422 23.4572C0.412223 23.8999 0.771739 24.2627 1.22052 24.4907C1.73104 24.75 2.41174 24.75 3.77315 24.75H19.2927C20.6541 24.75 21.3348 24.75 21.8453 24.4907C22.2941 24.2627 22.6536 23.8999 22.8694 23.4572C23.1149 22.9537 23.084 22.298 23.0222 20.9865L22.1949 3.43653C22.138 2.22843 22.1095 1.62438 21.8475 1.1653C21.617 0.761241 21.2632 0.435261 20.8341 0.231502C20.3466 0 19.7196 0 18.4654 0H4.60042C3.34628 0 2.71921 0 2.23173 0.231502C1.80266 0.435261 1.44889 0.761241 1.21832 1.1653C0.956356 1.62438 0.927882 2.22843 0.870935 3.43653ZM5.69961 5.625V3.375C5.69961 2.75368 6.22194 2.25 6.86627 2.25C7.5106 2.25 8.03294 2.75368 8.03294 3.375V5.625C8.03294 7.48896 9.59994 9 11.5329 9C13.4659 9 15.0329 7.48896 15.0329 5.625V3.375C15.0329 2.75368 15.5553 2.25 16.1996 2.25C16.8439 2.25 17.3663 2.75368 17.3663 3.375V5.625C17.3663 8.7316 14.7546 11.25 11.5329 11.25C8.31128 11.25 5.69961 8.7316 5.69961 5.625Z" fill="#0077FF"/>
</svg>
