<svg width="28" height="27" viewBox="0 0 28 27" fill="none" xmlns="http://www.w3.org/2000/svg">
<g clip-path="url(#clip0_162_388)">
<path fill-rule="evenodd" clip-rule="evenodd" d="M16.7224 6.75028C18.2896 6.75028 19.0737 6.7497 19.7909 6.95051C20.4259 7.12834 21.02 7.42095 21.5426 7.81156C22.1328 8.25272 22.5939 8.86368 23.5156 10.0857L24.8179 11.8128H26.6875C27.4124 11.8128 28 12.3794 28 13.0784C27.9999 13.7646 27.4334 14.3231 26.7268 14.3432L26.9293 14.611C27.3269 15.1382 27.5257 15.4024 27.6667 15.6912C27.7918 15.9474 27.8826 16.2181 27.9376 16.4963C27.9997 16.8098 28 17.1357 28 17.7874V25.3804C28 25.9472 27.9999 26.2308 27.8855 26.4474C27.7848 26.6379 27.6242 26.7928 27.4266 26.8899C27.202 27.0002 26.908 27.0003 26.3201 27.0003H23.5549C22.967 27.0003 22.673 27.0002 22.4484 26.8899C22.2508 26.7928 22.0902 26.6379 21.9895 26.4474C21.8751 26.2308 21.875 25.9472 21.875 25.3804V23.6253H6.125V25.3713C6.125 25.9411 6.12487 26.2261 6.00964 26.4433C5.90832 26.6342 5.74675 26.7891 5.54822 26.8858C5.32235 26.9957 5.02664 26.9944 4.43567 26.9912L1.67053 26.9764C1.08574 26.9733 0.793238 26.9717 0.569946 26.861C0.373471 26.7636 0.213629 26.6086 0.113647 26.4186C7.7514e-05 26.2026 0 25.9205 0 25.3565V17.7874C0 17.1357 0.000333884 16.8098 0.0623779 16.4963C0.117444 16.2181 0.208174 15.9474 0.333252 15.6912C0.474325 15.4024 0.673098 15.1382 1.07068 14.611L1.27319 14.3432C0.566583 14.3231 9.54114e-05 13.7646 0 13.0784C0 12.3794 0.587626 11.8128 1.3125 11.8128H3.18213L4.48438 10.0857C5.40606 8.86368 5.8672 8.25272 6.4574 7.81156C6.98002 7.42095 7.57411 7.12834 8.20911 6.95051C8.92628 6.7497 9.71035 6.75028 11.2776 6.75028H16.7224ZM5.6875 16.0315C4.51354 16.0315 2.625 17.8526 2.625 18.9847C2.62519 20.1167 4.5136 21.9378 5.6875 21.9378C6.8614 21.9378 8.74981 20.1167 8.75 18.9847C8.75 17.8526 6.86146 16.0315 5.6875 16.0315ZM22.3125 16.0315C21.1385 16.0315 19.25 17.8526 19.25 18.9847C19.2502 20.1167 21.1386 21.9378 22.3125 21.9378C23.4864 21.9378 25.3748 20.1167 25.375 18.9847C25.375 17.8526 23.4865 16.0315 22.3125 16.0315ZM11.1947 8.43779C10.1395 8.43779 9.61145 8.43754 9.12939 8.57374C8.70243 8.69444 8.30278 8.89307 7.95276 9.15794C7.55766 9.45701 7.2509 9.87094 6.6377 10.6988L4.56982 13.4904C4.36579 13.7658 4.26395 13.9037 4.26819 14.0186C4.27204 14.1187 4.32179 14.2119 4.40405 14.2732C4.4985 14.3435 4.67393 14.344 5.02527 14.344H22.9747C23.3261 14.344 23.5015 14.3435 23.5959 14.2732C23.6782 14.2119 23.728 14.1187 23.7318 14.0186C23.736 13.9037 23.6342 13.7658 23.4302 13.4904L21.3623 10.6988C20.7491 9.87094 20.4423 9.45701 20.0472 9.15794C19.6972 8.89307 19.2976 8.69444 18.8706 8.57374C18.3885 8.43754 17.8605 8.43779 16.8053 8.43779H11.1947Z" fill="url(#paint0_linear_162_388)"/>
<path fill-rule="evenodd" clip-rule="evenodd" d="M3.51453 1.7331C3.52521 1.73796 3.53426 1.75377 3.55127 1.78501C4.21152 2.99756 5.24983 3.8306 5.25 5.06361L5.24744 5.15095C5.20029 6.04232 4.43611 6.75111 3.5 6.75111C2.53361 6.75111 1.75018 5.99544 1.75 5.06361C1.75017 3.8306 2.78848 2.99756 3.44873 1.78501C3.46574 1.75377 3.47479 1.73796 3.48547 1.7331C3.49489 1.72894 3.50511 1.72894 3.51453 1.7331ZM2.40625 4.85267C2.28549 4.85267 2.18759 4.94719 2.1875 5.06361C2.1876 5.76251 2.77519 6.32923 3.5 6.32923C3.62075 6.32923 3.71865 6.23471 3.71875 6.1183C3.71866 6.00187 3.62076 5.90736 3.5 5.90736C3.01681 5.90736 2.6251 5.52952 2.625 5.06361C2.62491 4.94719 2.52701 4.85267 2.40625 4.85267Z" fill="url(#paint1_linear_162_388)"/>
<path fill-rule="evenodd" clip-rule="evenodd" d="M24.5145 1.7331C24.5252 1.73796 24.5343 1.75377 24.5513 1.78501C25.2115 2.99756 26.2498 3.8306 26.25 5.06361L26.2474 5.15095C26.2003 6.04232 25.4361 6.75111 24.5 6.75111C23.5336 6.75111 22.7502 5.99544 22.75 5.06361C22.7502 3.8306 23.7885 2.99756 24.4487 1.78501C24.4657 1.75377 24.4748 1.73796 24.4855 1.7331C24.4949 1.72894 24.5051 1.72894 24.5145 1.7331ZM23.4062 4.85267C23.2855 4.85267 23.1876 4.94719 23.1875 5.06361C23.1876 5.76251 23.7752 6.32923 24.5 6.32923C24.6207 6.32923 24.7186 6.23471 24.7188 6.1183C24.7187 6.00187 24.6208 5.90736 24.5 5.90736C24.0168 5.90736 23.6251 5.52952 23.625 5.06361C23.6249 4.94719 23.527 4.85267 23.4062 4.85267Z" fill="url(#paint2_linear_162_388)"/>
<path fill-rule="evenodd" clip-rule="evenodd" d="M8.76453 0.0456031C8.77521 0.0504552 8.78426 0.06627 8.80127 0.0975135C9.46152 1.31006 10.4998 2.1431 10.5 3.37611L10.4974 3.46345C10.4503 4.35482 9.68611 5.06361 8.75 5.06361C7.78361 5.06361 7.00018 4.30794 7 3.37611C7.00017 2.1431 8.03848 1.31006 8.69873 0.0975135C8.71574 0.06627 8.72479 0.0504552 8.73547 0.0456031C8.74489 0.0414396 8.75511 0.0414396 8.76453 0.0456031ZM7.65625 3.16517C7.53549 3.16517 7.43759 3.25969 7.4375 3.37611C7.4376 4.07501 8.02519 4.64173 8.75 4.64173C8.87075 4.64173 8.96865 4.54721 8.96875 4.4308C8.96866 4.31437 8.87076 4.21986 8.75 4.21986C8.26681 4.21986 7.8751 3.84202 7.875 3.37611C7.87491 3.25969 7.77701 3.16517 7.65625 3.16517Z" fill="url(#paint3_linear_162_388)"/>
<path fill-rule="evenodd" clip-rule="evenodd" d="M14.0145 0.0456031C14.0252 0.0504552 14.0343 0.06627 14.0513 0.0975135C14.7115 1.31006 15.7498 2.1431 15.75 3.37611L15.7474 3.46345C15.7003 4.35482 14.9361 5.06361 14 5.06361C13.0336 5.06361 12.2502 4.30794 12.25 3.37611C12.2502 2.1431 13.2885 1.31006 13.9487 0.0975135C13.9657 0.06627 13.9748 0.0504552 13.9855 0.0456031C13.9949 0.0414396 14.0051 0.0414396 14.0145 0.0456031ZM12.9062 3.16517C12.7855 3.16517 12.6876 3.25969 12.6875 3.37611C12.6876 4.07501 13.2752 4.64173 14 4.64173C14.1207 4.64173 14.2186 4.54721 14.2188 4.4308C14.2187 4.31437 14.1208 4.21986 14 4.21986C13.5168 4.21986 13.1251 3.84202 13.125 3.37611C13.1249 3.25969 13.027 3.16517 12.9062 3.16517Z" fill="url(#paint4_linear_162_388)"/>
<path fill-rule="evenodd" clip-rule="evenodd" d="M19.2645 0.0456031C19.2752 0.0504552 19.2843 0.06627 19.3013 0.0975135C19.9615 1.31006 20.9998 2.1431 21 3.37611L20.9974 3.46345C20.9503 4.35482 20.1861 5.06361 19.25 5.06361C18.2836 5.06361 17.5002 4.30794 17.5 3.37611C17.5002 2.1431 18.5385 1.31006 19.1987 0.0975135C19.2157 0.06627 19.2248 0.0504552 19.2355 0.0456031C19.2449 0.0414396 19.2551 0.0414396 19.2645 0.0456031ZM18.1562 3.16517C18.0355 3.16517 17.9376 3.25969 17.9375 3.37611C17.9376 4.07501 18.5252 4.64173 19.25 4.64173C19.3707 4.64173 19.4686 4.54721 19.4688 4.4308C19.4687 4.31437 19.3708 4.21986 19.25 4.21986C18.7668 4.21986 18.3751 3.84202 18.375 3.37611C18.3749 3.25969 18.277 3.16517 18.1562 3.16517Z" fill="url(#paint5_linear_162_388)"/>
</g>
<defs>
<linearGradient id="paint0_linear_162_388" x1="14" y1="14.3439" x2="14" y2="25.3126" gradientUnits="userSpaceOnUse">
<stop stop-color="#00AAFF"/>
<stop offset="1" stop-color="#0077FF"/>
</linearGradient>
<linearGradient id="paint1_linear_162_388" x1="14" y1="14.3439" x2="14" y2="25.3126" gradientUnits="userSpaceOnUse">
<stop stop-color="#00AAFF"/>
<stop offset="1" stop-color="#0077FF"/>
</linearGradient>
<linearGradient id="paint2_linear_162_388" x1="14" y1="14.3439" x2="14" y2="25.3126" gradientUnits="userSpaceOnUse">
<stop stop-color="#00AAFF"/>
<stop offset="1" stop-color="#0077FF"/>
</linearGradient>
<linearGradient id="paint3_linear_162_388" x1="14" y1="14.3439" x2="14" y2="25.3126" gradientUnits="userSpaceOnUse">
<stop stop-color="#00AAFF"/>
<stop offset="1" stop-color="#0077FF"/>
</linearGradient>
<linearGradient id="paint4_linear_162_388" x1="14" y1="14.3439" x2="14" y2="25.3126" gradientUnits="userSpaceOnUse">
<stop stop-color="#00AAFF"/>
<stop offset="1" stop-color="#0077FF"/>
</linearGradient>
<linearGradient id="paint5_linear_162_388" x1="14" y1="14.3439" x2="14" y2="25.3126" gradientUnits="userSpaceOnUse">
<stop stop-color="#00AAFF"/>
<stop offset="1" stop-color="#0077FF"/>
</linearGradient>
<clipPath id="clip0_162_388">
<rect width="28" height="27" fill="white"/>
</clipPath>
</defs>
</svg>
