<svg width="28" height="27" viewBox="0 0 28 27" fill="none" xmlns="http://www.w3.org/2000/svg">
<path fill-rule="evenodd" clip-rule="evenodd" d="M2.33325 0V27L5.24992 24.75L8.16659 27L11.0833 24.75L13.9999 27L16.9166 24.75L19.8333 27L22.7499 24.75L25.6666 27V0H2.33325ZM7.58325 4.5C7.26109 4.5 6.99992 4.75184 6.99992 5.0625C6.99992 5.37316 7.26109 5.625 7.58325 5.625H20.4166C20.7388 5.625 20.9999 5.37316 20.9999 5.0625C20.9999 4.75184 20.7388 4.5 20.4166 4.5H7.58325ZM7.58325 7.875C7.26109 7.875 6.99992 8.12684 6.99992 8.4375C6.99992 8.74816 7.26109 9 7.58325 9H20.4166C20.7388 9 20.9999 8.74816 20.9999 8.4375C20.9999 8.12684 20.7388 7.875 20.4166 7.875H7.58325ZM7.58325 11.25C7.26109 11.25 6.99992 11.5018 6.99992 11.8125C6.99992 12.1232 7.26109 12.375 7.58325 12.375H20.4166C20.7388 12.375 20.9999 12.1232 20.9999 11.8125C20.9999 11.5018 20.7388 11.25 20.4166 11.25H7.58325ZM7.58325 14.625C7.26109 14.625 6.99992 14.8768 6.99992 15.1875C6.99992 15.4982 7.26109 15.75 7.58325 15.75H20.4166C20.7388 15.75 20.9999 15.4982 20.9999 15.1875C20.9999 14.8768 20.7388 14.625 20.4166 14.625H7.58325ZM7.58325 18C7.26109 18 6.99992 18.2518 6.99992 18.5625C6.99992 18.8732 7.26109 19.125 7.58325 19.125H20.4166C20.7388 19.125 20.9999 18.8732 20.9999 18.5625C20.9999 18.2518 20.7388 18 20.4166 18H7.58325Z" fill="#0077FF"/>
</svg>
