<svg width="92" height="32" viewBox="0 0 92 32" fill="none" xmlns="http://www.w3.org/2000/svg">
<g clip-path="url(#clip0_162_573)">
<path fill-rule="evenodd" clip-rule="evenodd" d="M1.64487 12.4212L1.95519 11.9978C0.869948 11.9661 0 11.0832 0 9.99866C0 8.89409 0.902426 7.99866 2.01562 7.99866H4.88636L6.8863 5.27006C8.30193 3.33866 9.00975 2.37296 9.91619 1.67578C10.7189 1.05837 11.632 0.597012 12.6074 0.315988C13.7087 -0.00134277 14.9122 -0.00134277 17.319 -0.00134277H25.681C28.0878 -0.00134277 29.2913 -0.00134277 30.3926 0.315988C31.368 0.597012 32.2811 1.05837 33.0838 1.67578C33.9902 2.37296 34.6981 3.33866 36.1137 5.27006L38.1136 7.99866H40.9844C42.0976 7.99866 43 8.89409 43 9.99866C43 11.0832 42.1301 11.9661 41.0448 11.9978L41.3551 12.4212C41.9657 13.2542 42.271 13.6708 42.4877 14.1272C42.6799 14.5323 42.82 14.9597 42.9046 15.3995C43 15.8951 43 16.4101 43 17.4402V29.4387C43 30.3347 43 30.7828 42.8242 31.125C42.6697 31.4261 42.423 31.6709 42.1196 31.8243C41.7746 31.9987 41.3231 31.9987 40.42 31.9987H36.1738C35.2707 31.9987 34.8191 31.9987 34.4742 31.8243C34.1708 31.6709 33.9241 31.4261 33.7695 31.125C33.5938 30.7828 33.5938 30.3347 33.5938 29.4387V26.6653H9.40625V29.4245C9.40625 30.325 9.40625 30.7753 9.22928 31.1185C9.07363 31.4204 8.82535 31.6654 8.52025 31.8182C8.17339 31.9919 7.71956 31.9894 6.81201 31.9844L2.56576 31.9612C1.66718 31.9563 1.21789 31.9538 0.874894 31.7787C0.573164 31.6247 0.328084 31.3802 0.174542 31.08C0 30.7387 0 30.2929 0 29.4012V17.4402C0 16.4101 0 15.8951 0.0953504 15.3995C0.179966 14.9597 0.320058 14.5323 0.51232 14.1272C0.728972 13.6708 1.03427 13.2542 1.64487 12.4212ZM7.01821 10.6493L10.1932 6.23876C11.1353 4.93005 11.6064 4.2757 12.2134 3.80303C12.7509 3.38446 13.3639 3.07144 14.0196 2.88071C14.7601 2.66532 15.5705 2.66532 17.1913 2.66532H25.8087C27.4295 2.66532 28.2399 2.66532 28.9804 2.88071C29.6361 3.07144 30.2491 3.38446 30.7866 3.80303C31.3936 4.2757 31.8647 4.93005 32.8068 6.23876L35.9818 10.6493C36.2957 11.0853 36.4526 11.3033 36.4458 11.4851C36.4399 11.6433 36.3634 11.7908 36.2371 11.8875C36.092 11.9987 35.822 11.9987 35.282 11.9987H7.71802C7.17803 11.9987 6.90804 11.9987 6.76293 11.8875C6.6366 11.7908 6.56012 11.6433 6.55421 11.4851C6.54742 11.3033 6.70435 11.0853 7.01821 10.6493ZM13.4375 19.332C13.4375 21.1209 10.5372 23.9987 8.73438 23.9987C6.93151 23.9987 4.03125 21.1209 4.03125 19.332C4.03125 17.5431 6.93151 14.6653 8.73438 14.6653C10.5372 14.6653 13.4375 17.5431 13.4375 19.332ZM34.2656 23.9987C36.0685 23.9987 38.9688 21.1209 38.9688 19.332C38.9688 17.5431 36.0685 14.6653 34.2656 14.6653C32.4628 14.6653 29.5625 17.5431 29.5625 19.332C29.5625 21.1209 32.4628 23.9987 34.2656 23.9987Z" fill="url(#paint0_linear_162_573)"/>
</g>
<path d="M52.9283 14.6925C51.5926 14.6925 50.4816 14.2492 49.5951 13.3627C48.7086 12.4644 48.2654 11.3652 48.2654 10.065C48.2654 8.7648 48.7086 7.67146 49.5951 6.78497C50.4816 5.88666 51.5926 5.43751 52.9283 5.43751C54.1457 5.43751 55.1504 5.77438 55.9424 6.44811C56.7343 7.12184 57.2544 8.00242 57.5026 9.08985H54.7367C54.3467 8.26246 53.7439 7.84876 52.9283 7.84876C52.3491 7.84876 51.8763 8.0497 51.5099 8.45158C51.1435 8.84163 50.9603 9.37943 50.9603 10.065C50.9603 10.7505 51.1435 11.2943 51.5099 11.6961C51.8763 12.0862 52.3491 12.2812 52.9283 12.2812C53.7439 12.2812 54.3467 11.8675 54.7367 11.0401H57.5026C57.2544 12.1276 56.7343 13.0081 55.9424 13.6819C55.1504 14.3556 54.1457 14.6925 52.9283 14.6925ZM58.6927 14.4974V1.20009H61.3699V14.4974H58.6927ZM64.5504 4.42691C64.1013 4.42691 63.7112 4.26734 63.3803 3.94821C63.0493 3.61725 62.8838 3.22128 62.8838 2.76031C62.8838 2.29934 63.0493 1.90928 63.3803 1.59014C63.7112 1.25919 64.1013 1.09371 64.5504 1.09371C65.0232 1.09371 65.4192 1.25919 65.7383 1.59014C66.0693 1.90928 66.2348 2.29934 66.2348 2.76031C66.2348 3.22128 66.0693 3.61725 65.7383 3.94821C65.4192 4.26734 65.0232 4.42691 64.5504 4.42691ZM63.2207 14.4974V5.63254H65.8979V14.4974H63.2207ZM71.8798 14.6925C70.5441 14.6925 69.4331 14.2492 68.5466 13.3627C67.6601 12.4644 67.2168 11.3652 67.2168 10.065C67.2168 8.7648 67.6601 7.67146 68.5466 6.78497C69.4331 5.88666 70.5441 5.43751 71.8798 5.43751C73.0972 5.43751 74.1019 5.77438 74.8938 6.44811C75.6858 7.12184 76.2058 8.00242 76.4541 9.08985H73.6882C73.2982 8.26246 72.6953 7.84876 71.8798 7.84876C71.3006 7.84876 70.8278 8.0497 70.4614 8.45158C70.095 8.84163 69.9118 9.37943 69.9118 10.065C69.9118 10.7505 70.095 11.2943 70.4614 11.6961C70.8278 12.0862 71.3006 12.2812 71.8798 12.2812C72.6953 12.2812 73.2982 11.8675 73.6882 11.0401H76.4541C76.2058 12.1276 75.6858 13.0081 74.8938 13.6819C74.1019 14.3556 73.0972 14.6925 71.8798 14.6925ZM83.6191 14.4974L80.3214 10.5437V14.4974H77.6442V1.20009H80.3214V8.80617L82.9099 5.63254H86.0836L82.8213 9.63947L86.8637 14.4974H83.6191Z" fill="white"/>
<path d="M47.6803 30.5026L53.0701 17.9144H55.6232L61.0131 30.5026H58.0699L56.953 27.8431H51.7404L50.6234 30.5026H47.6803ZM54.3467 21.6199L52.751 25.3964H55.9246L54.3467 21.6199ZM63.6748 30.5026L59.7919 21.6377H62.7528L64.8981 27.0275L67.0612 21.6377H70.0398L66.1569 30.5026H63.6748ZM75.2908 30.6089C74.2507 30.6089 73.3937 30.3253 72.72 29.7579C72.0581 29.1787 71.7271 28.3454 71.7271 27.258V23.9603H69.9542V21.6377H71.7271V19.1732H74.4043V21.6377H76.8865V23.9603H74.4043V26.7084C74.4043 27.2403 74.5225 27.6244 74.7589 27.8608C74.9953 28.0972 75.3795 28.2154 75.9114 28.2154C76.3132 28.2154 76.6383 28.1622 76.8865 28.0559V30.4316C76.4965 30.5498 75.9646 30.6089 75.2908 30.6089ZM85.5137 29.3679C84.6036 30.2543 83.5043 30.6976 82.216 30.6976C80.9276 30.6976 79.8284 30.2543 78.9182 29.3679C78.0081 28.4695 77.553 27.3703 77.553 26.0701C77.553 24.7699 78.0081 23.6766 78.9182 22.7901C79.8284 21.8918 80.9276 21.4426 82.216 21.4426C83.5043 21.4426 84.6036 21.8918 85.5137 22.7901C86.4238 23.6766 86.8789 24.7699 86.8789 26.0701C86.8789 27.3703 86.4238 28.4695 85.5137 29.3679ZM80.7976 27.6126C81.1758 28.0027 81.6486 28.1977 82.216 28.1977C82.7833 28.1977 83.2502 28.0027 83.6166 27.6126C83.9949 27.2226 84.184 26.7084 84.184 26.0701C84.184 25.4318 83.9949 24.9177 83.6166 24.5276C83.2502 24.1376 82.7833 23.9425 82.216 23.9425C81.6486 23.9425 81.1758 24.1376 80.7976 24.5276C80.4312 24.9177 80.248 25.4318 80.248 26.0701C80.248 26.7084 80.4312 27.2226 80.7976 27.6126Z" fill="url(#paint1_linear_162_573)"/>
<defs>
<linearGradient id="paint0_linear_162_573" x1="21.5" y1="7.99866" x2="21.5" y2="23.9987" gradientUnits="userSpaceOnUse">
<stop stop-color="#51E08A"/>
<stop offset="1" stop-color="#14A34D"/>
</linearGradient>
<linearGradient id="paint1_linear_162_573" x1="67.698" y1="20.7526" x2="67.698" y2="27.2526" gradientUnits="userSpaceOnUse">
<stop stop-color="#51E08A"/>
<stop offset="1" stop-color="#14A34D"/>
</linearGradient>
<clipPath id="clip0_162_573">
<rect width="43" height="32" fill="white"/>
</clipPath>
</defs>
</svg>
