<svg width="28" height="27" viewBox="0 0 28 27" fill="none" xmlns="http://www.w3.org/2000/svg">
<path fill-rule="evenodd" clip-rule="evenodd" d="M14 27C21.732 27 28 20.9558 28 13.5C28 6.04416 21.732 0 14 0C6.26801 0 0 6.04416 0 13.5C0 20.9558 6.26801 27 14 27ZM14 1.6875C14.4832 1.6875 14.875 2.06526 14.875 2.53125V12.6562H21.875C22.3582 12.6562 22.75 13.034 22.75 13.5C22.75 13.966 22.3582 14.3438 21.875 14.3438H13.7437L6.43436 21.3921C6.2635 21.5568 5.9865 21.5568 5.81564 21.3921C5.64479 21.2273 5.64479 20.9602 5.81564 20.7954L13.125 13.7471V2.53125C13.125 2.06526 13.5168 1.6875 14 1.6875Z" fill="url(#paint0_linear_411_41)"/>
<defs>
<linearGradient id="paint0_linear_411_41" x1="28" y1="2.42209" x2="12.5292" y2="16.6437" gradientUnits="userSpaceOnUse">
<stop stop-color="#88CC00"/>
<stop offset="1" stop-color="#00A36D"/>
</linearGradient>
</defs>
</svg>
