<svg width="28" height="27" viewBox="0 0 28 27" fill="none" xmlns="http://www.w3.org/2000/svg">
<path fill-rule="evenodd" clip-rule="evenodd" d="M0.381477 6.34278C0 7.06473 0 8.00982 0 9.9V17.1C0 18.9902 0 19.9353 0.381477 20.6572C0.717034 21.2923 1.25247 21.8086 1.91103 22.1321C2.65972 22.5 3.63982 22.5 5.6 22.5H22.4C24.3602 22.5 25.3403 22.5 26.089 22.1321C26.7475 21.8086 27.283 21.2923 27.6185 20.6572C28 19.9353 28 18.9902 28 17.1V9.9C28 8.00982 28 7.06473 27.6185 6.34278C27.283 5.70774 26.7475 5.19143 26.089 4.86785C25.3403 4.5 24.3602 4.5 22.4 4.5H5.6C3.63982 4.5 2.65972 4.5 1.91103 4.86785C1.25247 5.19143 0.717034 5.70774 0.381477 6.34278ZM8.16667 14.625C9.50833 14.625 11.6667 12.5437 11.6667 11.25C11.6667 9.95625 9.50833 7.875 8.16667 7.875C6.825 7.875 4.66667 9.95625 4.66667 11.25C4.66667 12.5437 6.825 14.625 8.16667 14.625ZM8.16667 15.75C6.52052 15.75 4.25965 17.3166 2.75783 19.125H13.5755C12.0737 17.3166 9.81283 15.75 8.16667 15.75ZM15.1667 9C15.1667 8.37868 15.689 7.875 16.3333 7.875H23.3333C23.9777 7.875 24.5 8.37868 24.5 9C24.5 9.62132 23.9777 10.125 23.3333 10.125H16.3333C15.689 10.125 15.1667 9.62132 15.1667 9ZM17.5 13.5C17.5 12.8787 18.0223 12.375 18.6667 12.375H23.3333C23.9777 12.375 24.5 12.8787 24.5 13.5C24.5 14.1213 23.9777 14.625 23.3333 14.625H18.6667C18.0223 14.625 17.5 14.1213 17.5 13.5Z" fill="#00CC52"/>
</svg>
