<svg width="28" height="27" viewBox="0 0 28 27" fill="none" xmlns="http://www.w3.org/2000/svg">
<path fill-rule="evenodd" clip-rule="evenodd" d="M17.3248 6.88829e-10C18.3049 6.88829e-10 18.7953 -0.000180169 19.1697 0.183746C19.4989 0.345522 19.7667 0.60374 19.9344 0.921204C20.1252 1.28218 20.125 1.75508 20.125 2.70016V16.0312H21C21.3505 16.0312 21.6978 16.0238 22.004 16.1029C22.7587 16.298 23.3483 16.8667 23.5507 17.5943C23.6327 17.8896 23.625 18.2245 23.625 18.5625V18.9844C23.625 19.2173 23.8209 19.4062 24.0625 19.4062C24.3041 19.4062 24.5 19.2173 24.5 18.9844V10.125H24.3496C22.983 10.1249 21.8752 9.05656 21.875 7.73877C21.875 7.10599 22.1357 6.49878 22.5996 6.05127L23.8788 4.81696C23.7873 4.7261 23.6728 4.61416 23.5259 4.47253L22.1313 3.12781L22.0715 3.06354C21.7913 2.73215 21.811 2.24359 22.1313 1.93469C22.473 1.60523 23.027 1.60523 23.3687 1.93469L24.7632 3.27942C25.1876 3.68864 25.5049 3.98707 25.7339 4.34729C25.9257 4.64918 26.0677 4.97861 26.1534 5.32288C26.2558 5.73385 26.25 6.16121 26.25 6.74011V18.9844C26.25 20.1493 25.2706 21.0938 24.0625 21.0938C22.8544 21.0938 21.875 20.1493 21.875 18.9844V18.5625C21.875 18.359 21.8752 18.2343 21.8707 18.1398C21.8669 18.0582 21.8605 18.031 21.8605 18.031C21.82 17.8857 21.7019 17.7718 21.5511 17.7328C21.5511 17.7328 21.5233 17.7266 21.4384 17.7229C21.3404 17.7186 21.2111 17.7188 21 17.7188H20.125V21.9548C20.5545 21.976 20.8623 22.0234 21.1299 22.1303C21.7728 22.3872 22.2836 22.8798 22.55 23.4998C22.7499 23.9649 22.75 24.555 22.75 25.7344C22.75 26.1275 22.75 26.3242 22.6833 26.4792C22.5945 26.6859 22.4243 26.8501 22.21 26.9357C22.0492 27 21.8452 27 21.4375 27H3.0625C2.6548 27 2.45084 27 2.29004 26.9357C2.07573 26.8501 1.90546 26.6859 1.81665 26.4792C1.75004 26.3242 1.75 26.1275 1.75 25.7344C1.75 24.555 1.75013 23.9649 1.94995 23.4998C2.21637 22.8798 2.72719 22.3872 3.37012 22.1303C3.63775 22.0234 3.94549 21.976 4.375 21.9548V2.70016C4.375 1.75508 4.37481 1.28218 4.56555 0.921204C4.73332 0.60374 5.0011 0.345522 5.33032 0.183746C5.70467 -0.000180169 6.19508 6.88829e-10 7.17517 6.88829e-10H17.3248ZM14.8553 13.5593C14.8412 13.5659 14.8292 13.5871 14.8066 13.6285C13.9262 15.2454 12.5414 16.3563 12.5414 18.0005C12.5417 19.2429 13.5866 20.2499 14.875 20.25C16.1233 20.2499 17.1426 19.3046 17.2052 18.1159L17.2086 18.0005C17.2086 16.3563 15.8238 15.2454 14.9434 13.6285C14.9207 13.5869 14.9089 13.5658 14.8947 13.5593C14.882 13.5537 14.868 13.5537 14.8553 13.5593ZM8.89954 13.5C8.74154 13.5 8.66217 13.4998 8.59534 13.5255C8.53632 13.5484 8.48412 13.5858 8.44409 13.6335C8.39877 13.6875 8.37523 13.7605 8.32874 13.9062L7.36572 16.9236C7.3407 17.002 7.32811 17.0416 7.33667 17.0728C7.3443 17.1001 7.36303 17.1236 7.38794 17.1387C7.41637 17.1558 7.45896 17.156 7.54431 17.156H8.88159C8.93531 17.156 8.96248 17.1566 8.97986 17.1675C8.99498 17.177 9.0057 17.1917 9.00977 17.2087C9.01436 17.2281 9.00582 17.2525 8.98755 17.301L8.01172 19.8883C7.97294 19.9911 7.95345 20.0429 7.96301 20.0605C7.97123 20.0754 7.98738 20.0846 8.00488 20.0844C8.02551 20.0838 8.0636 20.043 8.13818 19.9608L11.7416 15.9892C11.8104 15.9134 11.8448 15.8747 11.8458 15.8426C11.8466 15.8147 11.8339 15.7877 11.8116 15.7701C11.7857 15.75 11.7334 15.7503 11.6296 15.7503H10.3898C10.3299 15.7503 10.2993 15.7501 10.2812 15.7379C10.2656 15.7273 10.255 15.7108 10.2522 15.6926C10.249 15.6716 10.263 15.6455 10.2898 15.5937L11.1588 13.9169C11.2302 13.7793 11.2663 13.7101 11.2579 13.6541C11.2504 13.6051 11.2222 13.5605 11.1802 13.5321C11.132 13.4997 11.0518 13.5 10.8922 13.5H8.89954ZM6.125 10.125H18.375V1.6875H6.125V10.125Z" fill="url(#paint0_linear_110_474)"/>
<defs>
<linearGradient id="paint0_linear_110_474" x1="23.625" y1="16.875" x2="4.375" y2="16.875" gradientUnits="userSpaceOnUse">
<stop stop-color="#6600FF"/>
<stop offset="1" stop-color="#9D5CFF"/>
</linearGradient>
</defs>
</svg>
