<svg width="16" height="16" viewBox="0 0 16 16" fill="none" xmlns="http://www.w3.org/2000/svg">
<path d="M8 14C11.3137 14 14 11.3137 14 8C14 4.6863 11.3137 2 8 2C4.68629 2 2 4.6863 2 8C2 11.3137 4.68629 14 8 14Z" stroke="white" stroke-linecap="round" stroke-linejoin="round"/>
<path d="M3 6H13" stroke="white" stroke-linecap="round" stroke-linejoin="round"/>
<path d="M3 10H13" stroke="white" stroke-linecap="round" stroke-linejoin="round"/>
<path d="M8 2C9.25065 3.64302 9.9614 5.77522 10 8C9.9614 10.2248 9.25065 12.357 8 14C6.74936 12.357 6.03862 10.2248 6 8C6.03862 5.77522 6.74936 3.64302 8 2Z" stroke="white" stroke-linecap="round" stroke-linejoin="round"/>
</svg>
