<svg width="14" height="16" viewBox="0 0 14 16" fill="none" xmlns="http://www.w3.org/2000/svg">
<path d="M2.31126 0.406667L10.3979 5.43733L8.6646 7.31267L2.31126 0.406667ZM0.635889 0L8.05891 8L0.636505 16C0.258792 15.8193 0 15.4173 0 14.95C0 14.9347 0 14.9193 0.000616172 14.9047V14.9067V1.094C0 1.08133 0 1.066 0 1.05067C0 0.583333 0.258792 0.181333 0.629727 0.00333333L0.636505 0.000666667L0.635889 0ZM12.9113 7.06267C13.1664 7.26733 13.3296 7.59267 13.3296 7.95867C13.3296 7.97333 13.3296 7.98733 13.329 8.002V8C13.3315 8.02867 13.3333 8.06267 13.3333 8.09667C13.3333 8.44067 13.1793 8.746 12.9414 8.93533L12.939 8.93733L11.2057 9.99933L9.32884 8L11.2063 5.96867L12.9113 7.06267ZM2.31126 15.5933L8.66522 8.68733L10.3985 10.5627L2.31126 15.5933Z" fill="white"/>
</svg>
