<svg width="28" height="27" viewBox="0 0 28 27" fill="none" xmlns="http://www.w3.org/2000/svg">
<g clip-path="url(#clip0_162_438)">
<path fill-rule="evenodd" clip-rule="evenodd" d="M14 27C21.732 27 28 20.9558 28 13.5C28 6.04416 21.732 0 14 0C6.26801 0 0 6.04416 0 13.5C0 20.9558 6.26801 27 14 27ZM16.1213 6.54545C16.1213 5.41578 15.1716 4.5 14.0001 4.5C12.8286 4.5 11.8789 5.41578 11.8789 6.54545L12.7274 15.5455C12.7274 16.2233 13.2972 16.7727 14.0001 16.7727C14.703 16.7727 15.2728 16.2233 15.2728 15.5455L16.1213 6.54545ZM16.1213 20.4545C16.1213 21.5842 15.1716 22.5 14.0001 22.5C12.8286 22.5 11.8789 21.5842 11.8789 20.4545C11.8789 19.3249 12.8286 18.4091 14.0001 18.4091C15.1716 18.4091 16.1213 19.3249 16.1213 20.4545Z" fill="#0077FF"/>
</g>
<defs>
<clipPath id="clip0_162_438">
<rect width="28" height="27" fill="white"/>
</clipPath>
</defs>
</svg>
