<svg width="374" height="153" viewBox="0 0 374 153" fill="none" xmlns="http://www.w3.org/2000/svg">
<g clip-path="url(#clip0_162_280)">
<path d="M364.55 36.4161C369.354 41.0296 372.29 47.2331 372.031 53.44C370.959 79.2238 369.886 105.006 368.814 130.789C368.359 141.723 358.186 148.527 346.077 146.276C293.101 136.399 239.966 130.306 186.677 127.994C133.386 125.682 79.9373 127.152 26.3314 132.405C24.4121 132.592 22.5585 132.562 20.7991 132.336C21.9549 132.321 23.1392 132.225 24.3444 132.038C77.5188 123.785 130.769 119.32 184.093 118.64C237.414 117.959 290.813 121.063 344.286 127.955C356.508 129.524 366.244 122.158 366.028 111.214C365.535 86.281 365.042 61.3494 364.55 36.4161Z" fill="url(#paint0_radial_162_280)"/>
<g filter="url(#filter0_d_162_280)">
<path d="M0.425071 38.4391C0.209102 27.5047 9.87995 16.8822 22.0338 15.0021C75.2082 6.74912 128.457 2.28428 181.781 1.60373C235.103 0.923209 288.502 4.02695 341.975 10.9189C354.197 12.4879 364.283 22.8582 364.499 33.7925C365.009 59.6005 365.518 85.4066 366.028 111.215C366.244 122.159 356.509 129.524 344.287 127.955C290.814 121.063 237.415 117.959 184.093 118.64C130.769 119.32 77.5199 123.785 24.3455 132.038C12.1916 133.918 2.17043 126.805 1.95427 115.861C1.44452 90.0531 0.934816 64.247 0.425071 38.4391Z" fill="url(#paint1_radial_162_280)" fill-opacity="0.05" shape-rendering="crispEdges"/>
<path d="M0.425071 38.4391C0.209102 27.5047 9.87995 16.8822 22.0338 15.0021C75.2082 6.74912 128.457 2.28428 181.781 1.60373C235.103 0.923209 288.502 4.02695 341.975 10.9189C354.197 12.4879 364.283 22.8582 364.499 33.7925C365.009 59.6005 365.518 85.4066 366.028 111.215C366.244 122.159 356.509 129.524 344.287 127.955C290.814 121.063 237.415 117.959 184.093 118.64C130.769 119.32 77.5199 123.785 24.3455 132.038C12.1916 133.918 2.17043 126.805 1.95427 115.861C1.44452 90.0531 0.934816 64.247 0.425071 38.4391Z" fill="url(#paint2_radial_162_280)" fill-opacity="0.3" shape-rendering="crispEdges"/>
<path d="M0.425071 38.4391C0.209102 27.5047 9.87995 16.8822 22.0338 15.0021C75.2082 6.74912 128.457 2.28428 181.781 1.60373C235.103 0.923209 288.502 4.02695 341.975 10.9189C354.197 12.4879 364.283 22.8582 364.499 33.7925C365.009 59.6005 365.518 85.4066 366.028 111.215C366.244 122.159 356.509 129.524 344.287 127.955C290.814 121.063 237.415 117.959 184.093 118.64C130.769 119.32 77.5199 123.785 24.3455 132.038C12.1916 133.918 2.17043 126.805 1.95427 115.861C1.44452 90.0531 0.934816 64.247 0.425071 38.4391Z" stroke="url(#paint3_linear_162_280)" stroke-width="1.11292" stroke-linejoin="round" shape-rendering="crispEdges"/>
</g>
<path d="M47.2856 64.9566L44.5414 43.7728L57.9715 42.005L58.559 46.5401L49.8742 47.6833L50.365 51.4725L57.2592 50.565L57.8467 55.1001L50.9525 56.0076L51.4434 59.7968L60.1282 58.6536L60.7157 63.1888L47.2856 64.9566ZM67.9731 62.3255L59.7011 48.1508L64.6937 47.5641L69.3598 56.225L71.9583 46.7104L76.9808 46.1202L72.1585 61.8336L67.9731 62.3255ZM87.0814 60.5473C84.7658 60.7845 82.7853 60.2413 81.1399 58.9178C79.5145 57.5922 78.5876 55.7918 78.3594 53.5166C78.1351 51.2813 78.6974 49.3485 80.0464 47.7183C81.4154 46.0859 83.2377 45.1532 85.5135 44.9201C86.6114 44.8077 87.6585 44.8919 88.6547 45.173C89.6709 45.452 90.5844 45.9129 91.3951 46.5557C92.2258 47.1965 92.9078 48.0643 93.4411 49.1589C93.9745 50.2536 94.2933 51.5215 94.3975 52.9625L82.8692 54.1434C83.0312 54.9535 83.4596 55.6053 84.1544 56.0987C84.8473 56.5721 85.7727 56.7495 86.9305 56.6309C87.5892 56.5634 88.1751 56.3724 88.688 56.0577C89.199 55.7231 89.5243 55.347 89.6639 54.9294L94.395 54.4448C94.0741 56.0706 93.2441 57.446 91.9049 58.5712C90.5657 59.6964 88.9579 60.3551 87.0814 60.5473ZM85.7541 48.5248C84.8957 48.6128 84.1991 48.9059 83.6643 49.4043C83.1494 49.9006 82.8282 50.5183 82.7006 51.2572L89.1086 50.6008C88.8069 49.805 88.3376 49.2482 87.7007 48.9303C87.0817 48.5905 86.4329 48.4553 85.7541 48.5248ZM97.8513 59.1371L96.5547 44.1489L101.082 43.7477L101.276 45.996C101.458 45.2952 101.858 44.6858 102.478 44.1678C103.096 43.6297 103.815 43.3243 104.634 43.2517C105.154 43.2057 105.649 43.2222 106.119 43.3014L106.516 47.8878C105.795 47.7099 105.115 47.6494 104.476 47.7061C103.516 47.7911 102.796 48.1972 102.315 48.9245C101.853 49.63 101.669 50.5324 101.764 51.6315L102.379 58.7359L97.8513 59.1371ZM116.562 63.8911L111.671 64.2638L114.263 56.8844L106.973 43.2269L111.925 42.8495L116.333 51.8381L119.338 42.2847L124.32 41.9051L116.562 63.8911ZM134.91 56.5023C133.148 56.6116 131.667 56.221 130.468 55.3307C129.287 54.4191 128.642 53.0421 128.532 51.1999L128.197 45.6132L125.193 45.7995L124.957 41.8648L127.961 41.6785L127.711 37.5035L132.247 37.2221L132.497 41.3972L136.703 41.1363L136.939 45.071L132.733 45.3319L133.012 49.9875C133.066 50.8886 133.305 51.5269 133.73 51.9026C134.154 52.2782 134.817 52.4381 135.718 52.3822C136.399 52.3399 136.945 52.2157 137.354 52.0094L137.595 56.0342C136.947 56.2754 136.051 56.4315 134.91 56.5023ZM145.01 55.781L140.471 56.0015L139.423 33.4578L143.962 33.2372L144.383 42.2848C145.187 41.0005 146.551 40.3117 148.475 40.2182C150.299 40.1296 151.75 40.6716 152.829 41.8444C153.928 43.0161 154.524 44.6039 154.617 46.6078L155.02 55.2947L150.481 55.5152L150.114 47.6099C150.01 45.3855 149.147 44.3128 147.524 44.3917C146.622 44.4355 145.906 44.8017 145.375 45.4902C144.845 46.1788 144.61 47.1743 144.671 48.4768L145.01 55.781ZM160.211 37.9787C159.449 38.0071 158.778 37.761 158.198 37.2406C157.616 36.7002 157.312 36.039 157.285 35.2571C157.257 34.4752 157.515 33.8031 158.057 33.2409C158.599 32.6587 159.251 32.3534 160.013 32.325C160.815 32.2951 161.496 32.5508 162.057 33.092C162.638 33.6124 162.941 34.2636 162.969 35.0455C162.996 35.8274 162.739 36.5095 162.198 37.0917C161.675 37.6532 161.013 37.9489 160.211 37.9787ZM158.555 55.1441L158.027 40.1076L162.569 39.9386L163.096 54.9751L158.555 55.1441ZM166.838 54.8578L166.487 39.8157L171.03 39.7001L171.066 41.2344C171.899 39.969 173.279 39.3118 175.204 39.2628C177.03 39.2163 178.468 39.7918 179.519 40.9892C180.591 42.1861 181.15 43.7873 181.197 45.7929L181.4 54.4872L176.857 54.6028L176.672 46.6907C176.62 44.4645 175.782 43.3721 174.157 43.4134C173.255 43.4364 172.53 43.7859 171.984 44.462C171.438 45.1382 171.18 46.1281 171.211 47.4317L171.381 54.7422L166.838 54.8578ZM192.083 60.9566C189.976 60.975 188.247 60.4384 186.896 59.3467C185.564 58.275 184.833 56.9071 184.702 55.243L189.125 55.2043C189.596 56.5444 190.613 57.2076 192.178 57.194C193.021 57.1866 193.731 56.9095 194.309 56.3628C194.888 55.8361 195.173 55.0712 195.167 54.0681L195.155 52.2926C194.798 52.8375 194.249 53.2836 193.509 53.6312C192.789 53.9786 191.977 54.1562 191.075 54.1641C189.149 54.1809 187.489 53.4631 186.095 52.0107C184.7 50.5382 183.996 48.7488 183.982 46.6423C183.969 44.5358 184.649 42.7442 186.023 41.2676C187.398 39.771 189.048 39.0142 190.974 38.9974C191.877 38.9895 192.691 39.1529 193.415 39.4876C194.16 39.8222 194.714 40.2587 195.079 40.7972L195.069 39.2926L199.613 39.2529L199.707 53.3663C199.715 54.7105 199.503 55.886 199.068 56.893C198.653 57.8997 198.076 58.6872 197.338 59.2555C196.619 59.8235 195.82 60.2418 194.939 60.5103C194.058 60.7989 193.106 60.9477 192.083 60.9566ZM189.596 49.091C190.283 49.7271 191.097 50.0409 192.04 50.0327C192.983 50.0245 193.794 49.6964 194.471 49.0484C195.149 48.4005 195.485 47.5649 195.478 46.5418C195.471 45.5186 195.125 44.6891 194.438 44.053C193.752 43.417 192.937 43.1031 191.995 43.1114C191.052 43.1196 190.241 43.4477 189.563 44.0957C188.885 44.7436 188.55 45.5791 188.557 46.6023C188.563 47.6254 188.91 48.455 189.596 49.091ZM211.895 54.3418L212.034 43.2377L209.025 43.2065L209.074 39.2644L212.084 39.2957L212.104 37.6406C212.127 35.7949 212.717 34.3364 213.874 33.2649C215.052 32.1736 216.503 31.6369 218.228 31.6548C219.312 31.6661 220.213 31.7858 220.932 32.014L220.882 36.0162C220.463 35.8313 219.923 35.7354 219.261 35.7285C218.338 35.7189 217.673 35.9127 217.267 36.3098C216.861 36.7068 216.652 37.3567 216.641 38.2595L216.627 39.3428L220.84 39.3866L220.791 43.3286L216.578 43.2849L216.439 54.3889L211.895 54.3418ZM235.148 52.8579C233.564 54.3247 231.679 55.0315 229.493 54.9784C227.307 54.9253 225.462 54.1279 223.957 52.5862C222.453 51.0244 221.73 49.1403 221.789 46.9341C221.847 44.7279 222.668 42.8914 224.252 41.4247C225.837 39.9379 227.722 39.221 229.908 39.2741C232.094 39.3272 233.939 40.1346 235.443 41.6964C236.948 43.2382 237.671 45.1122 237.613 47.3184C237.554 49.5246 236.733 51.3711 235.148 52.8579ZM227.225 49.6852C227.849 50.3627 228.643 50.7131 229.605 50.7364C230.568 50.7598 231.369 50.4481 232.008 49.8014C232.667 49.1551 233.011 48.2904 233.04 47.2073C233.068 46.1243 232.771 45.244 232.146 44.5666C231.542 43.8896 230.759 43.5394 229.796 43.5161C228.833 43.4927 228.022 43.8041 227.363 44.4504C226.724 45.0972 226.39 45.9621 226.361 47.0452C226.333 48.1282 226.621 49.0082 227.225 49.6852ZM240.207 54.9307L240.791 39.8939L245.332 40.0606L245.245 42.3161C245.512 41.6433 245.985 41.0884 246.664 40.6516C247.345 40.1947 248.096 39.9814 248.918 40.0115C249.439 40.0307 249.928 40.1089 250.384 40.2461L250.205 44.8473C249.513 44.581 248.846 44.436 248.205 44.4125C247.242 44.3771 246.477 44.6904 245.91 45.3522C245.363 45.9947 245.068 46.8672 245.025 47.9699L244.748 55.0974L240.207 54.9307ZM263.539 62.2758L258.641 62.0087L262.171 55.0275L256.724 40.5335L261.681 40.8038L264.881 50.2922L269.102 41.2086L274.09 41.4806L263.539 62.2758ZM287.202 55.5621C285.553 56.9551 283.637 57.5751 281.456 57.4222C279.275 57.2693 277.468 56.3884 276.036 54.7793C274.605 53.1503 273.969 51.2351 274.128 49.0336C274.287 46.8321 275.191 45.0349 276.84 43.6419C278.491 42.2289 280.407 41.5988 282.588 41.7517C284.769 41.9046 286.575 42.7956 288.006 44.4246C289.439 46.0336 290.075 47.9389 289.916 50.1404C289.757 52.3418 288.853 54.1491 287.202 55.5621ZM279.432 52.0304C280.025 52.7357 280.802 53.1221 281.762 53.1894C282.723 53.2567 283.537 52.9819 284.205 52.365C284.893 51.7494 285.276 50.9013 285.354 49.8205C285.432 48.7398 285.175 47.8468 284.582 47.1414C284.009 46.4375 283.243 46.0519 282.282 45.9845C281.322 45.9172 280.498 46.1913 279.81 46.8069C279.141 47.4238 278.768 48.2727 278.69 49.3534C278.612 50.4341 278.86 51.3265 279.432 52.0304ZM297.617 58.673C295.798 58.5163 294.453 57.7861 293.581 56.4824C292.71 55.1788 292.366 53.4875 292.549 51.4087L293.303 42.8636L297.83 43.2537L297.145 51.0192C296.942 53.3179 297.61 54.5335 299.148 54.6661C301.027 54.8279 302.082 53.5996 302.313 50.9811L302.956 43.6953L307.483 44.0853L306.159 59.0767L301.633 58.6867L301.768 57.1576C300.799 58.3228 299.415 58.828 297.617 58.673ZM309.869 59.4193L311.376 44.4449L315.897 44.8905L315.671 47.1367C315.979 46.4814 316.486 45.9567 317.191 45.5624C317.898 45.1481 318.66 44.9813 319.479 45.062C319.998 45.1131 320.481 45.2212 320.928 45.3863L320.467 49.9684C319.792 49.66 319.135 49.4743 318.497 49.4113C317.538 49.3169 316.756 49.5825 316.148 50.2083C315.563 50.816 315.215 51.6689 315.105 52.767L314.39 59.8649L309.869 59.4193Z" fill="url(#paint4_linear_162_280)"/>
<path d="M85.8381 97.8735C83.5855 98.1322 81.6274 97.6002 79.9637 96.2773C78.2978 94.9345 77.3412 93.1671 77.094 90.975C76.8467 88.7829 77.3863 86.8537 78.7128 85.1873C80.0371 83.501 81.8255 82.5285 84.0781 82.2698C86.1314 82.0339 87.8899 82.4072 89.3536 83.3897C90.8173 84.3722 91.8619 85.7561 92.4873 87.5414L87.8226 88.0772C87.0075 86.7578 85.9121 86.1771 84.5367 86.3351C83.5599 86.4473 82.8007 86.8777 82.2592 87.6262C81.7154 88.3548 81.5087 89.2971 81.639 90.4529C81.7694 91.6087 82.1818 92.4899 82.8762 93.0965C83.5683 93.6831 84.4028 93.9203 85.3796 93.8081C86.755 93.6501 87.693 92.8359 88.1935 91.3653L92.8582 90.8295C92.6464 92.711 91.9367 94.2964 90.7292 95.5857C89.5217 96.875 87.8914 97.6376 85.8381 97.8735ZM102.206 96.1173C100.269 96.3094 98.547 95.7043 97.04 94.3019C95.553 92.8976 94.7058 91.1275 94.4984 88.9917C94.291 86.8558 94.7816 84.9531 95.9701 83.2834C97.1787 81.6117 98.7513 80.6798 100.688 80.4877C102.405 80.3174 103.822 80.7916 104.939 81.9102L104.793 80.4131L109.316 79.9645L110.769 94.9354L106.247 95.384L106.102 93.8869C105.221 95.2035 103.923 95.947 102.206 96.1173ZM100.238 91.1129C100.945 91.7482 101.807 92.0153 102.826 91.9143C103.844 91.8133 104.629 91.3828 105.18 90.6228C105.751 89.8608 105.984 88.9408 105.88 87.8629C105.775 86.785 105.369 85.9284 104.662 85.2931C103.976 84.6559 103.123 84.3877 102.105 84.4887C101.086 84.5897 100.292 85.0212 99.7206 85.7833C99.1694 86.5433 98.9462 87.4623 99.0509 88.5402C99.1555 89.6181 99.5513 90.4756 100.238 91.1129ZM114.494 94.5902L113.233 79.6014L117.761 79.2111L117.95 81.4595C118.133 80.7593 118.534 80.1509 119.155 79.6344C119.775 79.0979 120.494 78.7943 121.314 78.7237C121.834 78.6789 122.328 78.6966 122.798 78.7769L123.184 83.3635C122.464 83.184 121.784 83.1218 121.145 83.1769C120.185 83.2596 119.464 83.664 118.982 84.39C118.517 85.0943 118.331 85.9961 118.424 87.0952L119.021 94.1999L114.494 94.5902ZM133.761 75.9044C133 75.9585 132.321 75.7353 131.724 75.2349C131.124 74.7145 130.798 74.0641 130.744 73.2838C130.69 72.5034 130.925 71.8232 131.448 71.2432C131.97 70.6431 132.611 70.316 133.372 70.262C134.172 70.2051 134.862 70.4376 135.441 70.9594C136.038 71.4598 136.364 72.1002 136.418 72.8805C136.472 73.6609 136.238 74.3511 135.716 74.9511C135.213 75.5298 134.561 75.8475 133.761 75.9044ZM132.685 93.1119L131.65 78.1053L136.183 77.7832L137.218 92.7897L132.685 93.1119ZM140.953 92.5462L140.095 77.5282L144.631 77.2594L144.719 78.7912C145.509 77.4987 146.866 76.7954 148.788 76.6815C150.611 76.5735 152.068 77.0999 153.159 78.2609C154.27 79.4206 154.883 81.0017 154.998 83.0041L155.494 91.6845L150.958 91.9534L150.506 84.0539C150.379 81.8312 149.504 80.7679 147.882 80.8641C146.981 80.9175 146.269 81.2912 145.746 81.9852C145.223 82.6793 144.998 83.6771 145.073 84.9786L145.49 92.2774L140.953 92.5462ZM178.283 88.8056C176.791 90.3655 174.953 91.1856 172.767 91.2656C170.582 91.3457 168.692 90.6623 167.096 89.2154C165.499 87.7485 164.663 85.9126 164.587 83.7075C164.511 81.5025 165.219 79.62 166.711 78.06C168.202 76.4799 170.04 75.6499 172.225 75.5698C174.411 75.4898 176.302 76.1832 177.898 77.6501C179.494 79.097 180.33 80.9229 180.406 83.1279C180.482 85.333 179.774 87.2255 178.283 88.8056ZM170.181 86.1219C170.845 86.7599 171.659 87.0612 172.621 87.026C173.583 86.9907 174.364 86.6309 174.963 85.9467C175.581 85.2616 175.872 84.3779 175.835 83.2954C175.797 82.213 175.446 81.3527 174.782 80.7147C174.138 80.076 173.334 79.7742 172.372 79.8095C171.409 79.8448 170.619 80.2049 170 80.8899C169.402 81.5742 169.121 82.4576 169.158 83.54C169.196 84.6225 169.536 85.4831 170.181 86.1219ZM183.459 90.5725L183.18 75.5313L187.723 75.4373L187.751 76.9715C188.591 75.7103 189.973 75.0597 191.899 75.0199C193.724 74.9821 195.159 75.5643 196.205 76.7665C197.271 77.9683 197.822 79.5719 197.859 81.5774L198.021 90.2712L193.478 90.3652L193.331 82.4536C193.29 80.2275 192.457 79.1312 190.832 79.1648C189.929 79.1835 189.204 79.5296 188.654 80.203C188.105 80.8764 187.842 81.8649 187.867 83.1685L188.002 90.4785L183.459 90.5725ZM208.63 90.5271C206.303 90.5376 204.385 89.8041 202.877 88.3266C201.389 86.849 200.642 84.9668 200.637 82.6801C200.632 80.4335 201.379 78.5646 202.88 77.0734C204.401 75.5821 206.305 74.8313 208.592 74.8209C209.696 74.8159 210.729 75.0018 211.693 75.3785C212.677 75.7552 213.541 76.3029 214.285 77.0216C215.049 77.7403 215.643 78.6704 216.067 79.8118C216.491 80.9533 216.685 82.2462 216.648 83.6906L205.063 83.7432C205.145 84.5652 205.508 85.2556 206.151 85.8144C206.794 86.3531 207.698 86.6198 208.861 86.6145C209.523 86.6115 210.125 86.4784 210.666 86.2151C211.207 85.9319 211.567 85.5892 211.747 85.1872L216.501 85.1657C216.023 86.7525 215.064 88.0406 213.622 89.0301C212.18 90.0195 210.516 90.5185 208.63 90.5271ZM208.481 78.4321C207.618 78.436 206.896 78.6599 206.316 79.1038C205.755 79.5477 205.375 80.1311 205.176 80.8541L211.616 80.8249C211.393 80.0035 210.98 79.4036 210.378 79.0252C209.795 78.6267 209.163 78.429 208.481 78.4321ZM232.312 90.6661C230.366 90.6314 228.727 89.8297 227.394 88.2611C226.081 86.6928 225.446 84.8357 225.489 82.6897C225.531 80.5437 226.24 78.7105 227.615 77.1902C229.009 75.6702 230.68 74.9275 232.625 74.9622C234.35 74.993 235.702 75.629 236.68 76.8703L236.71 75.3661L241.253 75.4472L240.953 90.4892L236.41 90.4082L236.44 88.904C235.413 90.1095 234.037 90.6969 232.312 90.6661ZM230.941 85.4654C231.569 86.1788 232.394 86.5446 233.417 86.5628C234.44 86.5811 235.269 86.2448 235.905 85.5539C236.561 84.8634 236.899 83.9766 236.921 82.8936C236.943 81.8106 236.64 80.9123 236.012 80.1989C235.404 79.4859 234.589 79.1202 233.566 79.102C232.543 79.0838 231.703 79.4199 231.048 80.1104C230.412 80.8013 230.083 81.6882 230.062 82.7713C230.04 83.8543 230.333 84.7523 230.941 85.4654ZM248.999 97.031L244.458 96.8724L245.248 75.5525L249.788 75.711L249.733 77.2146C250.071 76.7446 250.618 76.3422 251.373 76.0073C252.129 75.6523 252.968 75.4909 253.89 75.5231C255.835 75.591 257.45 76.4202 258.736 78.0107C260.042 79.602 260.655 81.4701 260.576 83.6151C260.496 85.7601 259.746 87.5807 258.326 89.0767C256.926 90.5734 255.253 91.2878 253.309 91.2199C252.387 91.1877 251.561 90.9782 250.833 90.5914C250.105 90.1846 249.59 89.7351 249.287 89.2427L248.999 97.031ZM249.982 85.9249C250.598 86.6489 251.417 87.0288 252.439 87.0645C253.461 87.1002 254.296 86.7781 254.944 86.0982C255.611 85.4189 255.965 84.538 256.005 83.4555C256.045 82.3729 255.758 81.4697 255.142 80.7456C254.547 80.0223 253.738 79.6427 252.715 79.607C251.693 79.5713 250.848 79.8931 250.18 80.5723C249.533 81.2523 249.189 82.1335 249.149 83.216C249.109 84.2986 249.387 85.2015 249.982 85.9249ZM267.331 97.7769L262.794 97.5429L263.937 76.2382L268.475 76.4722L268.394 77.9747C268.74 77.5104 269.294 77.1171 270.054 76.7947C270.816 76.4523 271.658 76.3049 272.579 76.3524C274.522 76.4526 276.123 77.3086 277.383 78.9203C278.662 80.533 279.244 82.4112 279.129 84.5546C279.014 86.6981 278.234 88.506 276.789 89.9783C275.364 91.4516 273.68 92.1381 271.737 92.0379C270.815 91.9904 269.994 91.7672 269.272 91.3684C268.551 90.9496 268.043 90.4915 267.749 89.9942L267.331 97.7769ZM268.499 86.6882C269.102 87.4224 269.915 87.8159 270.936 87.8685C271.958 87.9212 272.798 87.613 273.457 86.9439C274.135 86.2758 274.504 85.4009 274.562 84.3191C274.62 83.2374 274.347 82.3294 273.744 81.5952C273.16 80.862 272.358 80.4691 271.336 80.4164C270.315 80.3637 269.465 80.6714 268.786 81.3395C268.127 82.0086 267.769 82.8841 267.711 83.9658C267.653 85.0476 267.915 85.9551 268.499 86.6882Z" fill="url(#paint5_linear_162_280)"/>
</g>
<defs>
<filter id="filter0_d_162_280" x="-5.47702" y="0.955566" width="377.407" height="142.845" filterUnits="userSpaceOnUse" color-interpolation-filters="sRGB">
<feFlood flood-opacity="0" result="BackgroundImageFix"/>
<feColorMatrix in="SourceAlpha" type="matrix" values="0 0 0 0 0 0 0 0 0 0 0 0 0 0 0 0 0 0 127 0" result="hardAlpha"/>
<feOffset dy="5.56459"/>
<feGaussianBlur stdDeviation="2.671"/>
<feComposite in2="hardAlpha" operator="out"/>
<feColorMatrix type="matrix" values="0 0 0 0 0.0887475 0 0 0 0 0.240422 0 0 0 0 0.0467949 0 0 0 0.35 0"/>
<feBlend mode="normal" in2="BackgroundImageFix" result="effect1_dropShadow_162_280"/>
<feBlend mode="normal" in="SourceGraphic" in2="effect1_dropShadow_162_280" result="shape"/>
</filter>
<radialGradient id="paint0_radial_162_280" cx="0" cy="0" r="1" gradientTransform="matrix(368.666 -64.3841 122.722 683.723 98.967 80.2415)" gradientUnits="userSpaceOnUse">
<stop stop-color="#00401A"/>
<stop offset="1" stop-color="#51E08A"/>
</radialGradient>
<radialGradient id="paint1_radial_162_280" cx="0" cy="0" r="1" gradientTransform="matrix(-0.534013 -27.0367 232.854 -2.97181 181.989 130.363)" gradientUnits="userSpaceOnUse">
<stop stop-color="white"/>
<stop offset="1" stop-color="white" stop-opacity="0"/>
</radialGradient>
<radialGradient id="paint2_radial_162_280" cx="0" cy="0" r="1" gradientTransform="matrix(-143.364 -48.4161 103.635 -86.3691 208.663 137.982)" gradientUnits="userSpaceOnUse">
<stop stop-color="#86EF7C"/>
<stop offset="0.519231" stop-color="#15AF22"/>
<stop offset="1" stop-color="#141715"/>
</radialGradient>
<linearGradient id="paint3_linear_162_280" x1="49.2386" y1="-27.658" x2="301.627" y2="104.471" gradientUnits="userSpaceOnUse">
<stop stop-color="white" stop-opacity="0.15"/>
<stop offset="0.552885" stop-color="white" stop-opacity="0.5"/>
<stop offset="1" stop-color="white" stop-opacity="0.15"/>
</linearGradient>
<linearGradient id="paint4_linear_162_280" x1="23.34" y1="57.3995" x2="360.064" y2="58.1731" gradientUnits="userSpaceOnUse">
<stop stop-color="white"/>
<stop offset="1" stop-color="#D8D8D8"/>
</linearGradient>
<linearGradient id="paint5_linear_162_280" x1="80.164" y1="95.032" x2="353.599" y2="77.4439" gradientUnits="userSpaceOnUse">
<stop stop-color="#51E08A"/>
<stop offset="1" stop-color="#0EAB4D"/>
</linearGradient>
<clipPath id="clip0_162_280">
<rect width="374" height="153" fill="white"/>
</clipPath>
</defs>
</svg>
