<svg width="196" height="68" viewBox="0 0 196 68" fill="none" xmlns="http://www.w3.org/2000/svg">
<g clip-path="url(#clip0_138_64)">
<path fill-rule="evenodd" clip-rule="evenodd" d="M3.481 26.3949L4.13773 25.4952C1.84105 25.4278 0 23.5517 0 21.2471C0 18.8999 1.90979 16.9971 4.26562 16.9971H10.3409L14.5733 11.1988C17.5692 7.09457 19.0671 5.04245 20.9854 3.56095C22.6842 2.24895 24.6166 1.26857 26.6807 0.671398C29.0115 -0.00292969 31.5583 -0.00292969 36.6518 -0.00292969H54.3482C59.4417 -0.00292969 61.9885 -0.00292969 64.3193 0.671398C66.3834 1.26857 68.3158 2.24895 70.0146 3.56095C71.9329 5.04245 73.4308 7.09457 76.4267 11.1988L80.6591 16.9971H86.7344C89.0902 16.9971 91 18.8999 91 21.2471C91 23.5517 89.1589 25.4278 86.8623 25.4952L87.519 26.3949C88.8112 28.1651 89.4573 29.0503 89.9158 30.0202C90.3227 30.881 90.6191 31.7893 90.7982 32.7239C91 33.777 91 34.8715 91 37.0604V62.5571C91 64.4613 91 65.4133 90.6281 66.1406C90.3009 66.7804 89.7788 67.3005 89.1367 67.6265C88.4068 67.9971 87.4512 67.9971 85.54 67.9971H76.5537C74.6426 67.9971 73.687 67.9971 72.957 67.6265C72.3149 67.3005 71.7929 66.7804 71.4657 66.1406C71.0938 65.4133 71.0938 64.4613 71.0938 62.5571V56.6637H19.9062V62.527C19.9062 64.4407 19.9062 65.3975 19.5317 66.1268C19.2023 66.7683 18.6769 67.289 18.0312 67.6136C17.2972 67.9827 16.3368 67.9774 14.4161 67.9669L5.42986 67.9175C3.52822 67.907 2.5774 67.9018 1.85152 67.5297C1.21298 67.2025 0.694318 66.6829 0.369379 66.0449C0 65.3196 0 64.3722 0 62.4775V37.0604C0 34.8715 0 33.777 0.201788 32.7239C0.380859 31.7893 0.677333 30.881 1.08421 30.0202C1.54271 29.0503 2.18881 28.1651 3.481 26.3949ZM14.8525 22.6298L21.5717 13.2573C23.5655 10.4763 24.5623 9.08578 25.8469 8.08136C26.9845 7.19191 28.2818 6.52672 29.6695 6.12143C31.2365 5.66374 32.9515 5.66374 36.3817 5.66374H54.6183C58.0485 5.66374 59.7636 5.66374 61.3306 6.12143C62.7182 6.52672 64.0155 7.19191 65.1531 8.08136C66.4377 9.08578 67.4346 10.4763 69.4283 13.2573L76.1475 22.6298C76.8118 23.5563 77.1439 24.0195 77.1295 24.4057C77.117 24.742 76.9551 25.0553 76.6878 25.2609C76.3807 25.4971 75.8093 25.4971 74.6665 25.4971H16.3335C15.1907 25.4971 14.6193 25.4971 14.3122 25.2609C14.0449 25.0553 13.8831 24.742 13.8705 24.4057C13.8562 24.0195 14.1883 23.5563 14.8525 22.6298ZM28.4375 41.0804C28.4375 44.8818 22.2997 50.9971 18.4844 50.9971C14.669 50.9971 8.53125 44.8818 8.53125 41.0804C8.53125 37.279 14.669 31.1637 18.4844 31.1637C22.2997 31.1637 28.4375 37.279 28.4375 41.0804ZM72.5156 50.9971C76.331 50.9971 82.4688 44.8818 82.4688 41.0804C82.4688 37.279 76.331 31.1637 72.5156 31.1637C68.7003 31.1637 62.5625 37.279 62.5625 41.0804C62.5625 44.8818 68.7003 50.9971 72.5156 50.9971Z" fill="url(#paint0_linear_138_64)"/>
</g>
<path d="M112.097 31.2216C109.259 31.2216 106.898 30.2797 105.014 28.3959C103.13 26.487 102.189 24.1511 102.189 21.3882C102.189 18.6253 103.13 16.3019 105.014 14.4181C106.898 12.5092 109.259 11.5548 112.097 11.5548C114.684 11.5548 116.819 12.2706 118.502 13.7023C120.185 15.134 121.29 17.0052 121.818 19.316H115.94C115.111 17.5578 113.83 16.6787 112.097 16.6787C110.867 16.6787 109.862 17.1057 109.083 17.9597C108.305 18.7885 107.915 19.9314 107.915 21.3882C107.915 22.845 108.305 24.0004 109.083 24.8543C109.862 25.6832 110.867 26.0977 112.097 26.0977C113.83 26.0977 115.111 25.2185 115.94 23.4603H121.818C121.29 25.7711 120.185 27.6424 118.502 29.074C116.819 30.5057 114.684 31.2216 112.097 31.2216ZM124.347 30.8071V2.55026H130.036V30.8071H124.347ZM136.794 9.40726C135.84 9.40726 135.011 9.06818 134.308 8.39002C133.604 7.68673 133.253 6.84531 133.253 5.86573C133.253 4.88616 133.604 4.0573 134.308 3.37913C135.011 2.67585 135.84 2.32421 136.794 2.32421C137.799 2.32421 138.64 2.67585 139.319 3.37913C140.022 4.0573 140.374 4.88616 140.374 5.86573C140.374 6.84531 140.022 7.68673 139.319 8.39002C138.64 9.06818 137.799 9.40726 136.794 9.40726ZM133.969 30.8071V11.9692H139.658V30.8071H133.969ZM152.369 31.2216C149.531 31.2216 147.17 30.2797 145.286 28.3959C143.402 26.487 142.46 24.1511 142.46 21.3882C142.46 18.6253 143.402 16.3019 145.286 14.4181C147.17 12.5092 149.531 11.5548 152.369 11.5548C154.956 11.5548 157.091 12.2706 158.774 13.7023C160.457 15.134 161.562 17.0052 162.09 19.316H156.212C155.383 17.5578 154.102 16.6787 152.369 16.6787C151.138 16.6787 150.134 17.1057 149.355 17.9597C148.576 18.7885 148.187 19.9314 148.187 21.3882C148.187 22.845 148.576 24.0004 149.355 24.8543C150.134 25.6832 151.138 26.0977 152.369 26.0977C154.102 26.0977 155.383 25.2185 156.212 23.4603H162.09C161.562 25.7711 160.457 27.6424 158.774 29.074C157.091 30.5057 154.956 31.2216 152.369 31.2216ZM177.315 30.8071L170.308 22.4054V30.8071H164.619V2.55026H170.308V18.7132L175.808 11.9692H182.552L175.62 20.484L184.21 30.8071H177.315Z" fill="white"/>
<path d="M100.945 64.1929L112.399 37.443H117.824L129.277 64.1929H123.023L120.65 58.5415H109.573L107.199 64.1929H100.945ZM115.111 45.3173L111.721 53.3422H118.464L115.111 45.3173ZM134.934 64.1929L126.683 45.355H132.974L137.533 56.8084L142.13 45.355H148.459L140.208 64.1929H134.934ZM159.618 64.4189C157.407 64.4189 155.586 63.8161 154.155 62.6105C152.748 61.3797 152.045 59.609 152.045 57.2982V50.2905H148.277V45.355H152.045V40.118H157.734V45.355H163.008V50.2905H157.734V56.1302C157.734 57.2605 157.985 58.0768 158.487 58.5792C158.99 59.0815 159.806 59.3327 160.936 59.3327C161.79 59.3327 162.481 59.2197 163.008 58.9936V64.0422C162.18 64.2933 161.049 64.4189 159.618 64.4189ZM181.341 61.7816C179.407 63.6654 177.071 64.6073 174.334 64.6073C171.596 64.6073 169.26 63.6654 167.326 61.7816C165.392 59.8727 164.425 57.5368 164.425 54.7739C164.425 52.011 165.392 49.6877 167.326 47.8039C169.26 45.895 171.596 44.9405 174.334 44.9405C177.071 44.9405 179.407 45.895 181.341 47.8039C183.275 49.6877 184.242 52.011 184.242 54.7739C184.242 57.5368 183.275 59.8727 181.341 61.7816ZM171.32 58.0517C172.123 58.8806 173.128 59.295 174.334 59.295C175.539 59.295 176.531 58.8806 177.31 58.0517C178.114 57.2228 178.516 56.1302 178.516 54.7739C178.516 53.4176 178.114 52.325 177.31 51.4961C176.531 50.6673 175.539 50.2528 174.334 50.2528C173.128 50.2528 172.123 50.6673 171.32 51.4961C170.541 52.325 170.152 53.4176 170.152 54.7739C170.152 56.1302 170.541 57.2228 171.32 58.0517Z" fill="url(#paint1_linear_138_64)"/>
<defs>
<linearGradient id="paint0_linear_138_64" x1="45.5" y1="16.9971" x2="45.5" y2="50.9971" gradientUnits="userSpaceOnUse">
<stop stop-color="#51E08A"/>
<stop offset="1" stop-color="#14A34D"/>
</linearGradient>
<linearGradient id="paint1_linear_138_64" x1="143.483" y1="43.9429" x2="143.483" y2="57.4429" gradientUnits="userSpaceOnUse">
<stop stop-color="#51E08A"/>
<stop offset="1" stop-color="#14A34D"/>
</linearGradient>
<clipPath id="clip0_138_64">
<rect width="91" height="68" fill="white"/>
</clipPath>
</defs>
</svg>
