<svg width="374" height="153" viewBox="0 0 374 153" fill="none" xmlns="http://www.w3.org/2000/svg">
<g clip-path="url(#clip0_162_280)">
<path d="M364.55 36.4161C369.354 41.0296 372.29 47.2331 372.031 53.44C370.959 79.2237 369.886 105.006 368.814 130.789C368.359 141.723 358.186 148.527 346.078 146.276C293.101 136.399 239.966 130.306 186.677 127.994C133.386 125.682 79.9373 127.152 26.3314 132.405C24.4121 132.592 22.5586 132.562 20.7991 132.336C21.9549 132.321 23.1392 132.225 24.3445 132.038C77.5189 123.785 130.769 119.32 184.093 118.64C237.414 117.959 290.813 121.063 344.286 127.955C356.508 129.524 366.244 122.158 366.028 111.214C365.535 86.281 365.042 61.3494 364.55 36.4161Z" fill="url(#paint0_radial_162_280)"/>
<g filter="url(#filter0_d_162_280)">
<path d="M0.425002 38.4391C0.209033 27.5048 9.87988 16.8823 22.0338 15.0022C75.2082 6.74919 128.457 2.28434 181.781 1.60379C235.103 0.92327 288.502 4.02701 341.975 10.9189C354.197 12.4879 364.283 22.8583 364.499 33.7926C365.009 59.6006 365.518 85.4066 366.028 111.215C366.244 122.159 356.509 129.524 344.287 127.955C290.813 121.063 237.415 117.959 184.093 118.64C130.769 119.32 77.5198 123.785 24.3454 132.038C12.1915 133.918 2.17036 126.805 1.9542 115.861C1.44445 90.0532 0.934747 64.2471 0.425002 38.4391Z" fill="url(#paint1_radial_162_280)" fill-opacity="0.05" shape-rendering="crispEdges"/>
<path d="M0.425002 38.4391C0.209033 27.5048 9.87988 16.8823 22.0338 15.0022C75.2082 6.74919 128.457 2.28434 181.781 1.60379C235.103 0.92327 288.502 4.02701 341.975 10.9189C354.197 12.4879 364.283 22.8583 364.499 33.7926C365.009 59.6006 365.518 85.4066 366.028 111.215C366.244 122.159 356.509 129.524 344.287 127.955C290.813 121.063 237.415 117.959 184.093 118.64C130.769 119.32 77.5198 123.785 24.3454 132.038C12.1915 133.918 2.17036 126.805 1.9542 115.861C1.44445 90.0532 0.934747 64.2471 0.425002 38.4391Z" fill="url(#paint2_radial_162_280)" fill-opacity="0.3" shape-rendering="crispEdges"/>
<path d="M0.425002 38.4391C0.209033 27.5048 9.87988 16.8823 22.0338 15.0022C75.2082 6.74919 128.457 2.28434 181.781 1.60379C235.103 0.92327 288.502 4.02701 341.975 10.9189C354.197 12.4879 364.283 22.8583 364.499 33.7926C365.009 59.6006 365.518 85.4066 366.028 111.215C366.244 122.159 356.509 129.524 344.287 127.955C290.813 121.063 237.415 117.959 184.093 118.64C130.769 119.32 77.5198 123.785 24.3454 132.038C12.1915 133.918 2.17036 126.805 1.9542 115.861C1.44445 90.0532 0.934747 64.2471 0.425002 38.4391Z" stroke="url(#paint3_linear_162_280)" stroke-width="1.11292" stroke-linejoin="round" shape-rendering="crispEdges"/>
</g>
<path d="M26.3998 67.6666L23.3009 46.5318L31.2508 45.3495C32.9777 45.0927 34.5467 45.4879 35.9578 46.5353C37.366 47.5628 38.1981 48.9497 38.4541 50.6961C38.6607 52.1051 38.332 53.3909 37.4681 54.5536C38.451 54.894 39.2745 55.461 39.9384 56.2545C40.6223 57.045 41.0456 57.9959 41.2086 59.1072C41.4646 60.8536 41.0661 62.4236 40.0129 63.8171C38.9568 65.1908 37.5156 66.0135 35.6895 66.2851L26.3998 67.6666ZM30.4967 62.6165L34.6652 61.9966C35.3004 61.9021 35.7973 61.6255 36.1559 61.1666C36.5117 60.6878 36.6459 60.1508 36.5586 59.5554C36.4713 58.9601 36.1802 58.4965 35.6853 58.1645C35.2074 57.8097 34.6508 57.6796 34.0156 57.7741L29.8769 58.3896L30.4967 62.6165ZM29.2877 54.371L31.9674 53.9724C32.6026 53.878 33.0996 53.6013 33.4582 53.1424C33.8169 52.6835 33.9525 52.1564 33.8652 51.5611C33.778 50.9657 33.4953 50.4907 33.0174 50.1359C32.5394 49.7812 31.9829 49.651 31.3477 49.7455L28.668 50.144L29.2877 54.371ZM51.9122 64.3509C49.6642 64.6485 47.697 64.1501 46.0106 62.8559C44.3217 61.5418 43.3347 59.7908 43.0497 57.6029C42.7647 55.4151 43.271 53.4765 44.5687 51.7873C45.8639 50.0782 47.6354 49.0748 49.8834 48.7772C51.9325 48.506 53.6973 48.849 55.1779 49.8063C56.6585 50.7636 57.7269 52.1295 58.383 53.904L53.7278 54.5202C52.89 53.2149 51.7847 52.653 50.412 52.8347C49.4372 52.9638 48.6855 53.4072 48.1569 54.1651C47.6257 54.9031 47.4352 55.8489 47.5855 57.0025C47.7358 58.1561 48.1633 59.0302 48.8681 59.6249C49.5703 60.1996 50.4088 60.4224 51.3836 60.2934C52.7563 60.1117 53.6802 59.2812 54.1554 57.802L58.8105 57.1858C58.6311 59.071 57.9488 60.6686 56.7636 61.9788C55.5784 63.2889 53.9613 64.0796 51.9122 64.3509ZM69.2349 62.1941C66.9229 62.4646 64.9348 61.9501 63.2705 60.6504C61.6262 59.3484 60.6735 57.5615 60.4125 55.2898C60.156 53.0579 60.6904 51.1172 62.0158 49.4677C63.361 47.8158 65.1697 46.8569 67.4418 46.591C68.538 46.4627 69.5862 46.5319 70.5864 46.7986C71.6065 47.0629 72.5265 47.5106 73.3464 48.1417C74.1862 48.7704 74.8807 49.6283 75.4297 50.7151C75.9788 51.802 76.3159 53.0651 76.4409 54.5046L64.9308 55.8516C65.1045 56.6592 65.5422 57.3047 66.2441 57.7881C66.9437 58.2515 67.8715 58.4155 69.0275 58.2802C69.6852 58.2033 70.2683 58.0038 70.7766 57.6817C71.2827 57.3398 71.6025 56.959 71.7361 56.5395L76.4597 55.9867C76.1623 57.617 75.3522 59.0043 74.0294 60.1486C72.7065 61.293 71.1084 61.9748 69.2349 62.1941ZM67.7345 50.1919C66.8774 50.2922 66.1851 50.5954 65.6575 51.1014C65.1498 51.6051 64.8375 52.2273 64.7207 52.968L71.1185 52.2193C70.8053 51.428 70.328 50.878 69.6866 50.5693C69.0628 50.2384 68.4121 50.1126 67.7345 50.1919ZM85.3263 56.0978L85.7158 56.0611C87.1142 55.9291 87.7029 54.6647 87.4818 52.2678L86.7937 44.8073L99.9486 43.5661L100.968 54.622L103.426 54.3902L104.125 61.9705L100.109 62.3494L99.7722 58.694L89.7037 59.644L90.0408 63.2993L86.0254 63.6782L85.3263 56.0978ZM91.6805 48.3053L92.0232 52.0206C92.1577 53.4788 92.033 54.639 91.649 55.5013L96.4435 55.0489L95.7858 47.918L91.6805 48.3053ZM107.327 58.3586C106.406 58.43 105.702 58.4342 105.215 58.3714L104.925 54.5308C105.368 54.5367 105.72 54.5296 105.98 54.5094C106.62 54.4598 107.077 54.2433 107.35 53.86C107.622 53.4767 107.723 52.8049 107.65 51.8448L106.981 42.9633L120.154 41.9421L121.285 56.9446L116.754 57.2958L115.919 46.224L111.808 46.5427L112.218 51.9736C112.367 53.9539 111.959 55.4845 110.994 56.5653C110.03 57.6461 108.807 58.2439 107.327 58.3586ZM122.761 56.824L127.379 50.8121C125.662 49.993 124.748 48.6523 124.638 46.79C124.547 45.268 124.965 44.0063 125.89 43.0048C126.815 41.9833 128.138 41.4196 129.86 41.3137L136.799 40.8873L137.691 55.9064L133.154 56.1852L132.885 51.6494L131.594 51.7288L127.807 56.5138L122.761 56.824ZM130.539 48.1759L132.671 48.0448L132.477 44.7706L130.314 44.9036C129.293 44.9663 128.817 45.5785 128.886 46.7399C128.913 47.2005 129.085 47.5618 129.402 47.8237C129.739 48.0843 130.118 48.2017 130.539 48.1759ZM148.165 55.3695L147.575 40.3349L154.942 40.0301C156.826 39.9521 158.268 40.3643 159.267 41.2667C160.266 42.149 160.789 43.2016 160.837 44.4244C160.872 45.3264 160.623 46.1399 160.09 46.8647C161.328 47.7371 161.974 48.8348 162.026 50.1578C162.075 51.4007 161.656 52.5023 160.77 53.4625C159.904 54.422 158.539 54.9403 156.675 55.0174L148.165 55.3695ZM152.562 51.5132L156.2 51.3627C156.581 51.3469 156.897 51.2234 157.149 50.9921C157.4 50.7408 157.518 50.4146 157.502 50.0137C157.487 49.6128 157.344 49.3075 157.075 49.0977C156.806 48.888 156.481 48.791 156.1 48.8068L152.461 48.9573L152.562 51.5132ZM152.344 45.9805L155.081 45.8673C155.943 45.8316 156.358 45.4128 156.327 44.611C156.295 43.8091 155.848 43.4261 154.986 43.4617L152.25 43.5749L152.344 45.9805ZM171.047 54.8789C169.102 54.9288 167.429 54.1991 166.029 52.6897C164.649 51.1798 163.934 49.3518 163.883 47.2057C163.833 45.0597 164.461 43.1972 165.768 41.6184C167.096 40.039 168.732 39.2244 170.678 39.1745C172.403 39.1303 173.781 39.707 174.813 40.9048L174.777 39.4005L179.32 39.284L179.674 54.3265L175.131 54.443L175.096 52.9388C174.122 54.188 172.772 54.8347 171.047 54.8789ZM169.452 49.7421C170.11 50.4276 170.95 50.7573 171.973 50.731C172.996 50.7048 173.81 50.3327 174.415 49.6148C175.041 48.8963 175.341 47.9956 175.315 46.9125C175.29 45.8294 174.948 44.9452 174.289 44.2596C173.651 43.5736 172.821 43.2437 171.798 43.2699C170.775 43.2962 169.951 43.6685 169.326 44.387C168.72 45.1049 168.43 46.0054 168.456 47.0884C168.481 48.1715 168.813 49.0561 169.452 49.7421ZM183.413 54.2679L183.36 39.2207L187.904 39.1951L187.943 50.2999L191.855 50.2778L191.816 39.173L196.36 39.1474L196.399 50.2522L200.311 50.2301L200.272 39.1253L204.816 39.0997L204.869 54.1469L183.413 54.2679ZM215.663 54.5839C213.336 54.5535 211.432 53.7863 209.95 52.2821C208.488 50.7782 207.775 48.8828 207.809 46.5957C207.843 44.3488 208.624 42.4929 210.151 41.028C211.698 39.5633 213.615 38.8458 215.901 38.8757C217.005 38.89 218.035 39.0941 218.992 39.4878C219.969 39.8818 220.823 40.4447 221.555 41.1766C222.306 41.9088 222.884 42.8493 223.287 43.9983C223.691 45.1474 223.862 46.4438 223.8 47.8877L212.216 47.7367C212.284 48.5603 212.634 49.2571 213.268 49.8272C213.901 50.3772 214.8 50.6598 215.963 50.675C216.625 50.6836 217.229 50.5611 217.775 50.3073C218.321 50.0335 218.687 49.6972 218.873 49.2983L223.628 49.3603C223.122 50.9389 222.14 52.2103 220.681 53.1745C219.221 54.1386 217.549 54.6085 215.663 54.5839ZM215.726 42.4852C214.864 42.4739 214.138 42.6852 213.55 43.119C212.982 43.553 212.592 44.1298 212.38 44.8494L218.819 44.9334C218.611 44.1079 218.209 43.5007 217.613 43.1117C217.037 42.7029 216.408 42.4941 215.726 42.4852ZM226.521 54.4195L226.952 39.3773L237.57 39.6591L237.457 43.6001L231.381 43.4389L231.063 54.54L226.521 54.4195ZM251.8 53.3589C250.193 54.8006 248.298 55.4777 246.113 55.3901C243.928 55.3026 242.096 54.4761 240.616 52.9108C239.136 51.3253 238.443 49.43 238.536 47.2248C238.629 45.0196 239.479 43.1962 241.086 41.7545C242.694 40.2927 244.59 39.6056 246.775 39.6932C248.96 39.7807 250.792 40.6172 252.271 42.2026C253.751 43.768 254.444 45.6533 254.351 47.8585C254.258 50.0637 253.408 51.8972 251.8 53.3589ZM243.928 50.0614C244.542 50.7487 245.329 51.1116 246.292 51.1502C247.254 51.1887 248.059 50.8896 248.709 50.253C249.378 49.6171 249.735 48.7579 249.781 47.6754C249.827 46.5928 249.543 45.7079 248.929 45.0207C248.336 44.3342 247.558 43.9717 246.596 43.9332C245.634 43.8946 244.818 44.1933 244.149 44.8291C243.5 45.4658 243.152 46.3254 243.106 47.4079C243.061 48.4905 243.335 49.375 243.928 50.0614ZM269.62 56.5705C267.678 56.4508 266.075 55.5779 264.812 53.952C263.569 52.3273 263.016 50.4436 263.152 48.3009C263.289 46.1582 264.077 44.3572 265.517 42.898C266.977 41.4401 268.678 40.771 270.62 40.8908C272.342 40.997 273.664 41.6917 274.587 42.975L274.683 41.4731L279.218 41.7528L278.26 56.7718L273.725 56.4921L273.821 54.9902C272.742 56.15 271.342 56.6768 269.62 56.5705ZM268.478 51.3133C269.074 52.0537 269.882 52.4554 270.903 52.5183C271.924 52.5813 272.768 52.2815 273.433 51.6189C274.118 50.9576 274.496 50.0862 274.565 49.0048C274.634 47.9235 274.37 47.0126 273.774 46.2722C273.198 45.533 272.4 45.1319 271.379 45.0689C270.357 45.006 269.504 45.3052 268.819 45.9665C268.153 46.6291 267.786 47.5011 267.717 48.5825C267.648 49.6638 267.902 50.5741 268.478 51.3133ZM281.99 57.0319L283.19 42.0299L290.539 42.602C292.419 42.7484 293.801 43.329 294.686 44.3439C295.572 45.3387 295.966 46.4462 295.869 47.6664C295.797 48.5665 295.453 49.3448 294.837 50.0013C295.963 51.0149 296.474 52.1818 296.368 53.5019C296.269 54.7421 295.723 55.7865 294.729 56.635C293.756 57.485 292.339 57.8377 290.479 57.6929L281.99 57.0319ZM286.812 53.7241L290.442 54.0067C290.822 54.0362 291.151 53.9511 291.428 53.7514C291.707 53.5316 291.863 53.2216 291.895 52.8216C291.927 52.4215 291.822 52.1014 291.579 51.8611C291.337 51.6208 291.026 51.4859 290.646 51.4563L287.016 51.1737L286.812 53.7241ZM287.254 48.2033L289.983 48.4158C290.843 48.4828 291.305 48.1162 291.369 47.3161C291.433 46.516 291.035 46.0825 290.175 46.0155L287.446 45.803L287.254 48.2033ZM301.06 58.5715L302.078 47.5112L298.093 47.1525L298.454 43.2259L311.25 44.3775L310.888 48.304L306.603 47.9184L305.584 58.9788L301.06 58.5715ZM324.593 58.9635C322.897 60.2996 320.962 60.854 318.788 60.6268C316.613 60.3997 314.838 59.4575 313.461 57.8004C312.087 56.1234 311.516 54.1873 311.75 51.9923C311.984 49.7973 312.949 48.0317 314.645 46.6956C316.342 45.3395 318.278 44.7751 320.453 45.0023C322.627 45.2295 324.402 46.1816 325.776 47.8587C327.153 49.5158 327.724 51.4418 327.49 53.6368C327.256 55.8319 326.29 57.6074 324.593 58.9635ZM316.949 55.1685C317.517 55.8937 318.28 56.3064 319.237 56.4064C320.195 56.5065 321.018 56.2595 321.707 55.6657C322.415 55.0738 322.827 54.2392 322.942 53.1616C323.056 52.0841 322.83 51.1827 322.262 50.4575C321.713 49.7344 320.96 49.3228 320.003 49.2227C319.045 49.1227 318.212 49.3686 317.504 49.9604C316.815 50.5542 316.413 51.39 316.299 52.4675C316.184 53.5451 316.401 54.4454 316.949 55.1685Z" fill="url(#paint4_linear_162_280)"/>
<path d="M31.0122 100.721L28.803 85.8412L36.0959 84.7432C37.9613 84.4623 39.4394 84.7164 40.5304 85.5054C41.6184 86.2746 42.2523 87.2643 42.432 88.4745C42.5645 89.3673 42.4045 90.2027 41.952 90.9808C43.2781 91.7141 44.0384 92.7355 44.2328 94.0449C44.4155 95.275 44.1181 96.415 43.3408 97.4651C42.5832 98.5122 41.2817 99.1746 39.4362 99.4525L31.0122 100.721ZM34.9679 96.4135L38.5697 95.8712C38.9468 95.8144 39.2481 95.6575 39.4736 95.4004C39.6963 95.1235 39.7781 94.7866 39.7192 94.3898C39.6603 93.9931 39.4857 93.705 39.1953 93.5256C38.9049 93.3462 38.5712 93.2849 38.1942 93.3416L34.5924 93.8839L34.9679 96.4135ZM34.155 90.9378L36.8637 90.5299C37.7171 90.4014 38.0848 89.9404 37.967 89.1468C37.8492 88.3532 37.3636 88.0207 36.5103 88.1492L33.8015 88.557L34.155 90.9378ZM66.5737 93.7855C65.232 95.4767 63.4766 96.4631 61.3075 96.7448C59.1384 97.0264 57.1923 96.5206 55.4694 95.2274C53.7439 93.9143 52.7413 92.1634 52.4618 89.9748C52.1822 87.7863 52.7132 85.8464 54.0549 84.1552C55.3941 82.4441 57.1482 81.4477 59.3173 81.1661C61.4865 80.8844 63.4338 81.4001 65.1593 82.7133C66.8822 84.0065 67.8835 85.7474 68.1631 87.936C68.4426 90.1246 67.9129 92.0744 66.5737 93.7855ZM58.2561 91.862C58.9768 92.4358 59.8147 92.6608 60.7699 92.5367C61.7251 92.4127 62.4693 91.9823 63.0023 91.2456C63.5552 90.5064 63.7631 89.5996 63.6258 88.5252C63.4885 87.4508 63.0596 86.6266 62.3389 86.0527C61.6381 85.4763 60.8101 85.2501 59.8549 85.3741C58.8997 85.4981 58.1456 85.9298 57.5927 86.6691C57.0597 87.4057 56.8618 88.3113 56.999 89.3857C57.1363 90.4601 57.5553 91.2855 58.2561 91.862ZM70.1214 91.307L70.5102 91.2631C71.906 91.1057 72.4716 89.8308 72.2068 87.4384L71.3829 79.9919L84.5136 78.5114L85.7346 89.5464L88.1872 89.2699L89.0244 96.8359L85.0164 97.2879L84.6127 93.6394L74.5628 94.7726L74.9665 98.4211L70.9585 98.873L70.1214 91.307ZM76.3329 83.4003L76.7432 87.1085C76.9042 88.5639 76.8006 89.7262 76.4324 90.5953L81.2181 90.0557L80.4306 82.9382L76.3329 83.4003ZM91.3203 92.9149L89.9191 77.9358L94.4434 77.503L94.959 83.0153L100.592 82.4765L100.076 76.9642L104.601 76.5314L106.002 91.5105L101.477 91.9432L100.959 86.401L95.3261 86.9398L95.8445 92.4821L91.3203 92.9149ZM122.121 88.273C120.696 89.8949 118.894 90.792 116.713 90.9644C114.533 91.1369 112.615 90.534 110.959 89.1557C109.302 87.7574 108.389 85.9583 108.22 83.7582C108.05 81.5581 108.678 79.6471 110.103 78.0252C111.526 76.3834 113.328 75.4762 115.508 75.3038C117.688 75.1314 119.607 75.7443 121.264 77.1425C122.92 78.5208 123.833 80.3099 124.002 82.51C124.171 84.7101 123.544 86.6311 122.121 88.273ZM113.911 85.934C114.602 86.5435 115.428 86.8102 116.388 86.7343C117.348 86.6583 118.113 86.2658 118.682 85.5568C119.271 84.8461 119.524 83.9508 119.441 82.8707C119.358 81.7907 118.971 80.9459 118.28 80.3365C117.609 79.7256 116.794 79.458 115.834 79.534C114.874 79.6099 114.099 80.0032 113.51 80.7138C112.94 81.4229 112.697 82.3175 112.78 83.3975C112.863 84.4775 113.24 85.3231 113.911 85.934ZM126.472 74.8032L130.257 74.5693L135.386 80.1916L139.81 73.9791L143.595 73.7453L144.491 88.7641L139.955 89.0443L139.473 80.9642L135.743 86.1691L131.422 81.4616L131.904 89.5417L127.368 89.822L126.472 74.8032ZM154.98 88.2529L154.443 73.2162L168.879 72.6707L169.415 87.7075L164.874 87.879L164.478 76.7819L159.125 76.9842L159.521 88.0813L154.98 88.2529ZM177.794 93.7894L173.251 93.8862L172.841 72.5538L177.384 72.4569L177.413 73.9613C177.725 73.4731 178.249 73.0405 178.984 72.6636C179.719 72.2667 180.547 72.0584 181.47 72.0387C183.416 71.9973 185.075 72.7345 186.449 74.2503C187.842 75.7658 188.56 77.5967 188.601 79.7429C188.642 81.8892 187.996 83.7492 186.661 85.3228C185.347 86.8959 183.717 87.7033 181.771 87.7447C180.849 87.7644 180.013 87.6016 179.264 87.2564C178.514 86.8911 177.974 86.4711 177.644 85.9966L177.794 93.7894ZM178.152 82.6446C178.807 83.333 179.646 83.6663 180.669 83.6445C181.692 83.6227 182.508 83.2541 183.116 82.5388C183.745 81.8231 184.048 80.9236 184.028 79.8404C184.007 78.7573 183.669 77.8715 183.014 77.1831C182.378 76.4943 181.549 76.1608 180.526 76.1826C179.503 76.2044 178.677 76.5732 178.049 77.2889C177.441 78.0042 177.147 78.9035 177.168 79.9866C177.189 81.0698 177.517 81.9558 178.152 82.6446ZM195.645 87.2169L191.582 87.2357L191.545 72.1884L196.089 72.1674L196.109 80.4735L202.348 72.1385L206.41 72.1198L206.448 87.1671L201.934 87.1879L201.913 78.9119L195.645 87.2169ZM210.991 87.522C210.069 87.5108 209.367 87.4521 208.887 87.346L208.942 83.4941C209.383 83.5396 209.734 83.5639 209.995 83.5671C210.636 83.5749 211.11 83.4 211.416 83.0426C211.723 82.6851 211.882 82.0249 211.896 81.0619L212.023 72.1545L225.233 72.3148L225.018 87.3612L220.474 87.306L220.633 76.2018L216.51 76.1518L216.433 81.5986C216.405 83.5847 215.862 85.073 214.804 86.0634C213.747 87.0538 212.476 87.54 210.991 87.522ZM241.384 85.8564C239.796 87.3181 237.908 88.0187 235.723 87.9585C233.537 87.8983 231.694 87.0948 230.195 85.5481C228.696 83.9813 227.979 82.0948 228.045 79.8887C228.11 77.6826 228.937 75.8487 230.526 74.3871C232.115 72.9054 234.003 72.1947 236.189 72.2549C238.374 72.3151 240.217 73.1287 241.715 74.6954C243.215 76.2422 243.932 78.1186 243.866 80.3247C243.801 82.5309 242.974 84.3748 241.384 85.8564ZM233.471 82.6577C234.094 83.3372 234.886 83.6902 235.848 83.7167C236.811 83.7433 237.613 83.4342 238.254 82.7895C238.915 82.1453 239.262 81.2817 239.294 80.1987C239.326 79.1157 239.032 78.2345 238.409 77.5549C237.807 76.876 237.025 76.5232 236.063 76.4967C235.1 76.4702 234.288 76.779 233.627 77.4231C232.986 78.0678 232.649 78.9317 232.617 80.0147C232.585 81.0977 232.869 81.9787 233.471 82.6577ZM263.473 88.7779L258.649 82.7063L258.363 88.5383L253.824 88.3255L254.112 82.4634L248.685 88.0845L243.124 87.8237L250.231 80.5037L244.853 72.8393L250.052 73.0831L254.271 79.2167L254.561 73.2945L259.099 73.5073L258.811 79.3995L263.578 73.7173L268.778 73.9612L262.674 81.0872L269.033 89.0386L263.473 88.7779ZM276.478 89.883C274.156 89.7315 272.295 88.8659 270.893 87.2864C269.512 85.7082 268.898 83.7779 269.052 81.4956C269.203 79.2532 270.079 77.4403 271.68 76.0568C273.301 74.6745 275.253 74.0579 277.534 74.2068C278.635 74.2787 279.653 74.5361 280.589 74.9793C281.544 75.4237 282.367 76.0304 283.059 76.7995C283.772 77.5699 284.299 78.5394 284.643 79.708C284.986 80.8766 285.089 82.1804 284.952 83.6193L273.393 82.8648C273.417 83.6908 273.731 84.4051 274.334 85.0074C274.938 85.5898 275.821 85.9189 276.982 85.9947C277.642 86.0378 278.251 85.9468 278.809 85.7218C279.369 85.4768 279.752 85.16 279.959 84.7713L284.703 85.081C284.116 86.6313 283.069 87.8499 281.562 88.7368C280.054 89.6238 278.36 90.0058 276.478 89.883ZM277.172 77.8027C276.311 77.7465 275.575 77.9197 274.965 78.3223C274.375 78.7262 273.956 79.2819 273.707 79.9896L280.132 80.409C279.967 79.5738 279.598 78.9464 279.023 78.5268C278.469 78.0885 277.852 77.8471 277.172 77.8027ZM287.328 90.2897L288.583 75.2921L293.111 75.6615L292.649 81.1806L298.287 81.6406L298.749 76.1214L303.277 76.4908L302.022 91.4885L297.494 91.1191L297.958 85.57L292.321 85.11L291.856 90.6591L287.328 90.2897ZM309.788 92.2199L305.745 91.823L307.247 76.8475L311.768 77.2914L310.939 85.5579L317.996 77.9028L322.038 78.2996L320.537 93.2751L316.046 92.8342L316.871 84.5976L309.788 92.2199ZM328.286 94.1341L324.251 93.6706L325.999 78.7214L330.513 79.2398L329.548 87.4918L336.73 79.9539L340.765 80.4174L339.016 95.3666L334.533 94.8516L335.495 86.6296L328.286 94.1341Z" fill="url(#paint5_linear_162_280)"/>
</g>
<defs>
<filter id="filter0_d_162_280" x="-5.47708" y="0.955627" width="377.407" height="142.845" filterUnits="userSpaceOnUse" color-interpolation-filters="sRGB">
<feFlood flood-opacity="0" result="BackgroundImageFix"/>
<feColorMatrix in="SourceAlpha" type="matrix" values="0 0 0 0 0 0 0 0 0 0 0 0 0 0 0 0 0 0 127 0" result="hardAlpha"/>
<feOffset dy="5.56459"/>
<feGaussianBlur stdDeviation="2.671"/>
<feComposite in2="hardAlpha" operator="out"/>
<feColorMatrix type="matrix" values="0 0 0 0 0.0887475 0 0 0 0 0.240422 0 0 0 0 0.0467949 0 0 0 0.35 0"/>
<feBlend mode="normal" in2="BackgroundImageFix" result="effect1_dropShadow_162_280"/>
<feBlend mode="normal" in="SourceGraphic" in2="effect1_dropShadow_162_280" result="shape"/>
</filter>
<radialGradient id="paint0_radial_162_280" cx="0" cy="0" r="1" gradientTransform="matrix(368.666 -64.3841 122.722 683.723 98.967 80.2415)" gradientUnits="userSpaceOnUse">
<stop stop-color="#00401A"/>
<stop offset="1" stop-color="#51E08A"/>
</radialGradient>
<radialGradient id="paint1_radial_162_280" cx="0" cy="0" r="1" gradientTransform="matrix(-0.534013 -27.0367 232.854 -2.97181 181.989 130.363)" gradientUnits="userSpaceOnUse">
<stop stop-color="white"/>
<stop offset="1" stop-color="white" stop-opacity="0"/>
</radialGradient>
<radialGradient id="paint2_radial_162_280" cx="0" cy="0" r="1" gradientTransform="matrix(-143.364 -48.4161 103.635 -86.3691 208.663 137.982)" gradientUnits="userSpaceOnUse">
<stop stop-color="#86EF7C"/>
<stop offset="0.519231" stop-color="#15AF22"/>
<stop offset="1" stop-color="#141715"/>
</radialGradient>
<linearGradient id="paint3_linear_162_280" x1="49.2385" y1="-27.6579" x2="301.627" y2="104.471" gradientUnits="userSpaceOnUse">
<stop stop-color="white" stop-opacity="0.15"/>
<stop offset="0.552885" stop-color="white" stop-opacity="0.5"/>
<stop offset="1" stop-color="white" stop-opacity="0.15"/>
</linearGradient>
<linearGradient id="paint4_linear_162_280" x1="2.32568" y1="60.527" x2="339.012" y2="55.4252" gradientUnits="userSpaceOnUse">
<stop stop-color="white"/>
<stop offset="1" stop-color="#D8D8D8"/>
</linearGradient>
<linearGradient id="paint5_linear_162_280" x1="32.2256" y1="97.3639" x2="304.88" y2="70.2448" gradientUnits="userSpaceOnUse">
<stop stop-color="#51E08A"/>
<stop offset="1" stop-color="#0EAB4D"/>
</linearGradient>
<clipPath id="clip0_162_280">
<rect width="374" height="153" fill="white"/>
</clipPath>
</defs>
</svg>
