<svg width="374" height="153" viewBox="0 0 374 153" fill="none" xmlns="http://www.w3.org/2000/svg">
<g clip-path="url(#clip0_162_280)">
<path d="M364.55 36.4161C369.354 41.0296 372.29 47.2331 372.031 53.44C370.959 79.2238 369.886 105.006 368.814 130.789C368.359 141.723 358.186 148.527 346.077 146.276C293.101 136.399 239.966 130.306 186.677 127.994C133.386 125.682 79.9373 127.152 26.3314 132.405C24.4121 132.592 22.5585 132.562 20.7991 132.336C21.9549 132.321 23.1392 132.225 24.3444 132.038C77.5188 123.785 130.769 119.32 184.093 118.64C237.414 117.959 290.813 121.063 344.286 127.955C356.508 129.524 366.244 122.158 366.028 111.214C365.535 86.281 365.042 61.3494 364.55 36.4161Z" fill="url(#paint0_radial_162_280)"/>
<g filter="url(#filter0_d_162_280)">
<path d="M0.425071 38.4391C0.209102 27.5047 9.87995 16.8822 22.0338 15.0021C75.2082 6.74912 128.457 2.28428 181.781 1.60373C235.103 0.923209 288.502 4.02695 341.975 10.9189C354.197 12.4879 364.283 22.8582 364.499 33.7925C365.009 59.6005 365.518 85.4066 366.028 111.215C366.244 122.159 356.509 129.524 344.287 127.955C290.814 121.063 237.415 117.959 184.093 118.64C130.769 119.32 77.5199 123.785 24.3455 132.038C12.1916 133.918 2.17043 126.805 1.95427 115.861C1.44452 90.0531 0.934816 64.247 0.425071 38.4391Z" fill="url(#paint1_radial_162_280)" fill-opacity="0.05" shape-rendering="crispEdges"/>
<path d="M0.425071 38.4391C0.209102 27.5047 9.87995 16.8822 22.0338 15.0021C75.2082 6.74912 128.457 2.28428 181.781 1.60373C235.103 0.923209 288.502 4.02695 341.975 10.9189C354.197 12.4879 364.283 22.8582 364.499 33.7925C365.009 59.6005 365.518 85.4066 366.028 111.215C366.244 122.159 356.509 129.524 344.287 127.955C290.814 121.063 237.415 117.959 184.093 118.64C130.769 119.32 77.5199 123.785 24.3455 132.038C12.1916 133.918 2.17043 126.805 1.95427 115.861C1.44452 90.0531 0.934816 64.247 0.425071 38.4391Z" fill="url(#paint2_radial_162_280)" fill-opacity="0.3" shape-rendering="crispEdges"/>
<path d="M0.425071 38.4391C0.209102 27.5047 9.87995 16.8822 22.0338 15.0021C75.2082 6.74912 128.457 2.28428 181.781 1.60373C235.103 0.923209 288.502 4.02695 341.975 10.9189C354.197 12.4879 364.283 22.8582 364.499 33.7925C365.009 59.6005 365.518 85.4066 366.028 111.215C366.244 122.159 356.509 129.524 344.287 127.955C290.814 121.063 237.415 117.959 184.093 118.64C130.769 119.32 77.5199 123.785 24.3455 132.038C12.1916 133.918 2.17043 126.805 1.95427 115.861C1.44452 90.0531 0.934816 64.247 0.425071 38.4391Z" stroke="url(#paint3_linear_162_280)" stroke-width="1.11292" stroke-linejoin="round" shape-rendering="crispEdges"/>
</g>
<path d="M54.4055 64.3872C51.9382 64.711 49.856 64.256 48.1588 63.0222C46.4616 61.7885 45.4499 60.222 45.1237 58.3228L49.8693 57.7001C50.1415 58.5544 50.6281 59.1885 51.329 59.6022C52.0473 59.9934 52.884 60.1264 53.839 60.001C54.6548 59.894 55.2896 59.6387 55.7434 59.2353C56.217 58.8292 56.4166 58.3378 56.3421 57.7609C56.2111 56.7464 55.187 56.102 53.2697 55.8277L51.141 55.5608C49.3084 55.3158 47.8154 54.7228 46.6619 53.7818C45.5084 52.8408 44.8177 51.566 44.5897 49.9574C44.3354 47.9881 44.7903 46.3404 45.9545 45.0144C47.1361 43.6658 48.8312 42.8466 51.0398 42.5567C53.2683 42.2643 55.1663 42.703 56.7339 43.8728C58.2988 45.0228 59.2328 46.4579 59.5359 48.178L54.8202 48.7969C54.5012 48.0498 54.0499 47.5325 53.4664 47.245C52.8829 46.9574 52.2629 46.8567 51.6063 46.9429C50.8701 47.0395 50.2924 47.267 49.8733 47.6255C49.4542 47.9839 49.2707 48.4429 49.3227 49.0025C49.3747 49.5621 49.6328 49.9935 50.0969 50.2967C50.5809 50.5973 51.276 50.8095 52.1823 50.9333L54.6808 51.2427C56.5133 51.4877 57.9877 52.0932 59.104 53.0593C60.2402 54.0228 60.9149 55.3301 61.1281 56.9811C61.3644 58.8112 60.8659 60.4342 59.6323 61.8503C58.3962 63.2465 56.6539 64.0921 54.4055 64.3872ZM64.8957 45.4595C64.1385 45.5502 63.4493 45.36 62.8282 44.8889C62.2046 44.3979 61.8472 43.764 61.7558 42.9871C61.6644 42.2102 61.866 41.5195 62.3607 40.9148C62.853 40.2903 63.4777 39.9327 64.2349 39.842C65.0319 39.7466 65.7322 39.9456 66.3358 40.4389C66.957 40.91 67.3132 41.534 67.4046 42.3108C67.496 43.0877 67.2956 43.7885 66.8033 44.413C66.3285 45.0153 65.6927 45.3641 64.8957 45.4595ZM64.6505 62.6999L62.8931 47.7598L67.4062 47.2194L69.1636 62.1596L64.6505 62.6999ZM72.255 61.8014L71.8739 58.2716L77.6319 50.1918L71.1692 50.9031L70.7299 46.8349L83.0571 45.4782L83.4414 49.0378L77.6801 57.0877L84.472 56.3402L84.9112 60.4084L72.255 61.8014ZM87.9044 60.1061L86.506 45.1273L91.0305 44.6954L91.1732 46.2232C91.9165 44.903 93.247 44.1513 95.1647 43.9683C96.9825 43.7947 98.4577 44.2685 99.5902 45.3895C100.743 46.5086 101.412 48.0668 101.599 50.064L102.407 58.7217L97.8823 59.1536L97.1468 51.2748C96.9398 49.0579 96.0273 48.0267 94.4093 48.1811C93.5103 48.267 92.812 48.6661 92.3142 49.3786C91.8164 50.091 91.6281 51.0963 91.7493 52.3945L92.4289 59.6742L87.9044 60.1061ZM106.806 41.1875C106.047 41.2505 105.365 41.0352 104.761 40.5417C104.156 40.0282 103.822 39.3816 103.759 38.6018C103.696 37.8221 103.923 37.1391 104.439 36.5529C104.954 35.9467 105.592 35.6121 106.351 35.5492C107.151 35.483 107.844 35.7074 108.429 36.2226C109.032 36.716 109.366 37.3527 109.429 38.1324C109.492 38.9122 109.266 39.6052 108.751 40.2114C108.254 40.7959 107.606 41.1213 106.806 41.1875ZM105.931 58.4088L104.721 43.4132L109.251 43.0382L110.461 58.0338L105.931 58.4088ZM114.194 57.7455L113.15 42.737L117.683 42.4123L117.79 43.9432C118.564 42.6408 119.912 41.9209 121.834 41.7832C123.655 41.6528 125.118 42.1613 126.224 43.3089C127.349 44.4551 127.982 46.0287 128.121 48.0298L128.724 56.7047L124.191 57.0294L123.642 49.135C123.488 46.9137 122.6 45.8611 120.979 45.9773C120.078 46.0418 119.37 46.4243 118.856 47.1248C118.341 47.8253 118.129 48.8259 118.22 50.1267L118.727 57.4208L114.194 57.7455ZM139.699 62.668C137.595 62.7849 135.843 62.3298 134.442 61.3026C133.062 60.2944 132.267 58.9623 132.058 57.3063L136.475 57.0609C137.008 58.3774 138.056 58.9923 139.618 58.9054C140.46 58.8587 141.156 58.5487 141.708 57.9756C142.262 57.4225 142.511 56.6452 142.458 55.6436L142.363 53.8708C142.031 54.4317 141.504 54.903 140.781 55.2847C140.078 55.6653 139.276 55.8807 138.374 55.9307C136.451 56.0376 134.759 55.3983 133.299 54.0128C131.837 52.6073 131.05 50.8528 130.938 48.7495C130.825 46.6462 131.421 44.825 132.725 43.2858C134.028 41.7267 135.642 40.8937 137.565 40.7868C138.466 40.7367 139.287 40.8619 140.026 41.1624C140.786 41.4617 141.36 41.8718 141.75 42.3926L141.669 40.8903L146.207 40.6381L146.96 54.7304C147.032 56.0725 146.874 57.2566 146.487 58.2827C146.12 59.3076 145.581 60.1212 144.869 60.7232C144.178 61.3242 143.399 61.7794 142.531 62.0888C141.665 62.4182 140.72 62.6113 139.699 62.668ZM136.66 50.9329C137.376 51.536 138.204 51.8115 139.146 51.7591C140.087 51.7068 140.882 51.3412 141.529 50.6624C142.175 49.9835 142.472 49.1333 142.417 48.1117C142.362 47.0901 141.977 46.2777 141.262 45.6745C140.547 45.0713 139.718 44.7959 138.776 44.8482C137.835 44.9005 137.041 45.2661 136.394 45.945C135.747 46.6239 135.451 47.4741 135.505 48.4957C135.56 49.5173 135.945 50.3297 136.66 50.9329ZM163.584 55.32C161.639 55.3851 159.961 54.6685 158.549 53.1702C157.157 51.6712 156.427 49.8489 156.36 47.7034C156.293 45.5579 156.907 43.6908 158.202 42.1018C159.517 40.5123 161.147 39.6849 163.092 39.6199C164.817 39.5622 166.2 40.1281 167.241 41.3177L167.194 39.8138L171.735 39.6619L172.207 54.7004L167.665 54.8523L167.618 53.3485C166.653 54.6052 165.309 55.2623 163.584 55.32ZM161.948 50.1961C162.612 50.8764 163.455 51.1995 164.478 51.1653C165.501 51.1311 166.312 50.7527 166.911 50.0301C167.531 49.3068 167.824 48.4038 167.79 47.321C167.756 46.2382 167.407 45.3567 166.744 44.6764C166.1 43.9954 165.267 43.672 164.244 43.7062C163.222 43.7404 162.4 44.1191 161.781 44.8424C161.181 45.565 160.898 46.4677 160.932 47.5505C160.966 48.6332 161.305 49.5151 161.948 50.1961ZM180.64 54.5239L173.821 39.5936L178.846 39.5064L182.626 48.5904L186.158 39.3795L191.213 39.2918L184.852 54.4508L180.64 54.5239ZM200.957 54.4812C199.192 54.4879 197.736 54.0119 196.591 53.0533C195.466 52.0745 194.902 50.6622 194.899 48.8165L194.889 43.2191L191.88 43.2305L191.873 39.2883L194.883 39.2768L194.876 35.0938L199.42 35.0765L199.427 39.2596L203.64 39.2435L203.647 43.1858L199.433 43.2018L199.441 47.8663C199.443 48.7691 199.644 49.4204 200.046 49.8201C200.448 50.2198 201.101 50.418 202.004 50.4146C202.686 50.412 203.237 50.3196 203.658 50.1374L203.665 54.17C203.003 54.3731 202.101 54.4768 200.957 54.4812ZM218.932 52.4963C217.37 53.9865 215.495 54.7214 213.309 54.701C211.122 54.6805 209.265 53.9108 207.737 52.3917C206.21 50.8526 205.459 48.9797 205.485 46.7729C205.51 44.5661 206.303 42.7176 207.865 41.2274C209.428 39.7172 211.302 38.9723 213.489 38.9927C215.675 39.0131 217.532 39.7929 219.06 41.332C220.587 42.8511 221.338 44.714 221.313 46.9208C221.288 49.1276 220.494 50.9861 218.932 52.4963ZM210.961 49.4424C211.596 50.1104 212.394 50.4489 213.357 50.4579C214.32 50.4669 215.116 50.1433 215.746 49.4871C216.396 48.8311 216.727 47.9614 216.739 46.878C216.751 45.7947 216.44 44.919 215.806 44.251C215.192 43.5831 214.403 43.2447 213.44 43.2357C212.477 43.2267 211.671 43.5503 211.021 44.2063C210.392 44.8625 210.071 45.7323 210.059 46.8156C210.046 47.8989 210.347 48.7745 210.961 49.4424ZM236.271 55.1632C234.447 55.1057 233.064 54.4499 232.122 53.1958C231.181 51.9417 230.745 50.2719 230.815 48.1864L231.103 39.6139L235.645 39.7569L235.383 47.5473C235.306 49.8534 236.039 51.0307 237.583 51.0793C239.468 51.1387 240.454 49.8549 240.542 47.228L240.788 39.9188L245.33 40.0618L244.824 55.1013L240.283 54.9583L240.334 53.4243C239.43 54.6404 238.076 55.22 236.271 55.1632ZM255.534 55.9059C253.27 55.7998 251.423 54.96 249.994 53.3866C248.565 51.7931 247.905 49.8941 248.013 47.6897C248.121 45.4852 248.963 43.6666 250.54 42.234C252.117 40.7813 254.038 40.108 256.303 40.2141C258.367 40.3108 260.042 40.9617 261.329 42.1669C262.615 43.3721 263.424 44.9064 263.754 46.7699L259.065 46.5502C258.473 45.1164 257.485 44.3671 256.102 44.3024C255.12 44.2564 254.302 44.5595 253.648 45.2118C252.994 45.844 252.639 46.7413 252.582 47.9037C252.525 49.066 252.791 50.0024 253.378 50.7129C253.967 51.4034 254.753 51.7716 255.734 51.8176C257.117 51.8823 258.173 51.2288 258.903 49.8569L263.592 50.0766C263.081 51.9006 262.127 53.3523 260.728 54.4317C259.329 55.5112 257.598 56.0025 255.534 55.9059ZM270.457 56.3734L265.922 56.0901L267.377 33.5636L271.912 33.8469L271.328 42.8875C272.269 41.6998 273.701 41.166 275.623 41.2861C277.444 41.3999 278.826 42.0994 279.769 43.3846C280.731 44.6711 281.147 46.3155 281.018 48.3178L280.458 56.998L275.923 56.7148L276.433 48.8155C276.576 46.5929 275.837 45.4309 274.216 45.3296C273.315 45.2734 272.563 45.5581 271.959 46.1839C271.356 46.8096 271.012 47.7733 270.928 49.0748L270.457 56.3734ZM289.448 58.0104C287.629 57.8672 286.278 57.1471 285.397 55.85C284.515 54.5528 284.159 52.8642 284.327 50.7841L285.017 42.2338L289.547 42.5901L288.919 50.3604C288.733 52.6605 289.41 53.8711 290.95 53.9923C292.83 54.1402 293.876 52.9041 294.087 50.284L294.676 42.9937L299.206 43.35L297.994 58.3506L293.464 57.9943L293.588 56.4642C292.628 57.6366 291.248 58.152 289.448 58.0104ZM301.705 58.6723L303.155 43.6924L307.679 44.1208L307.531 45.6488C308.509 44.4917 309.957 44.004 311.874 44.1856C313.691 44.3577 315.05 45.1011 315.951 46.416C316.871 47.7327 317.235 49.3897 317.041 51.387L316.203 60.0454L311.68 59.617L312.443 51.7376C312.657 49.5206 311.956 48.3355 310.338 48.1823C309.44 48.0972 308.679 48.3577 308.056 48.9639C307.433 49.57 307.059 50.5222 306.933 51.8205L306.228 59.1007L301.705 58.6723Z" fill="url(#paint4_linear_162_280)"/>
<path d="M39.256 99.8062C38.3736 99.9388 37.5519 99.8858 36.791 99.6472C36.0272 99.3895 35.4577 99.0535 35.0826 98.6394L35.2957 100.078L30.9507 100.731L27.7538 79.1548L32.0988 78.5018L33.3776 87.1322C33.6163 86.6258 34.065 86.1467 34.7237 85.6948C35.3794 85.2237 36.1486 84.9219 37.031 84.7893C38.8918 84.5097 40.5742 85.0117 42.0783 86.2953C43.6016 87.5761 44.5152 89.2425 44.8193 91.2946C45.1234 93.3467 44.7326 95.2091 43.6469 96.8819C42.5804 98.5518 41.1168 99.5265 39.256 99.8062ZM35.1562 95.364C35.8695 95.943 36.7154 96.159 37.6937 96.012C38.6721 95.865 39.4088 95.4111 39.9041 94.6505C40.4185 93.887 40.599 92.9875 40.4455 91.9518C40.2921 90.9162 39.8587 90.1089 39.1453 89.5299C38.4512 88.948 37.615 88.7305 36.6366 88.8775C35.6583 89.0245 34.9119 89.4798 34.3975 90.2433C33.9022 91.0039 33.7314 91.902 33.8848 92.9377C34.0383 93.9733 34.4621 94.7821 35.1562 95.364ZM54.4688 97.6413C52.604 97.8918 50.92 97.3649 49.417 96.0605C47.9331 94.7536 47.0552 93.0717 46.7832 91.0151C46.5112 88.9584 46.9214 87.1035 48.0137 85.4504C49.1253 83.7947 50.6135 82.8416 52.4784 82.591C54.1317 82.3689 55.5166 82.7795 56.6329 83.8228L56.4423 82.3812L60.7968 81.7962L62.7034 96.2121L58.3489 96.7972L58.1582 95.3556C57.352 96.6572 56.1222 97.4191 54.4688 97.6413ZM52.3999 92.872C53.1041 93.4621 53.9464 93.6913 54.9269 93.5596C55.9074 93.4278 56.6512 92.9855 57.1582 92.2327C57.6844 91.4773 57.8789 90.5806 57.7416 89.5427C57.6044 88.5048 57.1836 87.6907 56.4794 87.1007C55.7945 86.508 54.9618 86.2775 53.9813 86.4093C53.0008 86.541 52.2474 86.9846 51.7212 87.74C51.2142 88.4928 51.0293 89.3882 51.1666 90.4261C51.3038 91.4641 51.715 92.2794 52.3999 92.872ZM66.29 95.7529L64.5635 81.3139L68.9249 80.7833L69.1839 82.9491C69.3367 82.2664 69.7043 81.665 70.2868 81.1449C70.867 80.6055 71.5518 80.2878 72.3413 80.1918C72.8419 80.1309 73.3206 80.1312 73.7773 80.1928L74.3056 84.6112C73.604 84.4621 72.9451 84.4251 72.329 84.5001C71.4047 84.6126 70.7217 85.0277 70.2801 85.7455C69.8554 86.4418 69.7064 87.3193 69.833 88.3782L70.6513 95.2222L66.29 95.7529ZM84.2075 94.0066C82.0285 94.2433 80.1388 93.7171 78.5386 92.4281C76.9363 91.1198 76.0222 89.4053 75.7964 87.2844C75.5705 85.1635 76.1038 83.3015 77.3961 81.6984C78.6863 80.0761 80.421 79.1466 82.6 78.9099C84.5862 78.6942 86.2839 79.0657 87.6929 80.0244C89.1019 80.9831 90.1034 82.3274 90.6972 84.0572L86.1848 84.5472C85.4047 83.2667 84.3494 82.6987 83.0188 82.8432C82.0739 82.9458 81.3375 83.3573 80.8095 84.0778C80.2794 84.7789 80.074 85.6887 80.193 86.807C80.3121 87.9252 80.7055 88.7797 81.373 89.3703C82.0386 89.9416 82.8438 90.176 83.7887 90.0734C85.1193 89.9289 86.0309 89.1473 86.5236 87.7285L91.0359 87.2385C90.8199 89.0563 90.1243 90.5849 88.9493 91.8242C87.7744 93.0635 86.1938 93.791 84.2075 94.0066ZM98.5333 92.2229L94.159 92.6315L92.176 70.9078L96.5503 70.4992L97.3461 79.2177C98.0673 77.9429 99.3548 77.2189 101.209 77.0458C102.966 76.8816 104.391 77.3425 105.484 78.4284C106.595 79.5125 107.239 81.0201 107.416 82.9511L108.18 91.3219L103.806 91.7305L103.11 84.1127C102.915 81.9693 102.035 80.9707 100.47 81.1168C99.6012 81.1979 98.9254 81.5824 98.4428 82.2701C97.9602 82.9578 97.7762 83.9293 97.8908 85.1844L98.5333 92.2229ZM117.471 90.8967C115.595 91.0422 113.944 90.4215 112.516 89.0346C111.108 87.6463 110.326 85.9176 110.17 83.8487C110.014 81.7797 110.528 79.9506 111.711 78.3612C112.914 76.7703 114.453 75.9022 116.329 75.7567C117.992 75.6277 119.351 76.1154 120.407 77.2199L120.298 75.7697L124.678 75.43L125.772 89.932L121.392 90.2717L121.282 88.8215C120.404 90.076 119.134 90.7677 117.471 90.8967ZM115.673 86.0183C116.343 86.647 117.171 86.9232 118.157 86.8467C119.144 86.7702 119.911 86.3703 120.459 85.6471C121.027 84.9223 121.272 84.0379 121.193 82.9937C121.114 81.9496 120.74 81.1131 120.07 80.4844C119.419 79.8541 118.601 79.5772 117.615 79.6537C116.628 79.7302 115.851 80.1308 115.284 80.8556C114.735 81.5788 114.5 82.4625 114.579 83.5067C114.658 84.5508 115.023 85.388 115.673 86.0183ZM135.263 89.6349C133.327 89.7552 131.702 89.3802 130.386 88.5099C129.09 87.619 128.359 86.4501 128.194 85.0032L132.811 84.7163C132.883 85.2753 133.142 85.6963 133.586 85.9796C134.03 86.2435 134.571 86.3556 135.209 86.3159C136.294 86.2485 136.817 85.9051 136.78 85.2857C136.761 84.976 136.621 84.7515 136.36 84.6123C136.118 84.4526 135.681 84.3048 135.051 84.1691L132.073 83.5964C129.596 83.1092 128.285 81.6655 128.141 79.2653C128.063 77.9684 128.542 76.8798 129.577 75.9994C130.613 75.1191 132.069 74.6206 133.947 74.5039C135.612 74.4004 137.021 74.7306 138.174 75.4944C139.346 76.2376 140.034 77.3508 140.24 78.834L135.826 79.1083C135.598 78.2287 135.01 77.8184 134.062 77.8774C133.075 77.9387 132.6 78.2791 132.637 78.8985C132.669 79.4405 133.186 79.7873 134.186 79.9388L136.87 80.4715C138.345 80.7684 139.424 81.2648 140.107 81.9606C140.79 82.6565 141.167 83.5948 141.237 84.7756C141.318 86.1112 140.802 87.2312 139.69 88.1357C138.578 89.0209 137.102 89.5206 135.263 89.6349ZM145.535 72.1633C144.799 72.2017 144.147 71.9735 143.578 71.4789C143.009 70.9648 142.705 70.3302 142.667 69.5748C142.63 68.8195 142.869 68.1662 143.385 67.615C143.9 67.0444 144.526 66.74 145.262 66.7016C146.037 66.6612 146.699 66.8985 147.249 67.4136C147.817 67.9082 148.121 68.5332 148.158 69.2886C148.196 70.0439 147.957 70.7069 147.442 71.2774C146.945 71.8276 146.31 72.1229 145.535 72.1633ZM144.181 88.7782L143.455 74.2524L147.842 74.0237L148.568 88.5495L144.181 88.7782ZM167.065 88.1184C166.173 88.1494 165.363 88.0029 164.635 87.6789C163.906 87.3355 163.378 86.9367 163.053 86.4823L163.1 87.9359L158.71 88.0885L157.999 66.2834L162.389 66.1308L162.674 74.8529C162.969 74.3769 163.469 73.9521 164.175 73.5783C164.88 73.1851 165.678 72.973 166.57 72.942C168.45 72.8767 170.064 73.5677 171.411 75.015C172.778 76.4617 173.495 78.222 173.562 80.2959C173.63 82.3698 173.029 84.1758 171.76 85.7141C170.51 87.2516 168.945 88.0531 167.065 88.1184ZM163.5 83.2359C164.143 83.8928 164.958 84.204 165.946 84.1697C166.935 84.1353 167.719 83.7685 168.297 83.0693C168.895 82.3693 169.177 81.496 169.143 80.4494C169.109 79.4028 168.771 78.551 168.129 77.8942C167.506 77.2367 166.7 76.9251 165.711 76.9594C164.723 76.9938 163.93 77.3609 163.331 78.0608C162.753 78.7601 162.48 79.6331 162.515 80.6797C162.549 81.7263 162.877 82.5784 163.5 83.2359ZM178.39 70.9235C177.653 70.9398 177.008 70.6923 176.455 70.1809C175.901 69.65 175.617 69.0065 175.601 68.2503C175.586 67.4942 175.845 66.8483 176.377 66.3127C176.909 65.7578 177.544 65.4721 178.28 65.4557C179.056 65.4385 179.711 65.6955 180.245 66.2268C180.799 66.7382 181.083 67.372 181.098 68.1282C181.113 68.8844 180.855 69.5399 180.323 70.0949C179.81 70.63 179.166 70.9062 178.39 70.9235ZM176.541 87.4916L176.249 72.9496L180.64 72.852L180.933 87.394L176.541 87.4916ZM203.11 87.3534C201.404 87.3681 199.995 86.9147 198.883 85.9933C197.791 85.0523 197.239 83.6898 197.228 81.9056L197.193 76.4949L194.895 76.5146L194.87 72.7038L197.168 72.6841L197.142 68.6406L201.534 68.6029L201.561 72.6464L205.633 72.6114L205.658 76.4222L201.585 76.4572L201.614 80.9661C201.62 81.8388 201.818 82.4674 202.208 82.852C202.599 83.2171 203.23 83.3959 204.103 83.3884C204.82 83.3823 205.353 83.3001 205.701 83.142L205.726 87.04C205.087 87.2395 204.215 87.3439 203.11 87.3534ZM191.969 87.449C190.263 87.4637 188.854 87.0103 187.742 86.0889C186.65 85.148 186.098 83.7854 186.087 82.0012L186.052 76.5905L183.143 76.6155L183.119 72.8047L186.027 72.7797L186.001 68.7362L190.394 68.6985L190.42 72.742L193.503 72.7155L193.528 76.5263L190.444 76.5528L190.473 81.0617C190.479 81.9344 190.677 82.563 191.067 82.9476C191.458 83.3127 192.099 83.4915 192.991 83.4838C193.689 83.4778 194.212 83.3958 194.56 83.2376L194.585 87.1357C193.947 87.3351 193.075 87.4395 191.969 87.449ZM214.17 87.5459C212.289 87.5273 210.698 86.7648 209.397 85.2585C208.116 83.7523 207.488 81.9617 207.513 79.8867C207.538 77.8116 208.209 76.0339 209.526 74.5535C210.863 73.0733 212.471 72.3425 214.352 72.3612C216.02 72.3777 217.331 72.9823 218.287 74.1749L218.304 72.7204L222.696 72.7639L222.521 87.3087L218.129 87.2652L218.147 85.8107C217.163 86.9841 215.837 87.5625 214.17 87.5459ZM212.805 82.5284C213.417 83.2133 214.218 83.5607 215.206 83.5705C216.195 83.5803 216.995 83.2488 217.604 82.576C218.233 81.9034 218.553 81.0435 218.566 79.9963C218.578 78.949 218.279 78.083 217.666 77.3981C217.073 76.7133 216.282 76.3661 215.293 76.3563C214.304 76.3465 213.496 76.6779 212.867 77.3505C212.258 78.0233 211.947 78.8833 211.934 79.9305C211.921 80.9777 212.212 81.8437 212.805 82.5284ZM235.346 71.0672C234.609 71.0465 233.977 70.7669 233.45 70.2283C232.924 69.6702 232.672 69.0132 232.695 68.2571C232.718 67.5011 233.008 66.8689 233.567 66.3607C234.126 65.8331 234.774 65.5796 235.51 65.6002C236.286 65.6219 236.927 65.9115 237.434 66.469C237.961 67.0077 238.213 67.655 238.19 68.4111C238.167 69.1672 237.876 69.809 237.317 70.3366C236.778 70.8454 236.121 71.0889 235.346 71.0672ZM232.667 87.5233L233.105 72.9835L237.496 73.1065L237.058 87.6463L232.667 87.5233ZM240.674 87.76L241.481 65.955L245.87 66.1082L245.063 87.9132L240.674 87.76ZM260.912 86.7529C259.352 88.1379 257.515 88.7822 255.404 88.6859C253.293 88.5896 251.526 87.7808 250.104 86.2598C248.682 84.7193 248.023 82.8835 248.124 80.7524C248.226 78.6212 249.057 76.8632 250.618 75.4782C252.18 74.0738 254.017 73.4198 256.128 73.5162C258.24 73.6125 260.006 74.4309 261.427 75.9714C262.849 77.4925 263.51 79.3186 263.408 81.4497C263.306 83.5808 262.474 85.3486 260.912 86.7529ZM253.321 83.5233C253.91 84.1909 254.67 84.5459 255.6 84.5883C256.529 84.6307 257.31 84.346 257.941 83.7341C258.591 83.123 258.941 82.2944 258.991 81.2482C259.041 80.202 258.772 79.3451 258.182 78.6775C257.612 78.0107 256.862 77.6562 255.933 77.6137C255.003 77.5713 254.213 77.8556 253.562 78.4667C252.931 79.0786 252.591 79.9077 252.541 80.9539C252.491 82.0001 252.751 82.8565 253.321 83.5233ZM269.776 89.1207L264.34 74.2125L269.188 74.5099L272.14 83.5524L276.242 74.9426L281.119 75.2417L273.84 89.37L269.776 89.1207ZM287.351 90.6343C285.476 90.4911 283.939 89.6248 282.742 88.0354C281.563 86.4475 281.055 84.619 281.217 82.5498C281.38 80.4807 282.167 78.7511 283.579 77.361C285.011 75.9724 286.664 75.3497 288.539 75.4929C290.202 75.6198 291.47 76.31 292.344 77.5634L292.458 76.1131L296.837 76.4475L295.699 90.9508L291.32 90.6164L291.434 89.1661C290.375 90.2719 289.014 90.7613 287.351 90.6343ZM286.322 85.5367C286.887 86.2607 287.663 86.6604 288.649 86.7357C289.635 86.811 290.454 86.5331 291.107 85.902C291.779 85.2725 292.155 84.4356 292.237 83.3913C292.319 82.3471 292.077 81.4629 291.512 80.7389C290.966 80.0163 290.2 79.6174 289.214 79.5421C288.228 79.4668 287.399 79.7439 286.727 80.3735C286.074 81.0046 285.707 81.8422 285.625 82.8864C285.543 83.9307 285.776 84.8141 286.322 85.5367ZM305.121 92.1123C303.248 91.9396 301.725 91.0492 300.553 89.4412C299.399 87.8348 298.92 85.9985 299.115 83.9321C299.31 81.8657 300.124 80.1486 301.558 78.7809C303.011 77.4149 304.674 76.8182 306.547 76.9909C308.207 77.144 309.464 77.8541 310.319 79.1212L311.138 70.4307L315.511 70.834L313.462 92.5601L309.089 92.1569L309.226 90.7084C308.15 91.7975 306.781 92.2654 305.121 92.1123ZM304.172 86.9989C304.726 87.7318 305.495 88.1437 306.48 88.2345C307.464 88.3253 308.288 88.0603 308.95 87.4396C309.632 86.8206 310.022 85.9897 310.12 84.9469C310.218 83.904 309.99 83.0161 309.436 82.2832C308.901 81.5521 308.142 81.1412 307.157 81.0504C306.172 80.9596 305.339 81.2237 304.658 81.8426C303.996 82.4633 303.615 83.2951 303.517 84.338C303.419 85.3809 303.637 86.2678 304.172 86.9989ZM322.864 93.8691C320.994 93.6671 319.486 92.753 318.339 91.1267C317.21 89.5025 316.76 87.6588 316.987 85.5956C317.214 83.5325 318.055 81.8283 319.51 80.4831C320.985 79.1399 322.657 78.5694 324.526 78.7713C326.184 78.9504 327.43 79.6801 328.264 80.9604L328.424 79.5143L332.79 79.9859L331.198 94.4473L326.832 93.9757L326.991 92.5295C325.897 93.6016 324.522 94.0481 322.864 93.8691ZM321.995 88.7413C322.538 89.4828 323.3 89.9066 324.284 90.0128C325.267 90.119 326.094 89.867 326.766 89.2566C327.457 88.6484 327.86 87.8237 327.975 86.7825C328.089 85.7412 327.875 84.8499 327.333 84.1084C326.809 83.369 326.056 82.9462 325.073 82.84C324.09 82.7338 323.253 82.9848 322.562 83.593C321.89 84.2034 321.497 85.0291 321.382 86.0704C321.268 87.1116 321.472 88.0019 321.995 88.7413Z" fill="url(#paint5_linear_162_280)"/>
</g>
<defs>
<filter id="filter0_d_162_280" x="-5.47702" y="0.955566" width="377.407" height="142.845" filterUnits="userSpaceOnUse" color-interpolation-filters="sRGB">
<feFlood flood-opacity="0" result="BackgroundImageFix"/>
<feColorMatrix in="SourceAlpha" type="matrix" values="0 0 0 0 0 0 0 0 0 0 0 0 0 0 0 0 0 0 127 0" result="hardAlpha"/>
<feOffset dy="5.56459"/>
<feGaussianBlur stdDeviation="2.671"/>
<feComposite in2="hardAlpha" operator="out"/>
<feColorMatrix type="matrix" values="0 0 0 0 0.0887475 0 0 0 0 0.240422 0 0 0 0 0.0467949 0 0 0 0.35 0"/>
<feBlend mode="normal" in2="BackgroundImageFix" result="effect1_dropShadow_162_280"/>
<feBlend mode="normal" in="SourceGraphic" in2="effect1_dropShadow_162_280" result="shape"/>
</filter>
<radialGradient id="paint0_radial_162_280" cx="0" cy="0" r="1" gradientTransform="matrix(368.666 -64.3841 122.722 683.723 98.967 80.2415)" gradientUnits="userSpaceOnUse">
<stop stop-color="#00401A"/>
<stop offset="1" stop-color="#51E08A"/>
</radialGradient>
<radialGradient id="paint1_radial_162_280" cx="0" cy="0" r="1" gradientTransform="matrix(-0.534013 -27.0367 232.854 -2.97181 181.989 130.363)" gradientUnits="userSpaceOnUse">
<stop stop-color="white"/>
<stop offset="1" stop-color="white" stop-opacity="0"/>
</radialGradient>
<radialGradient id="paint2_radial_162_280" cx="0" cy="0" r="1" gradientTransform="matrix(-143.364 -48.4161 103.635 -86.3691 208.663 137.982)" gradientUnits="userSpaceOnUse">
<stop stop-color="#86EF7C"/>
<stop offset="0.519231" stop-color="#15AF22"/>
<stop offset="1" stop-color="#141715"/>
</radialGradient>
<linearGradient id="paint3_linear_162_280" x1="49.2386" y1="-27.658" x2="301.627" y2="104.471" gradientUnits="userSpaceOnUse">
<stop stop-color="white" stop-opacity="0.15"/>
<stop offset="0.552885" stop-color="white" stop-opacity="0.5"/>
<stop offset="1" stop-color="white" stop-opacity="0.15"/>
</linearGradient>
<linearGradient id="paint4_linear_162_280" x1="23.34" y1="57.3995" x2="360.064" y2="58.1731" gradientUnits="userSpaceOnUse">
<stop stop-color="white"/>
<stop offset="1" stop-color="#D8D8D8"/>
</linearGradient>
<linearGradient id="paint5_linear_162_280" x1="32.2256" y1="97.3639" x2="304.88" y2="70.2448" gradientUnits="userSpaceOnUse">
<stop stop-color="#51E08A"/>
<stop offset="1" stop-color="#0EAB4D"/>
</linearGradient>
<clipPath id="clip0_162_280">
<rect width="374" height="153" fill="white"/>
</clipPath>
</defs>
</svg>
