<svg width="108" height="28" viewBox="0 0 108 28" fill="none" xmlns="http://www.w3.org/2000/svg">
<g clip-path="url(#clip0_2_1093)">
<path fill-rule="evenodd" clip-rule="evenodd" d="M29 14.0003C29 19.3882 20.3882 28.0002 15.0001 28.0002C9.61191 28.0002 1 19.3882 1 14.0003C1 8.6123 9.61191 0.000156403 15.0001 0.000156403C20.3882 0.000156403 29 8.6123 29 14.0003ZM20.6 14.0003C20.6 16.1555 17.1551 19.6002 15.0001 19.6002C12.8447 19.6002 9.4 16.1555 9.4 14.0003C9.4 11.8451 12.8449 8.40022 15.0001 8.40022C17.1551 8.40022 20.6 11.8451 20.6 14.0003Z" fill="#0065FF"/>
<path d="M42.4238 28.0002C47.5122 28.0002 50.701 24.7513 51.6685 20.48H46.0787C45.398 21.9402 44.323 23.0354 42.4238 23.0354C40.1306 23.0354 38.4466 21.3562 38.4466 18.4721C38.4466 15.5882 40.1306 13.9088 42.4238 13.9088C44.323 13.9088 45.398 15.004 46.0787 16.4644H51.6685C50.701 12.1931 47.5122 8.94403 42.4238 8.94403C36.9772 8.94403 33 13.1788 33 18.4721C33 23.7656 36.9772 28.0002 42.4238 28.0002ZM53.5766 27.5987H58.9874V0.219159H53.5766V27.5987ZM64.9086 6.86315C66.8077 6.86315 68.3127 5.32993 68.3127 3.43158C68.3127 1.53338 66.8077 0.000156403 64.9086 0.000156403C63.0813 0.000156403 61.5403 1.53338 61.5403 3.43158C61.5403 5.32993 63.0813 6.86315 64.9086 6.86315ZM62.2212 27.5987H67.632V9.34571H62.2212V27.5987ZM79.215 28.0002C84.3028 28.0002 87.4917 24.7513 88.4595 20.48H82.8697C82.1885 21.9402 81.114 23.0354 79.215 23.0354C76.9213 23.0354 75.2376 21.3562 75.2376 18.4721C75.2376 15.5882 76.9213 13.9088 79.215 13.9088C81.114 13.9088 82.1885 15.004 82.8697 16.4644H88.4595C87.4917 12.1931 84.3028 8.94403 79.215 8.94403C73.7685 8.94403 69.7911 13.1788 69.7911 18.4721C69.7911 23.7656 73.7685 28.0002 79.215 28.0002ZM102.443 27.5987H109L100.831 17.5961L107.424 9.34571H101.009L95.7781 15.8802V0.219159H90.3676V27.5987H95.7781V19.4578L102.443 27.5987Z" fill="white"/>
</g>
<defs>
<clipPath id="clip0_2_1093">
<rect width="108" height="28" fill="white"/>
</clipPath>
</defs>
</svg>
