<svg width="24" height="24" viewBox="0 0 24 24" fill="none" xmlns="http://www.w3.org/2000/svg">
<path d="M4.31802 18.8284C5.63604 20 7.75736 20 12 20C16.2426 20 18.364 20 19.682 18.8284C21 17.6569 21 15.7712 21 12C21 8.22876 21 6.34315 19.682 5.17157C18.364 4 16.2426 4 12 4C7.75736 4 5.63604 4 4.31802 5.17157C3 6.34315 3 8.22876 3 12C3 15.7712 3 17.6569 4.31802 18.8284Z" stroke="white" stroke-width="1.8" stroke-linecap="round" stroke-linejoin="round"/>
<path d="M20.1004 9.33433C19.5115 9.31076 19.0117 9.67279 17.9505 10.4885L14.081 13.463C13.0372 14.2654 12.5153 14.6666 11.9345 14.6666C11.3538 14.6666 10.8318 14.2654 9.78802 13.463L5.91849 10.4885C4.93641 9.73361 4.44537 9.35615 3.90039 9.33433" stroke="white" stroke-width="1.8" stroke-linecap="round" stroke-linejoin="round"/>
</svg>
