<svg width="28" height="27" viewBox="0 0 28 27" fill="none" xmlns="http://www.w3.org/2000/svg">
<path fill-rule="evenodd" clip-rule="evenodd" d="M1.75 5.00425V7.71499C1.75 12.2804 1.75 14.563 2.441 16.6045C3.05237 18.4107 4.05224 20.0721 5.37522 21.4801C6.8705 23.0715 8.92582 24.204 13.0365 26.469L13.1665 26.5407C13.4703 26.7081 13.6222 26.7918 13.7835 26.8246C13.9263 26.8536 14.0737 26.8536 14.2165 26.8246C14.3778 26.7918 14.5297 26.7081 14.8335 26.5407L14.9635 26.469C19.0742 24.204 21.1295 23.0715 22.6248 21.4801C23.9478 20.0721 24.9476 18.4107 25.559 16.6045C26.25 14.563 26.25 12.2804 26.25 7.71499V5.00425C26.25 4.42022 26.25 4.1282 26.1461 3.88282C26.0543 3.66624 25.9058 3.47636 25.715 3.3318C25.4989 3.16802 25.2077 3.0878 24.6254 2.92736L15.5384 0.423812C14.9661 0.266121 14.6799 0.187276 14.3888 0.1559C14.1304 0.128046 13.8696 0.128046 13.6112 0.1559C13.3201 0.187276 13.0339 0.266121 12.4616 0.423812L3.37463 2.92736C2.79227 3.0878 2.50109 3.16802 2.28496 3.3318C2.0942 3.47636 1.94567 3.66624 1.85393 3.88282C1.75 4.1282 1.75 4.42022 1.75 5.00425ZM19.8687 9.87783C20.2104 9.54832 20.2104 9.01409 19.8687 8.68459C19.527 8.35508 18.973 8.35508 18.6313 8.68459L12.25 14.838L9.36872 12.0596C9.02701 11.7301 8.47299 11.7301 8.13128 12.0596C7.78957 12.3891 7.78957 12.9233 8.13128 13.2528L12.25 17.2244L19.8687 9.87783Z" fill="url(#paint0_linear_103_1274)"/>
<defs>
<linearGradient id="paint0_linear_103_1274" x1="26.25" y1="2.53121" x2="11.2136" y2="14.7565" gradientUnits="userSpaceOnUse">
<stop stop-color="#88CC00"/>
<stop offset="1" stop-color="#00A36D"/>
</linearGradient>
</defs>
</svg>
