<svg width="28" height="27" viewBox="0 0 28 27" fill="none" xmlns="http://www.w3.org/2000/svg">
<g clip-path="url(#clip0_110_460)">
<path d="M14 8.4375C15.4497 8.4375 16.625 9.57078 16.625 10.9688C16.625 12.3667 15.4497 13.5 14 13.5H12.4952C12.1032 13.5 11.9067 13.5002 11.757 13.4267C11.6253 13.362 11.5181 13.2586 11.451 13.1317C11.3748 12.9873 11.375 12.7978 11.375 12.4198V9.51773C11.375 9.1397 11.3748 8.95021 11.451 8.80582C11.5181 8.67888 11.6253 8.57553 11.757 8.51083C11.9067 8.43726 12.1032 8.4375 12.4952 8.4375H14Z" fill="url(#paint0_linear_110_460)"/>
<path fill-rule="evenodd" clip-rule="evenodd" d="M23.4498 2.53125C23.9543 2.53125 24.2803 2.53232 24.5282 2.55185C24.7658 2.57058 24.8541 2.60228 24.8973 2.62354C25.0618 2.7044 25.1954 2.83325 25.2793 2.99185C25.3013 3.03356 25.3342 3.11866 25.3536 3.34781C25.3739 3.58687 25.375 3.9012 25.375 4.38766V22.6123C25.375 23.0988 25.3739 23.4131 25.3536 23.6522C25.3342 23.8813 25.3013 23.9664 25.2793 24.0081C25.1954 24.1667 25.0618 24.2956 24.8973 24.3765C24.8541 24.3977 24.7658 24.4294 24.5282 24.4482C24.2803 24.4677 23.9543 24.4688 23.4498 24.4688H4.55017C4.04569 24.4688 3.71972 24.4677 3.4718 24.4482C3.23416 24.4294 3.14592 24.3977 3.10266 24.3765C2.93819 24.2956 2.80456 24.1667 2.7207 24.0081C2.69866 23.9664 2.66578 23.8813 2.64636 23.6522C2.62611 23.4131 2.625 23.0988 2.625 22.6123V4.38766C2.625 3.9012 2.62611 3.58687 2.64636 3.34781C2.66578 3.11866 2.69866 3.03356 2.7207 2.99185C2.80456 2.83325 2.93819 2.7044 3.10266 2.62354C3.14592 2.60228 3.23416 2.57058 3.4718 2.55185C3.71972 2.53232 4.04569 2.53125 4.55017 2.53125H23.4498ZM8.99524 5.0625C8.6032 5.0625 8.4067 5.06226 8.25696 5.13583C8.12532 5.20054 8.01815 5.30388 7.95105 5.43082C7.87475 5.57521 7.875 5.7647 7.875 6.14273V20.8573C7.875 21.2353 7.87475 21.4248 7.95105 21.5692C8.01815 21.6961 8.12532 21.7995 8.25696 21.8642C8.4067 21.9377 8.6032 21.9375 8.99524 21.9375H10.2548C10.6468 21.9375 10.8433 21.9377 10.993 21.8642C11.1247 21.7995 11.2319 21.6961 11.299 21.5692C11.3752 21.4248 11.375 21.2353 11.375 20.8573V17.9552C11.375 17.5772 11.3748 17.3877 11.451 17.2433C11.5181 17.1164 11.6253 17.013 11.757 16.9483C11.9067 16.8748 12.1032 16.875 12.4952 16.875H14C17.3827 16.875 20.125 14.2307 20.125 10.9688C20.125 7.70682 17.3827 5.0625 14 5.0625H8.99524Z" fill="url(#paint1_linear_110_460)"/>
<path fill-rule="evenodd" clip-rule="evenodd" d="M22.3997 1.37761e-09C24.3598 1.37761e-09 25.3407 -0.000360338 26.0894 0.367493C26.7478 0.691044 27.2834 1.20748 27.6189 1.84241C28.0004 2.56436 28 3.51015 28 5.40033V21.5997C28 23.4898 28.0004 24.4356 27.6189 25.1576C27.2834 25.7925 26.7478 26.309 26.0894 26.6325C25.3407 27.0004 24.3598 27 22.3997 27H5.60034C3.64016 27 2.65934 27.0004 1.91064 26.6325C1.2522 26.309 0.716639 25.7925 0.381104 25.1576C-0.000373684 24.4356 1.42862e-09 23.4898 1.42862e-09 21.5997V5.40033C1.42862e-09 3.51015 -0.000373684 2.56436 0.381104 1.84241C0.716639 1.20748 1.2522 0.691044 1.91064 0.367493C2.65934 -0.000360338 3.64016 1.37761e-09 5.60034 1.37761e-09H22.3997ZM4.55017 1.6875L3.90076 1.68997C3.33203 1.6986 2.98605 1.73332 2.70532 1.87125C2.3761 2.03302 2.10832 2.29124 1.94055 2.6087C1.74981 2.96968 1.75 3.44258 1.75 4.38766V22.6123C1.75 23.5574 1.74981 24.0303 1.94055 24.3913L2.00806 24.5075C2.17618 24.7718 2.41724 24.9872 2.70532 25.1288L2.85229 25.1889C3.10794 25.2769 3.42688 25.3028 3.90076 25.31L4.55017 25.3125H23.4498C24.3073 25.3125 24.7897 25.3121 25.1477 25.1889L25.2947 25.1288C25.5828 24.9872 25.8238 24.7718 25.9919 24.5075L26.0594 24.3913C26.2502 24.0303 26.25 23.5574 26.25 22.6123V4.38766C26.25 3.44258 26.2502 2.96968 26.0594 2.6087C25.8917 2.29124 25.6239 2.03302 25.2947 1.87125C24.9203 1.68732 24.4299 1.6875 23.4498 1.6875H4.55017Z" fill="url(#paint2_linear_110_460)"/>
</g>
<defs>
<linearGradient id="paint0_linear_110_460" x1="14" y1="0" x2="14" y2="27" gradientUnits="userSpaceOnUse">
<stop stop-color="#FFCC00"/>
<stop offset="1" stop-color="#FF4400"/>
</linearGradient>
<linearGradient id="paint1_linear_110_460" x1="14" y1="0" x2="14" y2="27" gradientUnits="userSpaceOnUse">
<stop stop-color="#FFCC00"/>
<stop offset="1" stop-color="#FF4400"/>
</linearGradient>
<linearGradient id="paint2_linear_110_460" x1="14" y1="0" x2="14" y2="27" gradientUnits="userSpaceOnUse">
<stop stop-color="#FFCC00"/>
<stop offset="1" stop-color="#FF4400"/>
</linearGradient>
<clipPath id="clip0_110_460">
<rect width="28" height="27" fill="white"/>
</clipPath>
</defs>
</svg>
