<svg width="23" height="23" viewBox="0 0 23 23" fill="none" xmlns="http://www.w3.org/2000/svg">
<path d="M4.4082 11.4503C3.59053 10.0245 3.19572 8.8603 2.95766 7.68017C2.60557 5.93478 3.41131 4.22982 4.74609 3.14192C5.31022 2.68213 5.95691 2.83922 6.2905 3.43769L7.04362 4.78881C7.64056 5.85974 7.93903 6.3952 7.87983 6.9629C7.82063 7.53059 7.41811 7.99296 6.61305 8.91768L4.4082 11.4503ZM4.4082 11.4503C6.06324 14.3361 8.66051 16.9348 11.5497 18.5918M11.5497 18.5918C12.9755 19.4095 14.1397 19.8043 15.3198 20.0423C17.0652 20.3944 18.7702 19.5887 19.8581 18.2539C20.3179 17.6898 20.1608 17.0431 19.5623 16.7095L18.2112 15.9564C17.1403 15.3594 16.6048 15.061 16.0371 15.1202C15.4694 15.1794 15.007 15.5819 14.0823 16.3869L11.5497 18.5918Z" stroke="white" stroke-width="1.8" stroke-linecap="round" stroke-linejoin="round"/>
</svg>
