<svg width="17" height="27" viewBox="0 0 17 27" fill="none" xmlns="http://www.w3.org/2000/svg">
<path fill-rule="evenodd" clip-rule="evenodd" d="M0.381477 1.84278C0 2.56473 0 3.50982 0 5.4V21.6C0 23.4902 0 24.4353 0.381477 25.1572C0.717034 25.7923 1.25247 26.3086 1.91103 26.6321C2.65972 27 3.63982 27 5.6 27H10.7333C12.6935 27 13.6736 27 14.4223 26.6321C15.0809 26.3086 15.6163 25.7923 15.9519 25.1572C16.3333 24.4353 16.3333 23.4902 16.3333 21.6V5.4C16.3333 3.50982 16.3333 2.56473 15.9519 1.84278C15.6163 1.20774 15.0809 0.691426 14.4223 0.367853C13.6736 0 12.6935 0 10.7333 0H5.6C3.63982 0 2.65972 0 1.91103 0.367853C1.25247 0.691426 0.717034 1.20774 0.381477 1.84278ZM9.33333 2.25C9.33333 2.87131 8.81099 3.375 8.16667 3.375C7.52234 3.375 7 2.87131 7 2.25C7 1.62869 7.52234 1.125 8.16667 1.125C8.81099 1.125 9.33333 1.62869 9.33333 2.25ZM5.83333 25.3125C5.83333 25.0018 6.09449 24.75 6.41667 24.75H9.91667C10.2388 24.75 10.5 25.0018 10.5 25.3125C10.5 25.6232 10.2388 25.875 9.91667 25.875H6.41667C6.09449 25.875 5.83333 25.6232 5.83333 25.3125Z" fill="url(#paint0_linear_411_39)"/>
<defs>
<linearGradient id="paint0_linear_411_39" x1="16.3333" y1="2.42209" x2="3.4012" y2="9.35674" gradientUnits="userSpaceOnUse">
<stop stop-color="#88CC00"/>
<stop offset="1" stop-color="#00A36D"/>
</linearGradient>
</defs>
</svg>
