<svg width="12" height="12" viewBox="0 0 12 12" fill="none" xmlns="http://www.w3.org/2000/svg">
<path fill-rule="evenodd" clip-rule="evenodd" d="M11.7842 10.3969C11.4138 11.5225 9.96264 12.0839 8.92584 11.9903C7.50984 11.8623 5.96904 11.1112 4.79944 10.284C3.08024 9.06801 1.46984 7.18704 0.531436 5.19104C-0.131764 3.78064 -0.280562 2.04656 0.705838 0.76096C1.07064 0.28576 1.46504 0.0319659 2.05784 0.00236586C2.88024 -0.0376341 2.99544 0.432847 3.27784 1.16565C3.48824 1.71365 3.76904 2.27265 3.92584 2.84065C4.21944 3.90065 3.19304 3.94495 3.06344 4.81135C2.98264 5.35775 3.64504 6.0905 3.94424 6.4801C4.53064 7.2433 5.23544 7.90157 6.03064 8.40237C6.48584 8.68957 7.22104 9.20711 7.74264 8.92151C8.54584 8.48151 8.46984 7.12717 9.59304 7.58557C10.1746 7.82237 10.7378 8.1641 11.293 8.4633C12.1514 8.9249 12.1114 9.4033 11.7842 10.3969C12.029 9.6545 11.5394 11.1393 11.7842 10.3969Z" fill="white"/>
</svg>
