<svg width="13" height="16" viewBox="0 0 13 16" fill="none" xmlns="http://www.w3.org/2000/svg">
<path d="M2.16119 0.390013L9.72277 5.21466L8.10202 7.01319L2.16119 0.390013ZM0.594601 0L7.53565 7.67238L0.595177 15.3448C0.241989 15.1715 0 14.7859 0 14.3378C0 14.323 0 14.3083 0.000576164 14.2943V14.2962V1.0492C0 1.03705 0 1.02234 0 1.00764C0 0.559444 0.241989 0.173907 0.58884 0.00319682L0.595177 0.000639365L0.594601 0ZM12.0729 6.77343C12.3115 6.96972 12.4642 7.28173 12.4642 7.63274C12.4642 7.6468 12.4642 7.66023 12.4636 7.6743V7.67238C12.4659 7.69987 12.4676 7.73248 12.4676 7.76509C12.4676 8.095 12.3236 8.38783 12.1012 8.56941L12.0989 8.57132L10.4781 9.58983L8.72312 7.67238L10.4787 5.72423L12.0729 6.77343ZM2.16119 14.9547L8.10259 8.33156L9.72334 10.1301L2.16119 14.9547Z" fill="white"/>
</svg>
