<svg width="28" height="27" viewBox="0 0 28 27" fill="none" xmlns="http://www.w3.org/2000/svg">
<path fill-rule="evenodd" clip-rule="evenodd" d="M19.25 0C17.022 0 15.0718 1.14715 14 2.86235C12.9282 1.14715 10.978 0 8.75 0C6.817 0 5.25 1.51104 5.25 3.375C5.25 5.23896 6.817 6.75 8.75 6.75H2.8C1.81991 6.75 1.32986 6.75 0.955517 6.93393C0.626233 7.09571 0.358517 7.35387 0.190739 7.67139C0 8.03237 0 8.50491 0 9.45V9.95625C0 10.9013 0 11.3739 0.190739 11.7349C0.358517 12.0524 0.626233 12.3105 0.955517 12.4723C1.32986 12.6562 1.81991 12.6562 2.8 12.6562H12.6875V6.75H15.3125V12.6562H25.2C26.1801 12.6562 26.6701 12.6562 27.0445 12.4723C27.3738 12.3105 27.6415 12.0524 27.8093 11.7349C28 11.3739 28 10.9013 28 9.95625V9.45C28 8.50491 28 8.03237 27.8093 7.67139C27.6415 7.35387 27.3738 7.09571 27.0445 6.93393C26.6701 6.75 26.1801 6.75 25.2 6.75H19.25C21.183 6.75 22.75 5.23896 22.75 3.375C22.75 1.51104 21.183 0 19.25 0ZM19.25 4.725H15.4148C15.9331 3.15906 17.4542 2.025 19.25 2.025C20.0232 2.025 20.65 2.62942 20.65 3.375C20.65 4.12058 20.0232 4.725 19.25 4.725ZM12.5852 4.725H8.75C7.9768 4.725 7.35 4.12058 7.35 3.375C7.35 2.62942 7.9768 2.025 8.75 2.025C10.5458 2.025 12.0669 3.15906 12.5852 4.725Z" fill="url(#paint0_linear_411_51)"/>
<path d="M1.75 15.1875H12.6875V27H7.35C5.38982 27 4.40972 27 3.66103 26.6321C3.00247 26.3086 2.46703 25.7923 2.13148 25.1572C1.75 24.4353 1.75 23.4902 1.75 21.6V15.1875Z" fill="url(#paint1_linear_411_51)"/>
<path d="M15.3125 27H20.65C22.6102 27 23.5903 27 24.339 26.6321C24.9975 26.3086 25.533 25.7923 25.8685 25.1572C26.25 24.4353 26.25 23.4902 26.25 21.6V15.1875H15.3125V27Z" fill="url(#paint2_linear_411_51)"/>
<defs>
<linearGradient id="paint0_linear_411_51" x1="28" y1="2.42209" x2="12.5292" y2="16.6437" gradientUnits="userSpaceOnUse">
<stop stop-color="#88CC00"/>
<stop offset="1" stop-color="#00A36D"/>
</linearGradient>
<linearGradient id="paint1_linear_411_51" x1="28" y1="2.42209" x2="12.5292" y2="16.6437" gradientUnits="userSpaceOnUse">
<stop stop-color="#88CC00"/>
<stop offset="1" stop-color="#00A36D"/>
</linearGradient>
<linearGradient id="paint2_linear_411_51" x1="28" y1="2.42209" x2="12.5292" y2="16.6437" gradientUnits="userSpaceOnUse">
<stop stop-color="#88CC00"/>
<stop offset="1" stop-color="#00A36D"/>
</linearGradient>
</defs>
</svg>
