<svg width="28" height="27" viewBox="0 0 28 27" fill="none" xmlns="http://www.w3.org/2000/svg">
<path fill-rule="evenodd" clip-rule="evenodd" d="M21.933 9.18439e-10C23.2398 9.18439e-10 23.8937 -0.000240225 24.3928 0.244995C24.8318 0.460696 25.1888 0.804987 25.4125 1.22827C25.6668 1.70957 25.6666 2.3401 25.6666 3.60022V23.3998C25.6666 24.6599 25.6668 25.2904 25.4125 25.7717C25.1888 26.195 24.8318 26.5393 24.3928 26.755C23.8937 27.0002 23.2398 27 21.933 27H6.06681C4.76002 27 4.10614 27.0002 3.60702 26.755C3.16805 26.5393 2.81101 26.195 2.58732 25.7717C2.333 25.2904 2.33325 24.6599 2.33325 23.3998V3.60022C2.33325 2.3401 2.333 1.70957 2.58732 1.22827C2.81101 0.804987 3.16805 0.460696 3.60702 0.244995C4.10614 -0.000240225 4.76002 9.18322e-10 6.06681 9.18439e-10H21.933ZM22.9915 17.2046C22.5643 16.7927 21.8888 16.7673 21.4306 17.1277L21.3417 17.2046L17.4999 20.9092L15.9915 19.4546L15.9026 19.3777C15.4444 19.0173 14.7689 19.0427 14.3417 19.4546C13.9146 19.8665 13.8882 20.5178 14.262 20.9597L14.3417 21.0454L17.4999 24.0908L22.9915 18.7954L23.0712 18.7097C23.445 18.2678 23.4186 17.6165 22.9915 17.2046ZM8.16659 13.5C7.52225 13.5 6.99992 14.0037 6.99992 14.625C6.99992 15.2463 7.52225 15.75 8.16659 15.75H15.1666L15.2862 15.7445C15.8744 15.6868 16.3333 15.2074 16.3333 14.625C16.3333 14.0426 15.8744 13.5632 15.2862 13.5055L15.1666 13.5H8.16659ZM8.16659 9C7.52225 9 6.99992 9.50368 6.99992 10.125C6.99992 10.7463 7.52225 11.25 8.16659 11.25H19.8333L19.9529 11.2445C20.541 11.1868 20.9999 10.7074 20.9999 10.125C20.9999 9.54261 20.541 9.06324 19.9529 9.00549L19.8333 9H8.16659ZM8.16659 4.5C7.52225 4.5 6.99992 5.00368 6.99992 5.625C6.99992 6.24632 7.52225 6.75 8.16659 6.75H19.8333C20.4776 6.75 20.9999 6.24632 20.9999 5.625C20.9999 5.00368 20.4776 4.5 19.8333 4.5H8.16659Z" fill="#00B849"/>
</svg>
