<svg width="28" height="27" viewBox="0 0 28 27" fill="none" xmlns="http://www.w3.org/2000/svg">
<g clip-path="url(#clip0_110_467)">
<path fill-rule="evenodd" clip-rule="evenodd" d="M26.2002 0C27.8802 4.91612e-10 28.7206 0.000180662 29.3623 0.327148C29.9265 0.614723 30.3853 1.07347 30.6729 1.6377C30.9998 2.27941 31 3.11978 31 4.7998V27.2002C31 28.8802 30.9998 29.7206 30.6729 30.3623C30.3853 30.9265 29.9265 31.3853 29.3623 31.6729C28.7206 31.9998 27.8802 32 26.2002 32H5.7998C4.11978 32 3.27941 31.9998 2.6377 31.6729C2.07347 31.3853 1.61472 30.9265 1.32715 30.3623C1.00018 29.7206 1 28.8802 1 27.2002V18.6396C1 16.9277 1.00001 16.0712 1.19336 15.2656C1.36481 14.5515 1.64753 13.8684 2.03125 13.2422C2.46413 12.5358 3.0697 11.9303 4.28027 10.7197L11.7197 3.28027C12.9303 2.0697 13.5358 1.46413 14.2422 1.03125C14.8684 0.647528 15.5515 0.364813 16.2656 0.193359C17.0712 7.86781e-06 17.9277 0 19.6396 0H26.2002ZM23 18C22.4477 18 22 18.4477 22 19C22 19.5523 22.4477 20 23 20H27C27.5523 20 28 19.5523 28 19C28 18.4477 27.5523 18 27 18H23ZM20.3135 3C19.1383 3 18.3872 2.99382 17.6699 3.16602C17.0581 3.31296 16.4731 3.55506 15.9365 3.88379C15.3077 4.26916 14.7811 4.80486 13.9502 5.63574L9.29297 10.293C8.90246 10.6835 8.90246 11.3165 9.29297 11.707C9.68349 12.0975 10.3165 12.0975 10.707 11.707L15.3643 7.0498C16.2624 6.15169 16.6013 5.82279 16.9814 5.58984C17.3393 5.37056 17.7296 5.20833 18.1377 5.11035C18.5711 5.00636 19.0435 5 20.3135 5H22C22.5523 5 23 4.55227 23 4C23 3.44773 22.5523 3 22 3H20.3135Z" fill="url(#paint0_linear_110_467)"/>
</g>
<defs>
<linearGradient id="paint0_linear_110_467" x1="16" y1="0" x2="16" y2="32" gradientUnits="userSpaceOnUse">
<stop stop-color="#6600FF"/>
<stop offset="1" stop-color="#00AAFF"/>
</linearGradient>
<clipPath id="clip0_110_467">
<rect width="28" height="27" fill="white"/>
</clipPath>
</defs>
</svg>
